<?xml version="1.0" encoding="utf-8"?>
<!-- Generator: Adobe Illustrator 24.0.0, SVG Export Plug-In . SVG Version: 6.00 Build 0)  -->
<svg version="1.1" id="Layer_1" xmlns="http://www.w3.org/2000/svg" xmlns:xlink="http://www.w3.org/1999/xlink" x="0px" y="0px"
	 viewBox="0 0 1366 768" style="enable-background:new 0 0 1366 768;" xml:space="preserve">
<style type="text/css">
	.st0{fill:#DCE4FF;stroke:#485070;stroke-width:0.75;stroke-miterlimit:10;}
	.st1{fill:#BAC5EF;stroke:#485070;stroke-width:0.75;stroke-miterlimit:10;}
	.st2{fill:#545D78;}
	.st3{fill:#333333;}
	.st4{fill:#FEFEFF;}
	.st5{fill:#E6EDFF;}
	.st6{fill:#6EB9FF;}
	.st7{fill:#628AEC;}
	.st8{fill:#61B5FF;}
	.st9{fill:#3FD4C7;}
	.st10{fill:none;stroke:#485070;stroke-width:0.75;stroke-miterlimit:10;}
	.st11{fill:none;stroke:#485070;stroke-width:0.75;stroke-linecap:round;stroke-miterlimit:10;}
	.st12{fill:#485070;}
	.st13{fill:#3FA0D4;}
	.st14{fill:#FFFFFF;}
	.st15{fill:#67C2C2;}
	.st16{fill:#CF9378;}
	.st17{fill:#66A3F2;}
	.st18{fill:none;stroke:#485070;stroke-width:0.3975;stroke-miterlimit:10;}
	.st19{fill:#B3B3B3;}
	.st20{fill:none;stroke:#B3B3B3;stroke-width:0.75;stroke-linecap:round;stroke-miterlimit:10;}
	.st21{fill:none;stroke:#485070;stroke-width:0.3975;stroke-linecap:round;stroke-miterlimit:10;}
	.st22{fill:#C28523;}
	.st23{fill:#DC8B77;}
	.st24{fill:#757E96;}
	.st25{fill:none;stroke:#485070;stroke-width:0.75;stroke-linecap:round;stroke-linejoin:round;stroke-miterlimit:10;}
	.st26{fill:#2C4852;}
	.st27{fill:#4F9EFF;}
	.st28{fill:#E7E7E7;}
	.st29{fill:#E1E1E1;}
	.st30{opacity:0.2;}
	.st31{opacity:0.1;}
	.st32{fill:#375A64;}
	.st33{fill:#4F95FF;}
	.st34{fill:#1A2E35;}
	.st35{fill:#F4BBAC;}
	.st36{fill:#FFB861;}
	.st37{fill:#EF8876;}
</style>
<g>
	<path class="st0" d="M355.12,662.74H144.17c-4.83,0-8.74-3.91-8.74-8.74V535.64c0-4.83,3.91-8.74,8.74-8.74h210.95
		c4.83,0,8.74,3.91,8.74,8.74V654C363.86,658.82,359.94,662.74,355.12,662.74z"/>
	<path class="st1" d="M380.77,662.91L380.77,662.91H118.52l0,0c0,6.02,4.88,10.9,10.9,10.9h240.44
		C375.89,673.81,380.77,668.93,380.77,662.91z"/>
	<path class="st2" d="M351.55,658.47H147.74c-3.77,0-6.83-3.06-6.83-6.83V539.06c0-3.77,3.06-6.83,6.83-6.83h203.81
		c3.77,0,6.83,3.06,6.83,6.83v112.58C358.38,655.41,355.32,658.47,351.55,658.47z"/>
</g>
<path class="st3" d="M252.68,529.45c0,0.94-0.76,1.69-1.69,1.69c-0.94,0-1.69-0.76-1.69-1.69c0-0.94,0.76-1.69,1.69-1.69
	C251.92,527.76,252.68,528.51,252.68,529.45z"/>
<g>
	
		<rect x="122.82" y="444.61" transform="matrix(6.123234e-17 -1 1 6.123234e-17 -281.2803 780.5634)" class="st4" width="253.64" height="172.62"/>
</g>
<g>
	<g>
		<g>
			<polygon class="st5" points="265.49,637.61 242.52,608.99 222.55,634.59 205.23,615.88 207.49,613.78 222.35,629.83 
				242.49,604.02 264.86,631.9 277.84,605.39 305.25,600.54 305.79,603.57 279.92,608.15 			"/>
		</g>
		<g>
			<path class="st6" d="M309.48,602.06c0-2.19-1.77-3.96-3.96-3.96c-2.19,0-3.96,1.77-3.96,3.96c0,2.19,1.77,3.96,3.96,3.96
				C307.71,606.02,309.48,604.24,309.48,602.06z"/>
		</g>
		<g>
			<path class="st7" d="M269.3,634.75c0-2.19-1.77-3.96-3.96-3.96c-2.19,0-3.96,1.77-3.96,3.96c0,2.19,1.77,3.96,3.96,3.96
				C267.53,638.71,269.3,636.94,269.3,634.75z"/>
		</g>
		<g>
			<path class="st8" d="M282.38,606.77c0-2.19-1.77-3.96-3.96-3.96c-2.19,0-3.96,1.77-3.96,3.96s1.77,3.96,3.96,3.96
				C280.61,610.73,282.38,608.95,282.38,606.77z"/>
		</g>
		<g>
			<circle class="st8" cx="242.35" cy="606.77" r="3.96"/>
		</g>
		<g>
			<circle class="st6" cx="222.92" cy="631.74" r="3.96"/>
		</g>
		<g>
			<path class="st9" d="M211.18,615.58c0-2.19-1.77-3.96-3.96-3.96s-3.96,1.77-3.96,3.96c0,2.19,1.77,3.96,3.96,3.96
				S211.18,617.77,211.18,615.58z"/>
		</g>
	</g>
	<polyline class="st10" points="189.8,590.57 189.8,644.56 310.28,644.56 	"/>
</g>
<rect x="199.39" y="504.38" class="st8" width="18.39" height="42.71"/>
<rect x="227.81" y="483.48" class="st6" width="18.39" height="63.61"/>
<g>
	<g>
		<path class="st11" d="M195.96,492.15c22.08-10.05,41.94-24.92,57.8-43.27"/>
		<g>
			<polygon class="st12" points="255.44,446.9 254.13,450.62 253.59,448.98 251.89,448.64 			"/>
		</g>
	</g>
</g>
<rect x="256.24" y="454.64" class="st13" width="18.39" height="92.46"/>
<rect x="284.66" y="495.08" class="st7" width="18.39" height="52.02"/>
<polyline class="st10" points="188.56,456.36 188.56,547.24 311.42,547.24 "/>
<rect x="187.86" y="556.01" class="st5" width="123.37" height="6.21"/>
<rect x="187.86" y="567.4" class="st5" width="123.37" height="6.21"/>
<rect x="187.86" y="578.79" class="st5" width="123.37" height="6.21"/>
<g>
	<path class="st14" d="M121.39,522.71c3.72,4.25,5.25,9.99,6.51,15.36c1.63,6.94,3.27,13.89,4.9,20.83
		c0.38,1.63,0.77,3.27,0.82,4.95c0.08,2.69-0.69,6.1-1.32,8.69c-0.81,3.32-2.8,3.12-5.75,2.82c-4.68-0.46-11.04-1.88-14.2-5.69
		c-1.5-1.81-1.98-4.24-2.42-6.55c-0.59-3.18-1.19-6.36-1.78-9.55c-2.43-13-4.86-26.41-2.11-39.35
		C112.59,515.2,117.57,518.34,121.39,522.71z"/>
	<path class="st15" d="M128.27,563.82c2.07,0.98,4.05,2.24,6.04,3.44c3.16,1.9,6.46,3.24,9.7,5.01c0.92,0.5,1.86,1,2.87,1.18
		c1.73,0.31,3.56-0.35,5.31-0.11c2.33,0.31,4.32,2.39,5.17,5.14c1.42,4.63-1.91,2.91-4.12,2.5c-1.72-0.32-3.45-0.63-5.17-0.95
		c-6.78-1.24-13.28-1.84-20.22-2.2c-3.77-0.2-10.42-0.11-13.24-3.54c-1.37-1.67-2.89-8.96-1.08-10.76c0.34-0.34,0.75-0.49,1.16-0.63
		c3.62-1.2,7.33-1.25,10.83-0.17C126.45,563.02,127.37,563.4,128.27,563.82z"/>
	<g>
		<path class="st12" d="M125.82,617.39H59.67c-2.17,0-3.93-1.76-3.93-3.93l0,0c0-2.17,1.76-3.93,3.93-3.93h66.14
			c2.17,0,3.93,1.76,3.93,3.93l0,0C129.75,615.63,127.99,617.39,125.82,617.39z"/>
		<path class="st12" d="M52.69,565.52v-23.21c0-3.5,2.84-6.33,6.33-6.33h51.73c3.5,0,6.33,2.84,6.33,6.33v23.21
			c0,3.5-2.84,6.33-6.33,6.33H59.03C55.53,571.85,52.69,569.02,52.69,565.52z"/>
		<g>
			<rect x="60.94" y="566.02" class="st12" width="4" height="47.74"/>
		</g>
		<g>
			<rect x="104.09" y="566.02" class="st12" width="4" height="47.74"/>
		</g>
		<g>
			<rect x="88.67" y="615.42" class="st12" width="4" height="57.99"/>
		</g>
		<g>
			<rect x="58.61" y="615.42" class="st12" width="4" height="57.99"/>
		</g>
		<g>
			<rect x="122.72" y="615.42" class="st12" width="4" height="57.99"/>
		</g>
		<g>
			<rect x="102.2" y="615.42" class="st12" width="4" height="57.99"/>
		</g>
	</g>
	<g>
		<path class="st16" d="M166.74,635.77c-2.27,0.48-3.83,0.59-6.51,0.97c-3.9,0.55-7.8,1.01-11.72,1.34
			c1.02,7.05,1.95,13.25,2.19,14.49c1.02,5.4,0.46,18.93,2.87,24.06c2.93,0.36,5.47-0.12,8.21-0.34
			C163.24,662.76,164.44,649.18,166.74,635.77z"/>
		<path class="st17" d="M146.31,647.64c0.01,1.1,0.03,2.24,0.25,3.31c3.1,3.28,7.75,4.96,12.22,5.18c2.62,0.13,5.13-0.28,7.52-1.05
			c0.29-5.28,0.6-10.56,0.94-15.84c0.44-6.87,0.79-13.73,1.65-20.57c0.38-3.04,0.83-12.05,0.1-18.47c-1.75-6.71-6.21-8.54-6.21-8.54
			s-12.46-4.93-22-7.03c-11.71-2.57-23.62-4.48-35.4-7.05c-5.66-1.23-15.13-1.01-18.06,5.19c-3.38,7.16,3.36,16.68,8.79,20.82
			c5.62,4.28,12.55,6.44,19.45,7.95c9.76,2.13,19.78,3.09,29.77,2.86C145.02,614.42,146.29,645.17,146.31,647.64z"/>
		<path class="st12" d="M145.32,614.47c0.02-0.02,0.04-0.03,0.06-0.05c-2.18-2.16-4.23-4.45-6.41-6.61
			c-3.24-3.22-6.39-6.53-9.6-9.77c-6.39-6.43-12.82-12.84-19.07-19.41c-1.64-0.33-3.28-0.68-4.92-1.03
			c-5.66-1.23-15.13-1.01-18.06,5.19c-3.38,7.16,3.36,16.68,8.79,20.82c5.62,4.28,12.55,6.44,19.45,7.95
			c9.76,2.13,19.78,3.09,29.77,2.86C145.33,614.42,145.33,614.45,145.32,614.47z"/>
		<path class="st18" d="M145.41,616.38c0.01-3.13,0.44-6.95,0.45-10.08"/>
		<path class="st10" d="M153.46,588.65c-8.38-2.7-16.02-5.19-28.32-6.85"/>
		<g>
			<path class="st19" d="M178.95,683.38h-25.86c-0.53,0-0.96-0.43-0.96-0.96v-1.94h26.82V683.38z"/>
			<path class="st12" d="M178.57,681.26c0.09-0.14,0.18-0.27,0.25-0.43c0.65-1.43-0.11-3.15-1.36-4.17
				c-1.25-1.02-2.87-1.48-4.45-1.93c-3.37-0.95-6.61-1.85-10.08-2.32c-0.91-0.13-10.68-1.02-10.64-1.46
				c-0.15,2.46-0.3,4.92-0.45,7.39c-0.06,1.02-0.32,2.02-0.01,2.91H178.57z"/>
			<path class="st12" d="M156.74,668.93c1.49-1.23,3.8-1.23,5.4-0.15c1.6,1.08,2.47,3.08,2.38,5c-0.02,0.36-0.08,0.75-0.35,0.98
				c-0.27,0.24-0.66,0.26-1.02,0.26c-1.54,0.02-3.08,0.04-4.62,0.05c-0.96,0.01-2.19,0.23-2.85-0.63
				C154.51,672.93,155.6,670.07,156.74,668.93z"/>
			<path class="st20" d="M166.9,673.13c-0.9-0.09-1.83,0.48-2.15,1.34"/>
			<path class="st20" d="M167.46,675.48c0.47-0.78,1.36-1.29,2.28-1.3"/>
			<path class="st20" d="M170.85,675.84c0.22-0.57,0.81-0.97,1.42-0.97"/>
		</g>
	</g>
	<g>
		<path class="st16" d="M122.3,632.13c-3.43,0.48-6.88,0.88-10.33,1.2c2.61,12.83,3.81,25.9,5.94,38.82
			c2.93-0.01,5.6-0.63,8.72-0.56c0.59-3.91,1.79-27.13,3.62-40.75C127.09,631.61,125.51,631.67,122.3,632.13z"/>
		<path class="st17" d="M112.48,650.39c0.71,2.89,1.54,4.66,4.38,5.79c2.47,0.98,5.17,1.38,7.81,1.1c3.55-0.38,6.45-2.99,6.45-2.99
			s3.68-54.79-0.9-61.81c-5.59-8.59-17.84-10.35-27.38-12.45c-8.36-1.84-16.82-3.33-25.26-4.97c-2.06,7.81-0.57,17,2.41,24.21
			c0.02,0.04,0.03,0.07,0.05,0.11c2.37,5.66,7.8,9.49,13.91,10.01c4.47,0.38,8.96,0.52,13.44,0.42
			C107.34,609.81,109.94,640.04,112.48,650.39z"/>
		<path class="st18" d="M107.47,611.77c0.01-3.13,0.44-6.95,0.45-10.08"/>
		<g>
			<path class="st19" d="M144.03,682.96h-25.86c-0.53,0-0.96-0.43-0.96-0.96v-1.94h26.82V682.96z"/>
			<path class="st12" d="M143.65,680.84c0.09-0.14,0.18-0.27,0.25-0.43c0.65-1.43-0.11-3.15-1.36-4.17
				c-1.25-1.02-2.87-1.48-4.45-1.93c-3.37-0.95-6.61-1.85-10.08-2.32c-0.91-0.13-10.68-1.02-10.64-1.46
				c-0.15,2.46-0.3,4.92-0.45,7.39c-0.06,1.02-0.32,2.02-0.01,2.91H143.65z"/>
			<path class="st12" d="M121.82,668.51c1.49-1.23,3.8-1.23,5.4-0.15c1.6,1.08,2.47,3.08,2.38,5c-0.02,0.36-0.08,0.75-0.35,0.98
				c-0.27,0.24-0.66,0.26-1.02,0.26c-1.54,0.02-3.08,0.04-4.62,0.05c-0.96,0.01-2.19,0.23-2.85-0.63
				C119.58,672.51,120.68,669.65,121.82,668.51z"/>
			<path class="st20" d="M131.98,672.71c-0.9-0.09-1.83,0.48-2.15,1.34"/>
			<path class="st20" d="M132.54,675.06c0.47-0.78,1.36-1.29,2.28-1.3"/>
			<path class="st20" d="M135.93,675.42c0.22-0.57,0.81-0.97,1.42-0.97"/>
		</g>
	</g>
	<g>
		<path class="st14" d="M76.46,585.65c0.24,1.26,0.47,2.52,0.71,3.78c4.35-2.29,9.56-1.81,14.47-1.82c10.76-0.02,21.5-2.7,31-7.74
			c-0.53-2.68-1.14-5.25-1.16-7.94c-0.01-2.74-1.15-5.39-1.15-8.14c-0.18-3.71-0.04-7.43,0.15-11.13
			c0.35-7.02,0.82-14.12-0.49-21.03c-0.85-4.48-2.53-8.9-5.25-12.58c-1.25-1.69-2.98-3.89-4.9-4.86c-2.03-1.03-5.08-0.69-7.37-0.89
			c-1.67-0.15-3.37-0.3-5.02-0.01c-2.04,0.35-3.92,1.34-5.69,2.4c-9.47,5.68-10.62,14.84-13.47,24.7
			c-1.42,4.93-3.66,9.59-5.08,14.51c-0.8,2.75-1.13,5.62-1.06,8.48c0.06,2.59,1.06,4.89,1.53,7.44
			C74.61,575.75,75.53,580.7,76.46,585.65z"/>
		<path class="st21" d="M103.25,522.29c1.75,1.49,4.09,2.27,6.38,2.14c0.8-0.05,1.62-0.22,2.25-0.71c0.63-0.49,1.01-1.37,0.72-2.11"
			/>
		<path class="st21" d="M101.07,542.95c2.03,6.74,7.39,12.38,14.02,14.75"/>
		<path class="st21" d="M107.21,548.17c1.72,2.06,4.25,3.42,6.91,3.72"/>
		<path class="st21" d="M95.12,547.76c2.43,7.69,6.8,14.75,12.58,20.36"/>
		<path class="st18" d="M116.91,521.92c2.72,4.68,2.76,7.34,3.37,11.47c0.68,4.62,1,9.29,0.94,13.96c-0.1,7.83-1.83,15-0.08,22.77"
			/>
	</g>
	<g id="XMLID_7_">
		<g id="XMLID_8_">
			<path class="st16" d="M111.22,511.82c0.42-1.31,0.98-2.56,1.69-3.71c-2.14-0.07-4.14-0.76-5.88-2c-0.86-0.61-1.63-1.33-2.37-2.08
				c-0.26-0.27-0.66-0.95-1.08-1.44c-0.43,4.71-2.19,9.14-6.2,11.83c1.36,2.48,3.63,4.34,6.07,5.75c2.09,1.21,7.31,3.56,7.43-0.68
				c0.04-1.39-0.51-2.67-0.39-4.08C110.58,514.2,110.85,512.98,111.22,511.82z"/>
		</g>
	</g>
	<g id="XMLID_2_">
		<g id="XMLID_3_">
			<path class="st22" d="M110.47,515.79c0-0.13,0-0.25,0.01-0.38c0.1-1.22,0.37-2.43,0.74-3.59c0.42-1.31,0.98-2.56,1.69-3.71
				c-2.14-0.07-4.14-0.76-5.88-2c-0.86-0.61-1.63-1.33-2.37-2.08c-0.26-0.27-0.66-0.95-1.08-1.44c-0.06,0.69-0.16,1.37-0.28,2.05
				C103.59,509.04,106.6,513.79,110.47,515.79z"/>
		</g>
	</g>
	<path class="st14" d="M79.67,522.71c-3.72,4.25-5.25,9.99-6.51,15.36c-1.63,6.94-3.27,13.89-4.9,20.83
		c-0.57,2.41-1.48,5.7-0.94,8.15c0.58,2.67,2.5,5.14,4.83,6.54c2.47,1.48,6.23,2.16,8.95,0.9c2.66-1.24,5.7-2.49,7.63-4.82
		c1.5-1.81,1.98-4.24,2.42-6.55c0.59-3.18,1.19-6.36,1.78-9.55c2.43-13,4.86-26.41,2.11-39.35C88.47,515.2,83.5,518.34,79.67,522.71
		z"/>
	<path class="st18" d="M95.15,535.62c-5.41,1.41-4.92,8.33-5.41,12.6c-0.72,6.3-1.93,12.55-3.59,18.68"/>
	<path class="st18" d="M91.09,539.17c0.6-1.88,1.76-3.58,3.28-4.82"/>
	<path class="st16" d="M87.9,565.08c2.9,0.63,5.75,1.56,8.59,2.42c4.52,1.37,9.1,2.16,13.69,3.38c1.3,0.35,2.63,0.69,3.98,0.7
		c2.32,0.02,4.56-0.92,6.88-0.97c3.1-0.07,6.14,1.66,7.82,4.24c2.84,4.34-1.87,3.18-4.83,3.13c-2.31-0.03-4.62-0.07-6.93-0.1
		c-9.08-0.13-17.67,0.33-26.78,1.09c-4.95,0.42-13.58,1.58-17.98-1.36c-2.14-1.43-5.67-8.37-3.7-10.45
		c0.37-0.39,0.88-0.61,1.37-0.81c4.46-1.77,9.28-2.42,14.06-1.92C85.37,564.59,86.64,564.81,87.9,565.08z"/>
	<path class="st23" d="M154.18,568.5c-0.06,0-0.11,0-0.17,0"/>
	<g>
		<path class="st12" d="M164.01,590.57h-60c-0.67,0-1.21-0.54-1.21-1.21v-0.41c0-0.67,0.54-1.21,1.21-1.21h60
			c0.67,0,1.21,0.54,1.21,1.21v0.41C165.22,590.03,164.68,590.57,164.01,590.57z"/>
		<path class="st24" d="M171.53,590.57h-53.35l4.64-30.65c0.16-1.06,1.06-1.86,2.11-1.86h49.12c1.27,0,2.22,1.14,2.03,2.43
			L171.53,590.57z"/>
		<circle class="st14" cx="149.27" cy="573.68" r="3.54"/>
	</g>
	<g id="XMLID_14_">
		<g id="XMLID_15_">
			<path class="st16" d="M121.79,492.31c-0.61-2.38-3.16-0.31-5.49-1.1c-2.02-0.7-3.56-1.32-5.72-0.94
				c-1.92,0.33-3.78,1.29-4.98,2.85c-0.33,0.42-0.62,0.85-0.89,1.27c-0.71,1.51-1.36,3.06-1.79,4.68c0,0.04-0.01,0.07-0.01,0.11
				c0.11,3.12,1.16,5.98,2.88,8.35c1.67,2.31,4.39,3.76,7.23,3.42c1.51-0.19,2.93-0.84,4.16-2.13c1.22-1.29,2.06-2.9,2.75-4.53
				C120.98,501.8,122.46,494.93,121.79,492.31z"/>
		</g>
	</g>
	<path class="st12" d="M110.53,494.65c0.02-0.1,0.04-0.22,0.07-0.36c0.21-0.99,0.42-1.99,0.63-2.98c2.51,1.88,5.23,4.55,8.48,5.63
		c2.46,0.82,5.23-0.09,6.79-2.14c0.28-0.37,0.49-0.77,0.7-1.18c0.09-0.19,0.34-0.98,0.43-1.05c-0.87,0.6-2.12,0.17-2.82-0.62
		c-0.7-0.79-1.02-1.83-1.42-2.81c-0.94-2.29-2.49-4.36-4.53-5.77c-2.04-1.41-4.58-2.13-7.04-1.83c-1.55,0.18-3.05,0.78-4.29,1.72
		c-0.61,0.46-1.19,1.01-1.64,1.64c-0.21,0.29-1.09,1.88-0.73,2.19c-0.55-0.47-1.41-0.42-2.04-0.06c-0.63,0.37-1.06,0.99-1.42,1.62
		c-1.53,2.68-2.08,5.89-1.61,8.94c0.21,1.36,0.7,2.55,1.2,3.81c0.41,1.03,1.08,2.19,2.33,2.21c1.73,0.04,1.54-2.87,2.03-4.37
		c0.19-0.59,0.15-1.33,0.85-1.5c0.71-0.18,1.86,1.17,2.41,0.07c0.2-0.4,0.1-0.87,0.01-1.31s-0.16-0.92,0.08-1.3
		c0.02-0.04,0.92,0,1.05-0.04C110.4,495.05,110.48,494.89,110.53,494.65z"/>
	<path class="st11" d="M106.26,482.6c-1.35,1.81-1.63,4.36-0.7,6.42"/>
	<path class="st11" d="M101.48,486.48c1.1-0.69,2.69-0.43,3.53,0.56"/>
	<circle class="st12" cx="115.25" cy="500.42" r="0.78"/>
	<path class="st11" d="M114.65,498.32c0.51-0.16,1.07-0.14,1.57,0.04"/>
	<path class="st12" d="M120.95,501.22c0,0.43-0.35,0.78-0.78,0.78c-0.43,0-0.78-0.35-0.78-0.78c0-0.43,0.35-0.78,0.78-0.78
		C120.6,500.44,120.95,500.79,120.95,501.22z"/>
	<path class="st11" d="M119.57,499.12c0.51-0.16,1.07-0.14,1.57,0.04"/>
	<path class="st11" d="M118.16,501.59c-0.09,0.68,0.1,1.4,0.51,1.95c0.11,0.14,0.24,0.3,0.23,0.47c-0.01,0.19-0.19,0.34-0.37,0.39
		c-0.19,0.05-0.38,0.01-0.57-0.03"/>
	<path class="st11" d="M114.65,505.86c0.72,0.64,1.75,0.9,2.69,0.69"/>
	<g>
		<path class="st16" d="M102.7,499.01c0,1.58,1.28,2.86,2.86,2.86c1.58,0,2.86-1.28,2.86-2.86c0-1.58-1.28-2.86-2.86-2.86
			C103.98,496.16,102.7,497.43,102.7,499.01z"/>
		<path class="st25" d="M105,497.79c0.41-0.05,0.85,0.12,1.11,0.44c0.26,0.32,0.34,0.79,0.2,1.18c-0.25-0.23-0.63-0.28-0.94-0.13
			c-0.3,0.15-0.49,0.49-0.47,0.82"/>
	</g>
</g>
<g>
	<rect x="1034" y="468" class="st14" width="234" height="166"/>
	<g>
		<g>
			<path class="st26" d="M1268,634.19c0-1.24-0.06-65.67-0.16-165.68l0.16,0.15c-66.54,0.01-233.81,0.33-233.81,0.33h-1.01l0.2-0.18
				c-0.01,59.84-0.01,116.44-0.02,166.02l-0.18-0.16c139.08,0.1,232.74,0.16,234.31,0.16c-1.57,0-95.23,0.07-234.31,0.16l-0.18,0
				v-0.81c0,0,0.98-105.96,1-165.68V468h0.17h0.02c86.73,0.35,233.81,1,233.81,1h0v-0.48C1268.06,568.53,1268,632.95,1268,634.19z"
				/>
		</g>
	</g>
</g>
<g>
	<g>
		<g>
			<path class="st26" d="M1098.46,620.28c-0.11,0-0.2-18.01-0.2-40.22c0-22.22,0.09-40.22,0.2-40.22c0.11,0,0.2,18.01,0.2,40.22
				C1098.66,602.27,1098.57,620.28,1098.46,620.28z"/>
		</g>
	</g>
	<g>
		<g>
			<path class="st26" d="M1199.94,620.28c-0.11,0-0.2-18.01-0.2-40.22c0-22.22,0.09-40.22,0.2-40.22s0.2,18.01,0.2,40.22
				C1200.14,602.27,1200.05,620.28,1199.94,620.28z"/>
		</g>
	</g>
	<g>
		<g>
			<path class="st26" d="M1133.11,620.28c-0.11,0-0.2-23.02-0.2-51.42c0-28.4,0.09-51.42,0.2-51.42s0.2,23.02,0.2,51.42
				C1133.31,597.26,1133.22,620.28,1133.11,620.28z"/>
		</g>
	</g>
	<g>
		<g>
			<path class="st26" d="M1062.89,620.28c-0.11,0-0.2-23.02-0.2-51.42c0-28.4,0.09-51.42,0.2-51.42s0.2,23.02,0.2,51.42
				C1063.08,597.26,1062.99,620.28,1062.89,620.28z"/>
		</g>
	</g>
	<g>
		<g>
			<path class="st26" d="M1239.77,620.28c-0.11,0-0.2-23.02-0.2-51.42c0-28.4,0.09-51.42,0.2-51.42s0.2,23.02,0.2,51.42
				C1239.97,597.26,1239.88,620.28,1239.77,620.28z"/>
		</g>
	</g>
	<g>
		<g>
			<path class="st26" d="M1163.49,620.28c-0.11,0-0.2-26.58-0.2-59.37c0-32.8,0.09-59.37,0.2-59.37s0.2,26.58,0.2,59.37
				C1163.68,593.7,1163.6,620.28,1163.49,620.28z"/>
		</g>
	</g>
	<g>
		<path class="st26" d="M1099.29,539.83c0,0.42-0.37,0.75-0.83,0.75c-0.46,0-0.83-0.34-0.83-0.75c0-0.42,0.37-0.75,0.83-0.75
			C1098.92,539.08,1099.29,539.42,1099.29,539.83z"/>
	</g>
	<g>
		<circle class="st26" cx="1133" cy="517" r="1"/>
	</g>
	<g>
		<path class="st26" d="M1133.11,520.08c-1.6,0-2.91-1.19-2.91-2.65c0-1.46,1.3-2.65,2.91-2.65c1.6,0,2.91,1.19,2.91,2.65
			C1136.01,518.9,1134.71,520.08,1133.11,520.08z M1133.11,514.96c-1.5,0-2.72,1.11-2.72,2.47c0,1.36,1.22,2.47,2.72,2.47
			c1.5,0,2.72-1.11,2.72-2.47C1135.82,516.07,1134.61,514.96,1133.11,514.96z"/>
	</g>
	<g>
		<circle class="st26" cx="1163" cy="502" r="1"/>
	</g>
	<g>
		<circle class="st26" cx="1200" cy="541" r="1"/>
	</g>
	<g>
		<circle class="st26" cx="1240" cy="517" r="1"/>
	</g>
	<g>
		<path class="st26" d="M1063.71,518.19c0,0.42-0.37,0.75-0.83,0.75s-0.83-0.34-0.83-0.75c0-0.42,0.37-0.75,0.83-0.75
			S1063.71,517.78,1063.71,518.19z"/>
	</g>
	<g>
		<g>
			<path class="st27" d="M1247.62,553.84c0,0.02-0.22,0.08-0.65,0.19c-0.44,0.09-1.07,0.29-1.88,0.59c-1.6,0.62-3.8,1.92-6.04,4.17
				c-2.26,2.23-4.52,5.33-7.37,8.82c-1.44,1.73-3.03,3.57-5,5.29c-0.97,0.87-2.08,1.67-3.25,2.45c-1.21,0.73-2.5,1.42-3.91,1.95
				c-2.82,1.06-6.06,1.57-9.38,1.44c-1.65-0.07-3.35-0.18-5.04-0.58c-1.7-0.33-3.39-0.98-4.88-1.96c-1.49-0.97-2.77-2.23-3.81-3.62
				c-1.05-1.39-2-2.85-2.91-4.35c-1.82-3-3.71-6.02-5.86-9.05c-2.11-3.07-4.07-6.31-6.25-9.49c-2.19-3.17-4.59-6.34-7.66-8.99
				c-1.54-1.31-3.24-2.49-5.14-3.35c-1.89-0.87-3.96-1.45-6.11-1.63c-2.14-0.19-4.36-0.07-6.5,0.34c-2.15,0.41-4.23,1.14-6.17,2.13
				c-3.89,2.01-7.03,4.99-9.65,8.19c-2.64,3.21-4.79,6.68-6.89,10.09c-2.07,3.44-4.27,6.78-6.68,9.88
				c-2.43,3.09-5.06,5.98-8.09,8.39c-0.77,0.59-1.52,1.19-2.35,1.7c-0.79,0.56-1.65,1.01-2.48,1.48c-1.72,0.86-3.51,1.62-5.39,2.02
				c-0.92,0.26-1.88,0.36-2.82,0.48c-0.47,0.08-0.94,0.05-1.41,0.08c-0.47,0-0.94,0.03-1.41,0.02c-1.87-0.08-3.68-0.42-5.4-0.91
				c-3.43-1.02-6.4-2.66-9.12-4.34c-2.71-1.7-5.19-3.46-7.61-5.04c-2.42-1.6-4.78-3-7.22-3.98c-2.43-1-4.87-1.63-7.19-1.86
				c-2.32-0.22-4.53-0.1-6.46,0.38c-0.5,0.08-0.94,0.28-1.4,0.41c-0.45,0.16-0.91,0.25-1.31,0.47c-0.8,0.4-1.63,0.69-2.28,1.15
				c-1.41,0.79-2.48,1.73-3.43,2.5c-0.43,0.43-0.83,0.83-1.19,1.19c-0.36,0.37-0.71,0.68-0.96,1.01c-0.53,0.63-0.93,1.12-1.21,1.45
				c-0.28,0.32-0.43,0.49-0.45,0.48c-0.02-0.01,0.1-0.19,0.35-0.54c0.26-0.35,0.63-0.86,1.12-1.52c0.23-0.35,0.57-0.68,0.92-1.06
				c0.36-0.38,0.75-0.79,1.17-1.24c0.95-0.81,2-1.79,3.43-2.63c0.66-0.49,1.5-0.8,2.32-1.23c0.4-0.23,0.88-0.33,1.34-0.51
				c0.47-0.14,0.93-0.36,1.44-0.45c1.99-0.53,4.28-0.68,6.68-0.48c2.41,0.21,4.93,0.83,7.43,1.83c2.51,0.98,4.96,2.41,7.4,3.99
				c2.45,1.58,4.94,3.32,7.63,4.97c2.69,1.64,5.61,3.22,8.9,4.17c1.65,0.46,3.37,0.78,5.14,0.84c0.44,0.01,0.89-0.02,1.33-0.02
				c0.44-0.02,0.9,0.01,1.34-0.08c0.89-0.12,1.79-0.21,2.66-0.46c3.55-0.82,6.84-2.7,9.76-5.03c2.93-2.35,5.5-5.19,7.88-8.24
				c2.37-3.07,4.52-6.35,6.59-9.8c2.1-3.42,4.27-6.93,6.96-10.22c2.67-3.28,5.92-6.37,10.01-8.49c2.04-1.04,4.24-1.81,6.51-2.25
				c2.27-0.43,4.58-0.55,6.86-0.35c2.29,0.2,4.51,0.81,6.52,1.75c2.02,0.93,3.81,2.17,5.41,3.54c3.19,2.77,5.62,6.01,7.82,9.22
				c2.2,3.22,4.14,6.47,6.22,9.51c2.13,3.03,4.06,6.13,5.85,9.11c1.82,2.95,3.6,5.91,6.38,7.7c1.36,0.9,2.92,1.52,4.53,1.84
				c1.6,0.38,3.25,0.5,4.85,0.58c3.21,0.15,6.3-0.32,9.02-1.31c1.36-0.5,2.61-1.15,3.78-1.84c1.14-0.74,2.22-1.5,3.18-2.35
				c1.95-1.65,3.54-3.46,5-5.16c2.87-3.43,5.21-6.53,7.56-8.74c2.32-2.24,4.62-3.52,6.29-4.09c0.84-0.27,1.49-0.44,1.94-0.49
				C1247.38,553.85,1247.61,553.82,1247.62,553.84z"/>
		</g>
	</g>
	<g>
		<rect x="1062" y="487" class="st26" width="41" height="2"/>
	</g>
	<g>
		<rect x="1062" y="492" class="st26" width="20" height="2"/>
	</g>
	<g>
		<path class="st26" d="M1263.49,455h-224.99c-2.49,0-4.51,2.02-4.51,4.51V469h234v-9.49C1268,457.02,1265.98,455,1263.49,455z"/>
	</g>
	<g>
		<path class="st14" d="M1046.02,462.02c0,0.8-0.71,1.45-1.6,1.45s-1.6-0.65-1.6-1.45c0-0.8,0.71-1.45,1.6-1.45
			S1046.02,461.22,1046.02,462.02z"/>
	</g>
	<g>
		<path class="st14" d="M1053,462.02c0,0.8-0.71,1.45-1.6,1.45s-1.6-0.65-1.6-1.45c0-0.8,0.71-1.45,1.6-1.45
			S1053,461.22,1053,462.02z"/>
	</g>
	<g>
		<path class="st14" d="M1059.97,462.02c0,0.8-0.71,1.45-1.6,1.45s-1.6-0.65-1.6-1.45c0-0.8,0.71-1.45,1.6-1.45
			S1059.97,461.22,1059.97,462.02z"/>
	</g>
</g>
<g>
	<path class="st28" d="M1037.54,591h-91.09c-1.36,0-2.46-1.02-2.46-2.28v-20.44c0-1.26,1.1-2.28,2.46-2.28h91.09
		c1.36,0,2.46,1.02,2.46,2.28v20.44C1040,589.98,1038.9,591,1037.54,591z"/>
</g>
<g>
	<path class="st14" d="M964.24,582.35c-2.02,2.3-5.7,2.66-8.22,0.82c-2.52-1.84-2.93-5.19-0.9-7.49c2.02-2.3,5.7-2.66,8.22-0.82
		S966.26,580.06,964.24,582.35z"/>
</g>
<g>
	<g>
		<path class="st26" d="M962.96,577.51c0.08,0.07-1.34,1.44-3.17,3.06c-0.27,0.23-0.52,0.46-0.77,0.68l-0.14,0.12l-0.13-0.12
			c-1.42-1.32-2.43-2.34-2.37-2.4c0.07-0.06,1.19,0.86,2.64,2.16l-0.27,0c0.25-0.22,0.5-0.45,0.77-0.69
			C961.34,578.69,962.89,577.44,962.96,577.51z"/>
	</g>
</g>
<g>
	<g>
		<path class="st26" d="M1030.64,576.47c0,0.1-12.21,0.18-27.26,0.18c-15.06,0-27.26-0.08-27.26-0.18s12.2-0.18,27.26-0.18
			C1018.44,576.29,1030.64,576.37,1030.64,576.47z"/>
	</g>
</g>
<g>
	<g>
		<path class="st26" d="M1008.28,581.32c0,0.1-7.06,0.18-15.76,0.18c-8.71,0-15.76-0.08-15.76-0.18s7.05-0.18,15.76-0.18
			C1001.23,581.14,1008.28,581.22,1008.28,581.32z"/>
	</g>
</g>
<g>
	<path class="st29" d="M1064.38,543h-89.77c-1.44,0-2.62-1.17-2.62-2.62v-30.77c0-1.44,1.17-2.62,2.62-2.62h89.77
		c1.44,0,2.62,1.17,2.62,2.62v30.77C1067,541.83,1065.83,543,1064.38,543z"/>
</g>
<g>
	<g>
		<path class="st27" d="M992.01,518.26c0,2.22-1.98,4.02-4.41,4.02c-2.44,0-4.41-1.8-4.41-4.02c0-2.22,1.98-4.02,4.41-4.02
			C990.03,514.24,992.01,516.04,992.01,518.26z"/>
	</g>
	<g>
		<rect x="996" y="515" class="st27" width="31" height="2"/>
	</g>
	<g>
		<rect x="996" y="519" class="st14" width="60" height="2"/>
	</g>
</g>
<g>
	<g>
		<path class="st27" d="M992.01,530.61c0,2.22-1.98,4.02-4.41,4.02c-2.44,0-4.41-1.8-4.41-4.02c0-2.22,1.98-4.02,4.41-4.02
			C990.03,526.6,992.01,528.4,992.01,530.61z"/>
	</g>
	<g>
		<rect x="996" y="528" class="st27" width="16" height="2"/>
	</g>
	<g>
		<rect x="996" y="531" class="st14" width="60" height="2"/>
	</g>
</g>
<g>
	<path class="st29" d="M1120.99,680h-115.98c-1.66,0-3.01-1.22-3.01-2.73v-41.55c0-1.51,1.35-2.73,3.01-2.73h115.98
		c1.66,0,3.01,1.22,3.01,2.73v41.55C1124,678.78,1122.65,680,1120.99,680z"/>
</g>
<g>
	<g>
		<g>
			<path class="st27" d="M1024,655.34l-0.07-9.59c-3.1,0.02-6.26,1.13-8.69,3.08c-2.86,2.3-4.68,5.75-4.19,9.93
				c0.05,0.46,0.13,0.92,0.25,1.39c0,0.01,0,0.02,0.01,0.03l0,0l12.69-2.6V655.34z"/>
		</g>
		<g>
			<g>
				<path class="st27" d="M1036.89,652.39c-1.77-3.37-5.27-6.07-10.24-6.53c-0.13-0.01-0.27-0.02-0.4-0.03
					c-0.09-0.01-0.17-0.01-0.26-0.02c-0.25-0.01-0.51-0.02-0.76-0.02c-0.01,0-0.02,0-0.03,0.21h0c-0.01-0.21-0.02-0.21-0.2-0.21v0v0
					l1,9.59v2.25l11.94,2.52l0.02,0v0c0.19-0.81,0.29-1.64,0.28-2.49C1038.23,655.87,1037.77,654.05,1036.89,652.39z"/>
			</g>
			<g class="st30">
				<path d="M1036.89,652.39c-1.77-3.37-5.27-6.07-10.24-6.53c-0.13-0.01-0.27-0.02-0.4-0.03c-0.09-0.01-0.17-0.01-0.26-0.02
					c-0.25-0.01-0.51-0.02-0.76-0.02c-0.01,0-0.02,0-0.03,0.21h0c-0.01-0.21-0.02-0.21-0.2-0.21v0v0l1,9.59v2.25l11.94,2.52l0.02,0
					v0c0.19-0.81,0.29-1.64,0.28-2.49C1038.23,655.87,1037.77,654.05,1036.89,652.39z"/>
			</g>
		</g>
	</g>
	<g>
		<g>
			<path class="st27" d="M1024.5,658.79l-12.69,2.6c1.3,5.29,6.49,9.24,12.69,9.24c6.23,0,11.44-3.99,12.71-9.32l-12.69-2.52"/>
		</g>
		<g class="st31">
			<path d="M1024.5,658.79l-12.69,2.6c1.3,5.29,6.49,9.24,12.69,9.24c6.23,0,11.44-3.99,12.71-9.32l-12.69-2.52"/>
		</g>
	</g>
</g>
<g>
	<rect x="1047" y="648" class="st14" width="64" height="3"/>
</g>
<g>
	<rect x="1047" y="655" class="st14" width="64" height="3"/>
</g>
<g>
	<rect x="1047" y="663" class="st14" width="35" height="3"/>
</g>
<g>
	<path class="st28" d="M1298.06,545h-75.13c-2.73,0-4.94-2.21-4.94-4.94v-54.13c0-2.73,2.21-4.94,4.94-4.94h75.13
		c2.73,0,4.94,2.21,4.94,4.94v54.13C1303,542.79,1300.79,545,1298.06,545z"/>
</g>
<g>
	<g>
		<rect x="1232" y="507" class="st27" width="5" height="31"/>
	</g>
	<g>
		<rect x="1253" y="504" class="st27" width="5" height="34"/>
	</g>
	<g>
		<rect x="1274" y="500" class="st27" width="5" height="38"/>
	</g>
	<g>
		<g>
			<rect x="1264" y="523" class="st27" width="5" height="15"/>
		</g>
		<g class="st30">
			<rect x="1264" y="523" width="5" height="15"/>
		</g>
	</g>
	<g>
		<g>
			<rect x="1238" y="503" class="st27" width="5" height="35"/>
		</g>
		<g class="st31">
			<rect x="1238" y="503" width="5" height="35"/>
		</g>
	</g>
	<g>
		<g>
			<rect x="1259" y="496" class="st27" width="5" height="42"/>
		</g>
		<g class="st31">
			<rect x="1259" y="496" width="5" height="42"/>
		</g>
	</g>
	<g>
		<g>
			<rect x="1286" y="496" class="st27" width="5" height="42"/>
		</g>
		<g class="st30">
			<rect x="1286" y="496" width="5" height="42"/>
		</g>
	</g>
	<g>
		<g>
			<rect x="1280" y="488" class="st27" width="5" height="50"/>
		</g>
		<g class="st31">
			<rect x="1280" y="488" width="5" height="50"/>
		</g>
	</g>
	<g>
		<g>
			<rect x="1243" y="516" class="st27" width="5" height="22"/>
		</g>
		<g class="st30">
			<rect x="1243" y="516" width="5" height="22"/>
		</g>
	</g>
	<g>
		<g>
			<path class="st26" d="M1297.49,539.65c0,0.1-16.26,0.18-36.32,0.18c-20.06,0-36.32-0.08-36.32-0.18c0-0.1,16.26-0.18,36.32-0.18
				C1281.23,539.47,1297.49,539.55,1297.49,539.65z"/>
		</g>
	</g>
	<g>
		<rect x="1223" y="532" class="st26" width="3" height="1"/>
	</g>
	<g>
		<rect x="1223" y="521" class="st26" width="3" height="1"/>
	</g>
	<g>
		<rect x="1223" y="500" class="st26" width="3" height="1"/>
	</g>
	<g>
		<rect x="1223" y="489" class="st26" width="3" height="1"/>
	</g>
	<g>
		<rect x="1223" y="510" class="st26" width="3" height="1"/>
	</g>
</g>
<g>
	<path class="st27" d="M1204.53,498h-82.07c-1.36,0-2.47-1-2.47-2.22v-17.55c0-1.23,1.1-2.22,2.47-2.22h82.07
		c1.36,0,2.47,1,2.47,2.22v17.55C1207,497,1205.9,498,1204.53,498z"/>
</g>
<g>
	<path class="st14" d="M1138.65,490.42c-1.83,2.07-5.15,2.41-7.43,0.74c-2.28-1.66-2.64-4.69-0.82-6.76
		c1.83-2.07,5.15-2.41,7.43-0.74C1140.11,485.32,1140.48,488.35,1138.65,490.42z"/>
	<path class="st26" d="M1134.52,492.24c-1.2,0-2.36-0.37-3.31-1.06c-1.11-0.81-1.8-1.96-1.95-3.24c-0.15-1.28,0.25-2.54,1.13-3.55
		c0.89-1.01,2.15-1.64,3.56-1.78c0.2-0.02,0.39-0.03,0.59-0.03c1.2,0,2.36,0.37,3.31,1.06c1.11,0.81,1.8,1.96,1.95,3.24
		c0.15,1.28-0.25,2.54-1.13,3.55l0,0c-0.89,1.01-2.15,1.64-3.56,1.78C1134.91,492.23,1134.71,492.24,1134.52,492.24z
		 M1134.54,482.61c-0.19,0-0.39,0.01-0.59,0.03c-1.4,0.14-2.65,0.77-3.53,1.77c-0.88,1-1.28,2.25-1.13,3.52
		c0.15,1.27,0.84,2.42,1.94,3.22c1.1,0.8,2.47,1.17,3.87,1.03c1.4-0.14,2.65-0.77,3.53-1.77l0,0c0.88-1,1.28-2.25,1.13-3.52
		c-0.15-1.27-0.84-2.42-1.94-3.22C1136.88,482.98,1135.73,482.61,1134.54,482.61z"/>
</g>
<g>
	<g>
		<path class="st27" d="M1137.5,485.86c0.08,0.07-1.2,1.32-2.85,2.78c-0.24,0.21-0.47,0.41-0.7,0.61l-0.14,0.12l-0.13-0.12
			c-1.28-1.2-2.19-2.12-2.13-2.18c0.07-0.06,1.08,0.77,2.4,1.94l-0.27,0c0.22-0.2,0.45-0.41,0.69-0.62
			C1136.02,486.91,1137.42,485.79,1137.5,485.86z"/>
	</g>
</g>
<g>
	<g>
		<path class="st14" d="M1198.63,485.11c0,0.1-11.02,0.18-24.62,0.18c-13.6,0-24.62-0.08-24.62-0.18s11.02-0.18,24.62-0.18
			C1187.6,484.92,1198.63,485.01,1198.63,485.11z"/>
	</g>
</g>
<g>
	<g>
		<path class="st14" d="M1178.43,489.48c0,0.1-6.37,0.18-14.23,0.18c-7.86,0-14.23-0.08-14.23-0.18s6.37-0.18,14.23-0.18
			C1172.06,489.3,1178.43,489.38,1178.43,489.48z"/>
	</g>
</g>
<g>
	<g>
		<g>
			<path class="st27" d="M1311.85,696.46l-4.93-4.5l9.21-8.45l7.28,6.52l-0.53,0.56c-2.4,2.46-12.39,12.36-14.6,13.45
				C1305.8,705.25,1311.85,696.46,1311.85,696.46z"/>
		</g>
		<g>
			<path class="st26" d="M1320,693.02c-0.64-0.82-0.94-1.86-0.8-2.87c0.13-1,0.64-1.93,1.48-2.59l2.6,2.34L1320,693.02z"/>
		</g>
	</g>
	<g>
		<path class="st26" d="M1309.03,700.88c0,0-1.94,3.24-1.15,3.34c0.8,0.1,11.3-9.56,15.53-14.19l-0.22-0.17l-12.15,11.36
			C1311.04,701.21,1309.59,700.41,1309.03,700.88z"/>
	</g>
	<g>
		<g>
			<path class="st32" d="M1323.33,689.71c0,0-0.04,0.06-0.14,0.16c-0.13,0.13-0.27,0.28-0.43,0.44c-0.43,0.44-0.97,0.97-1.6,1.6
				c-1.36,1.34-3.27,3.18-5.42,5.17c-2.16,1.98-4.15,3.74-5.61,5c-0.69,0.58-1.27,1.07-1.74,1.47c-0.18,0.15-0.34,0.28-0.48,0.39
				c-0.11,0.09-0.17,0.13-0.18,0.13c0,0,0.05-0.06,0.15-0.15c0.14-0.12,0.29-0.26,0.46-0.41c0.46-0.41,1.03-0.91,1.71-1.51
				c1.44-1.27,3.42-3.04,5.58-5.02c2.15-1.98,4.07-3.81,5.45-5.13c0.65-0.62,1.19-1.14,1.64-1.57c0.17-0.16,0.31-0.3,0.45-0.42
				C1323.27,689.76,1323.32,689.71,1323.33,689.71z"/>
		</g>
	</g>
	<g>
		<g>
			<path class="st32" d="M1311.19,701.34c-0.03,0.04-0.46-0.3-1.12-0.44c-0.66-0.15-1.21-0.02-1.22-0.06
				c-0.02-0.03,0.55-0.24,1.25-0.08C1310.81,700.91,1311.22,701.32,1311.19,701.34z"/>
		</g>
	</g>
	<g>
		<g>
			<path class="st32" d="M1312.51,697.59c-0.01,0.04-0.3,0.01-0.65-0.05c-0.35-0.07-0.62-0.16-0.61-0.2
				c0.01-0.04,0.3-0.01,0.65,0.05C1312.25,697.46,1312.52,697.55,1312.51,697.59z"/>
		</g>
	</g>
	<g>
		<g>
			<path class="st32" d="M1312.86,696.55c0,0.04-0.24,0.09-0.54,0.1c-0.3,0.02-0.55,0-0.55-0.04s0.24-0.09,0.54-0.1
				C1312.61,696.49,1312.86,696.51,1312.86,696.55z"/>
		</g>
	</g>
	<g>
		<g>
			<path class="st32" d="M1312.45,695.32c0.03,0.03-0.16,0.25-0.42,0.5c-0.26,0.25-0.5,0.42-0.53,0.4c-0.03-0.03,0.16-0.25,0.42-0.5
				C1312.18,695.47,1312.42,695.3,1312.45,695.32z"/>
		</g>
	</g>
	<g>
		<g>
			<path class="st32" d="M1312,694.62c0.04,0.02-0.09,0.33-0.38,0.63c-0.29,0.31-0.6,0.47-0.63,0.44c-0.03-0.03,0.23-0.24,0.51-0.53
				C1311.77,694.87,1311.96,694.6,1312,694.62z"/>
		</g>
	</g>
	<g>
		<g>
			<path class="st32" d="M1311.39,697.15c0.01,0.01-0.19,0.24-0.6,0.54c-0.2,0.15-0.46,0.31-0.77,0.45
				c-0.16,0.07-0.31,0.15-0.51,0.2c-0.1,0.02-0.22,0.03-0.33-0.03c-0.11-0.06-0.17-0.19-0.15-0.3c0.27-0.79,1.16-1.02,1.66-0.94
				c0.27,0.03,0.47,0.11,0.59,0.18c0.13,0.07,0.18,0.12,0.18,0.13c-0.01,0.03-0.28-0.18-0.78-0.21c-0.25-0.02-0.55,0.02-0.84,0.17
				c-0.27,0.14-0.59,0.39-0.66,0.69c-0.02,0.15,0.12,0.22,0.29,0.18c0.16-0.03,0.33-0.11,0.48-0.18c0.3-0.14,0.56-0.28,0.77-0.42
				C1311.15,697.34,1311.37,697.13,1311.39,697.15z"/>
		</g>
	</g>
	<g>
		<g>
			<path class="st32" d="M1311.27,697.31c0,0.01-0.24-0.04-0.48-0.31c-0.12-0.13-0.23-0.32-0.27-0.54c-0.03-0.22-0.08-0.5,0.19-0.73
				c0.15-0.11,0.38-0.03,0.46,0.08c0.09,0.1,0.14,0.23,0.17,0.33c0.06,0.22,0.08,0.42,0.08,0.58c0,0.34-0.08,0.53-0.1,0.53
				c-0.02,0,0.01-0.2-0.02-0.53c-0.01-0.16-0.05-0.35-0.11-0.55c-0.05-0.19-0.22-0.44-0.39-0.33c-0.16,0.12-0.16,0.4-0.14,0.59
				c0.04,0.2,0.12,0.37,0.22,0.5C1311.07,697.2,1311.28,697.29,1311.27,697.31z"/>
		</g>
	</g>
	<g>
		<g>
			<path class="st32" d="M1320.6,687.59c0.02,0.02-0.29,0.22-0.66,0.65c-0.37,0.42-0.77,1.1-0.87,1.92c-0.1,0.82,0.14,1.56,0.4,2.04
				c0.26,0.49,0.51,0.74,0.49,0.76c-0.01,0.01-0.08-0.05-0.19-0.17c-0.11-0.12-0.26-0.3-0.4-0.54c-0.29-0.48-0.55-1.25-0.45-2.11
				c0.1-0.85,0.54-1.55,0.94-1.97c0.2-0.21,0.38-0.36,0.52-0.45C1320.51,687.63,1320.59,687.59,1320.6,687.59z"/>
		</g>
	</g>
	<g>
		<g>
			<path class="st32" d="M1315.78,684.98c0.03-0.03,0.92,0.71,1.99,1.65c1.07,0.94,1.91,1.72,1.88,1.75
				c-0.03,0.03-0.92-0.71-1.99-1.65C1316.59,685.8,1315.75,685.01,1315.78,684.98z"/>
		</g>
	</g>
	<g>
		<g>
			<path class="st32" d="M1317.94,693.27c0.03,0.02-0.47,0.66-1.21,1.36c-0.74,0.7-1.43,1.17-1.45,1.14
				c-0.03-0.03,0.61-0.55,1.34-1.24C1317.35,693.84,1317.9,693.25,1317.94,693.27z"/>
		</g>
	</g>
	<g>
		<g>
			<path class="st32" d="M1319.74,691.61c0.05,0,0.08,0.16,0.16,0.34c0.08,0.18,0.17,0.32,0.13,0.35c-0.03,0.03-0.19-0.09-0.28-0.3
				C1319.66,691.8,1319.7,691.61,1319.74,691.61z"/>
		</g>
	</g>
	<g>
		<g>
			<path class="st32" d="M1319.56,690.22c0.04,0,0.08,0.14,0.08,0.32c0,0.18-0.03,0.32-0.08,0.32c-0.04,0-0.08-0.14-0.08-0.32
				C1319.49,690.36,1319.52,690.22,1319.56,690.22z"/>
		</g>
	</g>
	<g>
		<g>
			<path class="st32" d="M1320.15,688.97c0.03,0.03-0.1,0.15-0.19,0.31c-0.09,0.17-0.11,0.32-0.16,0.33
				c-0.04,0.01-0.1-0.18,0.01-0.39C1319.93,689.01,1320.13,688.94,1320.15,688.97z"/>
		</g>
	</g>
	<g>
		<g>
			<path class="st32" d="M1320.65,688.17c0.04,0.02,0.04,0.11-0.01,0.2c-0.05,0.1-0.12,0.16-0.16,0.15s-0.04-0.11,0.01-0.2
				C1320.54,688.22,1320.61,688.15,1320.65,688.17z"/>
		</g>
	</g>
</g>
<g>
	<g>
		<g>
			<path class="st33" d="M1273.76,704.35l0.17-6.35l13.07,0.21l-0.14,9.3l-0.81,0.03c-3.61,0.12-18.37,0.4-20.77-0.31
				C1262.6,706.45,1273.76,704.35,1273.76,704.35z"/>
		</g>
		<g>
			<path class="st34" d="M1282.53,707c0.21-0.99,0.83-1.91,1.72-2.51c0.89-0.61,1.97-0.91,3.07-0.82l-0.06,3.33H1282.53z"/>
		</g>
	</g>
	<g>
		<path class="st34" d="M1268.71,705.31c0,0-3.91,0.96-3.44,1.55c0.47,0.59,15.4,0.83,22,0.4l-0.02-0.27l-17.41-0.14
			C1269.84,706.86,1269.47,705.35,1268.71,705.31z"/>
	</g>
	<g>
		<g>
			<path class="st32" d="M1287.46,707.01c0,0-0.08,0.01-0.23,0.02c-0.19,0.01-0.41,0.02-0.65,0.03c-0.65,0.02-1.44,0.03-2.38,0.06
				c-2.01,0.03-4.78,0.05-7.85,0c-3.07-0.05-5.84-0.14-7.84-0.24c-0.94-0.05-1.73-0.09-2.37-0.13c-0.24-0.02-0.45-0.03-0.64-0.04
				c-0.15-0.01-0.22-0.02-0.22-0.03c0-0.01,0.08-0.01,0.23,0c0.19,0.01,0.41,0.01,0.65,0.02c0.65,0.02,1.44,0.05,2.38,0.08
				c2.01,0.07,4.78,0.15,7.84,0.2c3.06,0.05,5.84,0.05,7.84,0.04c0.94,0,1.73-0.01,2.38-0.01c0.24,0,0.45,0,0.65,0
				C1287.38,707,1287.46,707.01,1287.46,707.01z"/>
		</g>
	</g>
	<g>
		<g>
			<path class="st32" d="M1269.84,706.85c-0.05,0-0.08-0.51-0.42-1.04c-0.34-0.53-0.82-0.8-0.79-0.84c0.01-0.04,0.57,0.2,0.93,0.77
				C1269.92,706.3,1269.88,706.86,1269.84,706.85z"/>
		</g>
	</g>
	<g>
		<g>
			<path class="st32" d="M1273.73,705.12c-0.04,0.02-0.22-0.19-0.4-0.46c-0.19-0.28-0.31-0.52-0.27-0.54
				c0.04-0.02,0.22,0.19,0.4,0.46C1273.65,704.86,1273.77,705.1,1273.73,705.12z"/>
		</g>
	</g>
	<g>
		<g>
			<path class="st32" d="M1274.8,704.63c-0.03,0.03-0.23-0.1-0.46-0.29c-0.22-0.19-0.38-0.36-0.35-0.39s0.23,0.1,0.46,0.29
				C1274.67,704.43,1274.83,704.6,1274.8,704.63z"/>
		</g>
	</g>
	<g>
		<g>
			<path class="st32" d="M1275.49,703.52c0,0.04-0.31,0.07-0.68,0.07c-0.38,0-0.68-0.04-0.68-0.08s0.31-0.07,0.68-0.07
				C1275.18,703.44,1275.49,703.48,1275.49,703.52z"/>
		</g>
	</g>
	<g>
		<g>
			<path class="st32" d="M1275.73,702.73c0.01,0.04-0.32,0.17-0.77,0.19c-0.44,0.02-0.79-0.07-0.78-0.11
				c0.01-0.04,0.35-0.01,0.77-0.04C1275.38,702.75,1275.72,702.69,1275.73,702.73z"/>
		</g>
	</g>
	<g>
		<g>
			<path class="st32" d="M1273.31,704.08c0,0.02-0.32,0.05-0.84-0.02c-0.26-0.03-0.56-0.09-0.89-0.19c-0.16-0.06-0.33-0.1-0.51-0.2
				c-0.08-0.05-0.17-0.12-0.2-0.24c-0.03-0.12,0.04-0.24,0.13-0.3c0.81-0.37,1.61,0.06,1.9,0.44c0.16,0.2,0.23,0.38,0.26,0.51
				c0.03,0.13,0.03,0.21,0.02,0.21c-0.03,0.01-0.05-0.3-0.37-0.66c-0.16-0.17-0.4-0.35-0.71-0.44c-0.3-0.08-0.72-0.11-1,0.05
				c-0.14,0.09-0.09,0.23,0.06,0.31c0.14,0.08,0.31,0.14,0.47,0.19c0.32,0.1,0.61,0.17,0.86,0.22
				C1272.99,704.05,1273.31,704.06,1273.31,704.08z"/>
		</g>
	</g>
	<g>
		<g>
			<path class="st32" d="M1273.09,704.11c-0.01,0.01-0.13-0.19-0.09-0.53c0.02-0.17,0.1-0.37,0.24-0.56
				c0.15-0.17,0.35-0.4,0.71-0.38c0.19,0.03,0.29,0.23,0.25,0.36c-0.02,0.13-0.09,0.25-0.15,0.34c-0.13,0.19-0.27,0.34-0.41,0.46
				c-0.27,0.23-0.48,0.32-0.49,0.3c-0.01-0.02,0.17-0.13,0.41-0.37c0.12-0.12,0.25-0.27,0.36-0.45c0.12-0.16,0.2-0.45-0.01-0.49
				c-0.21-0.02-0.43,0.17-0.56,0.32c-0.14,0.16-0.21,0.34-0.25,0.49C1273.04,703.91,1273.12,704.11,1273.09,704.11z"/>
		</g>
	</g>
	<g>
		<g>
			<path class="st32" d="M1287.25,703.53c0,0.03-0.37-0.04-0.97,0.02c-0.59,0.05-1.4,0.26-2.12,0.76c-0.72,0.5-1.15,1.17-1.35,1.67
				c-0.21,0.51-0.23,0.85-0.26,0.85c-0.01,0-0.01-0.09,0-0.24c0.02-0.15,0.06-0.38,0.15-0.64c0.18-0.53,0.61-1.23,1.36-1.75
				c0.75-0.52,1.61-0.72,2.21-0.75c0.3-0.01,0.55,0,0.72,0.03C1287.16,703.5,1287.25,703.52,1287.25,703.53z"/>
		</g>
	</g>
	<g>
		<g>
			<path class="st32" d="M1285.99,698.56c0.04,0,0.07,1.1,0.07,2.45c-0.01,1.35-0.05,2.45-0.09,2.45c-0.04,0-0.07-1.1-0.07-2.45
				C1285.91,699.65,1285.95,698.56,1285.99,698.56z"/>
		</g>
	</g>
	<g>
		<g>
			<path class="st32" d="M1280.91,705.71c0.01,0.04-0.85,0.15-1.91,0.14c-1.06-0.01-1.91-0.13-1.91-0.17
				c0.01-0.04,0.86,0.02,1.91,0.03C1280.05,705.72,1280.9,705.67,1280.91,705.71z"/>
		</g>
	</g>
	<g>
		<g>
			<path class="st32" d="M1283.47,705.75c0.03,0.03-0.07,0.16-0.16,0.34c-0.09,0.18-0.14,0.33-0.19,0.33
				c-0.04,0-0.06-0.19,0.04-0.39C1283.27,705.82,1283.44,705.72,1283.47,705.75z"/>
		</g>
	</g>
	<g>
		<g>
			<path class="st32" d="M1284.46,704.67c0.03,0.03-0.06,0.15-0.19,0.27c-0.14,0.12-0.27,0.2-0.3,0.17
				c-0.03-0.03,0.06-0.15,0.19-0.27C1284.29,704.71,1284.42,704.64,1284.46,704.67z"/>
		</g>
	</g>
	<g>
		<g>
			<path class="st32" d="M1285.85,704.19c-0.01,0.04-0.18,0.04-0.38,0.09c-0.19,0.05-0.33,0.15-0.37,0.12
				c-0.03-0.02,0.08-0.19,0.32-0.26C1285.66,704.07,1285.86,704.15,1285.85,704.19z"/>
		</g>
	</g>
	<g>
		<g>
			<path class="st32" d="M1286.83,703.97c0.02,0.04-0.06,0.1-0.17,0.13c-0.11,0.04-0.21,0.04-0.23,0c-0.02-0.04,0.06-0.1,0.17-0.13
				C1286.72,703.93,1286.82,703.93,1286.83,703.97z"/>
		</g>
	</g>
</g>
<g>
	<path class="st35" d="M1281.18,567.7c-4.85,13.03-13.58,36.63-13.58,36.63c-0.62,0.34-2.92,1.45-3.62,1.58
		c-0.86,0.16-2,0.33-2.66,0.25c-0.82-0.1-1.35,0.75-0.81,1.22c0.54,0.47,2.78,0.81,5.32,0.12c2.54-0.7,0.65,2.82-0.18,3.98
		c-0.83,1.16-3.2,4.96-3.01,5.48c0.28,0.75,1.3,0.44,2.1-0.74c0.81-1.19,3.22-4.59,3.57-4.41c0.69,0.35-3.48,6.41-3.48,6.41
		s-0.96,1.06-0.22,1.58c1.33,0.93,5.4-5.58,5.78-6.21c0.26-0.44,0.61-0.09,0.3,0.36c-0.32,0.47-3.87,5.79-2.79,6.4
		c1.11,0.63,3.59-4.7,4.62-5.69c1.16-1.12-2.33,4.44-1.32,5.11c0.38,0.25,0.7,0.39,2.45-2.83c1.11-2.05,2.8-6.54,3.91-9.66
		c3.72-6.81,14.4-27.82,17.93-42.12"/>
</g>
<g>
	<path class="st27" d="M1283.75,535.89c0,0,10.38-2.73,12.42,11.72c1.28,9.06,4.2,30.93,5.32,42.18c0.1,1.06-0.63,0.64-0.54,1.52
		c0.1,1.02,1.09,1.84,1.09,2.57c0,2.32-2.91,2.28-2.91,2.28l-27.12,1.18c0,0-2.51,0.05-2.52-1.95c-0.01-1.52,1.09-2.19,1.17-3.14
		c1.15-13.52,1.13-47.2,2.8-51.83C1275.05,536,1276.07,535.91,1283.75,535.89z"/>
</g>
<g>
	<g>
		<path class="st26" d="M1285.8,536.59c0.02-0.01,0.25,0.23,0.64,0.61c0.38,0.39,0.91,0.92,1.48,1.53c0.57,0.6,1.05,1.18,1.38,1.61
			c0.33,0.43,0.51,0.71,0.49,0.72c-0.02,0.01-0.23-0.25-0.58-0.66c-0.35-0.41-0.84-0.97-1.41-1.57c-0.57-0.6-1.08-1.15-1.44-1.55
			C1285.99,536.87,1285.78,536.61,1285.8,536.59z"/>
	</g>
</g>
<g>
	<g>
		<path class="st26" d="M1286.99,536.35c0,0.01-0.15,0.07-0.43,0.19c-0.37,0.14-0.77,0.29-1.2,0.45c-1.02,0.37-2.43,0.86-4.01,1.36
			c-1.58,0.5-3.02,0.91-4.08,1.2c-0.45,0.12-0.86,0.22-1.25,0.32c-0.3,0.07-0.46,0.11-0.46,0.1s0.16-0.06,0.45-0.15
			c0.38-0.11,0.79-0.23,1.23-0.37c1.04-0.31,2.48-0.74,4.06-1.23c1.58-0.5,3-0.97,4.03-1.32c0.44-0.15,0.84-0.28,1.22-0.41
			C1286.83,536.38,1286.99,536.34,1286.99,536.35z"/>
	</g>
</g>
<g>
	<g>
		<path class="st26" d="M1275.67,537.31c0.04,0,0.08,0.59,0.08,1.32c0,0.73-0.04,1.32-0.08,1.32c-0.04,0-0.08-0.59-0.08-1.32
			C1275.59,537.9,1275.62,537.31,1275.67,537.31z"/>
	</g>
</g>
<g>
	<g>
		<path class="st29" d="M1294.23,541.06c0,0.04-4.61,0.07-10.29,0.07c-5.68,0-10.29-0.03-10.29-0.07c0-0.04,4.61-0.07,10.29-0.07
			C1289.62,540.99,1294.23,541.02,1294.23,541.06z"/>
	</g>
</g>
<g>
	<g>
		<path class="st29" d="M1295.56,544.14c0,0.01-0.08,0.01-0.23,0c-0.2,0-0.42-0.01-0.66-0.02c-0.66-0.02-1.48-0.05-2.44-0.08
			c-2.15-0.06-4.96-0.14-8.06-0.23c-3.1-0.05-5.91-0.1-8.07-0.13c-0.97-0.01-1.78-0.02-2.44-0.03c-0.25-0.01-0.47-0.01-0.66-0.01
			c-0.15,0-0.23-0.01-0.23-0.01c0-0.01,0.08-0.01,0.23-0.01c0.2,0,0.42-0.01,0.66-0.01c0.66,0,1.48-0.01,2.45-0.02
			c2.06,0,4.92,0.02,8.07,0.09c3.15,0.07,6,0.18,8.06,0.27c0.97,0.05,1.78,0.09,2.44,0.13c0.25,0.02,0.47,0.03,0.66,0.04
			C1295.48,544.13,1295.56,544.14,1295.56,544.14z"/>
	</g>
</g>
<g>
	<g>
		<path class="st29" d="M1295.88,546.87c0,0.04-5.21,0.07-11.63,0.07c-6.42,0-11.63-0.03-11.63-0.07c0-0.04,5.2-0.07,11.63-0.07
			C1290.67,546.79,1295.88,546.83,1295.88,546.87z"/>
	</g>
</g>
<g>
	<g>
		<path class="st29" d="M1296.47,549.82c0,0.04-5.4,0.07-12.05,0.07c-6.66,0-12.05-0.03-12.05-0.07c0-0.04,5.4-0.07,12.05-0.07
			C1291.08,549.74,1296.47,549.78,1296.47,549.82z"/>
	</g>
</g>
<g>
	<g>
		<path class="st29" d="M1297.02,553.06c0,0.04-5.52,0.07-12.33,0.07c-6.81,0-12.33-0.03-12.33-0.07c0-0.04,5.52-0.07,12.33-0.07
			C1291.5,552.98,1297.02,553.02,1297.02,553.06z"/>
	</g>
</g>
<g>
	<g>
		<path class="st29" d="M1297.36,556.3c0,0.04-5.59,0.07-12.49,0.07c-6.9,0-12.5-0.03-12.5-0.07c0-0.04,5.59-0.07,12.5-0.07
			C1291.77,556.22,1297.36,556.26,1297.36,556.3z"/>
	</g>
</g>
<g>
	<g>
		<path class="st29" d="M1297.79,559.77c0,0.04-5.69,0.07-12.71,0.07c-7.02,0-12.71-0.03-12.71-0.07c0-0.04,5.69-0.07,12.71-0.07
			C1292.1,559.7,1297.79,559.73,1297.79,559.77z"/>
	</g>
</g>
<g>
	<g>
		<path class="st29" d="M1298.22,562.78c0,0.04-5.79,0.07-12.92,0.07c-7.14,0-12.93-0.03-12.93-0.07c0-0.04,5.79-0.07,12.93-0.07
			C1292.43,562.7,1298.22,562.74,1298.22,562.78z"/>
	</g>
</g>
<g>
	<g>
		<path class="st29" d="M1298.77,566.08c0,0.04-5.91,0.07-13.2,0.07c-7.29,0-13.2-0.03-13.2-0.07c0-0.04,5.91-0.07,13.2-0.07
			C1292.86,566.01,1298.77,566.04,1298.77,566.08z"/>
	</g>
</g>
<g>
	<g>
		<path class="st29" d="M1299.08,569.38c0,0.04-5.98,0.07-13.35,0.07c-7.38,0-13.35-0.03-13.35-0.07c0-0.04,5.98-0.07,13.35-0.07
			C1293.1,569.31,1299.08,569.34,1299.08,569.38z"/>
	</g>
</g>
<g>
	<g>
		<path class="st29" d="M1299.5,572.68c0,0.04-6.07,0.07-13.56,0.07c-7.49,0-13.56-0.03-13.56-0.07c0-0.04,6.07-0.07,13.56-0.07
			C1293.42,572.61,1299.5,572.64,1299.5,572.68z"/>
	</g>
</g>
<g>
	<g>
		<path class="st29" d="M1299.91,575.99c0,0.04-6.16,0.07-13.77,0.07c-7.61,0-13.77-0.03-13.77-0.07c0-0.04,6.16-0.07,13.77-0.07
			C1293.74,575.91,1299.91,575.95,1299.91,575.99z"/>
	</g>
</g>
<g>
	<g>
		<path class="st29" d="M1300.31,579.29c0,0.04-6.4,0.07-14.29,0.07c-7.89,0-14.29-0.03-14.29-0.07c0-0.04,6.4-0.07,14.29-0.07
			C1293.91,579.22,1300.31,579.25,1300.31,579.29z"/>
	</g>
</g>
<g>
	<g>
		<path class="st29" d="M1300.7,582.59c0,0.04-6.6,0.07-14.75,0.07c-8.15,0-14.75-0.03-14.75-0.07c0-0.04,6.6-0.07,14.75-0.07
			C1294.09,582.52,1300.7,582.55,1300.7,582.59z"/>
	</g>
</g>
<g>
	<g>
		<path class="st29" d="M1301.07,585.9c0,0.04-6.71,0.07-14.99,0.07c-8.28,0-14.99-0.03-14.99-0.07c0-0.04,6.71-0.07,14.99-0.07
			C1294.36,585.82,1301.07,585.86,1301.07,585.9z"/>
	</g>
</g>
<g>
	<g>
		<path class="st29" d="M1301.42,589.2c0,0.04-6.79,0.07-15.17,0.07c-8.38,0-15.17-0.03-15.17-0.07c0-0.04,6.79-0.07,15.17-0.07
			C1294.63,589.13,1301.42,589.16,1301.42,589.2z"/>
	</g>
</g>
<g>
	<g>
		<path class="st29" d="M1301.22,592.5c0,0.04-6.84,0.02-15.29-0.05c-8.44-0.07-15.29-0.16-15.29-0.2c0-0.04,6.84-0.02,15.29,0.05
			C1294.38,592.37,1301.22,592.46,1301.22,592.5z"/>
	</g>
</g>
<g>
	<g>
		<path class="st29" d="M1301.22,595.55c0,0.04-7.09,0.14-15.84,0.21c-8.75,0.08-15.85,0.11-15.85,0.07c0-0.04,7.09-0.14,15.84-0.21
			C1294.13,595.54,1301.22,595.51,1301.22,595.55z"/>
	</g>
</g>
<g>
	<g>
		<path class="st27" d="M1280.77,580.07c1.75,0.21,3.53-0.23,4.96-1.17c1.43-0.94,2.54-2.22,3.53-3.56
			c3.59-4.83,5.73-10.54,6.15-16.36c0.09-1.31,0.25-6.76-0.06-8.95c-0.89,6.27-3,13.09-4.78,16.91c-2.28,4.92-4.45,8.47-8.27,12.51"
			/>
	</g>
	<g class="st30">
		<path d="M1280.77,580.07c1.75,0.21,3.53-0.23,4.96-1.17c1.43-0.94,2.54-2.22,3.53-3.56c3.59-4.83,5.73-10.54,6.15-16.36
			c0.09-1.31,0.25-6.76-0.06-8.95c-0.89,6.27-3,13.09-4.78,16.91c-2.28,4.92-4.45,8.47-8.27,12.51"/>
	</g>
</g>
<g>
	<g>
		<path class="st26" d="M1297.88,583.07c0,0-0.94,0.98-2.71,2.33c-0.88,0.68-1.98,1.43-3.24,2.2c-1.28,0.75-2.73,1.52-4.32,2.21
			c-1.59,0.68-3.16,1.22-4.62,1.64c-1.46,0.41-2.79,0.71-3.93,0.89c-2.27,0.38-3.69,0.43-3.69,0.43c0,0,0.09-0.02,0.26-0.04
			c0.21-0.03,0.46-0.05,0.73-0.09c0.64-0.07,1.56-0.2,2.68-0.4c1.13-0.2,2.45-0.51,3.9-0.92c1.44-0.43,3.01-0.97,4.59-1.65
			c1.58-0.69,3.03-1.45,4.31-2.19c1.27-0.76,2.37-1.5,3.25-2.17c0.89-0.66,1.58-1.23,2.04-1.64c0.2-0.18,0.38-0.33,0.54-0.46
			C1297.8,583.12,1297.87,583.07,1297.88,583.07z"/>
	</g>
</g>
<g>
	<g>
		<g>
			<path class="st36" d="M1290.43,567.45c0,0-0.05-0.01-0.15-0.03c-0.14-0.04-0.28-0.08-0.43-0.13c-0.46-0.15-0.98-0.31-1.56-0.49
				c-1.42-0.48-3.17-1.07-5.11-1.73c-2-0.67-3.83-1.2-5.17-1.56c-0.6-0.15-1.12-0.29-1.59-0.41c-0.15-0.04-0.29-0.08-0.43-0.11
				c-0.1-0.03-0.15-0.04-0.15-0.05s0.05,0,0.16,0.02c0.14,0.03,0.28,0.06,0.44,0.09c0.38,0.08,0.93,0.2,1.6,0.36
				c1.35,0.33,3.19,0.85,5.19,1.52c2,0.67,3.79,1.32,5.09,1.77c0.58,0.2,1.09,0.38,1.54,0.54c0.15,0.05,0.28,0.1,0.42,0.15
				C1290.38,567.42,1290.43,567.44,1290.43,567.45z"/>
		</g>
	</g>
	<g>
		<g>
			<path class="st36" d="M1290.43,567.45c0,0,0.07-0.19,0.21-0.54c0.15-0.38,0.36-0.9,0.62-1.54c0.52-1.34,1.28-3.28,2.01-5.74
				c0.72-2.46,1.24-5.45,1.77-8.78c0.27-1.65,0.4-3.46-0.24-5.19c-0.33-0.85-0.85-1.67-1.53-2.37c-0.34-0.36-0.71-0.68-1.1-1
				c-0.39-0.33-0.81-0.6-1.29-0.79c-0.96-0.39-2.04-0.45-3.05-0.28c-1.01,0.16-1.96,0.54-2.78,1.04c-1.71,1-2.5,2.73-3.09,4.29
				c-1.16,3.19-2.21,6.06-3.1,8.48c-0.88,2.39-1.59,4.33-2.1,5.72c-0.24,0.65-0.43,1.17-0.58,1.55c-0.13,0.35-0.21,0.54-0.21,0.54
				s0.06-0.19,0.18-0.55c0.14-0.39,0.32-0.91,0.55-1.56c0.5-1.39,1.2-3.34,2.05-5.73c0.88-2.43,1.92-5.3,3.07-8.49
				c0.3-0.8,0.64-1.61,1.13-2.38c0.48-0.78,1.17-1.47,2.01-1.99c0.84-0.51,1.81-0.91,2.85-1.07c1.03-0.17,2.15-0.11,3.14,0.29
				c0.5,0.2,0.95,0.49,1.33,0.82c0.39,0.32,0.78,0.65,1.12,1.01c0.7,0.71,1.23,1.54,1.56,2.41c0.65,1.77,0.51,3.6,0.24,5.25
				c-0.54,3.33-1.07,6.33-1.81,8.79c-0.75,2.46-1.53,4.39-2.06,5.73C1290.77,566.72,1290.43,567.45,1290.43,567.45z"/>
		</g>
	</g>
</g>
<g>
	<path class="st26" d="M1297,607.09l0.6,40.27c0.04,2.78,0.35,5.55,0.95,8.28c0.82,3.72,2.26,8.56,4.62,11.57
		c3.59,4.56,16.22,17.46,16.22,17.46l-10.63,11.31c0,0-22.54-16.35-24-31.44c-0.74-7.67,0-53.52,0-53.52L1297,607.09z"/>
</g>
<g>
	<path class="st26" d="M1272,597.8l-0.27,104.2h17.62l3.11-90.66c0,0,5.1-3.06,6-6.97c1.21-5.28,0.67-7.75,0.67-7.75L1272,597.8z"/>
</g>
<g>
	<rect x="1271" y="699" class="st32" width="19" height="3"/>
</g>
<g>
	<polygon class="st32" points="1320.9,684.08 1307.73,696.72 1305.73,695 1318.9,682.35 	"/>
</g>
<g>
	<g>
		<path class="st26" d="M1318.15,683.26c0,0-0.03,0.04-0.11,0.12c-0.1,0.1-0.21,0.21-0.33,0.33c-0.35,0.34-0.76,0.74-1.22,1.19
			c-1.03,1.01-2.42,2.43-4.03,3.94c-1.59,1.45-3.02,2.77-4.17,3.82c-0.49,0.43-0.91,0.81-1.28,1.14c-0.13,0.11-0.24,0.21-0.35,0.31
			c-0.08,0.07-0.13,0.1-0.13,0.1c0,0,0.03-0.04,0.11-0.12c0.1-0.1,0.21-0.21,0.33-0.32c0.36-0.34,0.77-0.73,1.24-1.18
			c1.14-1.06,2.56-2.38,4.14-3.85c1.54-1.49,2.94-2.83,4.06-3.91c0.52-0.5,0.96-0.89,1.26-1.16c0.13-0.11,0.24-0.21,0.35-0.31
			C1318.1,683.29,1318.15,683.25,1318.15,683.26z"/>
	</g>
</g>
<g>
	<g>
		<path class="st32" d="M1285.43,596.8c0,0-0.02,0.09-0.06,0.26c-0.04,0.17-0.12,0.43-0.27,0.75c-0.15,0.32-0.39,0.69-0.75,1.08
			c-0.35,0.39-0.83,0.79-1.35,1.25c-0.51,0.46-1.1,0.96-1.61,1.61c-0.51,0.66-0.47,1.58-0.53,2.5c-0.07,1.87-0.15,3.99-0.23,6.34
			c-0.09,2.35-0.18,4.92-0.28,7.68c-0.08,2.76-0.18,5.71-0.27,8.82c-0.18,6.21-0.44,13.04-0.6,20.21
			c-0.26,14.33-0.5,27.31-0.68,36.72c-0.19,9.18-0.3,14.24-0.32,15.21c0,0-0.01-0.36,0-1.06c0.01-0.71,0.02-1.73,0.04-3.03
			c0.04-2.65,0.1-6.44,0.17-11.13c0.16-9.41,0.38-22.39,0.63-36.72c0.16-7.17,0.42-14,0.61-20.21c0.1-3.1,0.2-6.06,0.29-8.82
			c0.11-2.76,0.21-5.33,0.3-7.68c0.09-2.35,0.18-4.47,0.26-6.34c0.06-0.91,0.02-1.85,0.55-2.53c0.52-0.66,1.11-1.15,1.63-1.61
			c0.52-0.45,1-0.85,1.35-1.23c0.36-0.39,0.6-0.75,0.75-1.07c0.15-0.32,0.24-0.57,0.28-0.74
			C1285.4,596.88,1285.43,596.8,1285.43,596.8z"/>
	</g>
</g>
<g>
	<g>
		<g>
			<path class="st32" d="M1274.9,598.05c-0.04,0.02-0.15-0.1-0.25-0.27c-0.1-0.17-0.15-0.32-0.11-0.34s0.15,0.11,0.25,0.27
				C1274.89,597.87,1274.94,598.03,1274.9,598.05z"/>
		</g>
	</g>
	<g>
		<g>
			<path class="st32" d="M1275.91,599.08c-0.03,0.03-0.17-0.05-0.33-0.19c-0.15-0.14-0.25-0.27-0.22-0.29
				c0.03-0.03,0.18,0.06,0.33,0.19C1275.84,598.92,1275.93,599.05,1275.91,599.08z"/>
		</g>
	</g>
	<g>
		<g>
			<path class="st32" d="M1277.2,599.81c-0.02,0.04-0.18-0.01-0.37-0.1c-0.19-0.09-0.32-0.19-0.3-0.23c0.02-0.03,0.19,0.01,0.37,0.1
				C1277.08,599.68,1277.21,599.78,1277.2,599.81z"/>
		</g>
	</g>
	<g>
		<g>
			<path class="st32" d="M1278.66,600.19c0,0.04-0.18,0.04-0.39,0c-0.21-0.04-0.37-0.1-0.36-0.14c0.01-0.04,0.19-0.04,0.39,0
				S1278.66,600.15,1278.66,600.19z"/>
		</g>
	</g>
	<g>
		<g>
			<path class="st32" d="M1280.17,600.14c0.01,0.04-0.16,0.09-0.37,0.12c-0.21,0.03-0.39,0.01-0.39-0.04c0-0.04,0.17-0.08,0.37-0.11
				C1279.99,600.08,1280.16,600.1,1280.17,600.14z"/>
		</g>
	</g>
	<g>
		<g>
			<path class="st32" d="M1281.6,599.66c0.02,0.03-0.12,0.13-0.31,0.21c-0.19,0.08-0.36,0.11-0.38,0.08
				c-0.01-0.04,0.13-0.13,0.31-0.21C1281.41,599.66,1281.58,599.63,1281.6,599.66z"/>
		</g>
	</g>
	<g>
		<g>
			<path class="st32" d="M1282.82,598.84c0.03,0.03-0.08,0.15-0.24,0.28c-0.16,0.13-0.32,0.2-0.34,0.17
				c-0.03-0.03,0.08-0.16,0.24-0.28C1282.63,598.89,1282.79,598.81,1282.82,598.84z"/>
		</g>
	</g>
	<g>
		<g>
			<path class="st32" d="M1283.74,597.74c0.04,0.02-0.02,0.17-0.14,0.33c-0.12,0.16-0.24,0.28-0.27,0.25
				c-0.03-0.02,0.03-0.17,0.14-0.33C1283.57,597.83,1283.7,597.72,1283.74,597.74z"/>
		</g>
	</g>
	<g>
		<g>
			<path class="st32" d="M1284.13,596.87c0.04,0.01,0.06,0.07,0.03,0.14c-0.02,0.07-0.08,0.11-0.12,0.1
				c-0.04-0.01-0.06-0.08-0.03-0.14S1284.09,596.86,1284.13,596.87z"/>
		</g>
	</g>
</g>
<g>
	<g>
		<g>
			<path class="st32" d="M1279.45,602.85c-0.04,0-0.07-0.16-0.07-0.35c0.01-0.19,0.05-0.34,0.09-0.34c0.04,0,0.07,0.16,0.07,0.35
				C1279.54,602.7,1279.5,602.85,1279.45,602.85z"/>
		</g>
	</g>
	<g>
		<g>
			<path class="st32" d="M1279.4,604.23c-0.04,0-0.07-0.16-0.07-0.35c0.01-0.19,0.05-0.35,0.09-0.34c0.04,0,0.07,0.16,0.07,0.35
				C1279.49,604.08,1279.45,604.24,1279.4,604.23z"/>
		</g>
	</g>
	<g>
		<g>
			<path class="st32" d="M1279.35,605.62c-0.04,0-0.07-0.16-0.07-0.35c0.01-0.19,0.05-0.35,0.09-0.34c0.04,0,0.07,0.16,0.07,0.35
				C1279.44,605.47,1279.4,605.62,1279.35,605.62z"/>
		</g>
	</g>
	<g>
		<g>
			<path class="st32" d="M1279.3,607c-0.04,0-0.07-0.16-0.07-0.35c0.01-0.19,0.05-0.35,0.09-0.34c0.04,0,0.07,0.16,0.07,0.35
				C1279.39,606.85,1279.35,607.01,1279.3,607z"/>
		</g>
	</g>
	<g>
		<g>
			<path class="st32" d="M1279.26,608.39c-0.04,0-0.07-0.16-0.07-0.35c0.01-0.19,0.05-0.35,0.09-0.34c0.04,0,0.07,0.16,0.07,0.35
				C1279.34,608.24,1279.3,608.39,1279.26,608.39z"/>
		</g>
	</g>
	<g>
		<g>
			<path class="st32" d="M1279.21,609.77c-0.04,0-0.07-0.16-0.07-0.35c0.01-0.19,0.05-0.35,0.09-0.34c0.04,0,0.07,0.16,0.07,0.35
				C1279.29,609.62,1279.25,609.78,1279.21,609.77z"/>
		</g>
	</g>
	<g>
		<g>
			<path class="st32" d="M1279.16,611.16c-0.04,0-0.07-0.16-0.07-0.35c0.01-0.19,0.05-0.35,0.09-0.34c0.04,0,0.07,0.16,0.07,0.35
				C1279.25,611.01,1279.21,611.16,1279.16,611.16z"/>
		</g>
	</g>
	<g>
		<g>
			<path class="st32" d="M1279.12,612.55c-0.04,0-0.07-0.16-0.07-0.35c0.01-0.19,0.05-0.35,0.09-0.34c0.04,0,0.07,0.16,0.07,0.35
				C1279.2,612.39,1279.16,612.55,1279.12,612.55z"/>
		</g>
	</g>
	<g>
		<g>
			<path class="st32" d="M1279.08,613.93c-0.04,0-0.07-0.16-0.07-0.35c0.01-0.19,0.05-0.35,0.09-0.34c0.04,0,0.07,0.16,0.07,0.35
				C1279.16,613.78,1279.12,613.93,1279.08,613.93z"/>
		</g>
	</g>
	<g>
		<g>
			<path class="st32" d="M1279.03,615.32c-0.04,0-0.07-0.16-0.07-0.35c0.01-0.19,0.05-0.35,0.09-0.34c0.04,0,0.07,0.16,0.07,0.35
				C1279.12,615.17,1279.08,615.32,1279.03,615.32z"/>
		</g>
	</g>
	<g>
		<g>
			<path class="st32" d="M1278.99,616.71c-0.04,0-0.07-0.16-0.07-0.35c0.01-0.19,0.05-0.35,0.09-0.34c0.04,0,0.07,0.16,0.07,0.35
				C1279.08,616.55,1279.04,616.71,1278.99,616.71z"/>
		</g>
	</g>
	<g>
		<g>
			<path class="st32" d="M1278.95,618.09c-0.04,0-0.07-0.16-0.07-0.35c0.01-0.19,0.05-0.35,0.09-0.34c0.04,0,0.07,0.16,0.07,0.35
				S1279,618.09,1278.95,618.09z"/>
		</g>
	</g>
	<g>
		<g>
			<path class="st32" d="M1278.91,619.48c-0.04,0-0.07-0.16-0.07-0.35c0.01-0.19,0.05-0.35,0.09-0.34c0.04,0,0.07,0.16,0.07,0.35
				C1279,619.33,1278.96,619.48,1278.91,619.48z"/>
		</g>
	</g>
	<g>
		<g>
			<path class="st32" d="M1278.87,620.87c-0.04,0-0.07-0.16-0.07-0.35c0.01-0.19,0.05-0.35,0.09-0.35c0.04,0,0.07,0.16,0.07,0.35
				C1278.96,620.71,1278.92,620.87,1278.87,620.87z"/>
		</g>
	</g>
	<g>
		<g>
			<path class="st32" d="M1278.84,622.26c-0.04,0-0.07-0.16-0.07-0.35c0.01-0.19,0.05-0.35,0.09-0.35c0.04,0,0.07,0.16,0.07,0.35
				C1278.92,622.1,1278.88,622.26,1278.84,622.26z"/>
		</g>
	</g>
	<g>
		<g>
			<path class="st32" d="M1278.8,623.64c-0.04,0-0.08-0.16-0.07-0.35c0.01-0.19,0.04-0.35,0.09-0.35c0.04,0,0.08,0.16,0.07,0.35
				C1278.88,623.49,1278.84,623.64,1278.8,623.64z"/>
		</g>
	</g>
	<g>
		<g>
			<path class="st32" d="M1278.76,625.03c-0.04,0-0.08-0.16-0.07-0.35c0.01-0.19,0.04-0.35,0.09-0.35c0.04,0,0.08,0.16,0.07,0.35
				C1278.85,624.88,1278.81,625.03,1278.76,625.03z"/>
		</g>
	</g>
	<g>
		<g>
			<path class="st32" d="M1278.73,626.42c-0.04,0-0.08-0.16-0.07-0.35c0-0.19,0.04-0.35,0.09-0.35c0.04,0,0.08,0.16,0.07,0.35
				C1278.81,626.27,1278.77,626.42,1278.73,626.42z"/>
		</g>
	</g>
	<g>
		<g>
			<path class="st32" d="M1278.69,627.81c-0.04,0-0.08-0.16-0.07-0.35s0.04-0.35,0.09-0.35c0.04,0,0.08,0.16,0.07,0.35
				C1278.77,627.65,1278.74,627.81,1278.69,627.81z"/>
		</g>
	</g>
	<g>
		<g>
			<path class="st32" d="M1278.66,629.2c-0.04,0-0.08-0.16-0.07-0.35c0-0.19,0.04-0.35,0.09-0.35c0.04,0,0.08,0.16,0.07,0.35
				C1278.74,629.04,1278.7,629.2,1278.66,629.2z"/>
		</g>
	</g>
	<g>
		<g>
			<path class="st32" d="M1278.62,630.58c-0.04,0-0.08-0.16-0.07-0.35c0-0.19,0.04-0.35,0.09-0.35c0.04,0,0.08,0.16,0.07,0.35
				S1278.67,630.59,1278.62,630.58z"/>
		</g>
	</g>
	<g>
		<g>
			<path class="st32" d="M1278.59,631.97c-0.04,0-0.08-0.16-0.07-0.35c0-0.19,0.04-0.35,0.09-0.35c0.04,0,0.08,0.16,0.07,0.35
				C1278.67,631.82,1278.63,631.97,1278.59,631.97z"/>
		</g>
	</g>
	<g>
		<g>
			<path class="st32" d="M1278.56,633.36c-0.04,0-0.08-0.16-0.07-0.35c0-0.19,0.04-0.35,0.09-0.35c0.04,0,0.08,0.16,0.07,0.35
				C1278.64,633.21,1278.6,633.36,1278.56,633.36z"/>
		</g>
	</g>
	<g>
		<g>
			<path class="st32" d="M1278.53,634.75c-0.04,0-0.08-0.16-0.07-0.35c0-0.19,0.04-0.35,0.09-0.35c0.04,0,0.08,0.16,0.07,0.35
				C1278.61,634.6,1278.57,634.75,1278.53,634.75z"/>
		</g>
	</g>
	<g>
		<g>
			<path class="st32" d="M1278.49,636.14c-0.04,0-0.08-0.16-0.07-0.35c0-0.19,0.04-0.35,0.09-0.35c0.04,0,0.08,0.16,0.07,0.35
				C1278.58,635.99,1278.54,636.14,1278.49,636.14z"/>
		</g>
	</g>
	<g>
		<g>
			<path class="st32" d="M1278.46,637.53c-0.04,0-0.08-0.16-0.07-0.35c0-0.19,0.04-0.35,0.09-0.35c0.04,0,0.08,0.16,0.07,0.35
				C1278.54,637.38,1278.51,637.53,1278.46,637.53z"/>
		</g>
	</g>
	<g>
		<g>
			<path class="st32" d="M1278.43,638.92c-0.04,0-0.08-0.16-0.07-0.35s0.04-0.35,0.09-0.35c0.04,0,0.08,0.16,0.07,0.35
				C1278.51,638.76,1278.48,638.92,1278.43,638.92z"/>
		</g>
	</g>
	<g>
		<g>
			<path class="st32" d="M1278.4,640.31c-0.04,0-0.08-0.16-0.07-0.35c0-0.19,0.04-0.35,0.09-0.35c0.04,0,0.08,0.16,0.07,0.35
				C1278.48,640.15,1278.44,640.31,1278.4,640.31z"/>
		</g>
	</g>
	<g>
		<g>
			<path class="st32" d="M1278.37,641.7c-0.04,0-0.08-0.16-0.07-0.35c0-0.19,0.04-0.35,0.09-0.35c0.04,0,0.08,0.16,0.07,0.35
				C1278.45,641.54,1278.41,641.7,1278.37,641.7z"/>
		</g>
	</g>
	<g>
		<g>
			<path class="st32" d="M1278.34,643.09c-0.04,0-0.08-0.16-0.07-0.35c0-0.19,0.04-0.35,0.09-0.35c0.04,0,0.08,0.16,0.07,0.35
				C1278.42,642.93,1278.39,643.09,1278.34,643.09z"/>
		</g>
	</g>
	<g>
		<g>
			<path class="st32" d="M1278.31,644.48c-0.04,0-0.08-0.16-0.07-0.35c0-0.19,0.04-0.35,0.09-0.35c0.04,0,0.08,0.16,0.07,0.35
				C1278.39,644.32,1278.36,644.48,1278.31,644.48z"/>
		</g>
	</g>
	<g>
		<g>
			<path class="st32" d="M1278.28,645.87c-0.04,0-0.08-0.16-0.07-0.35c0-0.19,0.04-0.35,0.09-0.35c0.04,0,0.08,0.16,0.07,0.35
				C1278.37,645.71,1278.33,645.87,1278.28,645.87z"/>
		</g>
	</g>
	<g>
		<g>
			<path class="st32" d="M1278.25,647.26c-0.04,0-0.08-0.16-0.07-0.35c0-0.19,0.04-0.35,0.09-0.35c0.04,0,0.08,0.16,0.07,0.35
				C1278.34,647.1,1278.3,647.26,1278.25,647.26z"/>
		</g>
	</g>
	<g>
		<g>
			<path class="st32" d="M1278.23,648.65c-0.04,0-0.08-0.16-0.07-0.35c0-0.19,0.04-0.35,0.09-0.35c0.04,0,0.08,0.16,0.07,0.35
				C1278.31,648.49,1278.27,648.65,1278.23,648.65z"/>
		</g>
	</g>
	<g>
		<g>
			<path class="st32" d="M1278.2,650.04c-0.04,0-0.08-0.16-0.07-0.35c0-0.19,0.04-0.35,0.09-0.35c0.04,0,0.08,0.16,0.07,0.35
				C1278.28,649.88,1278.24,650.04,1278.2,650.04z"/>
		</g>
	</g>
	<g>
		<g>
			<path class="st32" d="M1278.17,651.42c-0.04,0-0.08-0.16-0.07-0.35c0-0.19,0.04-0.35,0.09-0.35c0.04,0,0.08,0.16,0.07,0.35
				C1278.25,651.27,1278.21,651.43,1278.17,651.42z"/>
		</g>
	</g>
	<g>
		<g>
			<path class="st32" d="M1278.14,652.81c-0.04,0-0.08-0.16-0.07-0.35s0.04-0.35,0.09-0.35c0.04,0,0.08,0.16,0.07,0.35
				C1278.22,652.66,1278.18,652.82,1278.14,652.81z"/>
		</g>
	</g>
	<g>
		<g>
			<path class="st32" d="M1278.11,654.2c-0.04,0-0.08-0.16-0.07-0.35c0-0.19,0.04-0.35,0.09-0.35c0.04,0,0.08,0.16,0.07,0.35
				C1278.2,654.05,1278.16,654.21,1278.11,654.2z"/>
		</g>
	</g>
	<g>
		<g>
			<path class="st32" d="M1278.08,655.59c-0.04,0-0.08-0.16-0.07-0.35s0.04-0.35,0.09-0.35c0.04,0,0.08,0.16,0.07,0.35
				C1278.17,655.44,1278.13,655.6,1278.08,655.59z"/>
		</g>
	</g>
	<g>
		<g>
			<path class="st32" d="M1278.06,656.98c-0.04,0-0.08-0.16-0.07-0.35c0-0.19,0.04-0.35,0.09-0.35c0.04,0,0.08,0.16,0.07,0.35
				C1278.14,656.83,1278.1,656.98,1278.06,656.98z"/>
		</g>
	</g>
	<g>
		<g>
			<path class="st32" d="M1278.03,658.37c-0.04,0-0.08-0.16-0.07-0.35c0-0.19,0.04-0.35,0.09-0.35c0.04,0,0.08,0.16,0.07,0.35
				C1278.11,658.22,1278.07,658.37,1278.03,658.37z"/>
		</g>
	</g>
	<g>
		<g>
			<path class="st32" d="M1278,659.76c-0.04,0-0.08-0.16-0.07-0.35c0-0.19,0.04-0.35,0.09-0.35s0.08,0.16,0.07,0.35
				C1278.08,659.61,1278.04,659.76,1278,659.76z"/>
		</g>
	</g>
	<g>
		<g>
			<path class="st32" d="M1277.97,661.15c-0.04,0-0.08-0.16-0.07-0.35c0-0.19,0.04-0.35,0.09-0.35c0.04,0,0.08,0.16,0.07,0.35
				C1278.06,661,1278.02,661.15,1277.97,661.15z"/>
		</g>
	</g>
	<g>
		<g>
			<path class="st32" d="M1277.95,662.54c-0.04,0-0.08-0.16-0.07-0.35c0-0.19,0.04-0.35,0.09-0.35c0.04,0,0.08,0.16,0.07,0.35
				C1278.03,662.39,1277.99,662.54,1277.95,662.54z"/>
		</g>
	</g>
	<g>
		<g>
			<path class="st32" d="M1277.92,663.93c-0.04,0-0.08-0.16-0.07-0.35c0-0.19,0.04-0.35,0.09-0.35s0.08,0.16,0.07,0.35
				C1278,663.78,1277.96,663.93,1277.92,663.93z"/>
		</g>
	</g>
	<g>
		<g>
			<path class="st32" d="M1277.89,665.32c-0.04,0-0.08-0.16-0.07-0.35c0-0.19,0.04-0.35,0.09-0.35c0.04,0,0.08,0.16,0.07,0.35
				C1277.97,665.17,1277.93,665.32,1277.89,665.32z"/>
		</g>
	</g>
	<g>
		<g>
			<path class="st32" d="M1277.86,666.71c-0.04,0-0.08-0.16-0.07-0.35c0-0.19,0.04-0.35,0.09-0.35c0.04,0,0.08,0.16,0.07,0.35
				C1277.94,666.56,1277.9,666.71,1277.86,666.71z"/>
		</g>
	</g>
	<g>
		<g>
			<path class="st32" d="M1277.83,668.1c-0.04,0-0.08-0.16-0.07-0.35c0-0.19,0.04-0.35,0.09-0.35c0.04,0,0.08,0.16,0.07,0.35
				C1277.91,667.95,1277.88,668.1,1277.83,668.1z"/>
		</g>
	</g>
	<g>
		<g>
			<path class="st32" d="M1277.8,669.49c-0.04,0-0.08-0.16-0.07-0.35s0.04-0.35,0.09-0.35c0.04,0,0.08,0.16,0.07,0.35
				C1277.88,669.34,1277.85,669.49,1277.8,669.49z"/>
		</g>
	</g>
	<g>
		<g>
			<path class="st32" d="M1277.77,670.88c-0.04,0-0.08-0.16-0.07-0.35s0.04-0.35,0.09-0.35c0.04,0,0.08,0.16,0.07,0.35
				C1277.86,670.72,1277.82,670.88,1277.77,670.88z"/>
		</g>
	</g>
	<g>
		<g>
			<path class="st32" d="M1277.74,672.27c-0.04,0-0.08-0.16-0.07-0.35c0-0.19,0.04-0.35,0.09-0.35c0.04,0,0.08,0.16,0.07,0.35
				C1277.83,672.11,1277.79,672.27,1277.74,672.27z"/>
		</g>
	</g>
	<g>
		<g>
			<path class="st32" d="M1277.71,673.66c-0.04,0-0.08-0.16-0.07-0.35c0-0.19,0.04-0.35,0.09-0.35c0.04,0,0.08,0.16,0.07,0.35
				C1277.8,673.5,1277.76,673.66,1277.71,673.66z"/>
		</g>
	</g>
	<g>
		<g>
			<path class="st32" d="M1277.68,675.04c-0.04,0-0.08-0.16-0.07-0.35c0-0.19,0.04-0.35,0.09-0.35c0.04,0,0.08,0.16,0.07,0.35
				C1277.77,674.89,1277.73,675.05,1277.68,675.04z"/>
		</g>
	</g>
	<g>
		<g>
			<path class="st32" d="M1277.65,676.43c-0.04,0-0.08-0.16-0.07-0.35c0-0.19,0.04-0.35,0.09-0.35c0.04,0,0.08,0.16,0.07,0.35
				C1277.74,676.28,1277.7,676.43,1277.65,676.43z"/>
		</g>
	</g>
	<g>
		<g>
			<path class="st32" d="M1277.62,677.82c-0.04,0-0.08-0.16-0.07-0.35s0.04-0.35,0.09-0.35c0.04,0,0.08,0.16,0.07,0.35
				C1277.7,677.67,1277.67,677.82,1277.62,677.82z"/>
		</g>
	</g>
	<g>
		<g>
			<path class="st32" d="M1277.59,679.21c-0.04,0-0.08-0.16-0.07-0.35c0-0.19,0.04-0.35,0.09-0.35c0.04,0,0.08,0.16,0.07,0.35
				C1277.67,679.06,1277.63,679.21,1277.59,679.21z"/>
		</g>
	</g>
	<g>
		<g>
			<path class="st32" d="M1277.56,680.6c-0.04,0-0.08-0.16-0.07-0.35c0-0.19,0.04-0.35,0.09-0.35c0.04,0,0.08,0.16,0.07,0.35
				C1277.64,680.44,1277.6,680.6,1277.56,680.6z"/>
		</g>
	</g>
	<g>
		<g>
			<path class="st32" d="M1277.53,681.99c-0.04,0-0.08-0.16-0.07-0.35c0-0.19,0.04-0.35,0.09-0.35c0.04,0,0.08,0.16,0.07,0.35
				C1277.61,681.83,1277.57,681.99,1277.53,681.99z"/>
		</g>
	</g>
	<g>
		<g>
			<path class="st32" d="M1277.49,683.37c-0.04,0-0.08-0.16-0.07-0.35c0-0.19,0.04-0.35,0.09-0.35c0.04,0,0.08,0.16,0.07,0.35
				C1277.58,683.22,1277.54,683.37,1277.49,683.37z"/>
		</g>
	</g>
	<g>
		<g>
			<path class="st32" d="M1277.46,684.76c-0.04,0-0.08-0.16-0.07-0.35s0.04-0.35,0.09-0.35c0.04,0,0.08,0.16,0.07,0.35
				C1277.54,684.61,1277.5,684.76,1277.46,684.76z"/>
		</g>
	</g>
	<g>
		<g>
			<path class="st32" d="M1277.42,686.15c-0.04,0-0.08-0.16-0.07-0.35c0-0.19,0.04-0.35,0.09-0.35c0.04,0,0.08,0.16,0.07,0.35
				C1277.51,685.99,1277.47,686.15,1277.42,686.15z"/>
		</g>
	</g>
	<g>
		<g>
			<path class="st32" d="M1277.39,687.54c-0.04,0-0.08-0.16-0.07-0.35c0-0.19,0.04-0.35,0.09-0.35c0.04,0,0.08,0.16,0.07,0.35
				C1277.47,687.38,1277.43,687.54,1277.39,687.54z"/>
		</g>
	</g>
	<g>
		<g>
			<path class="st32" d="M1277.35,688.92c-0.04,0-0.08-0.16-0.07-0.35c0.01-0.19,0.04-0.35,0.09-0.35c0.04,0,0.08,0.16,0.07,0.35
				C1277.44,688.77,1277.4,688.92,1277.35,688.92z"/>
		</g>
	</g>
	<g>
		<g>
			<path class="st32" d="M1277.32,690.31c-0.04,0-0.08-0.16-0.07-0.35c0.01-0.19,0.04-0.35,0.09-0.34c0.04,0,0.08,0.16,0.07,0.35
				C1277.4,690.16,1277.36,690.31,1277.32,690.31z"/>
		</g>
	</g>
	<g>
		<g>
			<path class="st32" d="M1277.28,691.69c-0.04,0-0.07-0.16-0.07-0.35c0.01-0.19,0.04-0.35,0.09-0.34s0.07,0.16,0.07,0.35
				C1277.36,691.54,1277.32,691.7,1277.28,691.69z"/>
		</g>
	</g>
	<g>
		<g>
			<path class="st32" d="M1277.24,693.08c-0.04,0-0.07-0.16-0.07-0.35s0.04-0.35,0.09-0.34c0.04,0,0.08,0.16,0.07,0.35
				C1277.33,692.93,1277.29,693.08,1277.24,693.08z"/>
		</g>
	</g>
	<g>
		<g>
			<path class="st32" d="M1277.2,694.47c-0.04,0-0.07-0.16-0.07-0.35c0.01-0.19,0.05-0.35,0.09-0.34c0.04,0,0.07,0.16,0.07,0.35
				C1277.29,694.31,1277.25,694.47,1277.2,694.47z"/>
		</g>
	</g>
	<g>
		<g>
			<path class="st32" d="M1277.17,695.85c-0.04,0-0.07-0.16-0.07-0.35c0.01-0.19,0.05-0.35,0.09-0.34c0.04,0,0.07,0.16,0.07,0.35
				C1277.25,695.7,1277.21,695.85,1277.17,695.85z"/>
		</g>
	</g>
	<g>
		<g>
			<path class="st32" d="M1277.12,697.24c-0.04,0-0.07-0.16-0.07-0.35c0.01-0.19,0.05-0.35,0.09-0.34c0.04,0,0.07,0.16,0.07,0.35
				C1277.21,697.08,1277.17,697.24,1277.12,697.24z"/>
		</g>
	</g>
	<g>
		<g>
			<path class="st32" d="M1277.09,698.56c-0.04,0-0.08-0.14-0.07-0.32c0.01-0.17,0.04-0.31,0.09-0.31c0.04,0,0.07,0.14,0.07,0.32
				C1277.17,698.42,1277.13,698.56,1277.09,698.56z"/>
		</g>
	</g>
</g>
<path class="st35" d="M1275.77,539.55c-0.08-1.39-0.5-7.52-0.5-7.52s-4.76-0.27-5.26-4.54c-0.5-4.27-0.69-14.16-0.69-14.16l0,0
	c5.22-2.59,11.57-2.43,16.63,0.42l1.19,0.67l0.13,5.02l-0.27,4.52l-0.2,12.29l-10.99,3.31
	C1275.79,539.56,1275.79,539.56,1275.77,539.55z"/>
<path class="st26" d="M1270.13,520.2c0.01,0.3,0.3,0.54,0.63,0.52c0.33-0.01,0.59-0.27,0.58-0.57s-0.3-0.54-0.63-0.52
	C1270.37,519.64,1270.11,519.89,1270.13,520.2z"/>
<path class="st26" d="M1270.08,520.01c0.08,0.07,0.51-0.29,1.16-0.35c0.65-0.07,1.15,0.21,1.21,0.12c0.03-0.04-0.06-0.16-0.27-0.29
	c-0.22-0.12-0.57-0.23-0.98-0.19c-0.4,0.04-0.73,0.21-0.91,0.37C1270.1,519.84,1270.04,519.98,1270.08,520.01z"/>
<path class="st26" d="M1277.51,519.48c-0.27,0.18-0.32,0.53-0.12,0.77s0.58,0.29,0.84,0.11c0.27-0.18,0.32-0.53,0.12-0.77
	C1278.15,519.34,1277.78,519.3,1277.51,519.48z"/>
<path class="st26" d="M1277.26,519.72c0.08,0.07,0.51-0.29,1.16-0.35c0.65-0.07,1.15,0.21,1.21,0.12c0.03-0.04-0.06-0.16-0.27-0.29
	c-0.22-0.12-0.57-0.23-0.98-0.19s-0.73,0.21-0.91,0.37C1277.28,519.55,1277.23,519.69,1277.26,519.72z"/>
<path class="st26" d="M1275.17,524.79c0,0.04-0.41,0.08-1.06,0.12c-0.13,0.01-0.45,0.04-0.6-0.23c-0.11-0.24-0.02-0.46,0.03-0.64
	c0.13-0.43,0.24-0.83,0.36-1.25c0.53-1.76,1.04-3.18,1.13-3.15c0.09,0.02-0.27,1.47-0.8,3.24c-0.13,0.41-0.25,0.81-0.39,1.24
	c-0.07,0.19-0.12,0.36-0.07,0.46c0.03,0.09,0.17,0.11,0.34,0.11C1274.76,524.71,1275.17,524.75,1275.17,524.79z"/>
<path class="st14" d="M1277.34,525.27c0.64-0.42-1.76,1.06-3.09,1.11c0,0,0.87,1.03,2.18,0.47
	C1277.78,526.26,1277.34,525.27,1277.34,525.27z"/>
<path class="st37" d="M1275.35,532.11c0,0,3.17-0.1,6.14-2.17c0,0-1.26,3.2-5.98,3.21L1275.35,532.11z"/>
<g>
	<path class="st26" d="M1284.75,510.83c-1.36-0.95-2.74-1.9-4.33-2.48c-1.59-0.58-3.44-0.73-4.99-0.07
		c-0.71,0.31-1.34,0.77-2.07,1.03c-1.54,0.55-3.44,0.14-4.79,1.01c-1.23,0.8-1.49,2.5-0.78,3.72c0.71,1.22,2.2,1.95,3.7,2.12
		c1.5,0.17,3.02-0.14,4.45-0.59c0.84-0.27,1.76-0.58,2.59-0.29c0.79,0.28,1.34,1.07,2.19,1.14c0.74,0.06,1.61-0.44,2.14,0.03
		c0.22,0.19,0.28,0.48,0.34,0.75c0.29,1.47,1.25,4.45,1.54,5.92c1.06,0.42,1.56-0.88,2.72-0.9c0.19-3.26,1.73-6.53,0.83-9.69
		c-0.22-0.78-0.63-1.56-1.37-2.01s-1.87-0.41-2.39,0.24"/>
</g>
<g>
	<g>
		<path class="st35" d="M1285.47,518.8c0.09-0.05,3.15-1.08,3.69,2.37c0.55,3.45-3.46,2.81-3.48,2.72
			C1285.66,523.79,1285.47,518.8,1285.47,518.8z"/>
	</g>
	<g>
		<g>
			<path class="st37" d="M1286.65,522.53c0.02-0.01,0.07,0.03,0.19,0.07c0.12,0.03,0.31,0.04,0.5-0.06
				c0.38-0.19,0.62-0.81,0.54-1.43c-0.04-0.32-0.16-0.61-0.32-0.84c-0.16-0.24-0.36-0.39-0.57-0.4c-0.21-0.02-0.33,0.11-0.36,0.22
				c-0.04,0.1,0,0.17-0.02,0.18c-0.01,0.01-0.09-0.05-0.08-0.19c0-0.07,0.04-0.16,0.11-0.24c0.08-0.08,0.21-0.13,0.35-0.14
				c0.3-0.02,0.6,0.19,0.77,0.44c0.19,0.25,0.34,0.58,0.38,0.93c0.09,0.7-0.2,1.4-0.73,1.62c-0.26,0.1-0.49,0.05-0.62-0.01
				C1286.67,522.61,1286.64,522.54,1286.65,522.53z"/>
		</g>
	</g>
</g>
<g>
	<g>
		<path class="st26" d="M1283.93,508.52c0.11-0.02,0.34,0.52,0.51,1.22c0.18,0.7,0.23,1.28,0.13,1.3c-0.11,0.02-0.34-0.52-0.51-1.22
			C1283.88,509.12,1283.83,508.54,1283.93,508.52z"/>
	</g>
</g>
<g>
	<g>
		<path class="st26" d="M1285.6,508.69c0.1,0.04-0.07,0.6-0.38,1.25c-0.31,0.65-0.64,1.15-0.74,1.11c-0.1-0.04,0.07-0.6,0.38-1.25
			C1285.17,509.14,1285.5,508.65,1285.6,508.69z"/>
	</g>
</g>
<g>
	<path class="st35" d="M1276.41,563.11c-0.47,1.37-0.87,2.25-1.35,2.72c-2.16,2.15-20.84-16.34-20.84-16.34
		c-0.09-0.64-0.29-2.97-0.14-3.6c0.18-0.77,0.46-1.78,0.81-2.29c0.43-0.63-0.21-1.4-0.9-1.15c-0.68,0.25-1.9,1.97-2.21,4.33
		c-0.31,2.37-3.06-0.57-3.88-1.71c-0.82-1.14-3.68-4.58-4.26-4.63c-0.86-0.07-0.95,0.89-0.1,2.02c0.86,1.14,3.3,4.45,2.98,4.67
		c-0.62,0.43-5-5.38-5-5.38s-0.68-1.21-1.48-0.81c-1.45,0.72,3.42,6.64,3.89,7.2c0.33,0.39-0.15,0.54-0.48,0.1
		c-0.34-0.44-4.24-5.46-5.26-4.82c-1.06,0.67,3.26,4.81,3.84,6.04c0.66,1.4-3.5-3.67-4.56-3.1c-0.4,0.21-0.66,0.42,1.85,3.13
		c1.6,1.72,5.4,4.87,8.06,7.02c5.3,5.74,23.65,24.85,32.23,23.78c1.88-0.24,3.63-1.06,4.71-2.68c2.47-3.7,4.35-6.68,5.83-10.26
		L1276.41,563.11z"/>
</g>
</svg>
