<?xml version="1.0" encoding="utf-8"?>
<!-- Generator: Adobe Illustrator 24.0.0, SVG Export Plug-In . SVG Version: 6.00 Build 0)  -->
<svg version="1.1" id="Layer_1" xmlns="http://www.w3.org/2000/svg" xmlns:xlink="http://www.w3.org/1999/xlink" x="0px" y="0px"
	 viewBox="0 0 1366 768" style="enable-background:new 0 0 1366 768;" xml:space="preserve">
<style type="text/css">
	.st0{fill:#DCE4FF;stroke:#485070;stroke-width:0.75;stroke-miterlimit:10;}
	.st1{fill:#BAC5EF;stroke:#485070;stroke-width:0.75;stroke-miterlimit:10;}
	.st2{fill:#545D78;}
	.st3{fill:#333333;}
	.st4{fill:#FEFEFF;}
	.st5{fill:#E6EDFF;}
	.st6{fill:#6EB9FF;}
	.st7{fill:#628AEC;}
	.st8{fill:#61B5FF;}
	.st9{fill:#3FD4C7;}
	.st10{fill:none;stroke:#485070;stroke-width:0.75;stroke-miterlimit:10;}
	.st11{fill:none;stroke:#485070;stroke-width:0.75;stroke-linecap:round;stroke-miterlimit:10;}
	.st12{fill:#485070;}
	.st13{fill:#3FA0D4;}
	.st14{fill:#FFFFFF;}
	.st15{fill:#67C2C2;}
	.st16{fill:#CF9378;}
	.st17{fill:#66A3F2;}
	.st18{fill:none;stroke:#485070;stroke-width:0.3975;stroke-miterlimit:10;}
	.st19{fill:#B3B3B3;}
	.st20{fill:none;stroke:#B3B3B3;stroke-width:0.75;stroke-linecap:round;stroke-miterlimit:10;}
	.st21{fill:none;stroke:#485070;stroke-width:0.3975;stroke-linecap:round;stroke-miterlimit:10;}
	.st22{fill:#C28523;}
	.st23{fill:#DC8B77;}
	.st24{fill:#757E96;}
	.st25{fill:none;stroke:#485070;stroke-width:0.75;stroke-linecap:round;stroke-linejoin:round;stroke-miterlimit:10;}
	.st26{fill:#2C4852;}
	.st27{fill:#4F9EFF;}
	.st28{fill:#E7E7E7;}
	.st29{fill:#E1E1E1;}
	.st30{opacity:0.2;}
	.st31{opacity:0.1;}
	.st32{fill:#375A64;}
	.st33{fill:#4F95FF;}
	.st34{fill:#1A2E35;}
	.st35{fill:#F4BBAC;}
	.st36{fill:#FFB861;}
	.st37{fill:#EF8876;}
</style>
<g>
	<path class="st0" d="M320.3,680.91H135.64c-4.83,0-8.74-3.91-8.74-8.74v-97.5c0-4.83,3.91-8.74,8.74-8.74H320.3
		c4.83,0,8.74,3.91,8.74,8.74v97.5C329.04,676.99,325.12,680.91,320.3,680.91z"/>
	<path class="st1" d="M344,681.05L344,681.05H111.94l0,0c0,5.1,4.32,9.23,9.65,9.23h212.77C339.68,690.28,344,686.15,344,681.05z"/>
	<path class="st2" d="M317.36,677.3H138.58c-3.77,0-6.83-3.06-6.83-6.83v-93.19c0-3.77,3.06-6.83,6.83-6.83h178.77
		c3.77,0,6.83,3.06,6.83,6.83v93.19C324.19,674.24,321.13,677.3,317.36,677.3z"/>
</g>
<path class="st3" d="M230.66,568.09c0,0.79-0.67,1.43-1.5,1.43c-0.83,0-1.5-0.64-1.5-1.43c0-0.79,0.67-1.43,1.5-1.43
	C229.99,566.66,230.66,567.3,230.66,568.09z"/>
<g>
	
		<rect x="120.63" y="492.96" transform="matrix(6.123234e-17 -1 1 6.123234e-17 -341.37 797.3082)" class="st4" width="214.68" height="152.75"/>
</g>
<g>
	<g>
		<g>
			<polygon class="st5" points="242,659.64 221.67,635.42 203.99,657.08 188.67,641.25 190.67,639.47 203.82,653.06 221.64,631.21 
				241.44,654.8 252.92,632.36 277.18,628.26 277.66,630.83 254.77,634.7 			"/>
		</g>
		<g>
			<path class="st6" d="M280.92,629.55c0-1.85-1.57-3.35-3.5-3.35s-3.5,1.5-3.5,3.35c0,1.85,1.57,3.35,3.5,3.35
				S280.92,631.4,280.92,629.55z"/>
		</g>
		<g>
			<path class="st7" d="M245.37,657.22c0-1.85-1.57-3.35-3.5-3.35c-1.93,0-3.5,1.5-3.5,3.35c0,1.85,1.57,3.35,3.5,3.35
				C243.8,660.57,245.37,659.07,245.37,657.22z"/>
		</g>
		<g>
			<path class="st8" d="M256.94,633.53c0-1.85-1.57-3.35-3.5-3.35c-1.93,0-3.5,1.5-3.5,3.35c0,1.85,1.57,3.35,3.5,3.35
				C255.37,636.89,256.94,635.38,256.94,633.53z"/>
		</g>
		<g>
			<ellipse class="st8" cx="221.52" cy="633.53" rx="3.5" ry="3.35"/>
		</g>
		<g>
			<ellipse class="st6" cx="204.32" cy="654.67" rx="3.5" ry="3.35"/>
		</g>
		<g>
			<path class="st9" d="M193.94,641c0-1.85-1.57-3.35-3.5-3.35c-1.93,0-3.5,1.5-3.5,3.35c0,1.85,1.57,3.35,3.5,3.35
				C192.37,644.35,193.94,642.85,193.94,641z"/>
		</g>
	</g>
	<polyline class="st10" points="175.02,619.83 175.02,665.52 281.63,665.52 	"/>
</g>
<rect x="183.5" y="546.88" class="st8" width="16.27" height="36.15"/>
<rect x="208.65" y="529.19" class="st6" width="16.27" height="53.84"/>
<g>
	<g>
		<path class="st11" d="M180.46,536.52c19.42-8.46,36.91-20.95,50.91-36.36"/>
		<g>
			<polygon class="st12" points="233.1,498.22 231.71,501.92 231.2,500.27 229.52,499.89 			"/>
		</g>
	</g>
</g>
<rect x="233.81" y="504.77" class="st13" width="16.27" height="78.26"/>
<rect x="258.96" y="539" class="st7" width="16.27" height="44.03"/>
<polyline class="st10" points="173.92,506.23 173.92,583.15 282.64,583.15 "/>
<rect x="173.3" y="590.57" class="st5" width="109.17" height="5.26"/>
<rect x="173.3" y="600.21" class="st5" width="109.17" height="5.26"/>
<rect x="173.3" y="609.85" class="st5" width="109.17" height="5.26"/>
<g>
	<path class="st14" d="M114.48,562.39c3.29,3.6,4.64,8.46,5.76,13c1.45,5.88,2.89,11.75,4.34,17.63c0.34,1.38,0.68,2.77,0.72,4.19
		c0.07,2.27-0.61,5.17-1.17,7.36c-0.72,2.81-2.47,2.64-5.09,2.39c-4.14-0.39-9.77-1.59-12.56-4.82c-1.33-1.53-1.76-3.59-2.14-5.54
		c-0.53-2.69-1.05-5.39-1.58-8.08c-2.15-11-4.3-22.35-1.87-33.3C106.7,556.03,111.1,558.69,114.48,562.39z"/>
	<path class="st15" d="M120.57,597.19c1.83,0.83,3.58,1.9,5.34,2.91c2.8,1.61,5.72,2.74,8.58,4.24c0.81,0.43,1.64,0.85,2.54,1
		c1.53,0.26,3.15-0.29,4.7-0.09c2.06,0.26,3.83,2.03,4.57,4.35c1.26,3.92-1.69,2.46-3.65,2.12c-1.53-0.27-3.05-0.54-4.58-0.8
		c-6-1.05-11.75-1.56-17.89-1.86c-3.34-0.17-9.22-0.09-11.71-3c-1.21-1.41-2.56-7.58-0.96-9.11c0.3-0.29,0.67-0.42,1.02-0.53
		c3.2-1.02,6.49-1.06,9.59-0.14C118.96,596.51,119.77,596.83,120.57,597.19z"/>
	<g>
		<path class="st12" d="M118.4,642.53H59.87c-1.92,0-3.48-1.49-3.48-3.33l0,0c0-1.84,1.56-3.33,3.48-3.33h58.53
			c1.92,0,3.48,1.49,3.48,3.33l0,0C121.88,641.04,120.32,642.53,118.4,642.53z"/>
		<path class="st12" d="M53.69,597.65v-17.7c0-3.5,2.84-6.33,6.33-6.33h44.31c3.5,0,6.33,2.84,6.33,6.33v17.7
			c0,3.5-2.84,6.33-6.33,6.33H60.03C56.53,603.98,53.69,601.15,53.69,597.65z"/>
		<g>
			<rect x="60.99" y="599.04" class="st12" width="3.54" height="40.41"/>
		</g>
		<g>
			<rect x="99.17" y="599.04" class="st12" width="3.54" height="40.41"/>
		</g>
		<g>
			<rect x="85.53" y="640.85" class="st12" width="3.54" height="49.08"/>
		</g>
		<g>
			<rect x="58.93" y="640.85" class="st12" width="3.54" height="49.08"/>
		</g>
		<g>
			<rect x="115.66" y="640.85" class="st12" width="3.54" height="49.08"/>
		</g>
		<g>
			<rect x="97.5" y="640.85" class="st12" width="3.54" height="49.08"/>
		</g>
	</g>
	<g>
		<path class="st16" d="M154.61,658.08c-2.01,0.4-3.39,0.5-5.76,0.82c-3.45,0.46-6.91,0.85-10.37,1.14
			c0.9,5.97,1.73,11.21,1.94,12.27c0.91,4.57,0.41,16.02,2.54,20.37c2.6,0.31,4.84-0.1,7.27-0.29
			C151.51,680.93,152.57,669.43,154.61,658.08z"/>
		<path class="st17" d="M136.53,668.13c0.01,0.93,0.03,1.89,0.22,2.8c2.74,2.77,6.86,4.2,10.81,4.39c2.32,0.11,4.54-0.24,6.66-0.89
			c0.25-4.47,0.53-8.94,0.83-13.41c0.39-5.81,0.7-11.63,1.46-17.41c0.34-2.57,0.73-10.2,0.09-15.63c-1.55-5.68-5.49-7.23-5.49-7.23
			s-11.03-4.17-19.47-5.95c-10.37-2.18-20.9-3.79-31.33-5.96c-5.01-1.04-13.39-0.85-15.98,4.39c-2.99,6.06,2.97,14.12,7.78,17.62
			c4.97,3.62,11.11,5.45,17.21,6.73c8.64,1.8,17.5,2.62,26.34,2.42C135.39,640.01,136.52,666.04,136.53,668.13z"/>
		<path class="st12" d="M135.66,640.06c0.02-0.02,0.04-0.03,0.05-0.05c-1.93-1.83-3.74-3.77-5.67-5.6c-2.87-2.72-5.65-5.53-8.5-8.27
			c-5.66-5.45-11.34-10.86-16.88-16.43c-1.45-0.28-2.9-0.57-4.35-0.87c-5.01-1.04-13.39-0.85-15.98,4.39
			c-2.99,6.06,2.97,14.12,7.78,17.62c4.97,3.62,11.11,5.45,17.21,6.73c8.64,1.8,17.5,2.62,26.34,2.42
			C135.67,640.01,135.66,640.04,135.66,640.06z"/>
		<path class="st18" d="M135.74,641.67c0.01-2.65,0.39-5.88,0.39-8.53"/>
		<path class="st10" d="M142.86,618.2c-7.41-2.28-14.18-4.39-25.06-5.8"/>
		<g>
			<path class="st19" d="M165.42,698.38h-22.77c-0.53,0-0.96-0.43-0.96-0.96v-1.5h23.73V698.38z"/>
			<path class="st12" d="M165.08,696.59c0.08-0.11,0.16-0.23,0.22-0.36c0.58-1.21-0.1-2.67-1.2-3.53c-1.1-0.86-2.54-1.26-3.94-1.63
				c-2.98-0.8-5.85-1.56-8.92-1.96c-0.81-0.11-9.45-0.86-9.41-1.24c-0.13,2.08-0.27,4.17-0.4,6.25c-0.06,0.86-0.28,1.71-0.01,2.47
				H165.08z"/>
			<path class="st12" d="M145.77,686.15c1.32-1.04,3.36-1.04,4.78-0.13c1.42,0.91,2.18,2.6,2.11,4.24c-0.01,0.3-0.07,0.63-0.31,0.83
				c-0.24,0.2-0.58,0.22-0.9,0.22c-1.36,0.02-2.73,0.03-4.09,0.05c-0.85,0.01-1.93,0.2-2.53-0.53
				C143.79,689.53,144.75,687.12,145.77,686.15z"/>
			<path class="st20" d="M154.76,689.7c-0.8-0.08-1.62,0.41-1.9,1.13"/>
			<path class="st20" d="M155.25,691.69c0.42-0.66,1.21-1.09,2.01-1.1"/>
			<path class="st20" d="M158.25,692c0.2-0.48,0.72-0.82,1.25-0.82"/>
		</g>
	</g>
	<g>
		<path class="st16" d="M115.28,655c-3.04,0.41-6.09,0.75-9.14,1.02c2.31,10.86,3.37,21.92,5.26,32.85
			c2.59-0.01,4.96-0.53,7.71-0.48c0.52-3.31,1.58-22.97,3.21-34.49C119.53,654.56,118.13,654.61,115.28,655z"/>
		<path class="st17" d="M106.6,670.46c0.63,2.45,1.36,3.95,3.88,4.9c2.18,0.83,4.57,1.17,6.91,0.93c3.15-0.32,5.7-2.53,5.7-2.53
			s3.25-46.38-0.79-52.32c-4.95-7.27-15.79-8.76-24.23-10.54c-7.4-1.55-14.88-2.82-22.35-4.21c-1.82,6.61-0.51,14.39,2.14,20.49
			c0.01,0.03,0.03,0.06,0.04,0.09c2.1,4.79,6.9,8.03,12.31,8.47c3.96,0.32,7.93,0.44,11.9,0.36
			C102.05,636.11,104.35,661.7,106.6,670.46z"/>
		<path class="st18" d="M102.17,637.77c0.01-2.65,0.39-5.88,0.39-8.53"/>
		<g>
			<path class="st19" d="M134.52,698.02h-22.77c-0.53,0-0.96-0.43-0.96-0.96v-1.5h23.73V698.02z"/>
			<path class="st12" d="M134.18,696.23c0.08-0.11,0.16-0.23,0.22-0.36c0.58-1.21-0.1-2.67-1.2-3.53c-1.1-0.86-2.54-1.26-3.94-1.63
				c-2.98-0.8-5.85-1.56-8.92-1.96c-0.81-0.11-9.45-0.86-9.41-1.24c-0.13,2.08-0.27,4.17-0.4,6.25c-0.06,0.86-0.28,1.71-0.01,2.47
				H134.18z"/>
			<path class="st12" d="M114.86,685.79c1.32-1.04,3.36-1.04,4.78-0.13c1.42,0.91,2.18,2.6,2.11,4.24c-0.01,0.3-0.07,0.63-0.31,0.83
				c-0.24,0.2-0.58,0.22-0.9,0.22c-1.36,0.02-2.73,0.03-4.09,0.05c-0.85,0.01-1.93,0.2-2.53-0.53
				C112.88,689.18,113.85,686.76,114.86,685.79z"/>
			<path class="st20" d="M123.85,689.35c-0.8-0.08-1.62,0.41-1.9,1.13"/>
			<path class="st20" d="M124.35,691.33c0.42-0.66,1.21-1.09,2.01-1.1"/>
			<path class="st20" d="M127.35,691.64c0.2-0.48,0.72-0.82,1.25-0.82"/>
		</g>
	</g>
	<g>
		<path class="st14" d="M74.72,615.66c0.21,1.07,0.42,2.13,0.63,3.2c3.85-1.94,8.46-1.53,12.81-1.54
			c9.52-0.02,19.03-2.29,27.44-6.56c-0.47-2.26-1.01-4.44-1.02-6.72c-0.01-2.32-1.01-4.56-1.01-6.89c-0.16-3.14-0.03-6.29,0.13-9.42
			c0.31-5.94,0.73-11.95-0.43-17.8c-0.75-3.79-2.24-7.53-4.65-10.65c-1.11-1.43-2.64-3.29-4.34-4.12c-1.8-0.87-4.5-0.58-6.52-0.75
			c-1.48-0.13-2.98-0.25-4.45-0.01c-1.81,0.3-3.47,1.13-5.04,2.03c-8.38,4.81-9.4,12.56-11.92,20.91c-1.26,4.17-3.23,8.12-4.5,12.28
			c-0.71,2.33-1,4.75-0.94,7.18c0.06,2.19,0.94,4.14,1.36,6.29C73.08,607.28,73.9,611.47,74.72,615.66z"/>
		<path class="st21" d="M98.43,562.04c1.55,1.26,3.62,1.92,5.65,1.81c0.7-0.04,1.43-0.18,1.99-0.6c0.56-0.41,0.89-1.16,0.64-1.79"/>
		<path class="st21" d="M96.5,579.52c1.79,5.7,6.54,10.48,12.4,12.49"/>
		<path class="st21" d="M101.93,583.94c1.52,1.74,3.76,2.89,6.12,3.15"/>
		<path class="st21" d="M91.23,583.59c2.15,6.51,6.01,12.49,11.14,17.24"/>
		<path class="st18" d="M110.52,561.72c2.41,3.96,2.44,6.22,2.98,9.71c0.6,3.91,0.88,7.87,0.83,11.82
			c-0.09,6.63-1.62,12.7-0.07,19.27"/>
	</g>
	<g id="XMLID_7_">
		<g id="XMLID_8_">
			<path class="st16" d="M105.48,553.18c0.37-1.11,0.86-2.16,1.49-3.14c-1.89-0.06-3.66-0.64-5.2-1.69
				c-0.76-0.52-1.44-1.13-2.09-1.76c-0.23-0.23-0.58-0.8-0.96-1.22c-0.38,3.99-1.94,7.73-5.49,10.01c1.2,2.1,3.21,3.67,5.37,4.87
				c1.85,1.03,6.47,3.01,6.57-0.58c0.03-1.18-0.45-2.26-0.35-3.45C104.92,555.19,105.15,554.16,105.48,553.18z"/>
		</g>
	</g>
	<g id="XMLID_2_">
		<g id="XMLID_3_">
			<path class="st22" d="M104.82,556.53c0-0.11,0-0.21,0.01-0.32c0.09-1.03,0.33-2.06,0.65-3.04c0.37-1.11,0.86-2.16,1.49-3.14
				c-1.89-0.06-3.66-0.64-5.2-1.69c-0.76-0.52-1.44-1.13-2.09-1.76c-0.23-0.23-0.58-0.8-0.96-1.22c-0.06,0.58-0.14,1.16-0.25,1.73
				C98.73,550.82,101.4,554.84,104.82,556.53z"/>
		</g>
	</g>
	<path class="st14" d="M77.57,562.39c-3.29,3.6-4.64,8.46-5.76,13c-1.45,5.88-2.89,11.75-4.34,17.63c-0.5,2.04-1.31,4.82-0.83,6.9
		c0.51,2.26,2.22,4.35,4.27,5.53c2.19,1.26,5.52,1.83,7.92,0.76c2.35-1.05,5.05-2.11,6.75-4.08c1.33-1.53,1.76-3.59,2.14-5.54
		c0.53-2.69,1.05-5.39,1.58-8.08c2.15-11,4.3-22.35,1.87-33.3C85.35,556.03,80.95,558.69,77.57,562.39z"/>
	<path class="st18" d="M91.27,573.31c-4.78,1.19-4.36,7.05-4.79,10.66c-0.64,5.34-1.7,10.63-3.18,15.81"/>
	<path class="st18" d="M87.67,576.32c0.53-1.59,1.55-3.03,2.91-4.08"/>
	<path class="st16" d="M84.85,598.25c2.57,0.54,5.08,1.32,7.6,2.05c4,1.16,8.05,1.82,12.11,2.86c1.15,0.29,2.33,0.58,3.52,0.59
		c2.05,0.02,4.04-0.78,6.09-0.82c2.75-0.06,5.43,1.41,6.92,3.59c2.51,3.67-1.65,2.69-4.27,2.65c-2.04-0.03-4.09-0.06-6.13-0.09
		c-8.04-0.11-15.63,0.28-23.7,0.93c-4.38,0.35-12.01,1.33-15.91-1.15c-1.89-1.21-5.01-7.09-3.28-8.84c0.33-0.33,0.78-0.51,1.22-0.68
		c3.94-1.5,8.21-2.05,12.44-1.62C82.61,597.83,83.73,598.02,84.85,598.25z"/>
	<path class="st23" d="M143.5,601.15c-0.05,0-0.1,0-0.15,0"/>
	<g>
		<path class="st12" d="M152.07,619.82H99.23c-0.66,0-1.2-0.54-1.2-1.2l0,0c0-0.66,0.54-1.2,1.2-1.2h52.84c0.66,0,1.2,0.54,1.2,1.2
			v0C153.27,619.29,152.73,619.82,152.07,619.82z"/>
		<path class="st24" d="M158.85,619.82h-47.21l4.11-25.95c0.14-0.9,0.94-1.57,1.87-1.57h43.46c1.12,0,1.97,0.97,1.79,2.06
			L158.85,619.82z"/>
		<ellipse class="st14" cx="139.15" cy="605.53" rx="3.14" ry="3"/>
	</g>
	<g id="XMLID_14_">
		<g id="XMLID_15_">
			<path class="st16" d="M114.83,536.66c-0.54-2.01-2.8-0.26-4.86-0.94c-1.79-0.59-3.15-1.12-5.06-0.8
				c-1.7,0.28-3.34,1.09-4.41,2.41c-0.29,0.36-0.55,0.72-0.79,1.08c-0.63,1.28-1.21,2.59-1.59,3.97c0,0.03-0.01,0.06-0.01,0.09
				c0.1,2.64,1.03,5.06,2.55,7.07c1.48,1.96,3.89,3.19,6.39,2.89c1.34-0.16,2.6-0.71,3.68-1.8c1.08-1.09,1.82-2.45,2.44-3.84
				C114.12,544.69,115.43,538.88,114.83,536.66z"/>
		</g>
	</g>
	<path class="st12" d="M104.88,538.64c0.02-0.09,0.04-0.19,0.06-0.3c0.19-0.84,0.37-1.68,0.55-2.52c2.22,1.59,4.63,3.85,7.51,4.76
		c2.18,0.69,4.63-0.08,6.01-1.81c0.25-0.31,0.44-0.65,0.62-1c0.08-0.16,0.3-0.83,0.38-0.89c-0.77,0.5-1.88,0.14-2.5-0.52
		c-0.62-0.67-0.9-1.55-1.25-2.38c-0.83-1.94-2.21-3.69-4.01-4.88c-1.81-1.19-4.05-1.8-6.23-1.55c-1.37,0.16-2.7,0.66-3.8,1.46
		c-0.54,0.39-1.05,0.86-1.45,1.39c-0.18,0.25-0.97,1.59-0.65,1.86c-0.49-0.4-1.25-0.36-1.8-0.05c-0.55,0.31-0.93,0.84-1.25,1.37
		c-1.35,2.27-1.84,4.99-1.43,7.56c0.19,1.15,0.62,2.16,1.07,3.22c0.36,0.87,0.95,1.85,2.06,1.87c1.53,0.03,1.36-2.43,1.8-3.7
		c0.17-0.5,0.13-1.12,0.75-1.27c0.63-0.15,1.65,0.99,2.13,0.06c0.17-0.34,0.09-0.74,0.01-1.11s-0.14-0.78,0.07-1.1
		c0.02-0.03,0.81,0,0.93-0.04C104.75,538.98,104.83,538.84,104.88,538.64z"/>
	<path class="st11" d="M101.09,528.44c-1.2,1.53-1.45,3.69-0.62,5.43"/>
	<path class="st11" d="M96.86,531.73c0.98-0.58,2.38-0.37,3.13,0.47"/>
	<ellipse class="st12" cx="109.05" cy="543.52" rx="0.69" ry="0.66"/>
	<path class="st11" d="M108.52,541.75c0.45-0.14,0.95-0.12,1.39,0.04"/>
	<path class="st12" d="M114.09,544.2c0,0.36-0.31,0.66-0.69,0.66c-0.38,0-0.69-0.29-0.69-0.66s0.31-0.66,0.69-0.66
		C113.79,543.54,114.09,543.84,114.09,544.2z"/>
	<path class="st11" d="M112.87,542.42c0.45-0.14,0.95-0.12,1.39,0.04"/>
	<path class="st11" d="M111.62,544.52c-0.08,0.58,0.09,1.18,0.45,1.65c0.09,0.12,0.21,0.25,0.2,0.4c-0.01,0.16-0.16,0.29-0.33,0.33
		c-0.17,0.04-0.34,0.01-0.51-0.02"/>
	<path class="st11" d="M108.52,548.13c0.64,0.54,1.55,0.76,2.38,0.59"/>
	<g>
		<path class="st16" d="M97.94,542.33c0,1.34,1.13,2.42,2.53,2.42c1.4,0,2.53-1.08,2.53-2.42c0-1.34-1.13-2.42-2.53-2.42
			C99.07,539.91,97.94,540.99,97.94,542.33z"/>
		<path class="st25" d="M99.98,541.3c0.37-0.05,0.75,0.1,0.98,0.38c0.23,0.27,0.3,0.67,0.18,1c-0.22-0.19-0.56-0.24-0.83-0.11
			c-0.27,0.12-0.44,0.41-0.41,0.7"/>
	</g>
</g>
<g>
	<rect x="1096.73" y="500.94" class="st14" width="186.51" height="139.72"/>
	<g>
		<g>
			<path class="st26" d="M1283.24,640.83c0-1.04-0.05-55.27-0.13-139.45l0.13,0.13c-53.03,0.01-186.36,0.28-186.36,0.28h-0.81
				l0.16-0.15c-0.01,50.37-0.01,98.01-0.02,139.74l-0.14-0.14c110.85,0.08,185.51,0.14,186.76,0.14c-1.25,0-75.9,0.06-186.76,0.14
				l-0.14,0v-0.68c0,0,0.78-89.19,0.8-139.45v-0.43h0.14h0.02c69.13,0.29,186.36,0.84,186.36,0.84h0v-0.41
				C1283.29,585.56,1283.24,639.79,1283.24,640.83z"/>
		</g>
	</g>
</g>
<g>
	<g>
		<g>
			<path class="st26" d="M1148.12,629.12c-0.09,0-0.16-15.16-0.16-33.85c0-18.7,0.07-33.86,0.16-33.86s0.16,15.16,0.16,33.86
				C1148.27,613.96,1148.2,629.12,1148.12,629.12z"/>
		</g>
	</g>
	<g>
		<g>
			<path class="st26" d="M1229,629.12c-0.09,0-0.16-15.16-0.16-33.85c0-18.7,0.07-33.86,0.16-33.86s0.16,15.16,0.16,33.86
				C1229.16,613.96,1229.09,629.12,1229,629.12z"/>
		</g>
	</g>
	<g>
		<g>
			<path class="st26" d="M1175.73,629.12c-0.09,0-0.16-19.38-0.16-43.28c0-23.91,0.07-43.28,0.16-43.28
				c0.09,0,0.16,19.38,0.16,43.28C1175.89,609.74,1175.82,629.12,1175.73,629.12z"/>
		</g>
	</g>
	<g>
		<g>
			<path class="st26" d="M1119.76,629.12c-0.09,0-0.16-19.38-0.16-43.28c0-23.91,0.07-43.28,0.16-43.28
				c0.09,0,0.16,19.38,0.16,43.28C1119.92,609.74,1119.85,629.12,1119.76,629.12z"/>
		</g>
	</g>
	<g>
		<g>
			<path class="st26" d="M1260.74,629.12c-0.09,0-0.16-19.38-0.16-43.28c0-23.91,0.07-43.28,0.16-43.28
				c0.09,0,0.16,19.38,0.16,43.28C1260.9,609.74,1260.83,629.12,1260.74,629.12z"/>
		</g>
	</g>
	<g>
		<g>
			<path class="st26" d="M1199.94,629.12c-0.09,0-0.16-22.38-0.16-49.97c0-27.61,0.07-49.98,0.16-49.98s0.16,22.37,0.16,49.98
				C1200.1,606.74,1200.03,629.12,1199.94,629.12z"/>
		</g>
	</g>
	<g>
		<path class="st26" d="M1148.78,561.41c0,0.35-0.3,0.64-0.66,0.64c-0.36,0-0.66-0.28-0.66-0.64c0-0.35,0.3-0.64,0.66-0.64
			C1148.48,560.77,1148.78,561.06,1148.78,561.41z"/>
	</g>
	<g>
		<ellipse class="st26" cx="1175.64" cy="542.19" rx="0.8" ry="0.84"/>
	</g>
	<g>
		<path class="st26" d="M1175.73,544.78c-1.28,0-2.32-1-2.32-2.23c0-1.23,1.04-2.23,2.32-2.23c1.28,0,2.32,1,2.32,2.23
			C1178.05,543.78,1177.01,544.78,1175.73,544.78z M1175.73,540.47c-1.19,0-2.17,0.93-2.17,2.08c0,1.15,0.97,2.08,2.17,2.08
			s2.17-0.93,2.17-2.08C1177.89,541.41,1176.92,540.47,1175.73,540.47z"/>
	</g>
	<g>
		<ellipse class="st26" cx="1199.55" cy="529.56" rx="0.8" ry="0.84"/>
	</g>
	<g>
		<ellipse class="st26" cx="1229.05" cy="562.39" rx="0.8" ry="0.84"/>
	</g>
	<g>
		<ellipse class="st26" cx="1260.93" cy="542.19" rx="0.8" ry="0.84"/>
	</g>
	<g>
		<path class="st26" d="M1120.42,543.19c0,0.35-0.3,0.64-0.66,0.64c-0.36,0-0.66-0.28-0.66-0.64c0-0.35,0.3-0.64,0.66-0.64
			C1120.12,542.55,1120.42,542.84,1120.42,543.19z"/>
	</g>
	<g>
		<g>
			<path class="st27" d="M1267,573.19c0,0.02-0.17,0.07-0.52,0.16c-0.35,0.07-0.85,0.25-1.5,0.49c-1.28,0.53-3.03,1.62-4.81,3.51
				c-1.8,1.88-3.61,4.49-5.87,7.43c-1.15,1.46-2.41,3.01-3.99,4.45c-0.77,0.74-1.66,1.41-2.59,2.06c-0.96,0.61-1.99,1.19-3.12,1.64
				c-2.25,0.89-4.83,1.32-7.47,1.21c-1.32-0.06-2.67-0.15-4.02-0.48c-1.35-0.28-2.71-0.83-3.89-1.65c-1.19-0.81-2.21-1.88-3.04-3.05
				c-0.84-1.17-1.59-2.4-2.32-3.66c-1.45-2.52-2.96-5.07-4.67-7.62c-1.68-2.59-3.24-5.31-4.98-7.99c-1.74-2.67-3.66-5.34-6.1-7.57
				c-1.23-1.1-2.59-2.09-4.1-2.82c-1.51-0.73-3.16-1.22-4.87-1.37c-1.7-0.16-3.47-0.06-5.18,0.28c-1.71,0.35-3.37,0.96-4.92,1.79
				c-3.1,1.69-5.6,4.2-7.69,6.89c-2.1,2.7-3.82,5.62-5.49,8.5c-1.65,2.89-3.41,5.7-5.32,8.31c-1.94,2.6-4.03,5.04-6.44,7.07
				c-0.61,0.5-1.21,1-1.87,1.43c-0.63,0.47-1.31,0.85-1.98,1.24c-1.37,0.73-2.8,1.36-4.29,1.7c-0.74,0.22-1.5,0.3-2.24,0.4
				c-0.37,0.07-0.75,0.05-1.13,0.06c-0.38,0-0.75,0.03-1.12,0.01c-1.49-0.07-2.93-0.36-4.3-0.77c-2.73-0.86-5.1-2.24-7.27-3.65
				c-2.16-1.43-4.13-2.91-6.06-4.24c-1.93-1.34-3.81-2.52-5.76-3.35c-1.93-0.84-3.88-1.37-5.73-1.57c-1.85-0.19-3.61-0.09-5.15,0.32
				c-0.4,0.06-0.75,0.24-1.11,0.35c-0.35,0.13-0.73,0.21-1.04,0.39c-0.64,0.34-1.3,0.58-1.82,0.97c-1.13,0.67-1.97,1.46-2.74,2.11
				c-0.34,0.36-0.66,0.7-0.95,1c-0.29,0.31-0.57,0.57-0.76,0.85c-0.42,0.53-0.74,0.94-0.96,1.22c-0.22,0.27-0.34,0.41-0.36,0.4
				c-0.01-0.01,0.08-0.16,0.28-0.45c0.21-0.3,0.5-0.72,0.89-1.28c0.19-0.29,0.45-0.57,0.74-0.89c0.28-0.32,0.59-0.67,0.93-1.04
				c0.75-0.68,1.6-1.5,2.74-2.21c0.53-0.41,1.2-0.68,1.85-1.03c0.32-0.19,0.7-0.28,1.07-0.43c0.37-0.12,0.74-0.3,1.14-0.38
				c1.59-0.44,3.41-0.58,5.32-0.41c1.92,0.18,3.93,0.7,5.92,1.54c2,0.83,3.96,2.03,5.9,3.36c1.96,1.33,3.94,2.79,6.08,4.19
				c2.15,1.38,4.47,2.71,7.1,3.51c1.31,0.38,2.68,0.65,4.09,0.71c0.35,0.01,0.71-0.01,1.06-0.02c0.35-0.02,0.71,0.01,1.07-0.06
				c0.71-0.1,1.43-0.18,2.12-0.39c2.83-0.69,5.45-2.27,7.78-4.23c2.34-1.97,4.38-4.37,6.28-6.94c1.89-2.59,3.61-5.35,5.25-8.25
				c1.67-2.88,3.4-5.84,5.55-8.6c2.13-2.76,4.72-5.36,7.98-7.15c1.63-0.88,3.38-1.53,5.19-1.89c1.81-0.36,3.65-0.47,5.47-0.29
				c1.82,0.17,3.59,0.69,5.2,1.47c1.61,0.78,3.04,1.83,4.31,2.98c2.54,2.33,4.48,5.06,6.23,7.76c1.75,2.71,3.3,5.44,4.96,8.01
				c1.7,2.55,3.23,5.16,4.66,7.67c1.45,2.48,2.87,4.97,5.09,6.48c1.09,0.76,2.33,1.28,3.61,1.55c1.27,0.32,2.59,0.42,3.87,0.49
				c2.56,0.13,5.02-0.27,7.19-1.1c1.09-0.42,2.08-0.97,3.01-1.55c0.91-0.62,1.77-1.26,2.54-1.97c1.56-1.39,2.82-2.91,3.98-4.34
				c2.29-2.89,4.15-5.49,6.02-7.36c1.85-1.89,3.68-2.96,5.01-3.44c0.67-0.22,1.19-0.37,1.55-0.41
				C1266.81,573.2,1267,573.18,1267,573.19z"/>
		</g>
	</g>
	<g>
		<rect x="1119.05" y="516.93" class="st26" width="32.68" height="1.68"/>
	</g>
	<g>
		<rect x="1119.05" y="521.14" class="st26" width="15.94" height="1.68"/>
	</g>
	<g>
		<path class="st26" d="M1278.74,490h-177.5c-2.49,0-4.51,2.02-4.51,4.51v7.28h186.51v-7.28C1283.25,492.02,1281.23,490,1278.74,490
			z"/>
	</g>
	<g>
		<path class="st14" d="M1106.32,495.91c0,0.68-0.57,1.22-1.27,1.22s-1.27-0.55-1.27-1.22c0-0.68,0.57-1.22,1.27-1.22
			S1106.32,495.23,1106.32,495.91z"/>
	</g>
	<g>
		<path class="st14" d="M1111.88,495.91c0,0.68-0.57,1.22-1.27,1.22c-0.7,0-1.27-0.55-1.27-1.22c0-0.68,0.57-1.22,1.27-1.22
			C1111.31,494.68,1111.88,495.23,1111.88,495.91z"/>
	</g>
	<g>
		<path class="st14" d="M1117.43,495.91c0,0.68-0.57,1.22-1.27,1.22s-1.27-0.55-1.27-1.22c0-0.68,0.57-1.22,1.27-1.22
			S1117.43,495.23,1117.43,495.91z"/>
	</g>
</g>
<g>
	<path class="st28" d="M1099.56,604.47h-72.6c-1.08,0-1.96-0.86-1.96-1.92v-17.2c0-1.06,0.88-1.92,1.96-1.92h72.6
		c1.08,0,1.96,0.86,1.96,1.92v17.2C1101.52,603.61,1100.64,604.47,1099.56,604.47z"/>
</g>
<g>
	<path class="st14" d="M964.24,582.35c-2.02,2.3-5.7,2.66-8.22,0.82c-2.52-1.84-2.93-5.19-0.9-7.49c2.02-2.3,5.7-2.66,8.22-0.82
		S966.26,580.06,964.24,582.35z"/>
</g>
<g>
	<g>
		<path class="st26" d="M962.96,577.51c0.08,0.07-1.34,1.44-3.17,3.06c-0.27,0.23-0.52,0.46-0.77,0.68l-0.14,0.12l-0.13-0.12
			c-1.42-1.32-2.43-2.34-2.37-2.4c0.07-0.06,1.19,0.86,2.64,2.16l-0.27,0c0.25-0.22,0.5-0.45,0.77-0.69
			C961.34,578.69,962.89,577.44,962.96,577.51z"/>
	</g>
</g>
<g>
	<g>
		<path class="st26" d="M1094.06,592.24c0,0.08-9.73,0.15-21.73,0.15c-12,0-21.73-0.07-21.73-0.15s9.73-0.15,21.73-0.15
			C1084.33,592.09,1094.06,592.16,1094.06,592.24z"/>
	</g>
</g>
<g>
	<g>
		<path class="st26" d="M1076.24,596.32c0,0.08-5.62,0.15-12.56,0.15c-6.94,0-12.56-0.07-12.56-0.15c0-0.08,5.62-0.15,12.56-0.15
			C1070.61,596.17,1076.24,596.24,1076.24,596.32z"/>
	</g>
</g>
<g>
	<path class="st29" d="M1120.42,564.07h-70.49c-1.44,0-2.62-1.17-2.62-2.62v-25.07c0-1.44,1.17-2.62,2.62-2.62h70.49
		c1.44,0,2.62,1.17,2.62,2.62v25.07C1123.04,562.9,1121.87,564.07,1120.42,564.07z"/>
</g>
<g>
	<g>
		<path class="st27" d="M1063.26,543.25c0,1.87-1.57,3.38-3.52,3.38s-3.52-1.51-3.52-3.38s1.57-3.38,3.52-3.38
			S1063.26,541.38,1063.26,543.25z"/>
	</g>
	<g>
		<rect x="1066.45" y="540.5" class="st27" width="24.71" height="1.68"/>
	</g>
	<g>
		<rect x="1066.45" y="543.87" class="st14" width="47.82" height="1.68"/>
	</g>
</g>
<g>
	<g>
		<path class="st27" d="M1063.26,553.65c0,1.87-1.57,3.38-3.52,3.38s-3.52-1.51-3.52-3.38c0-1.87,1.57-3.38,3.52-3.38
			S1063.26,551.78,1063.26,553.65z"/>
	</g>
	<g>
		<rect x="1066.45" y="551.44" class="st27" width="12.75" height="1.68"/>
	</g>
	<g>
		<rect x="1066.45" y="553.97" class="st14" width="47.82" height="1.68"/>
	</g>
</g>
<g>
	<path class="st29" d="M1166.07,679.39h-92.45c-1.32,0-2.4-1.03-2.4-2.29v-34.97c0-1.27,1.07-2.29,2.4-2.29h92.45
		c1.32,0,2.4,1.03,2.4,2.29v34.97C1168.47,678.36,1167.4,679.39,1166.07,679.39z"/>
</g>
<g>
	<g>
		<g>
			<path class="st27" d="M1088.76,658.63l-0.05-8.07c-2.47,0.01-4.99,0.95-6.92,2.6c-2.28,1.93-3.73,4.84-3.34,8.36
				c0.04,0.38,0.11,0.77,0.2,1.17c0,0.01,0,0.02,0.01,0.03l0,0l10.11-2.19V658.63z"/>
		</g>
		<g>
			<g>
				<path class="st27" d="M1099.04,656.14c-1.41-2.84-4.2-5.11-8.16-5.49c-0.11-0.01-0.21-0.02-0.32-0.03
					c-0.07,0-0.14-0.01-0.2-0.01c-0.2-0.01-0.4-0.02-0.61-0.02c-0.01,0-0.02,0-0.03,0.18h0c-0.01-0.18-0.02-0.18-0.16-0.18v0v0
					l0.8,8.07v1.9l9.52,2.12l0.01,0v0c0.15-0.68,0.23-1.38,0.22-2.09C1100.1,659.08,1099.74,657.54,1099.04,656.14z"/>
			</g>
			<g class="st30">
				<path d="M1099.04,656.14c-1.41-2.84-4.2-5.11-8.16-5.49c-0.11-0.01-0.21-0.02-0.32-0.03c-0.07,0-0.14-0.01-0.2-0.01
					c-0.2-0.01-0.4-0.02-0.61-0.02c-0.01,0-0.02,0-0.03,0.18h0c-0.01-0.18-0.02-0.18-0.16-0.18v0v0l0.8,8.07v1.9l9.52,2.12l0.01,0v0
					c0.15-0.68,0.23-1.38,0.22-2.09C1100.1,659.08,1099.74,657.54,1099.04,656.14z"/>
			</g>
		</g>
	</g>
	<g>
		<g>
			<path class="st27" d="M1089.16,661.53l-10.11,2.19c1.04,4.45,5.17,7.78,10.11,7.78c4.97,0,9.12-3.36,10.13-7.85l-10.12-2.12"/>
		</g>
		<g class="st31">
			<path d="M1089.16,661.53l-10.11,2.19c1.04,4.45,5.17,7.78,10.11,7.78c4.97,0,9.12-3.36,10.13-7.85l-10.12-2.12"/>
		</g>
	</g>
</g>
<g>
	<rect x="1107.1" y="652.45" class="st14" width="51.01" height="2.53"/>
</g>
<g>
	<rect x="1107.1" y="658.34" class="st14" width="51.01" height="2.53"/>
</g>
<g>
	<rect x="1107.1" y="665.08" class="st14" width="27.9" height="2.53"/>
</g>
<g>
	<path class="st28" d="M1306.21,565.75h-57.88c-2.73,0-4.94-2.21-4.94-4.94v-44c0-2.73,2.21-4.94,4.94-4.94h57.88
		c2.73,0,4.94,2.21,4.94,4.94v44C1311.14,563.54,1308.93,565.75,1306.21,565.75z"/>
</g>
<g>
	<g>
		<rect x="1254.55" y="533.77" class="st27" width="3.99" height="26.09"/>
	</g>
	<g>
		<rect x="1271.29" y="531.24" class="st27" width="3.99" height="28.62"/>
	</g>
	<g>
		<rect x="1288.03" y="527.88" class="st27" width="3.99" height="31.99"/>
	</g>
	<g>
		<g>
			<rect x="1280.06" y="547.24" class="st27" width="3.99" height="12.63"/>
		</g>
		<g class="st30">
			<rect x="1280.06" y="547.24" width="3.99" height="12.63"/>
		</g>
	</g>
	<g>
		<g>
			<rect x="1259.33" y="530.4" class="st27" width="3.99" height="29.46"/>
		</g>
		<g class="st31">
			<rect x="1259.33" y="530.4" width="3.99" height="29.46"/>
		</g>
	</g>
	<g>
		<g>
			<rect x="1276.07" y="524.51" class="st27" width="3.99" height="35.35"/>
		</g>
		<g class="st31">
			<rect x="1276.07" y="524.51" width="3.99" height="35.35"/>
		</g>
	</g>
	<g>
		<g>
			<rect x="1297.59" y="524.51" class="st27" width="3.99" height="35.35"/>
		</g>
		<g class="st30">
			<rect x="1297.59" y="524.51" width="3.99" height="35.35"/>
		</g>
	</g>
	<g>
		<g>
			<rect x="1292.81" y="517.78" class="st27" width="3.99" height="42.09"/>
		</g>
		<g class="st31">
			<rect x="1292.81" y="517.78" width="3.99" height="42.09"/>
		</g>
	</g>
	<g>
		<g>
			<rect x="1263.32" y="541.34" class="st27" width="3.99" height="18.52"/>
		</g>
		<g class="st30">
			<rect x="1263.32" y="541.34" width="3.99" height="18.52"/>
		</g>
	</g>
	<g>
		<g>
			<path class="st26" d="M1306.75,561.25c0,0.08-12.96,0.15-28.95,0.15c-15.99,0-28.95-0.07-28.95-0.15
				c0-0.08,12.96-0.15,28.95-0.15C1293.79,561.1,1306.75,561.16,1306.75,561.25z"/>
		</g>
	</g>
	<g>
		<rect x="1247.38" y="554.81" class="st26" width="2.39" height="0.84"/>
	</g>
	<g>
		<rect x="1247.38" y="545.55" class="st26" width="2.39" height="0.84"/>
	</g>
	<g>
		<rect x="1247.38" y="527.88" class="st26" width="2.39" height="0.84"/>
	</g>
	<g>
		<rect x="1247.38" y="518.62" class="st26" width="2.39" height="0.84"/>
	</g>
	<g>
		<rect x="1247.38" y="536.29" class="st26" width="2.39" height="0.84"/>
	</g>
</g>
<g>
	<path class="st27" d="M1232.66,526.19h-65.41c-1.09,0-1.97-0.84-1.97-1.87v-14.77c0-1.03,0.88-1.87,1.97-1.87h65.41
		c1.09,0,1.97,0.84,1.97,1.87v14.77C1234.63,525.36,1233.75,526.19,1232.66,526.19z"/>
</g>
<g>
	<path class="st14" d="M1180.15,519.81c-1.46,1.75-4.11,2.03-5.92,0.63c-1.81-1.4-2.11-3.95-0.65-5.69
		c1.46-1.75,4.11-2.03,5.92-0.63C1181.31,515.52,1181.6,518.07,1180.15,519.81z"/>
	<path class="st26" d="M1176.85,521.34c-0.96,0-1.88-0.31-2.64-0.89c-0.88-0.68-1.43-1.65-1.56-2.73c-0.12-1.08,0.2-2.14,0.9-2.99
		c0.71-0.85,1.71-1.38,2.84-1.5c0.16-0.02,0.31-0.03,0.47-0.03c0.96,0,1.88,0.31,2.64,0.89c0.88,0.68,1.43,1.65,1.56,2.73
		s-0.2,2.14-0.9,2.99l0,0c-0.71,0.85-1.71,1.38-2.84,1.5C1177.17,521.34,1177.01,521.34,1176.85,521.34z M1176.87,513.24
		c-0.15,0-0.31,0.01-0.47,0.02c-1.11,0.12-2.11,0.65-2.82,1.49c-0.7,0.84-1.02,1.89-0.9,2.97c0.12,1.07,0.67,2.03,1.55,2.71
		c0.87,0.67,1.97,0.98,3.08,0.86c1.11-0.12,2.11-0.65,2.82-1.49l0,0c0.7-0.84,1.02-1.89,0.9-2.97c-0.12-1.07-0.67-2.03-1.55-2.71
		C1178.73,513.55,1177.82,513.24,1176.87,513.24z"/>
</g>
<g>
	<g>
		<path class="st27" d="M1179.23,515.97c0.06,0.06-0.95,1.11-2.27,2.34c-0.19,0.18-0.38,0.35-0.56,0.52l-0.11,0.1l-0.11-0.1
			c-1.02-1.01-1.75-1.79-1.69-1.84c0.05-0.05,0.86,0.64,1.91,1.63l-0.22,0c0.18-0.17,0.36-0.34,0.55-0.52
			C1178.05,516.86,1179.17,515.91,1179.23,515.97z"/>
	</g>
</g>
<g>
	<g>
		<path class="st14" d="M1227.95,515.34c0,0.08-8.79,0.15-19.62,0.15c-10.84,0-19.63-0.07-19.63-0.15c0-0.08,8.78-0.15,19.63-0.15
			C1219.17,515.19,1227.95,515.26,1227.95,515.34z"/>
	</g>
</g>
<g>
	<g>
		<path class="st14" d="M1211.85,519.03c0,0.08-5.08,0.15-11.34,0.15c-6.27,0-11.35-0.07-11.35-0.15c0-0.08,5.08-0.15,11.35-0.15
			C1206.77,518.87,1211.85,518.94,1211.85,519.03z"/>
	</g>
</g>
<g>
	<g>
		<g>
			<path class="st27" d="M1318.2,693.24l-3.93-3.79l7.34-7.12l5.8,5.49l-0.43,0.47c-1.91,2.07-9.87,10.4-11.64,11.32
				C1313.38,700.64,1318.2,693.24,1318.2,693.24z"/>
		</g>
		<g>
			<path class="st26" d="M1324.69,690.35c-0.51-0.69-0.75-1.57-0.64-2.41s0.51-1.62,1.18-2.18l2.07,1.97L1324.69,690.35z"/>
		</g>
	</g>
	<g>
		<path class="st26" d="M1315.95,696.96c0,0-1.55,2.73-0.91,2.81c0.64,0.08,9.01-8.05,12.38-11.95l-0.18-0.15l-9.68,9.56
			C1317.55,697.24,1316.4,696.56,1315.95,696.96z"/>
	</g>
	<g>
		<g>
			<path class="st32" d="M1327.35,687.56c0,0-0.04,0.05-0.11,0.14c-0.1,0.11-0.21,0.23-0.34,0.37c-0.35,0.37-0.77,0.82-1.28,1.35
				c-1.08,1.13-2.61,2.68-4.32,4.35c-1.72,1.67-3.31,3.15-4.47,4.21c-0.55,0.49-1.01,0.9-1.39,1.24c-0.14,0.12-0.27,0.23-0.38,0.33
				c-0.09,0.07-0.14,0.11-0.14,0.11s0.04-0.05,0.12-0.13c0.11-0.1,0.23-0.22,0.37-0.35c0.37-0.34,0.82-0.77,1.36-1.27
				c1.15-1.07,2.73-2.56,4.45-4.23c1.72-1.67,3.25-3.2,4.35-4.32c0.51-0.52,0.95-0.96,1.3-1.32c0.13-0.13,0.25-0.25,0.36-0.36
				C1327.3,687.6,1327.34,687.56,1327.35,687.56z"/>
		</g>
	</g>
	<g>
		<g>
			<path class="st32" d="M1317.67,697.35c-0.02,0.03-0.37-0.26-0.89-0.37c-0.52-0.12-0.96-0.01-0.97-0.05
				c-0.02-0.03,0.44-0.2,1-0.07C1317.37,696.98,1317.7,697.33,1317.67,697.35z"/>
		</g>
	</g>
	<g>
		<g>
			<path class="st32" d="M1318.72,694.19c-0.01,0.03-0.24,0.01-0.52-0.05c-0.28-0.06-0.5-0.13-0.49-0.16s0.24-0.01,0.52,0.05
				C1318.51,694.08,1318.73,694.16,1318.72,694.19z"/>
		</g>
	</g>
	<g>
		<g>
			<path class="st32" d="M1319,693.31c0,0.03-0.19,0.07-0.43,0.09c-0.24,0.01-0.44,0-0.44-0.04c0-0.03,0.19-0.07,0.43-0.09
				C1318.8,693.26,1319,693.28,1319,693.31z"/>
		</g>
	</g>
	<g>
		<g>
			<path class="st32" d="M1318.68,692.28c0.03,0.02-0.12,0.21-0.33,0.42c-0.21,0.21-0.4,0.36-0.42,0.33s0.12-0.21,0.33-0.42
				C1318.46,692.41,1318.65,692.26,1318.68,692.28z"/>
		</g>
	</g>
	<g>
		<g>
			<path class="st32" d="M1318.31,691.69c0.03,0.01-0.07,0.28-0.3,0.53c-0.23,0.26-0.48,0.4-0.5,0.37c-0.02-0.03,0.19-0.2,0.4-0.45
				C1318.14,691.9,1318.28,691.67,1318.31,691.69z"/>
		</g>
	</g>
	<g>
		<g>
			<path class="st32" d="M1317.83,693.82c0.01,0.01-0.15,0.21-0.47,0.45c-0.16,0.12-0.37,0.26-0.61,0.38
				c-0.12,0.06-0.25,0.13-0.41,0.17c-0.08,0.02-0.17,0.02-0.26-0.03c-0.09-0.05-0.13-0.16-0.12-0.25c0.21-0.66,0.92-0.86,1.32-0.79
				c0.21,0.02,0.37,0.1,0.47,0.15c0.1,0.06,0.15,0.1,0.14,0.11c-0.01,0.02-0.22-0.15-0.62-0.18c-0.2-0.01-0.44,0.02-0.67,0.14
				c-0.22,0.11-0.47,0.33-0.52,0.58c-0.02,0.13,0.1,0.18,0.23,0.15c0.13-0.03,0.26-0.1,0.38-0.15c0.24-0.11,0.45-0.24,0.61-0.35
				C1317.64,693.98,1317.82,693.8,1317.83,693.82z"/>
		</g>
	</g>
	<g>
		<g>
			<path class="st32" d="M1317.73,693.96c0,0.01-0.19-0.04-0.38-0.26c-0.09-0.11-0.18-0.27-0.22-0.46
				c-0.02-0.18-0.06-0.42,0.15-0.61c0.12-0.09,0.3-0.02,0.36,0.07c0.07,0.09,0.11,0.19,0.13,0.28c0.05,0.18,0.07,0.35,0.07,0.49
				c0,0.28-0.06,0.45-0.08,0.45c-0.02,0,0.01-0.17-0.01-0.44c-0.01-0.13-0.04-0.29-0.09-0.46c-0.04-0.16-0.17-0.37-0.31-0.28
				c-0.13,0.1-0.13,0.33-0.11,0.49c0.03,0.17,0.1,0.32,0.18,0.42C1317.58,693.86,1317.74,693.94,1317.73,693.96z"/>
		</g>
	</g>
	<g>
		<g>
			<path class="st32" d="M1325.17,685.78c0.02,0.02-0.23,0.18-0.52,0.54c-0.29,0.35-0.61,0.93-0.69,1.62
				c-0.08,0.69,0.11,1.32,0.32,1.72c0.21,0.41,0.41,0.62,0.39,0.64c-0.01,0-0.06-0.04-0.15-0.14c-0.09-0.1-0.2-0.25-0.32-0.46
				c-0.23-0.41-0.44-1.05-0.36-1.77c0.08-0.72,0.43-1.31,0.75-1.66c0.16-0.18,0.31-0.3,0.41-0.38
				C1325.1,685.81,1325.17,685.77,1325.17,685.78z"/>
		</g>
	</g>
	<g>
		<g>
			<path class="st32" d="M1321.33,683.58c0.02-0.02,0.73,0.6,1.58,1.39c0.85,0.79,1.52,1.45,1.5,1.47c-0.02,0.02-0.73-0.6-1.58-1.39
				C1321.97,684.26,1321.3,683.6,1321.33,683.58z"/>
		</g>
	</g>
	<g>
		<g>
			<path class="st32" d="M1323.05,690.56c0.03,0.02-0.37,0.56-0.96,1.14c-0.59,0.59-1.14,0.98-1.16,0.96
				c-0.02-0.03,0.48-0.46,1.07-1.04C1322.58,691.04,1323.02,690.53,1323.05,690.56z"/>
		</g>
	</g>
	<g>
		<g>
			<path class="st32" d="M1324.48,689.16c0.04,0,0.06,0.14,0.13,0.29c0.06,0.15,0.13,0.27,0.11,0.3c-0.02,0.02-0.15-0.07-0.22-0.25
				C1324.42,689.31,1324.45,689.16,1324.48,689.16z"/>
		</g>
	</g>
	<g>
		<g>
			<path class="st32" d="M1324.34,687.98c0.03,0,0.06,0.12,0.07,0.27c0,0.15-0.02,0.27-0.06,0.27c-0.03,0-0.06-0.12-0.07-0.27
				C1324.28,688.11,1324.31,687.99,1324.34,687.98z"/>
		</g>
	</g>
	<g>
		<g>
			<path class="st32" d="M1324.81,686.94c0.02,0.03-0.08,0.12-0.15,0.26c-0.07,0.14-0.09,0.27-0.13,0.27
				c-0.03,0.01-0.08-0.15,0.01-0.33C1324.64,686.97,1324.79,686.91,1324.81,686.94z"/>
		</g>
	</g>
	<g>
		<g>
			<path class="st32" d="M1325.21,686.26c0.03,0.01,0.03,0.09-0.01,0.17c-0.04,0.08-0.09,0.14-0.12,0.12
				c-0.03-0.01-0.03-0.09,0.01-0.17C1325.13,686.3,1325.18,686.25,1325.21,686.26z"/>
		</g>
	</g>
</g>
<g>
	<g>
		<g>
			<path class="st33" d="M1287.83,699.88l0.13-5.35l10.42,0.18l-0.11,7.83l-0.65,0.03c-2.88,0.1-14.64,0.34-16.55-0.26
				C1278.95,701.65,1287.83,699.88,1287.83,699.88z"/>
		</g>
		<g>
			<path class="st34" d="M1294.83,702.11c0.16-0.83,0.66-1.6,1.37-2.11c0.71-0.51,1.57-0.77,2.45-0.69l-0.05,2.8H1294.83z"/>
		</g>
	</g>
	<g>
		<path class="st34" d="M1283.81,700.69c0,0-3.12,0.81-2.74,1.31c0.38,0.5,12.28,0.69,17.53,0.34l-0.01-0.22l-13.88-0.12
			C1284.71,702,1284.42,700.72,1283.81,700.69z"/>
	</g>
	<g>
		<g>
			<path class="st32" d="M1298.75,702.12c0,0-0.06,0.01-0.18,0.02c-0.15,0.01-0.32,0.01-0.52,0.02c-0.52,0.01-1.15,0.03-1.9,0.05
				c-1.6,0.03-3.81,0.04-6.26,0c-2.44-0.04-4.65-0.12-6.25-0.2c-0.75-0.04-1.38-0.08-1.89-0.11c-0.19-0.01-0.36-0.03-0.51-0.04
				c-0.12-0.01-0.18-0.02-0.18-0.02c0,0,0.06-0.01,0.18,0c0.15,0,0.32,0.01,0.52,0.01c0.51,0.02,1.15,0.04,1.89,0.07
				c1.6,0.06,3.81,0.13,6.25,0.16c2.44,0.04,4.65,0.04,6.25,0.03c0.75,0,1.38-0.01,1.9-0.01c0.19,0,0.36,0,0.52,0
				C1298.69,702.11,1298.75,702.12,1298.75,702.12z"/>
		</g>
	</g>
	<g>
		<g>
			<path class="st32" d="M1284.71,701.98c-0.04,0-0.06-0.43-0.34-0.88c-0.27-0.45-0.66-0.68-0.63-0.71
				c0.01-0.03,0.45,0.17,0.74,0.65C1284.78,701.52,1284.74,701.99,1284.71,701.98z"/>
		</g>
	</g>
	<g>
		<g>
			<path class="st32" d="M1287.81,700.53c-0.03,0.02-0.17-0.16-0.32-0.39c-0.15-0.23-0.24-0.44-0.21-0.45
				c0.03-0.02,0.17,0.16,0.32,0.39C1287.75,700.31,1287.84,700.52,1287.81,700.53z"/>
		</g>
	</g>
	<g>
		<g>
			<path class="st32" d="M1288.66,700.12c-0.02,0.02-0.19-0.08-0.36-0.24c-0.18-0.16-0.3-0.31-0.28-0.33
				c0.02-0.02,0.19,0.08,0.36,0.24C1288.56,699.95,1288.69,700.09,1288.66,700.12z"/>
		</g>
	</g>
	<g>
		<g>
			<path class="st32" d="M1289.21,699.18c0,0.03-0.24,0.06-0.54,0.06c-0.3,0-0.54-0.03-0.54-0.06c0-0.03,0.24-0.06,0.54-0.06
				C1288.97,699.12,1289.21,699.15,1289.21,699.18z"/>
		</g>
	</g>
	<g>
		<g>
			<path class="st32" d="M1289.41,698.52c0.01,0.03-0.26,0.14-0.61,0.16c-0.35,0.02-0.63-0.06-0.63-0.09
				c0.01-0.03,0.28-0.01,0.62-0.03C1289.13,698.54,1289.4,698.48,1289.41,698.52z"/>
		</g>
	</g>
	<g>
		<g>
			<path class="st32" d="M1287.47,699.65c0,0.01-0.26,0.04-0.67-0.02c-0.21-0.03-0.45-0.08-0.71-0.16
				c-0.13-0.05-0.27-0.08-0.41-0.17c-0.07-0.04-0.14-0.1-0.16-0.2c-0.03-0.1,0.03-0.2,0.11-0.26c0.65-0.31,1.28,0.05,1.51,0.37
				c0.13,0.16,0.18,0.32,0.21,0.43c0.02,0.11,0.02,0.17,0.01,0.17c-0.02,0.01-0.04-0.25-0.3-0.55c-0.13-0.15-0.32-0.29-0.57-0.37
				c-0.24-0.07-0.57-0.1-0.8,0.04c-0.11,0.07-0.07,0.19,0.05,0.26c0.11,0.07,0.25,0.11,0.37,0.16c0.25,0.09,0.49,0.15,0.69,0.18
				C1287.22,699.63,1287.48,699.63,1287.47,699.65z"/>
		</g>
	</g>
	<g>
		<g>
			<path class="st32" d="M1287.3,699.68c-0.01,0.01-0.11-0.16-0.07-0.45c0.02-0.14,0.08-0.31,0.19-0.47
				c0.12-0.14,0.28-0.34,0.56-0.32c0.15,0.02,0.23,0.19,0.2,0.3c-0.01,0.11-0.07,0.21-0.12,0.29c-0.1,0.16-0.22,0.29-0.32,0.38
				c-0.21,0.19-0.38,0.27-0.39,0.25c-0.01-0.02,0.14-0.11,0.32-0.31c0.09-0.1,0.2-0.23,0.29-0.38c0.09-0.13,0.16-0.38-0.01-0.41
				c-0.17-0.02-0.34,0.14-0.45,0.27c-0.11,0.14-0.17,0.29-0.2,0.42C1287.26,699.51,1287.32,699.68,1287.3,699.68z"/>
		</g>
	</g>
	<g>
		<g>
			<path class="st32" d="M1298.59,699.19c0,0.02-0.3-0.03-0.77,0.01c-0.47,0.04-1.12,0.22-1.69,0.64c-0.57,0.42-0.91,0.99-1.08,1.41
				c-0.17,0.43-0.19,0.72-0.21,0.71c-0.01,0-0.01-0.07,0-0.2c0.01-0.13,0.05-0.32,0.12-0.54c0.14-0.44,0.49-1.04,1.08-1.48
				c0.6-0.44,1.28-0.61,1.76-0.63c0.24-0.01,0.44,0,0.57,0.02C1298.52,699.17,1298.59,699.19,1298.59,699.19z"/>
		</g>
	</g>
	<g>
		<g>
			<path class="st32" d="M1297.59,695.01c0.03,0,0.06,0.92,0.05,2.06c-0.01,1.14-0.04,2.06-0.07,2.06c-0.03,0-0.06-0.92-0.05-2.06
				C1297.52,695.93,1297.55,695.01,1297.59,695.01z"/>
		</g>
	</g>
	<g>
		<g>
			<path class="st32" d="M1293.53,701.02c0,0.03-0.68,0.13-1.52,0.12c-0.85-0.01-1.53-0.11-1.52-0.14c0-0.04,0.68,0.02,1.52,0.02
				C1292.85,701.03,1293.53,700.99,1293.53,701.02z"/>
		</g>
	</g>
	<g>
		<g>
			<path class="st32" d="M1295.58,701.05c0.03,0.02-0.06,0.14-0.13,0.29c-0.07,0.15-0.11,0.28-0.15,0.28
				c-0.03,0-0.05-0.16,0.03-0.33C1295.41,701.12,1295.55,701.03,1295.58,701.05z"/>
		</g>
	</g>
	<g>
		<g>
			<path class="st32" d="M1296.36,700.15c0.02,0.02-0.04,0.13-0.15,0.23c-0.11,0.1-0.22,0.17-0.24,0.14
				c-0.02-0.02,0.04-0.13,0.15-0.23C1296.23,700.19,1296.34,700.12,1296.36,700.15z"/>
		</g>
	</g>
	<g>
		<g>
			<path class="st32" d="M1297.47,699.74c-0.01,0.03-0.15,0.03-0.3,0.08c-0.16,0.05-0.27,0.13-0.29,0.1
				c-0.03-0.02,0.06-0.16,0.25-0.22C1297.32,699.65,1297.48,699.71,1297.47,699.74z"/>
		</g>
	</g>
	<g>
		<g>
			<path class="st32" d="M1298.26,699.56c0.01,0.03-0.05,0.08-0.14,0.11c-0.09,0.03-0.17,0.03-0.18,0s0.05-0.08,0.14-0.11
				C1298.17,699.53,1298.25,699.53,1298.26,699.56z"/>
		</g>
	</g>
</g>
<g>
	<path class="st35" d="M1293.75,584.86c-3.87,10.97-10.82,30.83-10.82,30.83c-0.49,0.29-2.33,1.22-2.89,1.33
		c-0.68,0.13-1.6,0.28-2.12,0.21c-0.65-0.09-1.07,0.63-0.65,1.03c0.43,0.4,2.21,0.68,4.24,0.1c2.03-0.59,0.52,2.37-0.14,3.35
		c-0.66,0.98-2.55,4.18-2.4,4.61c0.22,0.64,1.03,0.37,1.67-0.62c0.65-1,2.56-3.86,2.84-3.71c0.55,0.3-2.77,5.39-2.77,5.39
		s-0.76,0.89-0.18,1.33c1.06,0.79,4.31-4.69,4.6-5.22c0.21-0.37,0.48-0.08,0.24,0.31c-0.25,0.4-3.08,4.88-2.23,5.39
		c0.89,0.53,2.87-3.96,3.68-4.79c0.93-0.94-1.86,3.74-1.05,4.3c0.3,0.21,0.56,0.33,1.95-2.38c0.89-1.72,2.23-5.5,3.12-8.13
		c2.97-5.73,11.48-23.42,14.29-35.46"/>
</g>
<g>
	<path class="st27" d="M1295.8,558.09c0,0,8.27-2.3,9.9,9.87c1.02,7.62,3.35,26.04,4.24,35.5c0.08,0.89-0.5,0.54-0.43,1.28
		c0.08,0.85,0.87,1.55,0.87,2.16c0,1.95-2.32,1.92-2.32,1.92l-21.62,0.99c0,0-2,0.04-2.01-1.64c-0.01-1.28,0.87-1.85,0.93-2.64
		c0.92-11.38,0.9-39.73,2.24-43.63C1288.86,558.18,1289.68,558.11,1295.8,558.09z"/>
</g>
<g>
	<g>
		<path class="st26" d="M1297.43,558.68c0.01-0.01,0.2,0.19,0.51,0.52c0.3,0.33,0.73,0.77,1.18,1.28c0.45,0.51,0.84,0.99,1.1,1.35
			c0.26,0.36,0.4,0.6,0.39,0.6c-0.02,0.01-0.19-0.21-0.46-0.55c-0.28-0.35-0.67-0.82-1.12-1.32c-0.45-0.51-0.86-0.97-1.15-1.31
			C1297.58,558.91,1297.42,558.69,1297.43,558.68z"/>
	</g>
</g>
<g>
	<g>
		<path class="st26" d="M1298.38,558.47c0,0.01-0.12,0.06-0.34,0.16c-0.3,0.12-0.61,0.24-0.96,0.38c-0.81,0.31-1.94,0.72-3.2,1.14
			c-1.26,0.42-2.41,0.77-3.25,1.01c-0.36,0.1-0.69,0.19-0.99,0.27c-0.24,0.06-0.37,0.09-0.37,0.08s0.12-0.05,0.36-0.13
			c0.3-0.1,0.63-0.2,0.98-0.31c0.83-0.26,1.98-0.62,3.23-1.04c1.26-0.42,2.39-0.82,3.21-1.11c0.35-0.12,0.67-0.24,0.97-0.34
			C1298.25,558.5,1298.38,558.46,1298.38,558.47z"/>
	</g>
</g>
<g>
	<g>
		<path class="st26" d="M1289.36,559.28c0.04,0,0.06,0.5,0.06,1.11c0,0.61-0.03,1.11-0.06,1.11c-0.03,0-0.06-0.5-0.06-1.11
			C1289.29,559.78,1289.32,559.28,1289.36,559.28z"/>
	</g>
</g>
<g>
	<g>
		<path class="st29" d="M1304.15,562.44c0,0.03-3.67,0.06-8.2,0.06c-4.53,0-8.2-0.03-8.2-0.06s3.67-0.06,8.2-0.06
			C1300.48,562.38,1304.15,562.4,1304.15,562.44z"/>
	</g>
</g>
<g>
	<g>
		<path class="st29" d="M1305.21,565.03c0,0-0.06,0.01-0.19,0c-0.16,0-0.33-0.01-0.53-0.01c-0.53-0.02-1.18-0.04-1.95-0.07
			c-1.72-0.05-3.95-0.12-6.43-0.19c-2.47-0.04-4.71-0.08-6.43-0.11c-0.77-0.01-1.42-0.02-1.95-0.03c-0.2,0-0.37-0.01-0.53-0.01
			c-0.12,0-0.18-0.01-0.18-0.01c0,0,0.06-0.01,0.18-0.01c0.16,0,0.33-0.01,0.53-0.01c0.53,0,1.18-0.01,1.95-0.01
			c1.65,0,3.92,0.02,6.43,0.08c2.51,0.06,4.78,0.15,6.43,0.23c0.77,0.04,1.42,0.08,1.95,0.11c0.2,0.01,0.37,0.03,0.53,0.04
			C1305.15,565.02,1305.21,565.03,1305.21,565.03z"/>
	</g>
</g>
<g>
	<g>
		<path class="st29" d="M1305.47,567.32c0,0.03-4.15,0.06-9.27,0.06c-5.12,0-9.27-0.03-9.27-0.06c0-0.03,4.15-0.06,9.27-0.06
			C1301.32,567.26,1305.47,567.29,1305.47,567.32z"/>
	</g>
</g>
<g>
	<g>
		<path class="st29" d="M1305.94,569.81c0,0.03-4.3,0.06-9.61,0.06c-5.31,0-9.61-0.03-9.61-0.06s4.3-0.06,9.61-0.06
			C1301.64,569.75,1305.94,569.77,1305.94,569.81z"/>
	</g>
</g>
<g>
	<g>
		<path class="st29" d="M1306.38,572.54c0,0.03-4.4,0.06-9.82,0.06c-5.43,0-9.82-0.03-9.82-0.06c0-0.03,4.4-0.06,9.82-0.06
			C1301.98,572.47,1306.38,572.5,1306.38,572.54z"/>
	</g>
</g>
<g>
	<g>
		<path class="st29" d="M1306.65,575.26c0,0.03-4.46,0.06-9.96,0.06c-5.5,0-9.96-0.03-9.96-0.06c0-0.03,4.46-0.06,9.96-0.06
			C1302.19,575.2,1306.65,575.23,1306.65,575.26z"/>
	</g>
</g>
<g>
	<g>
		<path class="st29" d="M1306.99,578.18c0,0.03-4.54,0.06-10.13,0.06c-5.6,0-10.13-0.03-10.13-0.06s4.54-0.06,10.13-0.06
			C1302.46,578.12,1306.99,578.15,1306.99,578.18z"/>
	</g>
</g>
<g>
	<g>
		<path class="st29" d="M1307.33,580.72c0,0.03-4.61,0.06-10.3,0.06c-5.69,0-10.3-0.03-10.3-0.06s4.61-0.06,10.3-0.06
			C1302.72,580.66,1307.33,580.68,1307.33,580.72z"/>
	</g>
</g>
<g>
	<g>
		<path class="st29" d="M1307.77,583.5c0,0.03-4.71,0.06-10.52,0.06c-5.81,0-10.52-0.03-10.52-0.06c0-0.03,4.71-0.06,10.52-0.06
			C1303.06,583.44,1307.77,583.46,1307.77,583.5z"/>
	</g>
</g>
<g>
	<g>
		<path class="st29" d="M1308.02,586.28c0,0.03-4.77,0.06-10.64,0.06c-5.88,0-10.64-0.03-10.64-0.06s4.76-0.06,10.64-0.06
			C1303.25,586.22,1308.02,586.24,1308.02,586.28z"/>
	</g>
</g>
<g>
	<g>
		<path class="st29" d="M1308.35,589.06c0,0.03-4.84,0.06-10.81,0.06c-5.97,0-10.81-0.03-10.81-0.06c0-0.03,4.84-0.06,10.81-0.06
			C1303.51,589,1308.35,589.02,1308.35,589.06z"/>
	</g>
</g>
<g>
	<g>
		<path class="st29" d="M1308.68,591.84c0,0.03-4.91,0.06-10.97,0.06c-6.06,0-10.97-0.03-10.97-0.06c0-0.03,4.91-0.06,10.97-0.06
			C1303.76,591.78,1308.68,591.8,1308.68,591.84z"/>
	</g>
</g>
<g>
	<g>
		<path class="st29" d="M1309,594.62c0,0.03-5.1,0.06-11.39,0.06c-6.29,0-11.39-0.03-11.39-0.06c0-0.03,5.1-0.06,11.39-0.06
			C1303.9,594.56,1309,594.58,1309,594.62z"/>
	</g>
</g>
<g>
	<g>
		<path class="st29" d="M1309.31,597.4c0,0.03-5.26,0.06-11.75,0.06c-6.49,0-11.75-0.03-11.75-0.06s5.26-0.06,11.75-0.06
			C1304.04,597.34,1309.31,597.36,1309.31,597.4z"/>
	</g>
</g>
<g>
	<g>
		<path class="st29" d="M1309.61,600.18c0,0.03-5.35,0.06-11.95,0.06c-6.6,0-11.95-0.03-11.95-0.06c0-0.03,5.35-0.06,11.95-0.06
			C1304.26,600.12,1309.61,600.14,1309.61,600.18z"/>
	</g>
</g>
<g>
	<g>
		<path class="st29" d="M1309.89,602.96c0,0.03-5.41,0.06-12.09,0.06c-6.68,0-12.09-0.03-12.09-0.06c0-0.03,5.41-0.06,12.09-0.06
			C1304.47,602.9,1309.89,602.92,1309.89,602.96z"/>
	</g>
</g>
<g>
	<g>
		<path class="st29" d="M1309.72,605.74c0,0.03-5.46,0.01-12.18-0.04c-6.73-0.06-12.18-0.13-12.18-0.17s5.45-0.01,12.18,0.04
			C1304.27,605.63,1309.72,605.7,1309.72,605.74z"/>
	</g>
</g>
<g>
	<g>
		<path class="st29" d="M1309.73,608.3c0,0.03-5.65,0.11-12.63,0.18c-6.98,0.07-12.63,0.09-12.63,0.06c0-0.03,5.65-0.11,12.63-0.18
			C1304.07,608.29,1309.72,608.27,1309.73,608.3z"/>
	</g>
</g>
<g>
	<g>
		<path class="st27" d="M1293.42,595.27c1.39,0.18,2.82-0.19,3.95-0.99c1.14-0.79,2.03-1.87,2.81-2.99
			c2.86-4.07,4.57-8.87,4.9-13.77c0.07-1.1,0.2-5.69-0.05-7.53c-0.71,5.28-2.39,11.02-3.81,14.23c-1.82,4.14-3.55,7.13-6.59,10.53"
			/>
	</g>
	<g class="st30">
		<path d="M1293.42,595.27c1.39,0.18,2.82-0.19,3.95-0.99c1.14-0.79,2.03-1.87,2.81-2.99c2.86-4.07,4.57-8.87,4.9-13.77
			c0.07-1.1,0.2-5.69-0.05-7.53c-0.71,5.28-2.39,11.02-3.81,14.23c-1.82,4.14-3.55,7.13-6.59,10.53"/>
	</g>
</g>
<g>
	<g>
		<path class="st26" d="M1307.06,597.8c0,0-0.75,0.82-2.16,1.96c-0.7,0.57-1.58,1.2-2.59,1.85c-1.02,0.64-2.18,1.28-3.44,1.86
			c-1.27,0.57-2.52,1.03-3.68,1.38c-1.16,0.34-2.22,0.6-3.13,0.75c-1.81,0.32-2.94,0.36-2.94,0.36c0,0,0.07-0.02,0.2-0.03
			c0.17-0.02,0.36-0.05,0.59-0.07c0.51-0.06,1.24-0.17,2.14-0.34c0.9-0.17,1.96-0.43,3.11-0.77c1.15-0.36,2.4-0.82,3.66-1.39
			c1.26-0.58,2.41-1.22,3.43-1.85c1.01-0.64,1.89-1.26,2.59-1.83c0.71-0.56,1.26-1.03,1.63-1.38c0.16-0.15,0.3-0.28,0.43-0.39
			C1307,597.84,1307.05,597.79,1307.06,597.8z"/>
	</g>
</g>
<g>
	<g>
		<g>
			<path class="st36" d="M1301.12,584.65c0,0-0.04-0.01-0.12-0.03c-0.11-0.03-0.22-0.07-0.34-0.11c-0.36-0.12-0.78-0.26-1.24-0.42
				c-1.14-0.41-2.53-0.9-4.07-1.45c-1.59-0.56-3.05-1.01-4.12-1.31c-0.47-0.13-0.89-0.24-1.27-0.34c-0.12-0.03-0.23-0.06-0.34-0.1
				c-0.08-0.02-0.12-0.04-0.12-0.04c0,0,0.04,0,0.12,0.02c0.11,0.02,0.23,0.05,0.35,0.07c0.3,0.06,0.74,0.17,1.28,0.31
				c1.07,0.28,2.54,0.72,4.14,1.28c1.59,0.56,3.02,1.11,4.06,1.49c0.46,0.17,0.87,0.32,1.23,0.45c0.12,0.04,0.23,0.09,0.33,0.13
				C1301.09,584.63,1301.12,584.64,1301.12,584.65z"/>
		</g>
	</g>
	<g>
		<g>
			<path class="st36" d="M1301.12,584.65c0,0,0.05-0.16,0.17-0.45c0.12-0.32,0.29-0.75,0.49-1.3c0.41-1.13,1.02-2.76,1.61-4.83
				c0.58-2.07,0.99-4.59,1.41-7.39c0.22-1.39,0.32-2.91-0.19-4.37c-0.26-0.72-0.67-1.4-1.22-1.99c-0.27-0.3-0.57-0.58-0.88-0.84
				c-0.31-0.27-0.65-0.5-1.03-0.67c-0.76-0.33-1.63-0.38-2.43-0.24c-0.81,0.13-1.56,0.45-2.22,0.88c-1.36,0.84-1.99,2.3-2.46,3.61
				c-0.93,2.68-1.76,5.1-2.47,7.14c-0.7,2.01-1.27,3.65-1.67,4.81c-0.19,0.55-0.35,0.98-0.46,1.31c-0.11,0.3-0.17,0.45-0.17,0.45
				s0.05-0.16,0.14-0.46c0.11-0.33,0.26-0.76,0.44-1.31c0.4-1.17,0.95-2.81,1.64-4.82c0.7-2.04,1.53-4.46,2.45-7.15
				c0.24-0.67,0.51-1.36,0.9-2c0.38-0.65,0.93-1.23,1.6-1.67c0.67-0.43,1.44-0.76,2.27-0.9c0.82-0.14,1.71-0.1,2.5,0.25
				c0.4,0.17,0.75,0.41,1.06,0.69c0.31,0.27,0.62,0.55,0.89,0.85c0.56,0.6,0.98,1.3,1.24,2.03c0.52,1.49,0.41,3.03,0.19,4.42
				c-0.43,2.8-0.85,5.33-1.44,7.4c-0.6,2.07-1.22,3.7-1.65,4.82C1301.39,584.04,1301.12,584.65,1301.12,584.65z"/>
		</g>
	</g>
</g>
<g>
	<path class="st26" d="M1306.36,618.02l0.48,33.9c0.03,2.34,0.28,4.67,0.76,6.97c0.65,3.13,1.8,7.21,3.68,9.73
		c2.86,3.84,12.93,14.69,12.93,14.69l-8.47,9.52c0,0-17.97-13.76-19.13-26.47c-0.59-6.45,0-45.05,0-45.05L1306.36,618.02z"/>
</g>
<g>
	<path class="st26" d="M1286.43,610.2l-0.22,87.7h14.04l2.48-76.31c0,0,4.07-2.57,4.78-5.86c0.97-4.45,0.53-6.52,0.53-6.52
		L1286.43,610.2z"/>
</g>
<g>
	<rect x="1285.64" y="695.38" class="st32" width="15.14" height="2.53"/>
</g>
<g>
	<polygon class="st32" points="1325.41,682.82 1314.91,693.46 1313.32,692.01 1323.82,681.36 	"/>
</g>
<g>
	<g>
		<path class="st26" d="M1323.22,682.13c0,0-0.03,0.04-0.09,0.1c-0.08,0.09-0.17,0.18-0.26,0.27c-0.28,0.29-0.6,0.62-0.97,1.01
			c-0.82,0.85-1.93,2.05-3.21,3.32c-1.26,1.22-2.41,2.33-3.32,3.21c-0.39,0.37-0.72,0.69-1.02,0.96c-0.1,0.09-0.19,0.18-0.28,0.26
			c-0.07,0.06-0.1,0.09-0.1,0.08s0.03-0.04,0.09-0.1c0.08-0.09,0.17-0.18,0.26-0.27c0.29-0.29,0.61-0.61,0.99-0.99
			c0.91-0.89,2.04-2.01,3.3-3.24c1.23-1.25,2.34-2.39,3.23-3.29c0.42-0.42,0.76-0.75,1-0.98c0.1-0.09,0.19-0.18,0.28-0.26
			C1323.18,682.15,1323.22,682.12,1323.22,682.13z"/>
	</g>
</g>
<g>
	<g>
		<path class="st32" d="M1297.14,609.35c0,0-0.01,0.08-0.05,0.22c-0.03,0.15-0.1,0.36-0.22,0.63c-0.12,0.27-0.31,0.58-0.6,0.91
			c-0.28,0.33-0.66,0.67-1.07,1.05c-0.4,0.39-0.88,0.81-1.28,1.36c-0.41,0.56-0.38,1.33-0.42,2.1c-0.05,1.57-0.12,3.36-0.19,5.33
			c-0.07,1.98-0.14,4.14-0.23,6.47c-0.07,2.33-0.14,4.81-0.22,7.42c-0.14,5.23-0.35,10.97-0.48,17.01
			c-0.21,12.06-0.4,22.99-0.54,30.91c-0.15,7.72-0.24,11.98-0.26,12.8c0,0-0.01-0.31,0-0.89c0.01-0.6,0.02-1.45,0.03-2.55
			c0.03-2.23,0.08-5.42,0.14-9.37c0.13-7.92,0.31-18.85,0.5-30.91c0.13-6.03,0.34-11.78,0.49-17.01c0.08-2.61,0.16-5.1,0.23-7.42
			c0.09-2.32,0.17-4.49,0.24-6.47c0.08-1.97,0.14-3.76,0.2-5.33c0.05-0.77,0.01-1.56,0.44-2.13c0.41-0.55,0.89-0.97,1.3-1.36
			c0.42-0.38,0.8-0.71,1.08-1.04c0.29-0.32,0.48-0.63,0.6-0.9c0.12-0.27,0.19-0.48,0.23-0.62
			C1297.12,609.43,1297.14,609.35,1297.14,609.35z"/>
	</g>
</g>
<g>
	<g>
		<g>
			<path class="st32" d="M1288.75,610.41c-0.03,0.02-0.12-0.08-0.2-0.23c-0.08-0.14-0.12-0.27-0.09-0.29s0.12,0.09,0.2,0.23
				C1288.74,610.26,1288.78,610.39,1288.75,610.41z"/>
		</g>
	</g>
	<g>
		<g>
			<path class="st32" d="M1289.55,611.27c-0.02,0.03-0.14-0.05-0.26-0.16c-0.12-0.11-0.2-0.22-0.17-0.25
				c0.03-0.02,0.14,0.05,0.26,0.16C1289.49,611.14,1289.57,611.25,1289.55,611.27z"/>
		</g>
	</g>
	<g>
		<g>
			<path class="st32" d="M1290.58,611.89c-0.01,0.03-0.15-0.01-0.3-0.08c-0.15-0.08-0.26-0.16-0.24-0.19
				c0.02-0.03,0.15,0.01,0.3,0.08C1290.48,611.78,1290.59,611.86,1290.58,611.89z"/>
		</g>
	</g>
	<g>
		<g>
			<path class="st32" d="M1291.74,612.2c0,0.03-0.14,0.03-0.31,0c-0.17-0.03-0.29-0.08-0.28-0.12c0.01-0.03,0.15-0.03,0.31,0
				S1291.74,612.17,1291.74,612.2z"/>
		</g>
	</g>
	<g>
		<g>
			<path class="st32" d="M1292.95,612.16c0.01,0.03-0.12,0.08-0.29,0.1c-0.17,0.03-0.31,0-0.31-0.03c0-0.03,0.13-0.07,0.29-0.09
				C1292.8,612.12,1292.94,612.13,1292.95,612.16z"/>
		</g>
	</g>
	<g>
		<g>
			<path class="st32" d="M1294.08,611.76c0.02,0.03-0.09,0.11-0.25,0.18c-0.16,0.07-0.29,0.1-0.3,0.06
				c-0.01-0.03,0.1-0.11,0.25-0.18C1293.93,611.76,1294.07,611.74,1294.08,611.76z"/>
		</g>
	</g>
	<g>
		<g>
			<path class="st32" d="M1295.06,611.07c0.02,0.02-0.06,0.13-0.19,0.24c-0.13,0.11-0.25,0.17-0.27,0.14
				c-0.02-0.03,0.06-0.13,0.19-0.24C1294.91,611.11,1295.03,611.05,1295.06,611.07z"/>
		</g>
	</g>
	<g>
		<g>
			<path class="st32" d="M1295.79,610.14c0.03,0.02-0.02,0.14-0.11,0.28c-0.09,0.14-0.19,0.23-0.22,0.21
				c-0.03-0.02,0.02-0.14,0.11-0.28C1295.66,610.22,1295.76,610.13,1295.79,610.14z"/>
		</g>
	</g>
	<g>
		<g>
			<path class="st32" d="M1296.1,609.41c0.03,0.01,0.05,0.06,0.03,0.12c-0.02,0.06-0.06,0.09-0.09,0.08
				c-0.03-0.01-0.04-0.06-0.03-0.12C1296.03,609.44,1296.07,609.41,1296.1,609.41z"/>
		</g>
	</g>
</g>
<g>
	<g>
		<g>
			<path class="st32" d="M1292.37,614.45c-0.03,0-0.06-0.13-0.05-0.29c0.01-0.16,0.04-0.29,0.07-0.29c0.03,0,0.06,0.13,0.05,0.29
				C1292.44,614.32,1292.41,614.45,1292.37,614.45z"/>
		</g>
	</g>
	<g>
		<g>
			<path class="st32" d="M1292.33,615.61c-0.03,0-0.06-0.13-0.05-0.29c0.01-0.16,0.04-0.29,0.07-0.29c0.03,0,0.06,0.13,0.05,0.29
				C1292.4,615.48,1292.37,615.61,1292.33,615.61z"/>
		</g>
	</g>
	<g>
		<g>
			<path class="st32" d="M1292.29,616.78c-0.03,0-0.06-0.13-0.05-0.29c0.01-0.16,0.04-0.29,0.07-0.29c0.03,0,0.06,0.13,0.05,0.29
				C1292.36,616.65,1292.33,616.78,1292.29,616.78z"/>
		</g>
	</g>
	<g>
		<g>
			<path class="st32" d="M1292.26,617.94c-0.03,0-0.06-0.13-0.05-0.29c0.01-0.16,0.04-0.29,0.07-0.29c0.03,0,0.06,0.13,0.05,0.29
				C1292.32,617.81,1292.29,617.94,1292.26,617.94z"/>
		</g>
	</g>
	<g>
		<g>
			<path class="st32" d="M1292.22,619.11c-0.03,0-0.06-0.13-0.05-0.29c0.01-0.16,0.04-0.29,0.07-0.29c0.03,0,0.06,0.13,0.05,0.29
				C1292.29,618.98,1292.25,619.11,1292.22,619.11z"/>
		</g>
	</g>
	<g>
		<g>
			<path class="st32" d="M1292.18,620.28c-0.03,0-0.06-0.13-0.05-0.29c0.01-0.16,0.04-0.29,0.07-0.29c0.03,0,0.06,0.13,0.05,0.29
				C1292.25,620.15,1292.22,620.28,1292.18,620.28z"/>
		</g>
	</g>
	<g>
		<g>
			<path class="st32" d="M1292.14,621.44c-0.03,0-0.06-0.13-0.05-0.29c0-0.16,0.04-0.29,0.07-0.29c0.03,0,0.06,0.13,0.05,0.29
				C1292.21,621.31,1292.18,621.44,1292.14,621.44z"/>
		</g>
	</g>
	<g>
		<g>
			<path class="st32" d="M1292.11,622.61c-0.03,0-0.06-0.13-0.05-0.29s0.04-0.29,0.07-0.29c0.03,0,0.06,0.13,0.05,0.29
				C1292.18,622.48,1292.14,622.61,1292.11,622.61z"/>
		</g>
	</g>
	<g>
		<g>
			<path class="st32" d="M1292.07,623.78c-0.03,0-0.06-0.13-0.05-0.29c0-0.16,0.04-0.29,0.07-0.29c0.03,0,0.06,0.13,0.05,0.29
				C1292.14,623.65,1292.11,623.78,1292.07,623.78z"/>
		</g>
	</g>
	<g>
		<g>
			<path class="st32" d="M1292.04,624.94c-0.03,0-0.06-0.13-0.05-0.29c0-0.16,0.04-0.29,0.07-0.29c0.03,0,0.06,0.13,0.05,0.29
				C1292.11,624.81,1292.08,624.94,1292.04,624.94z"/>
		</g>
	</g>
	<g>
		<g>
			<path class="st32" d="M1292.01,626.11c-0.03,0-0.06-0.13-0.05-0.29c0-0.16,0.04-0.29,0.07-0.29c0.03,0,0.06,0.13,0.05,0.29
				C1292.07,625.98,1292.04,626.11,1292.01,626.11z"/>
		</g>
	</g>
	<g>
		<g>
			<path class="st32" d="M1291.98,627.28c-0.03,0-0.06-0.13-0.06-0.29c0-0.16,0.04-0.29,0.07-0.29c0.03,0,0.06,0.13,0.06,0.29
				C1292.04,627.15,1292.01,627.28,1291.98,627.28z"/>
		</g>
	</g>
	<g>
		<g>
			<path class="st32" d="M1291.94,628.44c-0.03,0-0.06-0.13-0.06-0.29c0-0.16,0.04-0.29,0.07-0.29c0.03,0,0.06,0.13,0.06,0.29
				C1292.01,628.32,1291.98,628.45,1291.94,628.44z"/>
		</g>
	</g>
	<g>
		<g>
			<path class="st32" d="M1291.91,629.61c-0.03,0-0.06-0.13-0.06-0.29s0.04-0.29,0.07-0.29c0.03,0,0.06,0.13,0.06,0.29
				C1291.98,629.48,1291.95,629.61,1291.91,629.61z"/>
		</g>
	</g>
	<g>
		<g>
			<path class="st32" d="M1291.88,630.78c-0.03,0-0.06-0.13-0.06-0.29s0.04-0.29,0.07-0.29c0.03,0,0.06,0.13,0.06,0.29
				C1291.95,630.65,1291.92,630.78,1291.88,630.78z"/>
		</g>
	</g>
	<g>
		<g>
			<path class="st32" d="M1291.85,631.95c-0.04,0-0.06-0.13-0.06-0.29c0-0.16,0.04-0.29,0.07-0.29c0.03,0,0.06,0.13,0.06,0.29
				C1291.92,631.82,1291.89,631.95,1291.85,631.95z"/>
		</g>
	</g>
	<g>
		<g>
			<path class="st32" d="M1291.82,633.12c-0.03,0-0.06-0.13-0.06-0.29c0-0.16,0.04-0.29,0.07-0.29c0.03,0,0.06,0.13,0.06,0.29
				C1291.89,632.99,1291.86,633.12,1291.82,633.12z"/>
		</g>
	</g>
	<g>
		<g>
			<path class="st32" d="M1291.8,634.29c-0.03,0-0.06-0.13-0.06-0.29c0-0.16,0.04-0.29,0.07-0.29c0.03,0,0.06,0.13,0.06,0.29
				C1291.86,634.16,1291.83,634.29,1291.8,634.29z"/>
		</g>
	</g>
	<g>
		<g>
			<path class="st32" d="M1291.77,635.45c-0.03,0-0.06-0.13-0.06-0.29c0-0.16,0.04-0.29,0.07-0.29c0.03,0,0.06,0.13,0.06,0.29
				C1291.83,635.32,1291.8,635.45,1291.77,635.45z"/>
		</g>
	</g>
	<g>
		<g>
			<path class="st32" d="M1291.74,636.62c-0.03,0-0.06-0.13-0.06-0.29c0-0.16,0.04-0.29,0.07-0.29c0.03,0,0.06,0.13,0.06,0.29
				C1291.81,636.49,1291.77,636.62,1291.74,636.62z"/>
		</g>
	</g>
	<g>
		<g>
			<path class="st32" d="M1291.71,637.79c-0.03,0-0.06-0.13-0.06-0.29c0-0.16,0.04-0.29,0.07-0.29c0.03,0,0.06,0.13,0.06,0.29
				C1291.78,637.66,1291.75,637.79,1291.71,637.79z"/>
		</g>
	</g>
	<g>
		<g>
			<path class="st32" d="M1291.69,638.96c-0.04,0-0.06-0.13-0.06-0.29c0-0.16,0.03-0.29,0.07-0.29c0.03,0,0.06,0.13,0.06,0.29
				C1291.75,638.83,1291.72,638.96,1291.69,638.96z"/>
		</g>
	</g>
	<g>
		<g>
			<path class="st32" d="M1291.66,640.13c-0.03,0-0.06-0.13-0.06-0.29c0-0.16,0.03-0.29,0.07-0.29c0.03,0,0.06,0.13,0.06,0.29
				C1291.73,640,1291.7,640.13,1291.66,640.13z"/>
		</g>
	</g>
	<g>
		<g>
			<path class="st32" d="M1291.63,641.3c-0.03,0-0.06-0.13-0.06-0.29c0-0.16,0.03-0.29,0.07-0.29c0.03,0,0.06,0.13,0.06,0.29
				C1291.7,641.17,1291.67,641.3,1291.63,641.3z"/>
		</g>
	</g>
	<g>
		<g>
			<path class="st32" d="M1291.61,642.47c-0.03,0-0.06-0.13-0.06-0.29c0-0.16,0.03-0.29,0.07-0.29c0.03,0,0.06,0.13,0.06,0.29
				C1291.68,642.34,1291.64,642.47,1291.61,642.47z"/>
		</g>
	</g>
	<g>
		<g>
			<path class="st32" d="M1291.58,643.64c-0.03,0-0.06-0.13-0.06-0.29c0-0.16,0.03-0.29,0.07-0.29s0.06,0.13,0.06,0.29
				C1291.65,643.51,1291.62,643.64,1291.58,643.64z"/>
		</g>
	</g>
	<g>
		<g>
			<path class="st32" d="M1291.56,644.81c-0.03,0-0.06-0.13-0.06-0.29c0-0.16,0.03-0.29,0.07-0.29c0.03,0,0.06,0.13,0.06,0.29
				C1291.63,644.68,1291.6,644.81,1291.56,644.81z"/>
		</g>
	</g>
	<g>
		<g>
			<path class="st32" d="M1291.54,645.98c-0.03,0-0.06-0.13-0.06-0.29c0-0.16,0.03-0.29,0.07-0.29s0.06,0.13,0.06,0.29
				C1291.6,645.85,1291.57,645.98,1291.54,645.98z"/>
		</g>
	</g>
	<g>
		<g>
			<path class="st32" d="M1291.51,647.15c-0.03,0-0.06-0.13-0.06-0.29c0-0.16,0.03-0.29,0.07-0.29c0.03,0,0.06,0.13,0.06,0.29
				C1291.58,647.02,1291.55,647.15,1291.51,647.15z"/>
		</g>
	</g>
	<g>
		<g>
			<path class="st32" d="M1291.49,648.31c-0.03,0-0.06-0.13-0.06-0.29c0-0.16,0.03-0.29,0.07-0.29c0.03,0,0.06,0.13,0.06,0.29
				S1291.52,648.32,1291.49,648.31z"/>
		</g>
	</g>
	<g>
		<g>
			<path class="st32" d="M1291.46,649.48c-0.03,0-0.06-0.13-0.06-0.29c0-0.16,0.03-0.29,0.07-0.29c0.03,0,0.06,0.13,0.06,0.29
				C1291.53,649.35,1291.5,649.49,1291.46,649.48z"/>
		</g>
	</g>
	<g>
		<g>
			<path class="st32" d="M1291.44,650.65c-0.03,0-0.06-0.13-0.06-0.29c0-0.16,0.03-0.29,0.07-0.29c0.03,0,0.06,0.13,0.06,0.29
				C1291.51,650.52,1291.48,650.65,1291.44,650.65z"/>
		</g>
	</g>
	<g>
		<g>
			<path class="st32" d="M1291.42,651.82c-0.03,0-0.06-0.13-0.06-0.29c0-0.16,0.03-0.29,0.07-0.29c0.03,0,0.06,0.13,0.06,0.29
				C1291.48,651.69,1291.45,651.82,1291.42,651.82z"/>
		</g>
	</g>
	<g>
		<g>
			<path class="st32" d="M1291.4,652.99c-0.03,0-0.06-0.13-0.06-0.29c0-0.16,0.03-0.29,0.07-0.29c0.03,0,0.06,0.13,0.06,0.29
				C1291.46,652.86,1291.43,652.99,1291.4,652.99z"/>
		</g>
	</g>
	<g>
		<g>
			<path class="st32" d="M1291.37,654.16c-0.03,0-0.06-0.13-0.06-0.29c0-0.16,0.03-0.29,0.07-0.29s0.06,0.13,0.06,0.29
				C1291.44,654.03,1291.41,654.16,1291.37,654.16z"/>
		</g>
	</g>
	<g>
		<g>
			<path class="st32" d="M1291.35,655.33c-0.03,0-0.06-0.13-0.06-0.29s0.03-0.29,0.07-0.29c0.03,0,0.06,0.13,0.06,0.29
				C1291.42,655.2,1291.39,655.33,1291.35,655.33z"/>
		</g>
	</g>
	<g>
		<g>
			<path class="st32" d="M1291.33,656.5c-0.03,0-0.06-0.13-0.06-0.29s0.03-0.29,0.07-0.29c0.03,0,0.06,0.13,0.06,0.29
				C1291.39,656.37,1291.36,656.5,1291.33,656.5z"/>
		</g>
	</g>
	<g>
		<g>
			<path class="st32" d="M1291.31,657.67c-0.03,0-0.06-0.13-0.06-0.29c0-0.16,0.03-0.29,0.07-0.29s0.06,0.13,0.06,0.29
				C1291.37,657.54,1291.34,657.67,1291.31,657.67z"/>
		</g>
	</g>
	<g>
		<g>
			<path class="st32" d="M1291.28,658.84c-0.03,0-0.06-0.13-0.06-0.29c0-0.16,0.03-0.29,0.07-0.29c0.03,0,0.06,0.13,0.06,0.29
				C1291.35,658.71,1291.32,658.84,1291.28,658.84z"/>
		</g>
	</g>
	<g>
		<g>
			<path class="st32" d="M1291.26,660.01c-0.03,0-0.06-0.13-0.06-0.29c0-0.16,0.03-0.29,0.07-0.29c0.03,0,0.06,0.13,0.06,0.29
				C1291.33,659.88,1291.3,660.01,1291.26,660.01z"/>
		</g>
	</g>
	<g>
		<g>
			<path class="st32" d="M1291.24,661.18c-0.03,0-0.06-0.13-0.06-0.29s0.03-0.29,0.07-0.29c0.03,0,0.06,0.13,0.06,0.29
				C1291.3,661.05,1291.27,661.18,1291.24,661.18z"/>
		</g>
	</g>
	<g>
		<g>
			<path class="st32" d="M1291.22,662.35c-0.03,0-0.06-0.13-0.06-0.29c0-0.16,0.03-0.29,0.07-0.29c0.03,0,0.06,0.13,0.06,0.29
				C1291.28,662.22,1291.25,662.35,1291.22,662.35z"/>
		</g>
	</g>
	<g>
		<g>
			<path class="st32" d="M1291.19,663.52c-0.03,0-0.06-0.13-0.06-0.29s0.03-0.29,0.07-0.29c0.03,0,0.06,0.13,0.06,0.29
				C1291.26,663.39,1291.23,663.52,1291.19,663.52z"/>
		</g>
	</g>
	<g>
		<g>
			<path class="st32" d="M1291.17,664.69c-0.03,0-0.06-0.13-0.06-0.29s0.03-0.29,0.07-0.29c0.03,0,0.06,0.13,0.06,0.29
				C1291.24,664.56,1291.21,664.69,1291.17,664.69z"/>
		</g>
	</g>
	<g>
		<g>
			<path class="st32" d="M1291.15,665.86c-0.03,0-0.06-0.13-0.06-0.29c0-0.16,0.03-0.29,0.07-0.29c0.03,0,0.06,0.13,0.06,0.29
				C1291.22,665.73,1291.18,665.86,1291.15,665.86z"/>
		</g>
	</g>
	<g>
		<g>
			<path class="st32" d="M1291.13,667.03c-0.03,0-0.06-0.13-0.06-0.29c0-0.16,0.03-0.29,0.07-0.29c0.03,0,0.06,0.13,0.06,0.29
				C1291.19,666.9,1291.16,667.03,1291.13,667.03z"/>
		</g>
	</g>
	<g>
		<g>
			<path class="st32" d="M1291.1,668.2c-0.03,0-0.06-0.13-0.06-0.29c0-0.16,0.03-0.29,0.07-0.29c0.03,0,0.06,0.13,0.06,0.29
				C1291.17,668.07,1291.14,668.2,1291.1,668.2z"/>
		</g>
	</g>
	<g>
		<g>
			<path class="st32" d="M1291.08,669.37c-0.03,0-0.06-0.13-0.06-0.29s0.03-0.29,0.07-0.29c0.03,0,0.06,0.13,0.06,0.29
				C1291.15,669.24,1291.12,669.37,1291.08,669.37z"/>
		</g>
	</g>
	<g>
		<g>
			<path class="st32" d="M1291.06,670.54c-0.04,0-0.06-0.13-0.06-0.29c0-0.16,0.03-0.29,0.07-0.29c0.03,0,0.06,0.13,0.06,0.29
				C1291.12,670.41,1291.09,670.54,1291.06,670.54z"/>
		</g>
	</g>
	<g>
		<g>
			<path class="st32" d="M1291.04,671.71c-0.03,0-0.06-0.13-0.06-0.29c0-0.16,0.03-0.29,0.07-0.29c0.03,0,0.06,0.13,0.06,0.29
				C1291.1,671.58,1291.07,671.71,1291.04,671.71z"/>
		</g>
	</g>
	<g>
		<g>
			<path class="st32" d="M1291.01,672.88c-0.03,0-0.06-0.13-0.06-0.29c0-0.16,0.03-0.29,0.07-0.29c0.03,0,0.06,0.13,0.06,0.29
				C1291.08,672.75,1291.05,672.88,1291.01,672.88z"/>
		</g>
	</g>
	<g>
		<g>
			<path class="st32" d="M1290.99,674.05c-0.03,0-0.06-0.13-0.06-0.29s0.03-0.29,0.07-0.29c0.03,0,0.06,0.13,0.06,0.29
				C1291.05,673.92,1291.02,674.05,1290.99,674.05z"/>
		</g>
	</g>
	<g>
		<g>
			<path class="st32" d="M1290.96,675.21c-0.03,0-0.06-0.13-0.06-0.29c0-0.16,0.03-0.29,0.07-0.29s0.06,0.13,0.06,0.29
				C1291.03,675.08,1291,675.21,1290.96,675.21z"/>
		</g>
	</g>
	<g>
		<g>
			<path class="st32" d="M1290.94,676.38c-0.03,0-0.06-0.13-0.06-0.29c0-0.16,0.03-0.29,0.07-0.29c0.03,0,0.06,0.13,0.06,0.29
				C1291.01,676.25,1290.97,676.38,1290.94,676.38z"/>
		</g>
	</g>
	<g>
		<g>
			<path class="st32" d="M1290.91,677.55c-0.03,0-0.06-0.13-0.06-0.29c0-0.16,0.03-0.29,0.07-0.29c0.03,0,0.06,0.13,0.06,0.29
				C1290.98,677.42,1290.95,677.55,1290.91,677.55z"/>
		</g>
	</g>
	<g>
		<g>
			<path class="st32" d="M1290.89,678.72c-0.03,0-0.06-0.13-0.06-0.29c0-0.16,0.03-0.29,0.07-0.29s0.06,0.13,0.06,0.29
				C1290.96,678.59,1290.92,678.72,1290.89,678.72z"/>
		</g>
	</g>
	<g>
		<g>
			<path class="st32" d="M1290.86,679.89c-0.03,0-0.06-0.13-0.06-0.29s0.03-0.29,0.07-0.29c0.03,0,0.06,0.13,0.06,0.29
				C1290.93,679.76,1290.9,679.89,1290.86,679.89z"/>
		</g>
	</g>
	<g>
		<g>
			<path class="st32" d="M1290.84,681.06c-0.03,0-0.06-0.13-0.06-0.29c0-0.16,0.03-0.29,0.07-0.29c0.03,0,0.06,0.13,0.06,0.29
				C1290.9,680.93,1290.87,681.06,1290.84,681.06z"/>
		</g>
	</g>
	<g>
		<g>
			<path class="st32" d="M1290.81,682.22c-0.03,0-0.06-0.13-0.06-0.29c0-0.16,0.04-0.29,0.07-0.29c0.03,0,0.06,0.13,0.06,0.29
				C1290.88,682.1,1290.85,682.23,1290.81,682.22z"/>
		</g>
	</g>
	<g>
		<g>
			<path class="st32" d="M1290.79,683.39c-0.03,0-0.06-0.13-0.06-0.29c0-0.16,0.03-0.29,0.07-0.29c0.03,0,0.06,0.13,0.06,0.29
				C1290.85,683.26,1290.82,683.39,1290.79,683.39z"/>
		</g>
	</g>
	<g>
		<g>
			<path class="st32" d="M1290.76,684.56c-0.03,0-0.06-0.13-0.06-0.29c0-0.16,0.04-0.29,0.07-0.29c0.03,0,0.06,0.13,0.06,0.29
				C1290.82,684.43,1290.79,684.56,1290.76,684.56z"/>
		</g>
	</g>
	<g>
		<g>
			<path class="st32" d="M1290.73,685.73c-0.03,0-0.06-0.13-0.06-0.29c0-0.16,0.04-0.29,0.07-0.29c0.03,0,0.06,0.13,0.06,0.29
				C1290.8,685.6,1290.76,685.73,1290.73,685.73z"/>
		</g>
	</g>
	<g>
		<g>
			<path class="st32" d="M1290.7,686.89c-0.03,0-0.06-0.13-0.06-0.29s0.04-0.29,0.07-0.29c0.03,0,0.06,0.13,0.06,0.29
				C1290.77,686.77,1290.74,686.9,1290.7,686.89z"/>
		</g>
	</g>
	<g>
		<g>
			<path class="st32" d="M1290.67,688.06c-0.03,0-0.06-0.13-0.06-0.29s0.04-0.29,0.07-0.29c0.03,0,0.06,0.13,0.06,0.29
				C1290.74,687.93,1290.71,688.06,1290.67,688.06z"/>
		</g>
	</g>
	<g>
		<g>
			<path class="st32" d="M1290.64,689.23c-0.03,0-0.06-0.13-0.06-0.29c0-0.16,0.04-0.29,0.07-0.29c0.03,0,0.06,0.13,0.06,0.29
				C1290.71,689.1,1290.68,689.23,1290.64,689.23z"/>
		</g>
	</g>
	<g>
		<g>
			<path class="st32" d="M1290.61,690.4c-0.04,0-0.06-0.13-0.06-0.29c0-0.16,0.04-0.29,0.07-0.29c0.03,0,0.06,0.13,0.06,0.29
				C1290.68,690.27,1290.65,690.4,1290.61,690.4z"/>
		</g>
	</g>
	<g>
		<g>
			<path class="st32" d="M1290.58,691.56c-0.03,0-0.06-0.13-0.06-0.29c0-0.16,0.04-0.29,0.07-0.29c0.03,0,0.06,0.13,0.06,0.29
				C1290.65,691.43,1290.62,691.56,1290.58,691.56z"/>
		</g>
	</g>
	<g>
		<g>
			<path class="st32" d="M1290.55,692.73c-0.03,0-0.06-0.13-0.06-0.29c0-0.16,0.04-0.29,0.07-0.29s0.06,0.13,0.06,0.29
				C1290.62,692.6,1290.59,692.73,1290.55,692.73z"/>
		</g>
	</g>
	<g>
		<g>
			<path class="st32" d="M1290.52,693.89c-0.03,0-0.06-0.13-0.06-0.29c0-0.16,0.04-0.29,0.07-0.29c0.03,0,0.06,0.13,0.06,0.29
				C1290.59,693.77,1290.55,693.9,1290.52,693.89z"/>
		</g>
	</g>
	<g>
		<g>
			<path class="st32" d="M1290.49,695.01c-0.03,0-0.06-0.12-0.06-0.27c0-0.15,0.04-0.26,0.07-0.26c0.03,0,0.06,0.12,0.06,0.27
				S1290.52,695.01,1290.49,695.01z"/>
		</g>
	</g>
</g>
<path class="st35" d="M1289.44,561.17c-0.06-1.17-0.4-6.33-0.4-6.33s-3.8-0.22-4.19-3.82s-0.55-11.92-0.55-11.92l0,0
	c4.16-2.18,9.22-2.05,13.25,0.36l0.95,0.56l0.1,4.23l-0.21,3.8l-0.16,10.34l-8.76,2.79
	C1289.45,561.18,1289.45,561.18,1289.44,561.17z"/>
<path class="st26" d="M1284.94,544.88c0.01,0.25,0.24,0.45,0.5,0.44c0.26-0.01,0.47-0.23,0.46-0.48c-0.01-0.25-0.24-0.45-0.5-0.44
	C1285.13,544.41,1284.93,544.62,1284.94,544.88z"/>
<path class="st26" d="M1284.91,544.72c0.06,0.06,0.41-0.25,0.92-0.3c0.51-0.06,0.91,0.17,0.96,0.11c0.03-0.03-0.04-0.14-0.22-0.24
	c-0.17-0.1-0.46-0.19-0.78-0.16c-0.32,0.03-0.58,0.18-0.73,0.31C1284.92,544.57,1284.87,544.69,1284.91,544.72z"/>
<path class="st26" d="M1290.83,544.27c-0.21,0.15-0.25,0.44-0.1,0.65c0.16,0.2,0.46,0.24,0.67,0.09s0.25-0.44,0.1-0.65
	S1291.04,544.12,1290.83,544.27z"/>
<path class="st26" d="M1290.63,544.47c0.06,0.06,0.41-0.25,0.92-0.3c0.51-0.06,0.91,0.17,0.96,0.11c0.03-0.03-0.04-0.14-0.22-0.24
	c-0.17-0.1-0.46-0.19-0.78-0.16s-0.58,0.18-0.73,0.31C1290.64,544.33,1290.6,544.45,1290.63,544.47z"/>
<path class="st26" d="M1288.96,548.75c0,0.04-0.32,0.07-0.85,0.1c-0.11,0.01-0.36,0.03-0.48-0.19c-0.09-0.2-0.01-0.39,0.02-0.54
	c0.1-0.36,0.19-0.7,0.29-1.05c0.42-1.49,0.83-2.67,0.9-2.65c0.07,0.02-0.21,1.24-0.64,2.72c-0.1,0.35-0.2,0.68-0.31,1.04
	c-0.05,0.16-0.09,0.3-0.06,0.39c0.02,0.07,0.13,0.09,0.27,0.09C1288.64,548.68,1288.96,548.71,1288.96,548.75z"/>
<path class="st14" d="M1290.69,549.14c0.51-0.36-1.41,0.89-2.46,0.93c0,0,0.69,0.87,1.73,0.39
	C1291.04,549.98,1290.69,549.14,1290.69,549.14z"/>
<path class="st37" d="M1289.1,554.91c0,0,2.53-0.08,4.89-1.82c0,0-1,2.69-4.77,2.7L1289.1,554.91z"/>
<g>
	<path class="st26" d="M1296.59,536.99c-1.08-0.8-2.18-1.6-3.45-2.09c-1.27-0.49-2.74-0.62-3.98-0.06
		c-0.57,0.26-1.06,0.65-1.65,0.87c-1.23,0.46-2.74,0.12-3.81,0.85c-0.98,0.67-1.19,2.11-0.62,3.13s1.75,1.64,2.95,1.79
		c1.2,0.15,2.41-0.12,3.55-0.5c0.67-0.22,1.4-0.49,2.06-0.25c0.63,0.23,1.07,0.9,1.74,0.96c0.59,0.05,1.28-0.37,1.71,0.02
		c0.18,0.16,0.23,0.4,0.27,0.63c0.23,1.24,0.99,3.75,1.22,4.98c0.85,0.35,1.24-0.74,2.17-0.76c0.15-2.74,1.38-5.5,0.66-8.15
		c-0.18-0.66-0.5-1.32-1.09-1.69s-1.49-0.34-1.9,0.21"/>
</g>
<g>
	<g>
		<path class="st35" d="M1297.17,543.7c0.07-0.04,2.51-0.91,2.94,2c0.44,2.91-2.76,2.37-2.78,2.29
			C1297.32,547.9,1297.17,543.7,1297.17,543.7z"/>
	</g>
	<g>
		<g>
			<path class="st37" d="M1298.11,546.84c0.01-0.01,0.06,0.03,0.15,0.05c0.09,0.03,0.25,0.03,0.39-0.05c0.3-0.16,0.5-0.68,0.43-1.21
				c-0.03-0.27-0.13-0.51-0.26-0.7c-0.12-0.2-0.29-0.33-0.45-0.33c-0.17-0.01-0.27,0.09-0.29,0.18c-0.03,0.09,0,0.14-0.02,0.15
				c-0.01,0.01-0.07-0.04-0.07-0.16c0-0.06,0.03-0.13,0.09-0.2c0.06-0.07,0.17-0.11,0.28-0.11c0.24-0.02,0.48,0.16,0.62,0.37
				c0.15,0.21,0.27,0.49,0.3,0.78c0.07,0.59-0.16,1.18-0.58,1.36c-0.2,0.08-0.39,0.05-0.49-0.01
				C1298.13,546.91,1298.1,546.85,1298.11,546.84z"/>
		</g>
	</g>
</g>
<g>
	<g>
		<path class="st26" d="M1295.94,535.05c0.09-0.02,0.27,0.44,0.41,1.03c0.14,0.59,0.19,1.08,0.1,1.1s-0.27-0.44-0.41-1.03
			C1295.91,535.56,1295.86,535.07,1295.94,535.05z"/>
	</g>
</g>
<g>
	<g>
		<path class="st26" d="M1297.27,535.19c0.08,0.03-0.06,0.5-0.3,1.05c-0.25,0.55-0.51,0.96-0.59,0.93c-0.08-0.03,0.06-0.5,0.3-1.05
			C1296.93,535.57,1297.19,535.16,1297.27,535.19z"/>
	</g>
</g>
<g>
	<path class="st35" d="M1289.95,580.99c-0.38,1.15-0.7,1.9-1.07,2.29c-1.72,1.81-16.61-13.75-16.61-13.75
		c-0.07-0.54-0.23-2.5-0.11-3.03c0.14-0.65,0.37-1.5,0.64-1.93c0.34-0.53-0.17-1.18-0.71-0.97c-0.54,0.21-1.52,1.66-1.76,3.65
		c-0.25,1.99-2.44-0.48-3.1-1.44c-0.66-0.96-2.93-3.86-3.4-3.9c-0.69-0.06-0.76,0.75-0.08,1.7c0.69,0.96,2.63,3.75,2.38,3.93
		c-0.5,0.36-3.99-4.53-3.99-4.53s-0.54-1.02-1.18-0.68c-1.16,0.61,2.72,5.59,3.1,6.06c0.27,0.32-0.12,0.45-0.38,0.09
		c-0.27-0.37-3.38-4.6-4.2-4.05c-0.85,0.56,2.6,4.05,3.06,5.09c0.52,1.18-2.79-3.09-3.64-2.61c-0.32,0.18-0.53,0.35,1.48,2.64
		c1.27,1.45,4.31,4.1,6.43,5.91c4.22,4.83,18.85,20.92,25.69,20.02c1.5-0.2,2.89-0.89,3.76-2.26c1.97-3.11,3.47-5.62,4.65-8.63
		L1289.95,580.99z"/>
</g>
</svg>
