<svg width="132" height="58" viewBox="0 0 132 58" fill="none" xmlns="http://www.w3.org/2000/svg">
<path id="Vector" d="M75.5978 47.2084C76.6133 50.0691 77.5216 52.5326 78.3558 55.032C78.7003 56.0592 78.5013 57.0267 77.6976 57.7792C76.4985 58.2211 75.4244 57.6866 74.4446 56.9759C72.6536 55.674 70.9161 54.2645 69.1072 52.8641C63.0733 56.0323 56.9833 56.0353 50.8167 52.8133C49.7095 53.7241 48.5971 54.6916 47.4362 55.5754C46.5152 56.2801 45.5635 56.949 44.5736 57.5074C43.747 57.9732 42.803 58.3286 41.9917 57.5134C41.2084 56.7281 41.4151 55.6232 41.7008 54.6796C42.2136 52.9984 42.8362 51.3591 43.4587 49.7257C43.7495 48.9643 44.1424 48.2595 44.5507 47.4025C39.8358 40.9168 37.9886 33.4874 39.5347 25.1264C40.6114 19.3095 43.3056 14.6154 47.3367 10.9694C54.6539 4.34931 65.8288 4.05667 73.5797 11.8294C78.1109 16.3742 80.5627 22.2001 80.9531 29.1546C81.3486 36.1271 79.2156 42.1381 75.5978 47.2084ZM42.5912 30.6745C42.6142 41.9918 50.3524 51.0724 59.9837 51.0814C69.6379 51.0933 77.3736 41.9231 77.4348 30.5282C77.4935 19.3334 69.2195 9.78993 59.4173 10.1363C50.1891 10.4648 42.5683 19.4827 42.5912 30.6745Z" fill="#1C75BC"/>
<path id="Vector_2" d="M41.2839 18C40.6593 17.335 40.0195 16.7585 39.5168 16.0911C38.7297 15.0457 38.8439 13.9645 39.8443 13.0698C41.1747 11.8761 42.5407 10.7135 43.9448 9.59879C45.029 8.74002 46.2122 8.82135 47.2379 9.73754C47.8168 10.2519 48.35 10.814 49 11.4479C45.7653 12.943 43.47 15.273 41.2839 18Z" fill="#1C75BC"/>
<path id="Vector_3" d="M33.2678 18C33.1732 17.5498 32.9933 17.0966 33.0002 16.6493C33.1248 8.36224 37.5884 1.91093 43.5331 0.307537C44.4097 0.0722569 45.3301 0.075168 46.2298 0.00545543C46.6796 -0.0294008 47.0925 0.078068 46.9818 1.06276C46.5643 1.1499 46.1052 1.31257 45.6416 1.3329C39.946 1.5827 34.9725 7.25266 34.239 14.3662C34.1536 15.1912 34.1282 16.0277 34.029 16.8527C33.9829 17.2419 33.8237 17.6079 33.7153 17.9826C33.5677 17.9884 33.4177 17.9942 33.2678 18Z" fill="#00AEEF"/>
<path id="Vector_4" d="M36.9036 18C36.5444 17.9535 36.4255 17.9622 36.3243 17.9158C36.2205 17.8693 36.137 17.7677 36.051 17.6922C35.4489 10.7634 40.2457 4.13374 46.7704 4.00306C47.618 3.98564 47.618 4.00888 48 5.01654C47.5117 5.1356 47.0639 5.32145 46.6085 5.34758C41.4828 5.64088 37.3944 10.3046 37.1338 16.1618C37.1085 16.7542 36.9896 17.3379 36.9036 18Z" fill="#00AEEF"/>
<path id="Vector_5" d="M77.7161 18C78.3407 17.3352 78.9805 16.7588 79.4832 16.0892C80.2703 15.0441 80.1561 13.9631 79.1557 13.0687C77.8253 11.8754 76.4593 10.7131 75.0552 9.59864C73.971 8.74009 72.7878 8.8214 71.7621 9.73734C71.1832 10.2515 70.65 10.8135 70 11.4473C73.2347 12.9444 75.53 15.2737 77.7161 18Z" fill="#1C75BC"/>
<path id="Vector_6" d="M86.7131 18C86.8144 17.5748 87.0072 17.1468 86.9998 16.7244C86.8663 8.89768 82.0838 2.80477 75.7145 1.29046C74.7753 1.06825 73.7891 1.07099 72.8252 1.00515C72.3433 0.972232 71.9008 1.07374 72.0195 2.00372C72.4668 2.08602 72.9587 2.23965 73.4555 2.25885C79.5578 2.49477 84.8866 7.84973 85.6725 14.5681C85.764 15.3472 85.7912 16.1373 85.8975 16.9164C85.9469 17.284 86.1174 17.6297 86.2336 17.9835C86.3918 17.989 86.5524 17.9945 86.7131 18Z" fill="#00AEEF"/>
<path id="Vector_7" d="M83.0964 18C83.4556 17.9535 83.5745 17.9623 83.6757 17.9158C83.7795 17.8693 83.863 17.7677 83.949 17.6922C84.5511 10.7634 79.7543 4.13374 73.2296 4.00306C72.382 3.98564 72.382 4.00887 72 5.01653C72.4883 5.13559 72.9361 5.32145 73.3915 5.34758C78.5172 5.64088 82.6056 10.3046 82.8662 16.1618C82.8915 16.7513 83.0104 17.3379 83.0964 18Z" fill="#00AEEF"/>
<path id="Vector_8" d="M57 25.2549C56.6528 25.6192 56.335 25.9573 56.0122 26.2924C55.4817 26.8461 54.9487 27.394 54.4254 27.9535C54.3007 28.0876 54.2225 28.0789 54.088 27.9769C52.8802 27.0822 51.6504 27.0006 50.4254 27.9127C49.687 28.4606 49.2421 29.2854 49.0147 30.2791C49.0073 30.3083 49.0049 30.3374 49.0024 30.3695C49.0024 30.3811 49.0098 30.3899 49.022 30.4219C50.0856 30.2762 51.154 30.1305 52.2861 29.9761C49.5086 34.3591 46.7726 38.6781 44.0342 43C44.022 42.9913 44.0122 42.9854 44 42.9767C45.3692 39.6165 46.7384 36.2593 48.1296 32.8525C47.7482 32.9195 47.4083 32.9778 47.0685 33.039C46.5844 33.1264 46.0978 33.208 45.6161 33.3013C45.4914 33.3246 45.4425 33.2809 45.4156 33.1381C44.6968 29.2067 46.3985 25.2054 49.5135 23.6695C51.7995 22.5417 54.0049 22.8623 56.0807 24.4535C56.3912 24.6895 56.6797 24.9722 57 25.2549Z" fill="#27AAE1"/>
<path id="Vector_9" d="M55.3804 33.4725C54.6581 33.4725 53.9816 33.4657 53.3076 33.4794C53.153 33.4828 53.1144 33.4177 53.1144 33.2016C53.1216 31.8777 53.1216 30.5537 53.1144 29.2298C53.1144 29.0446 53.1603 29 53.2787 29C55.0833 29.0034 56.8879 29.0034 58.6925 29.0137C58.748 29.0137 58.8447 29.1235 58.8567 29.2058C59.207 31.3598 58.893 33.3731 58.1537 35.2629C57.2454 37.5815 55.9046 39.1696 54.0614 39.7629C52.3244 40.3254 50.6817 39.8624 49.1355 38.6345C48.9858 38.5145 48.9544 38.4493 49.0703 38.2366C49.6694 37.1219 50.2613 35.9969 50.8459 34.8685C50.945 34.6764 51.015 34.6456 51.1696 34.7622C52.5346 35.8014 54.1822 35.3864 55.2234 33.7538C55.2693 33.6783 55.3103 33.5995 55.3804 33.4725Z" fill="#1C75BC"/>
<path id="Vector_10" d="M70.2124 27.0587C69.4764 27.6244 68.7405 28.1872 67.9889 28.7646C67.6898 27.8778 67.3882 26.991 67.0735 26.0541C67.0319 26.1719 67.0033 26.2397 66.9799 26.3104C66.4754 27.8896 65.9761 29.4718 65.4664 31.048C65.4144 31.2071 65.3233 31.3662 65.2167 31.4841C63.4327 33.464 61.8516 35.6265 60.5019 38.0101C60.4863 38.0366 60.4733 38.066 60.4629 38.0984C64.2311 32.312 68.8705 27.8189 74.9688 25.4884C74.9792 25.5061 74.9896 25.5237 75 25.5385C74.7581 25.674 74.5111 25.8066 74.2718 25.9451C73.073 26.6345 71.947 27.4506 70.8677 28.3581C70.7403 28.4641 70.7637 28.5525 70.8105 28.6792C71.973 31.9024 73.1328 35.1257 74.2926 38.3489C74.3655 38.5492 74.4357 38.7525 74.5163 38.9853C74.4253 38.9853 74.3629 38.9853 74.3031 38.9853C73.3955 38.9853 72.4905 38.9823 71.5829 38.9882C71.4372 38.9882 71.3748 38.9322 71.3254 38.7849C70.8287 37.2941 70.3216 35.8062 69.8249 34.3154C69.7729 34.1593 69.7079 34.1151 69.5674 34.1151C68.3582 34.121 67.1489 34.121 65.9397 34.1151C65.7862 34.1151 65.6874 34.1652 65.5938 34.3066C64.6446 35.7326 63.7968 37.2322 63.0635 38.8114C62.9984 38.9499 62.9282 39 62.7904 39C61.8724 38.9912 60.9518 38.9971 60 38.9971C60.052 38.8321 60.091 38.6936 60.1378 38.5581C61.992 33.0957 63.8462 27.6333 65.6978 22.1709C65.742 22.0442 65.794 22 65.9137 22C66.6938 22.0059 67.4766 22.0029 68.2568 22C68.353 22 68.418 22.0147 68.4596 22.1326C69.0421 23.7648 69.6299 25.3912 70.2176 27.0234C70.215 27.0381 70.2124 27.0529 70.2124 27.0587ZM68.5844 30.9655C68.327 31.2778 68.0929 31.5577 67.8641 31.8347C68.1839 31.8347 68.5194 31.8347 68.8757 31.8347C68.7769 31.543 68.6859 31.2719 68.5844 30.9655Z" fill="#1C75BC"/>
<g id="Group">
<path id="Vector_11" d="M12.0867 42.3427C11.9795 42.428 11.7882 42.4545 11.5076 42.428C10.7244 42.2986 10.153 42.0367 9.79071 41.6364C9.42846 41.2362 9.21673 40.7095 9.16315 40.0503C9.1402 39.9208 9.12744 39.7972 9.12234 39.6736C9.11723 39.55 9.11979 39.4206 9.12999 39.2764C9.12999 39.1351 9.12489 38.9998 9.11213 38.8703C9.10193 38.7408 9.08917 38.6113 9.07897 38.4848C9.03305 38.2405 8.99223 38.0345 8.95397 37.8668C8.9157 37.6991 8.83917 37.5961 8.72692 37.5578C8.50243 37.4813 8.23712 37.5872 7.93099 37.8756C7.62486 38.164 7.31108 38.5819 6.9922 39.1233C6.67332 39.6648 6.36464 40.2916 6.06106 41.0067C5.76004 41.7218 5.50238 42.4663 5.29064 43.2402C5.09931 43.8582 4.96411 44.4938 4.87992 45.1442C4.79574 45.7945 4.76512 46.3978 4.78808 46.951C4.81104 47.5043 4.88758 47.978 5.02278 48.3724C5.15799 48.7667 5.34167 49.008 5.57636 49.0963C5.7779 49.1728 5.98708 49.1551 6.20392 49.0374C6.42076 48.9227 6.6376 48.7343 6.84934 48.4754C7.06108 48.2164 7.26772 47.9045 7.46925 47.5366C7.67078 47.1688 7.85956 46.7745 8.03814 46.3478C7.36721 46.386 6.85189 46.2507 6.48709 45.9417C6.12484 45.6327 5.83657 45.1118 5.62483 44.3761C5.57891 44.2084 5.58147 44.076 5.63249 43.9789C5.68351 43.8818 5.77024 43.8052 5.89269 43.7464C6.01514 43.6875 6.16566 43.6434 6.34423 43.611C6.52281 43.5787 6.72434 43.5433 6.94628 43.5051C7.35955 43.4021 7.79068 43.3226 8.23712 43.2638C8.68355 43.2049 9.06876 43.1461 9.39275 43.0813C9.77286 43.0166 10.079 43.0195 10.3137 43.0902C10.5484 43.1608 10.7652 43.3256 10.9668 43.5816C11.102 43.7493 11.227 43.923 11.3443 44.1025C11.4617 44.282 11.5714 44.4497 11.6708 44.6057C11.8596 44.9029 11.9591 45.1677 11.9642 45.3973C11.9693 45.6297 11.9234 45.9122 11.8214 46.2477C11.4081 47.4072 10.9336 48.3812 10.3979 49.1669C9.86215 49.9526 9.2805 50.5588 8.65549 50.9826C8.25242 51.2415 7.82895 51.4122 7.38252 51.4946C6.93608 51.577 6.46668 51.58 5.97433 51.5034C5.11462 51.374 4.27532 51.1032 3.46153 50.6912C3.17071 50.5117 2.88755 50.2704 2.61458 49.9673C2.34162 49.6642 2.12478 49.3317 1.96917 48.9727C1.67834 48.393 1.47681 47.7132 1.36711 46.9334C1.25487 46.1535 1.22681 45.3266 1.28293 44.4497C1.33905 43.5728 1.47426 42.6811 1.686 41.7718C1.89774 40.8625 2.186 39.9797 2.54825 39.1233C2.9105 38.267 3.34163 37.4636 3.83909 36.7162C4.33655 35.9687 4.89778 35.3302 5.52279 34.8034C5.72432 34.6239 5.94116 34.4826 6.17586 34.3797C6.41056 34.2767 6.64781 34.206 6.88761 34.1678C7.12741 34.1295 7.36466 34.1089 7.59935 34.1089C7.83405 34.1089 8.05089 34.1295 8.25242 34.1678C8.54325 34.206 8.83917 34.2708 9.1402 34.362C9.44122 34.4532 9.73459 34.5592 10.0203 34.6798C10.306 34.8034 10.5739 34.9447 10.8239 35.1065C11.0764 35.2684 11.3009 35.4449 11.5025 35.6391C11.8826 35.9864 12.1504 36.366 12.3061 36.7809C12.4617 37.1929 12.5688 37.6579 12.6249 38.1728C12.6351 38.4436 12.6377 38.7467 12.6326 39.0821C12.6275 39.4176 12.6096 39.7531 12.5816 40.0886C12.5535 40.424 12.5203 40.7448 12.4821 41.0567C12.4438 41.3657 12.4005 41.6247 12.3571 41.8307C12.2831 42.0896 12.1913 42.2603 12.0867 42.3427Z" fill="#27AAE1" stroke="white" stroke-miterlimit="10"/>
<path id="Vector_12" d="M16.6429 35.2007C17.2296 35.0447 17.8444 34.9034 18.4873 34.774C19.1301 34.6445 19.7883 34.5327 20.4644 34.4355C21.1404 34.3384 21.8139 34.2766 22.4848 34.2531C23.1226 34.2413 23.5282 34.5238 23.7068 35.1035C23.8522 35.4125 23.9517 35.6921 24.0078 35.9452C24.0639 36.1953 24.12 36.4719 24.1761 36.7662C24.2195 37.1017 24.1991 37.3283 24.1098 37.443C24.0205 37.5578 23.8139 37.6431 23.4899 37.6932C22.819 37.7844 22.1276 37.8727 21.4108 37.9639C20.6965 38.0551 19.9414 38.164 19.148 38.2935C18.9796 38.8732 18.824 39.4765 18.6786 40.1003C18.5332 40.7242 18.3699 41.3804 18.1914 42.0631C18.5255 42.0131 18.8623 41.9719 19.1965 41.9484C19.5307 41.9248 19.8878 41.9042 20.2679 41.8895C20.5817 41.8777 20.8266 41.9101 21.0052 41.9866C21.1838 42.0631 21.3343 42.2309 21.4567 42.4898C21.5919 42.7488 21.694 43.0019 21.7654 43.252C21.8368 43.5021 21.9032 43.7581 21.9593 44.0142C22.0486 44.3114 22.0562 44.5115 21.9848 44.6145C21.9108 44.7175 21.7195 44.8087 21.4057 44.8852C20.7348 45.0265 20.0511 45.1618 19.3521 45.2913C18.6531 45.4208 17.9796 45.562 17.3317 45.718C17.2424 46.13 17.1582 46.5214 17.0791 46.8863C17 47.2541 16.9158 47.619 16.8265 47.978C17.3521 47.875 17.8521 47.7926 18.3266 47.7279C18.8011 47.6632 19.3189 47.6131 19.8776 47.5719C20.1914 47.5454 20.4337 47.5719 20.6072 47.6484C20.7807 47.725 20.9286 47.8809 21.0511 48.1134C21.1863 48.3724 21.2883 48.6137 21.3623 48.8373C21.4338 49.0639 21.5154 49.2905 21.6047 49.523C21.6608 49.7819 21.6608 49.9585 21.6047 50.0556C21.5486 50.1527 21.37 50.2322 21.069 50.2969C20.3547 50.4529 19.6276 50.6118 18.8903 50.7795C18.1531 50.9473 17.449 51.1003 16.7781 51.2445C16.3316 51.374 15.9923 51.4034 15.7653 51.3298C15.5357 51.2592 15.3393 51.1591 15.1709 51.0297C14.9796 50.8884 14.7984 50.7442 14.6275 50.5941C14.4541 50.447 14.25 50.2557 14.0153 50.0232C13.8265 49.8437 13.6785 49.6319 13.5714 49.3847C13.4642 49.1404 13.4234 48.8432 13.4464 48.496L15.0382 35.6421C15.5229 35.5038 16.0561 35.3537 16.6429 35.2007Z" fill="#27AAE1" stroke="white" stroke-miterlimit="10"/>
<path id="Vector_13" d="M34.1967 37.6637C33.684 37.7226 33.1508 37.7844 32.6049 37.8462C32.3702 38.9291 32.1278 40.0503 31.8752 41.2097C31.6227 42.3692 31.3803 43.5198 31.1456 44.6586C30.911 45.8004 30.689 46.9098 30.4849 47.9927C30.2783 49.0757 30.0972 50.088 29.9415 51.0267C29.9186 51.2062 29.865 51.3269 29.7834 51.3828C29.7017 51.4387 29.5844 51.4652 29.439 51.4593C29.2936 51.4534 29.1252 51.4181 28.9364 51.3533C28.7451 51.2886 28.5334 51.218 28.2987 51.1415C28.064 51.065 27.8522 50.9796 27.6609 50.8913C27.4696 50.8001 27.3114 50.6912 27.1839 50.5617C27.0563 50.4323 26.9619 50.2822 26.9083 50.1086C26.8522 49.9349 26.8471 49.726 26.8905 49.4818C26.9236 48.8638 26.99 48.1016 27.092 47.2011C27.1941 46.3007 27.3114 45.3443 27.4517 44.3408C27.592 43.3344 27.7451 42.3221 27.9135 41.2951C28.0818 40.268 28.2476 39.3205 28.416 38.4435C28.092 38.5083 27.7782 38.5642 27.4772 38.6083C27.1762 38.6525 26.9236 38.7084 26.7221 38.7731C26.444 38.8496 26.2144 38.8585 26.0359 38.8026C25.8573 38.7437 25.6558 38.5818 25.4338 38.3111C25.1991 38.0404 24.9848 37.699 24.7884 37.287C24.592 36.8751 24.4338 36.5278 24.3114 36.2424C24.1761 35.9452 24.143 35.7509 24.2119 35.6538C24.2782 35.5567 24.4185 35.4773 24.6302 35.4125C25.2884 35.2566 26.0359 35.1153 26.8675 34.9858C27.6992 34.8563 28.5487 34.7416 29.4135 34.6386C30.2783 34.5356 31.1278 34.4473 31.9594 34.3767C32.7911 34.306 33.536 34.259 34.1967 34.2325C34.5437 34.2325 34.7911 34.2678 34.9416 34.3384C35.0921 34.409 35.2248 34.5297 35.3345 34.6974C35.559 34.9946 35.7427 35.3154 35.8881 35.6627C36.0335 36.0099 36.1457 36.3513 36.2223 36.6867C36.2886 36.9839 36.2911 37.187 36.2299 37.2959C36.1687 37.4048 35.9646 37.4724 35.6177 37.4989C35.1865 37.5519 34.7095 37.6078 34.1967 37.6637Z" fill="#27AAE1" stroke="white" stroke-miterlimit="10"/>
</g>
<g id="Group_2">
<path id="Vector_14" d="M88.4297 48.3753C87.5981 48.5107 86.8634 48.6755 86.2256 48.8697C86.0011 49.3729 85.8072 49.8379 85.6389 50.2705C85.4705 50.703 85.3098 51.1238 85.1516 51.5358C85.0623 51.7536 84.9526 51.8831 84.8251 51.9213C84.6975 51.9596 84.5036 51.9272 84.246 51.8242C84.1006 51.7595 83.9424 51.6859 83.7689 51.6006C83.5955 51.5152 83.4194 51.424 83.2409 51.321C83.1057 51.218 82.9883 51.1297 82.8888 51.0591C82.7893 50.9885 82.7102 50.9002 82.6541 50.7972C82.598 50.6942 82.5674 50.5618 82.5623 50.3999C82.5572 50.2381 82.5878 50.0233 82.6541 49.7525C82.922 48.8638 83.2715 47.8192 83.7026 46.6215C84.1312 45.4238 84.5955 44.1849 85.0929 42.9107C85.5904 41.6365 86.0981 40.374 86.6185 39.1322C87.1389 37.8874 87.6312 36.7839 88.1006 35.8187C88.269 35.4714 88.4859 35.186 88.7537 34.9682C89.0216 34.7504 89.417 34.6651 89.9425 34.7181C90.4017 34.7446 90.8073 34.7858 91.167 34.8446C91.5242 34.9035 91.8507 34.9711 92.1466 35.0477C92.4425 35.1242 92.7155 35.2095 92.9681 35.2978C93.2181 35.389 93.4732 35.4714 93.7308 35.5479C94.0778 35.6892 94.2972 35.8775 94.3916 36.107C94.4859 36.3395 94.5166 36.6426 94.4834 37.0164C94.4171 37.9315 94.361 38.9821 94.315 40.168C94.2717 41.354 94.2359 42.5899 94.2155 43.8788C94.1926 45.1677 94.1798 46.4596 94.1747 47.7544C94.1696 49.0492 94.1722 50.2499 94.1824 51.3593C94.1824 51.5917 94.1416 51.7507 94.0574 51.8419C93.9732 51.9331 93.787 51.9772 93.4961 51.9772C93.2053 51.9772 92.9374 51.9684 92.6925 51.9478C92.4476 51.9272 92.1951 51.8684 91.9374 51.7654C91.6696 51.6741 91.4808 51.5594 91.3762 51.4181C91.2691 51.2769 91.1951 51.0267 91.1492 50.6648C91.1058 50.2911 91.065 49.882 91.0318 49.4377C90.9986 48.9933 90.9655 48.5078 90.9323 47.9781C90.0981 48.1075 89.2614 48.24 88.4297 48.3753ZM89.2512 45.0383C89.7588 44.9735 90.2716 44.9235 90.7844 44.8823C90.7614 43.8259 90.7461 42.7724 90.7333 41.7218C90.7231 40.6712 90.7282 39.6325 90.7512 38.5996C90.3048 39.5412 89.8201 40.58 89.3022 41.7218C88.7818 42.8636 88.2614 44.0436 87.7358 45.2678C88.2384 45.1825 88.7435 45.103 89.2512 45.0383Z" fill="#27AAE1" stroke="white" stroke-miterlimit="10"/>
<path id="Vector_15" d="M101.065 51.3126C100.323 51.4744 99.6161 51.6304 98.9452 51.7863C98.7003 51.8629 98.4937 51.9099 98.3253 51.9217C98.1569 51.9335 98.0115 51.9247 97.8891 51.8923C97.7666 51.8599 97.662 51.8187 97.5778 51.7657C97.4937 51.7128 97.412 51.6569 97.3355 51.5921C97.1442 51.4509 96.9732 51.3067 96.8151 51.1566C96.6595 51.0095 96.4528 50.8182 96.1952 50.5857C96.0064 50.4062 95.861 50.2031 95.7589 49.9766C95.6594 49.75 95.6314 49.4763 95.6747 49.1555C95.7079 48.6523 95.764 48.0579 95.8431 47.3663C95.9222 46.6777 96.0166 45.9332 96.1288 45.1328C96.2411 44.3353 96.3635 43.5055 96.4987 42.6491C96.634 41.7928 96.7768 40.9394 96.935 40.0889C97.0906 39.2385 97.2513 38.4204 97.412 37.6347C97.5727 36.849 97.7334 36.128 97.8891 35.4688C98.0013 35.0951 98.1442 34.8715 98.3151 34.8008C98.4886 34.7302 98.7488 34.7538 99.0932 34.8685C99.4401 34.9715 99.8126 35.1157 100.216 35.304C100.619 35.4924 100.971 35.7013 101.272 35.9309C101.563 36.1751 101.744 36.387 101.815 36.5694C101.887 36.7489 101.874 37.0079 101.774 37.3434C101.55 38.1173 101.325 38.9678 101.096 39.8947C100.866 40.8217 100.637 41.7751 100.41 42.7551C100.18 43.735 99.9631 44.712 99.7564 45.6831C99.5498 46.6571 99.3559 47.5871 99.1774 48.4758C99.6901 48.3728 100.172 48.2962 100.619 48.2433C101.065 48.1933 101.552 48.1462 102.075 48.1079C102.389 48.0814 102.626 48.105 102.787 48.1756C102.948 48.2462 103.096 48.4051 103.231 48.6494C103.366 48.8819 103.473 49.1173 103.558 49.3556C103.642 49.594 103.705 49.8235 103.749 50.0413C103.828 50.312 103.846 50.4915 103.808 50.5828C103.769 50.674 103.575 50.7564 103.228 50.8329C102.532 50.9947 101.807 51.1507 101.065 51.3126Z" fill="#27AAE1" stroke="white" stroke-miterlimit="10"/>
<path id="Vector_16" d="M109.175 49.3704C109.047 50.0914 108.92 50.8006 108.797 51.498C108.741 51.704 108.665 51.8393 108.57 51.9041C108.476 51.9688 108.3 51.9688 108.042 51.9041C107.741 51.8129 107.473 51.7422 107.239 51.6922C107.004 51.6392 106.78 51.551 106.568 51.4215C106.356 51.2802 106.211 51.1095 106.132 50.9094C106.052 50.7093 106.024 50.4415 106.047 50.1061C106.07 49.8353 106.101 49.444 106.139 48.926C106.177 48.4111 106.226 47.8284 106.282 47.178C106.338 46.5277 106.402 45.8273 106.473 45.0799C106.547 44.3324 106.624 43.585 106.708 42.8375C106.792 42.09 106.884 41.3661 106.984 40.6628C107.083 39.9595 107.19 39.3298 107.302 38.7677C107.415 38.2086 107.537 37.7436 107.67 37.3758C107.805 37.0079 107.943 36.7814 108.088 36.6901C108.78 36.3282 109.504 35.975 110.259 35.6278C111.014 35.2806 111.757 35.0304 112.489 34.8833C113.221 34.7361 113.912 34.7214 114.565 34.845C115.218 34.9686 115.792 35.307 116.282 35.8603C116.673 36.3517 117.027 36.8755 117.346 37.4346C117.665 37.9938 117.912 38.6824 118.091 39.4946C118.236 40.3568 118.18 41.066 117.923 41.6222C117.532 42.5109 116.887 43.3289 115.986 44.0764C115.086 44.8239 114.012 45.5213 112.762 46.1628C113.019 46.4983 113.3 46.8514 113.609 47.2251C113.915 47.5989 114.231 47.9726 114.555 48.3463C114.879 48.72 115.201 49.082 115.519 49.4292C115.838 49.7765 116.137 50.0796 116.415 50.3385C116.639 50.5593 116.739 50.7329 116.716 50.8594C116.693 50.9889 116.599 51.1243 116.43 51.2655C116.229 51.445 116.058 51.5539 115.92 51.5833C115.78 51.6157 115.609 51.651 115.41 51.6893C115.165 51.7658 114.892 51.7893 114.596 51.7569C114.3 51.7246 113.956 51.5745 113.565 51.3038C113.308 51.0978 113.012 50.8388 112.678 50.5298C112.343 50.2208 111.996 49.8795 111.639 49.5058C111.282 49.132 110.925 48.7436 110.568 48.3375C110.211 47.9314 109.887 47.5224 109.596 47.1104C109.445 47.8931 109.305 48.6494 109.175 49.3704ZM110.877 41.3661C110.708 42.1136 110.519 42.9111 110.308 43.7645C111.078 43.4672 111.762 43.1053 112.361 42.6727C112.958 42.2401 113.458 41.8017 113.861 41.3573C114.264 40.913 114.553 40.4892 114.734 40.0919C114.915 39.6947 114.968 39.3827 114.902 39.165C114.767 38.803 114.371 38.6235 113.713 38.6235C113.389 38.6235 113.032 38.6676 112.642 38.7589C112.252 38.8501 111.838 39.0178 111.402 39.2621C111.218 39.9183 111.045 40.6187 110.877 41.3661Z" fill="#27AAE1" stroke="white" stroke-miterlimit="10"/>
<path id="Vector_17" d="M128.923 38.2258C128.41 38.2846 127.877 38.3464 127.331 38.4082C127.096 39.4912 126.854 40.6123 126.601 41.7718C126.349 42.9312 126.106 44.0818 125.872 45.2207C125.637 46.3625 125.415 47.4719 125.211 48.5548C125.004 49.6377 124.823 50.65 124.668 51.5888C124.645 51.7683 124.591 51.8889 124.509 51.9448C124.428 52.0008 124.31 52.0272 124.165 52.0213C124.02 52.0155 123.851 51.9802 123.662 51.9154C123.471 51.8507 123.259 51.78 123.025 51.7035C122.79 51.627 122.578 51.5417 122.387 51.4534C122.196 51.3622 122.037 51.2533 121.91 51.1238C121.782 50.9943 121.688 50.8443 121.634 50.6706C121.578 50.497 121.573 50.2881 121.616 50.0438C121.65 49.4258 121.716 48.6637 121.818 47.7632C121.92 46.8627 122.037 45.9063 122.178 44.9029C122.318 43.8965 122.471 42.8841 122.639 41.8571C122.808 40.8301 122.974 39.8826 123.142 39.0056C122.818 39.0704 122.504 39.1263 122.203 39.1704C121.902 39.2145 121.65 39.2705 121.448 39.3352C121.17 39.4117 120.94 39.4205 120.762 39.3646C120.583 39.3058 120.382 39.1439 120.16 38.8732C119.925 38.6025 119.711 38.2611 119.514 37.8491C119.318 37.4371 119.16 37.0899 119.037 36.8044C118.902 36.5072 118.869 36.313 118.938 36.2159C119.004 36.1188 119.145 36.0393 119.356 35.9746C120.014 35.8186 120.762 35.6774 121.594 35.5479C122.425 35.4184 123.275 35.3037 124.139 35.2007C125.004 35.0977 125.854 35.0094 126.685 34.9387C127.517 34.8681 128.262 34.821 128.923 34.7946C129.27 34.7946 129.517 34.8299 129.668 34.9005C129.818 34.9711 129.951 35.0918 130.061 35.2595C130.285 35.5567 130.469 35.8775 130.614 36.2247C130.759 36.572 130.872 36.9133 130.948 37.2488C131.015 37.546 131.017 37.7491 130.956 37.8579C130.895 37.9668 130.691 38.0345 130.344 38.061C129.913 38.114 129.438 38.1669 128.923 38.2258Z" fill="#27AAE1" stroke="white" stroke-miterlimit="10"/>
</g>
</svg>
