<?xml version="1.0" encoding="utf-8"?>
<!-- Generator: Adobe Illustrator 25.2.1, SVG Export Plug-In . SVG Version: 6.00 Build 0)  -->
<svg version="1.1" id="Layer_1" xmlns="http://www.w3.org/2000/svg" xmlns:xlink="http://www.w3.org/1999/xlink" x="0px" y="0px"
	 viewBox="0 0 820.24 841.89" style="enable-background:new 0 0 820.24 841.89;" xml:space="preserve">
<style type="text/css">
	.st0{fill:#1C75BC;}
	.st1{fill:#00AEEF;}
	.st2{fill:#27AAE1;}
	.st3{fill:#27AAE1;stroke:#FFFFFF;stroke-miterlimit:10;}
</style>
<path class="st0" d="M443.49,459.23c3.98,9.58,7.54,17.83,10.81,26.2c1.35,3.44,0.57,6.68-2.58,9.2c-4.7,1.48-8.91-0.31-12.75-2.69
	c-7.02-4.36-13.83-9.08-20.92-13.77c-23.65,10.61-47.52,10.62-71.69-0.17c-4.34,3.05-8.7,6.29-13.25,9.25
	c-3.61,2.36-7.34,4.6-11.22,6.47c-3.24,1.56-6.94,2.75-10.12,0.02c-3.07-2.63-2.26-6.33-1.14-9.49c2.01-5.63,4.45-11.12,6.89-16.59
	c1.14-2.55,2.68-4.91,4.28-7.78c-18.48-21.72-25.72-46.6-19.66-74.6c4.22-19.48,14.78-35.2,30.58-47.41
	c28.68-22.17,72.48-23.15,102.86,2.88c17.76,15.22,27.37,34.73,28.9,58.02C466.03,422.12,457.67,442.25,443.49,459.23z
	 M314.12,403.86c0.09,37.9,30.42,68.31,68.17,68.34c37.84,0.04,68.16-30.67,68.4-68.83c0.23-37.49-32.2-69.45-70.62-68.29
	C343.9,336.18,314.03,366.38,314.12,403.86z"/>
<path class="st0" d="M310.22,363.64c-2.46-2.78-4.98-5.19-6.96-7.98c-3.1-4.37-2.65-8.89,1.29-12.63
	c5.24-4.99,10.62-9.85,16.15-14.51c4.27-3.59,8.93-3.25,12.97,0.58c2.28,2.15,4.38,4.5,6.94,7.15
	C327.87,342.5,318.83,352.24,310.22,363.64z"/>
<path class="st1" d="M276.8,360.02c-0.41-1.55-1.19-3.11-1.16-4.65c0.54-28.53,19.89-50.74,45.66-56.26
	c3.8-0.81,7.79-0.8,11.69-1.04c1.95-0.12,3.74,0.25,3.26,3.64c-1.81,0.3-3.8,0.86-5.81,0.93c-24.69,0.86-46.25,20.38-49.43,44.87
	c-0.37,2.84-0.48,5.72-0.91,8.56c-0.2,1.34-0.89,2.6-1.36,3.89C278.1,359.98,277.45,360,276.8,360.02z"/>
<path class="st1" d="M292.83,359.85c-1.42-0.16-1.89-0.13-2.29-0.29c-0.41-0.16-0.74-0.51-1.08-0.77
	c-2.38-23.86,16.58-46.69,42.37-47.14c3.35-0.06,3.35,0.02,4.86,3.49c-1.93,0.41-3.7,1.05-5.5,1.14
	c-20.26,1.01-36.42,17.07-37.45,37.24C293.64,355.56,293.17,357.57,292.83,359.85z"/>
<path class="st0" d="M454.49,363.04c2.46-2.78,4.98-5.19,6.96-7.99c3.1-4.37,2.65-8.89-1.29-12.63
	c-5.24-4.99-10.62-9.85-16.15-14.51c-4.27-3.59-8.93-3.25-12.97,0.58c-2.28,2.15-4.38,4.5-6.94,7.15
	C436.84,341.9,445.88,351.64,454.49,363.04z"/>
<path class="st1" d="M487.91,361.03c0.41-1.55,1.19-3.11,1.16-4.65c-0.54-28.53-19.89-50.74-45.66-56.26
	c-3.8-0.81-7.79-0.8-11.69-1.04c-1.95-0.12-3.74,0.25-3.26,3.64c1.81,0.3,3.8,0.86,5.81,0.93c24.69,0.86,46.25,20.38,49.43,44.87
	c0.37,2.84,0.48,5.72,0.91,8.56c0.2,1.34,0.89,2.6,1.36,3.89C486.61,360.99,487.26,361.01,487.91,361.03z"/>
<path class="st1" d="M471.88,360.86c1.42-0.16,1.89-0.13,2.29-0.29c0.41-0.16,0.74-0.51,1.08-0.77
	c2.38-23.86-16.58-46.69-42.37-47.14c-3.35-0.06-3.35,0.02-4.86,3.49c1.93,0.41,3.7,1.05,5.5,1.14
	c20.26,1.01,36.42,17.07,37.45,37.24C471.07,356.56,471.54,358.58,471.88,360.86z"/>
<path class="st2" d="M376.41,381.71c-1.42,1.25-2.72,2.41-4.04,3.56c-2.17,1.9-4.35,3.78-6.49,5.7c-0.51,0.46-0.83,0.43-1.38,0.08
	c-4.94-3.07-9.97-3.35-14.98-0.22c-3.02,1.88-4.84,4.71-5.77,8.12c-0.03,0.1-0.04,0.2-0.05,0.31c0,0.04,0.03,0.07,0.08,0.18
	c4.35-0.5,8.72-1,13.35-1.53c-11.36,15.04-22.55,29.86-33.75,44.69c-0.05-0.03-0.09-0.05-0.14-0.08
	c5.6-11.53,11.2-23.05,16.89-34.74c-1.56,0.23-2.95,0.43-4.34,0.64c-1.98,0.3-3.97,0.58-5.94,0.9c-0.51,0.08-0.71-0.07-0.82-0.56
	c-2.94-13.49,4.02-27.22,16.76-32.49c9.35-3.87,18.37-2.77,26.86,2.69C373.92,379.77,375.1,380.74,376.41,381.71z"/>
<path class="st0" d="M367.96,410.4c-2.99,0-5.79-0.02-8.58,0.02c-0.64,0.01-0.8-0.18-0.8-0.81c0.03-3.86,0.03-7.72,0-11.58
	c0-0.54,0.19-0.67,0.68-0.67c7.47,0.01,14.94,0.01,22.41,0.04c0.23,0,0.63,0.32,0.68,0.56c1.45,6.28,0.15,12.15-2.91,17.66
	c-3.76,6.76-9.31,11.39-16.94,13.12c-7.19,1.64-13.99,0.29-20.39-3.29c-0.62-0.35-0.75-0.54-0.27-1.16
	c2.48-3.25,4.93-6.53,7.35-9.82c0.41-0.56,0.7-0.65,1.34-0.31c5.65,3.03,12.47,1.82,16.78-2.94
	C367.5,411,367.67,410.77,367.96,410.4z"/>
<path class="st0" d="M424.58,387.99c-2.83,1.92-5.66,3.83-8.55,5.79c-1.15-3.01-2.31-6.02-3.52-9.2c-0.16,0.4-0.27,0.63-0.36,0.87
	c-1.94,5.36-3.86,10.73-5.82,16.08c-0.2,0.54-0.55,1.08-0.96,1.48c-6.86,6.72-12.94,14.06-18.13,22.15
	c-0.06,0.09-0.11,0.19-0.15,0.3c14.49-19.64,32.33-34.89,55.78-42.8c0.04,0.06,0.08,0.12,0.12,0.17c-0.93,0.46-1.88,0.91-2.8,1.38
	c-4.61,2.34-8.94,5.11-13.09,8.19c-0.49,0.36-0.4,0.66-0.22,1.09c4.47,10.94,8.93,21.88,13.39,32.82c0.28,0.68,0.55,1.37,0.86,2.16
	c-0.35,0-0.59,0-0.82,0c-3.49,0-6.97-0.01-10.46,0.01c-0.56,0-0.8-0.19-0.99-0.69c-1.91-5.06-3.86-10.11-5.77-15.17
	c-0.2-0.53-0.45-0.68-0.99-0.68c-4.65,0.02-9.3,0.02-13.95,0c-0.59,0-0.97,0.17-1.33,0.65c-3.65,4.84-6.91,9.93-9.73,15.29
	c-0.25,0.47-0.52,0.64-1.05,0.64c-3.53-0.03-7.07-0.01-10.73-0.01c0.2-0.56,0.35-1.03,0.53-1.49c7.13-18.54,14.26-37.08,21.38-55.62
	c0.17-0.43,0.37-0.58,0.83-0.58c3,0.02,6.01,0.01,9.01,0c0.37,0,0.62,0.05,0.78,0.45c2.24,5.54,4.5,11.06,6.76,16.6
	C424.59,387.92,424.58,387.97,424.58,387.99z M418.32,401.25c-0.99,1.06-1.89,2.01-2.77,2.95c1.23,0,2.52,0,3.89,0
	C419.06,403.21,418.71,402.29,418.32,401.25z"/>
<g>
	<path class="st3" d="M196.76,441.94c-0.42,0.29-1.17,0.38-2.27,0.29c-3.07-0.44-5.31-1.33-6.73-2.69
		c-1.42-1.36-2.25-3.15-2.46-5.39c-0.09-0.44-0.14-0.86-0.16-1.28c-0.02-0.42-0.01-0.86,0.03-1.35c0-0.48-0.02-0.94-0.07-1.38
		c-0.04-0.44-0.09-0.88-0.13-1.31c-0.18-0.83-0.34-1.53-0.49-2.1c-0.15-0.57-0.45-0.92-0.89-1.05c-0.88-0.26-1.92,0.1-3.12,1.08
		s-2.43,2.4-3.68,4.24c-1.25,1.84-2.46,3.97-3.65,6.4c-1.18,2.43-2.19,4.96-3.02,7.59c-0.75,2.1-1.28,4.26-1.61,6.47
		c-0.33,2.21-0.45,4.26-0.36,6.14c0.09,1.88,0.39,3.49,0.92,4.83c0.53,1.34,1.25,2.16,2.17,2.46c0.79,0.26,1.61,0.2,2.46-0.2
		c0.85-0.39,1.7-1.03,2.53-1.91c0.83-0.88,1.64-1.94,2.43-3.19c0.79-1.25,1.53-2.59,2.23-4.04c-2.63,0.13-4.65-0.33-6.08-1.38
		c-1.42-1.05-2.55-2.82-3.38-5.32c-0.18-0.57-0.17-1.02,0.03-1.35s0.54-0.59,1.02-0.79c0.48-0.2,1.07-0.35,1.77-0.46
		c0.7-0.11,1.49-0.23,2.36-0.36c1.62-0.35,3.31-0.62,5.06-0.82c1.75-0.2,3.26-0.4,4.53-0.62c1.49-0.22,2.69-0.21,3.61,0.03
		c0.92,0.24,1.77,0.8,2.56,1.67c0.53,0.57,1.02,1.16,1.48,1.77c0.46,0.61,0.89,1.18,1.28,1.71c0.74,1.01,1.13,1.91,1.15,2.69
		c0.02,0.79-0.16,1.75-0.56,2.89c-1.62,3.94-3.48,7.25-5.58,9.92c-2.1,2.67-4.38,4.73-6.83,6.17c-1.58,0.88-3.24,1.46-4.99,1.74
		c-1.75,0.28-3.59,0.29-5.52,0.03c-3.37-0.44-6.66-1.36-9.85-2.76c-1.14-0.61-2.25-1.43-3.32-2.46c-1.07-1.03-1.92-2.16-2.53-3.38
		c-1.14-1.97-1.93-4.28-2.36-6.93c-0.44-2.65-0.55-5.46-0.33-8.44c0.22-2.98,0.75-6.01,1.58-9.1s1.96-6.09,3.38-9
		c1.42-2.91,3.11-5.64,5.06-8.18c1.95-2.54,4.15-4.71,6.6-6.5c0.79-0.61,1.64-1.09,2.56-1.44c0.92-0.35,1.85-0.59,2.79-0.72
		c0.94-0.13,1.87-0.2,2.79-0.2c0.92,0,1.77,0.07,2.56,0.2c1.14,0.13,2.3,0.35,3.48,0.66c1.18,0.31,2.33,0.67,3.45,1.08
		c1.12,0.42,2.17,0.9,3.15,1.45c0.99,0.55,1.87,1.15,2.66,1.81c1.49,1.18,2.54,2.47,3.15,3.88c0.61,1.4,1.03,2.98,1.25,4.73
		c0.04,0.92,0.05,1.95,0.03,3.09c-0.02,1.14-0.09,2.28-0.2,3.42c-0.11,1.14-0.24,2.23-0.39,3.29c-0.15,1.05-0.32,1.93-0.49,2.63
		C197.53,441.08,197.17,441.66,196.76,441.94z"/>
	<path class="st3" d="M214.62,417.67c2.3-0.53,4.71-1.01,7.23-1.45c2.52-0.44,5.1-0.82,7.75-1.15c2.65-0.33,5.29-0.54,7.92-0.62
		c2.5-0.04,4.09,0.92,4.79,2.89c0.57,1.05,0.96,2,1.18,2.86c0.22,0.85,0.44,1.79,0.66,2.79c0.17,1.14,0.09,1.91-0.26,2.3
		c-0.35,0.39-1.16,0.68-2.43,0.85c-2.63,0.31-5.34,0.61-8.15,0.92c-2.8,0.31-5.76,0.68-8.87,1.12c-0.66,1.97-1.27,4.02-1.84,6.14
		c-0.57,2.12-1.21,4.35-1.91,6.67c1.31-0.17,2.63-0.31,3.94-0.39s2.71-0.15,4.2-0.2c1.23-0.04,2.19,0.07,2.89,0.33
		c0.7,0.26,1.29,0.83,1.77,1.71c0.53,0.88,0.93,1.74,1.21,2.59c0.28,0.85,0.54,1.72,0.76,2.59c0.35,1.01,0.38,1.69,0.1,2.04
		c-0.29,0.35-1.04,0.66-2.27,0.92c-2.63,0.48-5.31,0.94-8.05,1.38c-2.74,0.44-5.38,0.92-7.92,1.45c-0.35,1.4-0.68,2.73-0.99,3.97
		c-0.31,1.25-0.64,2.49-0.99,3.71c2.06-0.35,4.02-0.63,5.88-0.85c1.86-0.22,3.89-0.39,6.08-0.53c1.23-0.09,2.18,0,2.86,0.26
		c0.68,0.26,1.26,0.79,1.74,1.58c0.53,0.88,0.93,1.7,1.22,2.46c0.28,0.77,0.6,1.54,0.95,2.33c0.22,0.88,0.22,1.48,0,1.81
		c-0.22,0.33-0.92,0.6-2.1,0.82c-2.8,0.53-5.65,1.07-8.54,1.64c-2.89,0.57-5.65,1.09-8.28,1.58c-1.75,0.44-3.08,0.54-3.97,0.29
		c-0.9-0.24-1.67-0.58-2.33-1.02c-0.75-0.48-1.46-0.97-2.13-1.48c-0.68-0.5-1.48-1.15-2.4-1.94c-0.74-0.61-1.32-1.33-1.74-2.17
		c-0.42-0.83-0.58-1.84-0.49-3.02l6.24-43.68C210.23,418.7,212.32,418.19,214.62,417.67z"/>
	<path class="st3" d="M283.43,426.04c-2.01,0.2-4.1,0.41-6.24,0.62c-0.92,3.68-1.87,7.49-2.86,11.43s-1.94,7.85-2.86,11.72
		c-0.92,3.88-1.79,7.65-2.59,11.33c-0.81,3.68-1.52,7.12-2.13,10.31c-0.09,0.61-0.3,1.02-0.62,1.21s-0.78,0.28-1.35,0.26
		c-0.57-0.02-1.23-0.14-1.97-0.36c-0.75-0.22-1.58-0.46-2.5-0.72s-1.75-0.55-2.5-0.85c-0.75-0.31-1.37-0.68-1.87-1.12
		c-0.5-0.44-0.87-0.95-1.08-1.54c-0.22-0.59-0.24-1.3-0.07-2.13c0.13-2.1,0.39-4.69,0.79-7.75s0.86-6.31,1.41-9.72
		c0.55-3.42,1.15-6.86,1.81-10.35s1.31-6.71,1.97-9.69c-1.27,0.22-2.5,0.41-3.68,0.56c-1.18,0.15-2.17,0.34-2.96,0.56
		c-1.09,0.26-1.99,0.29-2.69,0.1c-0.7-0.2-1.49-0.75-2.36-1.67c-0.92-0.92-1.76-2.08-2.53-3.48c-0.77-1.4-1.39-2.58-1.87-3.55
		c-0.53-1.01-0.66-1.67-0.39-2c0.26-0.33,0.81-0.6,1.64-0.82c2.58-0.53,5.51-1.01,8.77-1.45c3.26-0.44,6.59-0.83,9.98-1.18
		c3.39-0.35,6.72-0.65,9.98-0.89c3.26-0.24,6.18-0.4,8.77-0.49c1.36,0,2.33,0.12,2.92,0.36c0.59,0.24,1.11,0.65,1.54,1.22
		c0.88,1.01,1.6,2.1,2.17,3.28c0.57,1.18,1.01,2.34,1.31,3.48c0.26,1.01,0.27,1.7,0.03,2.07c-0.24,0.37-1.04,0.6-2.4,0.69
		C287.31,425.66,285.44,425.85,283.43,426.04z"/>
</g>
<g>
	<path class="st3" d="M496.02,462.44c-3.26,0.46-6.14,1.02-8.64,1.68c-0.88,1.71-1.64,3.29-2.3,4.76c-0.66,1.47-1.29,2.9-1.91,4.3
		c-0.35,0.74-0.78,1.18-1.28,1.31c-0.5,0.13-1.26,0.02-2.27-0.33c-0.57-0.22-1.19-0.47-1.87-0.76s-1.37-0.6-2.07-0.95
		c-0.53-0.35-0.99-0.65-1.38-0.89c-0.39-0.24-0.7-0.54-0.92-0.89c-0.22-0.35-0.34-0.8-0.36-1.35c-0.02-0.55,0.1-1.28,0.36-2.2
		c1.05-3.02,2.42-6.57,4.11-10.64c1.68-4.07,3.5-8.28,5.45-12.61c1.95-4.33,3.94-8.62,5.98-12.84c2.04-4.23,3.97-7.98,5.81-11.26
		c0.66-1.18,1.51-2.15,2.56-2.89c1.05-0.74,2.6-1.03,4.66-0.85c1.8,0.09,3.39,0.23,4.8,0.43c1.4,0.2,2.68,0.43,3.84,0.69
		c1.16,0.26,2.23,0.55,3.22,0.85c0.98,0.31,1.98,0.59,2.99,0.85c1.36,0.48,2.22,1.12,2.59,1.9c0.37,0.79,0.49,1.82,0.36,3.09
		c-0.26,3.11-0.48,6.68-0.66,10.71c-0.17,4.03-0.31,8.23-0.39,12.61c-0.09,4.38-0.14,8.77-0.16,13.17
		c-0.02,4.4-0.01,8.48,0.03,12.25c0,0.79-0.16,1.33-0.49,1.64c-0.33,0.31-1.06,0.46-2.2,0.46s-2.19-0.03-3.15-0.1
		c-0.96-0.07-1.95-0.27-2.96-0.62c-1.05-0.31-1.79-0.7-2.2-1.18c-0.42-0.48-0.71-1.33-0.89-2.56c-0.17-1.27-0.33-2.66-0.46-4.17
		c-0.13-1.51-0.26-3.16-0.39-4.96C502.56,461.53,499.28,461.98,496.02,462.44z M499.24,451.1c1.99-0.22,4-0.39,6.01-0.53
		c-0.09-3.59-0.15-7.17-0.2-10.74c-0.04-3.57-0.02-7.1,0.07-10.61c-1.75,3.2-3.65,6.73-5.68,10.61c-2.04,3.88-4.08,7.89-6.14,12.05
		C495.27,451.59,497.25,451.32,499.24,451.1z"/>
	<path class="st3" d="M545.55,472.42c-2.91,0.55-5.68,1.08-8.31,1.61c-0.96,0.26-1.77,0.42-2.43,0.46c-0.66,0.04-1.23,0.01-1.71-0.1
		c-0.48-0.11-0.89-0.25-1.22-0.43c-0.33-0.18-0.65-0.37-0.95-0.59c-0.75-0.48-1.42-0.97-2.04-1.48c-0.61-0.5-1.42-1.15-2.43-1.94
		c-0.74-0.61-1.31-1.3-1.71-2.07c-0.39-0.77-0.5-1.7-0.33-2.79c0.13-1.71,0.35-3.73,0.66-6.08c0.31-2.34,0.68-4.87,1.12-7.59
		c0.44-2.71,0.92-5.53,1.45-8.44c0.53-2.91,1.09-5.81,1.71-8.7c0.61-2.89,1.24-5.67,1.87-8.34c0.63-2.67,1.26-5.12,1.87-7.36
		c0.44-1.27,1-2.03,1.67-2.27c0.68-0.24,1.7-0.16,3.05,0.23c1.36,0.35,2.82,0.84,4.4,1.48c1.58,0.64,2.96,1.35,4.14,2.13
		c1.14,0.83,1.85,1.55,2.13,2.17c0.28,0.61,0.23,1.49-0.16,2.63c-0.88,2.63-1.76,5.52-2.66,8.67c-0.9,3.15-1.8,6.39-2.69,9.72
		c-0.9,3.33-1.75,6.65-2.56,9.95c-0.81,3.31-1.57,6.47-2.27,9.49c2.01-0.35,3.9-0.61,5.65-0.79c1.75-0.17,3.66-0.33,5.71-0.46
		c1.23-0.09,2.16-0.01,2.79,0.23c0.63,0.24,1.21,0.78,1.74,1.61c0.53,0.79,0.95,1.59,1.28,2.4c0.33,0.81,0.58,1.59,0.75,2.33
		c0.31,0.92,0.38,1.53,0.23,1.84c-0.15,0.31-0.91,0.59-2.27,0.85C551.3,471.34,548.46,471.87,545.55,472.42z"/>
	<path class="st3" d="M577.34,465.82c-0.5,2.45-1,4.86-1.48,7.23c-0.22,0.7-0.52,1.16-0.89,1.38c-0.37,0.22-1.06,0.22-2.07,0
		c-1.18-0.31-2.23-0.55-3.15-0.72c-0.92-0.18-1.8-0.48-2.63-0.92c-0.83-0.48-1.4-1.06-1.71-1.74c-0.31-0.68-0.42-1.59-0.33-2.73
		c0.09-0.92,0.21-2.25,0.36-4.01c0.15-1.75,0.34-3.73,0.56-5.94c0.22-2.21,0.47-4.59,0.75-7.13c0.29-2.54,0.59-5.08,0.92-7.62
		c0.33-2.54,0.69-5,1.08-7.39c0.39-2.39,0.81-4.53,1.25-6.44c0.44-1.9,0.92-3.48,1.44-4.73c0.53-1.25,1.07-2.02,1.64-2.33
		c2.71-1.23,5.55-2.43,8.51-3.61s5.87-2.03,8.74-2.53c2.87-0.5,5.58-0.55,8.14-0.13c2.56,0.42,4.81,1.57,6.73,3.45
		c1.53,1.67,2.92,3.45,4.17,5.35s2.22,4.24,2.92,7c0.57,2.93,0.35,5.34-0.66,7.23c-1.53,3.02-4.06,5.8-7.59,8.34
		c-3.53,2.54-7.74,4.91-12.64,7.09c1.01,1.14,2.11,2.34,3.32,3.61c1.2,1.27,2.44,2.54,3.71,3.81c1.27,1.27,2.53,2.5,3.78,3.68
		s2.42,2.21,3.51,3.09c0.88,0.75,1.27,1.34,1.18,1.77c-0.09,0.44-0.46,0.9-1.12,1.38c-0.79,0.61-1.46,0.98-2,1.08
		c-0.55,0.11-1.22,0.23-2,0.36c-0.96,0.26-2.03,0.34-3.19,0.23c-1.16-0.11-2.51-0.62-4.04-1.54c-1.01-0.7-2.17-1.58-3.48-2.63
		c-1.31-1.05-2.67-2.21-4.07-3.48c-1.4-1.27-2.8-2.59-4.2-3.97c-1.4-1.38-2.67-2.77-3.81-4.17
		C578.4,460.8,577.85,463.37,577.34,465.82z M584.01,438.62c-0.66,2.54-1.4,5.25-2.23,8.15c3.02-1.01,5.7-2.24,8.05-3.71
		c2.34-1.47,4.3-2.96,5.88-4.47c1.58-1.51,2.71-2.95,3.42-4.3s0.92-2.41,0.66-3.15c-0.53-1.23-2.08-1.84-4.66-1.84
		c-1.27,0-2.67,0.15-4.2,0.46s-3.15,0.88-4.86,1.71C585.35,433.7,584.67,436.08,584.01,438.62z"/>
	<path class="st3" d="M654.75,427.95c-2.01,0.2-4.1,0.41-6.24,0.62c-0.92,3.68-1.87,7.49-2.86,11.43s-1.94,7.85-2.86,11.72
		c-0.92,3.88-1.79,7.65-2.59,11.33c-0.81,3.68-1.52,7.12-2.13,10.31c-0.09,0.61-0.3,1.02-0.62,1.21s-0.78,0.28-1.35,0.26
		c-0.57-0.02-1.23-0.14-1.97-0.36c-0.75-0.22-1.58-0.46-2.5-0.72s-1.75-0.55-2.5-0.85c-0.75-0.31-1.37-0.68-1.87-1.12
		c-0.5-0.44-0.87-0.95-1.08-1.54c-0.22-0.59-0.24-1.3-0.07-2.13c0.13-2.1,0.39-4.69,0.79-7.75s0.86-6.31,1.41-9.72
		c0.55-3.42,1.15-6.86,1.81-10.35s1.31-6.71,1.97-9.69c-1.27,0.22-2.5,0.41-3.68,0.56s-2.17,0.34-2.96,0.56
		c-1.09,0.26-1.99,0.29-2.69,0.1c-0.7-0.2-1.49-0.75-2.36-1.67c-0.92-0.92-1.76-2.08-2.53-3.48c-0.77-1.4-1.39-2.58-1.87-3.55
		c-0.53-1.01-0.66-1.67-0.39-2c0.26-0.33,0.81-0.6,1.64-0.82c2.58-0.53,5.51-1.01,8.77-1.45c3.26-0.44,6.59-0.83,9.98-1.18
		c3.39-0.35,6.72-0.65,9.98-0.89c3.26-0.24,6.18-0.4,8.77-0.49c1.36,0,2.33,0.12,2.92,0.36c0.59,0.24,1.11,0.65,1.54,1.22
		c0.88,1.01,1.6,2.1,2.17,3.28c0.57,1.18,1.01,2.34,1.31,3.48c0.26,1.01,0.27,1.7,0.03,2.07c-0.24,0.37-1.04,0.6-2.4,0.69
		C658.63,427.57,656.77,427.75,654.75,427.95z"/>
</g>
<path class="st2" d="M383.87,430.21l1.95-3.35L383.87,430.21z"/>
<path class="st2" d="M392.76,424.43"/>
<path class="st2" d="M388.05,391.86"/>
<line class="st2" x1="394.6" y1="430.22" x2="405.39" y2="414.3"/>
<line class="st2" x1="385.82" y1="426.86" x2="383.87" y2="430.21"/>
</svg>
