<svg width="511" height="190" viewBox="0 0 511 190" fill="none" xmlns="http://www.w3.org/2000/svg">
<rect width="511" height="190" fill="#E5E5E5"/>
<path id="Vector" d="M290.777 155.135C294.766 164.377 298.335 172.336 301.612 180.411C302.965 183.73 302.184 186.855 299.026 189.287C294.315 190.714 290.096 188.987 286.247 186.691C279.211 182.485 272.385 177.932 265.278 173.407C241.574 183.643 217.649 183.652 193.423 173.243C189.073 176.185 184.703 179.311 180.142 182.167C176.524 184.444 172.785 186.605 168.896 188.409C165.649 189.914 161.94 191.062 158.753 188.428C155.676 185.891 156.488 182.321 157.61 179.273C159.625 173.841 162.071 168.545 164.516 163.268C165.659 160.808 167.202 158.531 168.806 155.762C150.283 134.808 143.027 110.806 149.101 83.793C153.33 65.0001 163.915 49.8345 179.751 38.0551C208.498 16.667 252.399 15.7216 282.849 40.8335C300.65 55.5167 310.282 74.3387 311.816 96.8073C313.369 119.334 304.99 138.754 290.777 155.135ZM161.108 101.718C161.199 138.281 191.599 167.619 229.436 167.648C267.363 167.686 297.753 138.059 297.994 101.245C298.224 65.0772 265.72 34.2444 227.211 35.3635C190.957 36.4247 161.018 65.5596 161.108 101.718Z" fill="#1C75BC"/>
<path id="Vector_2" d="M157.136 63C154.637 60.3399 152.078 58.0339 150.067 55.3643C146.919 51.1828 147.376 46.8578 151.377 43.2792C156.699 38.5045 162.163 33.8541 167.779 29.3952C172.116 25.9601 176.849 26.2854 180.952 29.9502C183.267 32.0074 185.4 34.256 188 36.7917C175.061 42.772 165.88 52.0918 157.136 63Z" fill="#1C75BC"/>
<path id="Vector_3" d="M124.148 60C123.742 58.4992 122.971 56.9888 123.001 55.4977C123.535 27.8741 142.665 6.36975 168.142 1.02512C171.899 0.240856 175.843 0.25056 179.699 0.0181848C181.627 -0.0980028 183.397 0.260227 182.922 3.54253C181.133 3.83299 179.165 4.37523 177.178 4.443C152.769 5.27568 131.454 24.1755 128.31 47.8875C127.944 50.6372 127.835 53.4257 127.41 56.1755C127.212 57.4729 126.53 58.6929 126.066 59.9419C125.433 59.9613 124.79 59.9806 124.148 60Z" fill="#00AEEF"/>
<path id="Vector_4" d="M139.614 60C138.177 59.844 137.702 59.8733 137.297 59.7173C136.882 59.5613 136.548 59.2201 136.204 58.9666C133.796 35.7057 152.983 13.449 179.082 13.0103C182.472 12.9518 182.472 13.0298 184 16.4127C182.047 16.8124 180.256 17.4363 178.434 17.524C157.931 18.5087 141.578 34.1654 140.535 53.8289C140.434 55.8177 139.959 57.7772 139.614 60Z" fill="#00AEEF"/>
<path id="Vector_5" d="M301.093 63C303.529 60.2668 306.024 57.8973 307.985 55.1444C311.054 50.8479 310.609 46.404 306.707 42.7269C301.518 37.8209 296.191 33.0427 290.715 28.4611C286.487 24.9315 281.873 25.2657 277.872 29.0313C275.614 31.1451 273.535 33.4556 271 36.061C283.615 42.2157 292.567 51.7918 301.093 63Z" fill="#1C75BC"/>
<path id="Vector_6" d="M334.833 61C335.245 59.4992 336.029 57.9888 335.999 56.4977C335.456 28.8742 316.007 7.36978 290.106 2.02515C286.286 1.24088 282.276 1.25056 278.356 1.01818C276.396 0.901996 274.597 1.26026 275.079 4.54255C276.898 4.83302 278.899 5.37522 280.919 5.443C305.735 6.27568 327.405 25.1755 330.602 48.8874C330.974 51.6372 331.084 54.4257 331.516 57.1755C331.717 58.4729 332.411 59.6929 332.883 60.9419C333.527 60.9613 334.18 60.9806 334.833 61Z" fill="#00AEEF"/>
<path id="Vector_7" d="M318.461 61C319.868 60.844 320.334 60.8733 320.73 60.7173C321.136 60.5613 321.463 60.2201 321.8 59.9666C324.159 36.7057 305.371 14.449 279.816 14.0103C276.496 13.9518 276.496 14.0298 275 17.4126C276.912 17.8124 278.666 18.4363 280.45 18.524C300.526 19.5087 316.538 35.1654 317.559 54.829C317.658 56.808 318.124 58.7773 318.461 61Z" fill="#00AEEF"/>
<path id="Vector_8" d="M223 80.4412C221.585 81.6434 220.289 82.7589 218.973 83.8649C216.81 85.6922 214.637 87.5002 212.504 89.3467C211.995 89.7891 211.676 89.7602 211.128 89.4236C206.204 86.4712 201.19 86.2019 196.196 89.212C193.186 91.0201 191.371 93.7417 190.444 97.0212C190.415 97.1174 190.405 97.2135 190.395 97.3193C190.395 97.3578 190.424 97.3866 190.474 97.4924C194.81 97.0116 199.166 96.5307 203.782 96.021C192.458 110.485 181.304 124.738 170.14 139C170.09 138.971 170.05 138.952 170 138.923C175.582 127.834 181.164 116.756 186.836 105.513C185.281 105.734 183.895 105.927 182.51 106.129C180.536 106.417 178.553 106.686 176.589 106.994C176.081 107.071 175.881 106.927 175.771 106.456C172.841 93.4821 179.779 80.2777 192.478 75.2095C201.798 71.4877 210.789 72.5455 219.252 77.7965C220.518 78.5755 221.694 79.5084 223 80.4412Z" fill="#27AAE1"/>
<path id="Vector_9" d="M214.798 108.604C211.764 108.604 208.923 108.585 206.092 108.624C205.443 108.633 205.28 108.45 205.28 107.841C205.311 104.11 205.311 100.379 205.28 96.6476C205.28 96.1257 205.473 96 205.97 96C213.55 96.0097 221.129 96.0097 228.708 96.0387C228.942 96.0387 229.348 96.348 229.398 96.58C230.87 102.65 229.551 108.324 226.446 113.65C222.631 120.184 216.999 124.66 209.258 126.332C201.963 127.917 195.063 126.612 188.569 123.152C187.94 122.813 187.808 122.63 188.295 122.031C190.812 118.889 193.297 115.719 195.753 112.539C196.169 111.997 196.463 111.91 197.113 112.239C202.845 115.168 209.765 113.998 214.138 109.397C214.331 109.184 214.503 108.962 214.798 108.604Z" fill="#1C75BC"/>
<path id="Vector_10" d="M271.488 86.6641C268.642 88.5275 265.796 90.3813 262.89 92.2835C261.734 89.3622 260.568 86.4409 259.351 83.3546C259.19 83.7428 259.079 83.966 258.989 84.199C257.038 89.4011 255.107 94.6128 253.137 99.8052C252.935 100.329 252.584 100.853 252.171 101.242C245.273 107.764 239.159 114.887 233.941 122.739C233.88 122.826 233.83 122.923 233.79 123.03C248.36 103.969 266.299 89.1681 289.879 81.4912C289.92 81.5494 289.96 81.6076 290 81.6561C289.065 82.1026 288.11 82.5393 287.184 82.9955C282.549 85.2665 278.195 87.9549 274.022 90.9442C273.529 91.2936 273.62 91.5847 273.801 92.0021C278.295 102.62 282.78 113.237 287.265 123.855C287.546 124.515 287.818 125.185 288.13 125.951C287.778 125.951 287.536 125.951 287.305 125.951C283.796 125.951 280.296 125.942 276.787 125.961C276.224 125.961 275.983 125.777 275.792 125.292C273.871 120.381 271.91 115.479 269.99 110.568C269.788 110.054 269.537 109.908 268.994 109.908C264.318 109.928 259.643 109.928 254.967 109.908C254.373 109.908 253.991 110.073 253.629 110.539C249.959 115.237 246.681 120.177 243.845 125.379C243.594 125.835 243.322 126 242.79 126C239.24 125.971 235.68 125.99 232 125.99C232.201 125.447 232.352 124.991 232.533 124.544C239.702 106.55 246.872 88.5567 254.032 70.5629C254.203 70.1456 254.404 70 254.866 70C257.883 70.0194 260.91 70.0097 263.926 70C264.298 70 264.55 70.0485 264.71 70.4367C266.963 75.8135 269.235 81.1709 271.508 86.5477C271.498 86.5962 271.488 86.6447 271.488 86.6641ZM265.193 99.5335C264.198 100.562 263.293 101.484 262.408 102.397C263.645 102.397 264.942 102.397 266.319 102.397C265.937 101.436 265.585 100.543 265.193 99.5335Z" fill="#1C75BC"/>
<g id="Group">
<path id="Vector_11" d="M43.7024 138.709C43.2825 138.988 42.5328 139.075 41.4331 138.988C38.364 138.564 36.1246 137.706 34.7051 136.395C33.2855 135.084 32.4557 133.359 32.2458 131.199C32.1558 130.775 32.1058 130.37 32.0858 129.965C32.0658 129.561 32.0758 129.136 32.1158 128.664C32.1158 128.201 32.0958 127.758 32.0458 127.334C32.0059 126.91 31.9559 126.485 31.9159 126.071C31.7359 125.271 31.576 124.596 31.426 124.046C31.2761 123.497 30.9762 123.16 30.5363 123.034C29.6565 122.784 28.6168 123.131 27.4172 124.075C26.2176 125.02 24.9879 126.389 23.7383 128.163C22.4886 129.936 21.279 131.99 20.0893 134.332C18.9097 136.675 17.9 139.114 17.0702 141.649C16.3204 143.673 15.7906 145.756 15.4607 147.886C15.1308 150.017 15.0108 151.993 15.1008 153.805C15.1908 155.617 15.4907 157.169 16.0205 158.461C16.5504 159.753 17.2702 160.544 18.1899 160.833C18.9797 161.083 19.7994 161.025 20.6492 160.64C21.4989 160.264 22.3487 159.647 23.1784 158.799C24.0082 157.95 24.818 156.928 25.6077 155.723C26.3975 154.518 27.1373 153.227 27.8371 151.829C25.2078 151.954 23.1884 151.511 21.7589 150.499C20.3393 149.486 19.2096 147.78 18.3798 145.37C18.1999 144.821 18.2099 144.387 18.4098 144.069C18.6098 143.751 18.9497 143.5 19.4295 143.307C19.9094 143.114 20.4992 142.97 21.199 142.864C21.8988 142.758 22.6886 142.642 23.5583 142.517C25.1779 142.179 26.8674 141.919 28.6168 141.726C30.3663 141.533 31.8759 141.341 33.1455 141.129C34.6351 140.916 35.8347 140.926 36.7545 141.157C37.6742 141.389 38.5239 141.929 39.3137 142.767C39.8436 143.317 40.3334 143.886 40.7933 144.474C41.2532 145.062 41.683 145.611 42.0729 146.122C42.8127 147.096 43.2026 147.963 43.2226 148.715C43.2426 149.477 43.0626 150.402 42.6627 151.501C41.0432 155.299 39.1838 158.49 37.0844 161.064C34.985 163.638 32.7056 165.624 30.2564 167.012C28.6768 167.86 27.0173 168.419 25.2678 168.689C23.5183 168.959 21.6789 168.969 19.7494 168.718C16.3804 168.294 13.0914 167.407 9.90233 166.058C8.76266 165.47 7.65299 164.679 6.58331 163.686C5.51362 162.693 4.66387 161.604 4.05405 160.428C2.91438 158.529 2.12461 156.302 1.69474 153.747C1.25487 151.193 1.1449 148.484 1.36483 145.611C1.58477 142.738 2.11462 139.817 2.94437 136.839C3.77413 133.86 4.90379 130.968 6.32337 128.163C7.74296 125.357 9.43246 122.726 11.3819 120.277C13.3313 117.829 15.5307 115.737 17.98 114.011C18.7697 113.423 19.6195 112.96 20.5392 112.623C21.4589 112.286 22.3887 112.054 23.3284 111.929C24.2681 111.804 25.1978 111.736 26.1176 111.736C27.0373 111.736 27.8871 111.804 28.6768 111.929C29.8165 112.054 30.9762 112.266 32.1558 112.565C33.3355 112.864 34.4851 113.211 35.6048 113.606C36.7245 114.011 37.7742 114.474 38.7539 115.004C39.7436 115.534 40.6233 116.113 41.4131 116.749C42.9027 117.886 43.9523 119.13 44.5622 120.489C45.172 121.839 45.5919 123.362 45.8118 125.049C45.8518 125.936 45.8618 126.929 45.8418 128.028C45.8218 129.127 45.7518 130.226 45.6419 131.325C45.5319 132.424 45.4019 133.474 45.252 134.496C45.102 135.508 44.9321 136.357 44.7621 137.032C44.4722 137.88 44.1123 138.439 43.7024 138.709Z" fill="#27AAE1" stroke="white" stroke-miterlimit="10"/>
<path id="Vector_12" d="M61.5572 115.313C63.8565 114.802 66.2658 114.339 68.7851 113.915C71.3044 113.491 73.8836 113.124 76.5328 112.806C79.182 112.488 81.8213 112.286 84.4505 112.209C86.9498 112.17 88.5393 113.095 89.2391 114.994C89.8089 116.007 90.1988 116.922 90.4188 117.752C90.6387 118.571 90.8586 119.477 91.0786 120.441C91.2485 121.54 91.1685 122.282 90.8186 122.658C90.4687 123.034 89.659 123.314 88.3894 123.478C85.7601 123.777 83.0509 124.066 80.2417 124.365C77.4425 124.663 74.4834 125.02 71.3743 125.444C70.7145 127.343 70.1047 129.32 69.5349 131.363C68.965 133.407 68.3252 135.557 67.6254 137.793C68.935 137.629 70.2547 137.494 71.5643 137.417C72.8739 137.34 74.2735 137.273 75.763 137.224C76.9927 137.186 77.9524 137.292 78.6522 137.542C79.352 137.793 79.9418 138.343 80.4217 139.191C80.9515 140.039 81.3514 140.868 81.6313 141.688C81.9112 142.507 82.1712 143.346 82.3911 144.184C82.741 145.158 82.771 145.814 82.4911 146.151C82.2012 146.488 81.4514 146.787 80.2217 147.038C77.5925 147.501 74.9133 147.944 72.1741 148.368C69.4349 148.792 66.7957 149.255 64.2564 149.766C63.9065 151.116 63.5766 152.398 63.2667 153.593C62.9568 154.798 62.6269 155.993 62.277 157.17C64.3364 156.832 66.2958 156.562 68.1553 156.35C70.0147 156.138 72.0441 155.974 74.2335 155.839C75.4631 155.752 76.4129 155.839 77.0927 156.09C77.7725 156.34 78.3523 156.851 78.8321 157.613C79.362 158.461 79.7619 159.252 80.0518 159.984C80.3317 160.727 80.6516 161.469 81.0015 162.231C81.2215 163.079 81.2215 163.657 81.0015 163.975C80.7816 164.293 80.0818 164.554 78.9021 164.766C76.1029 165.277 73.2538 165.797 70.3646 166.347C67.4755 166.896 64.7163 167.398 62.087 167.87C60.3375 168.294 59.0079 168.39 58.1182 168.149C57.2185 167.918 56.4487 167.59 55.7889 167.166C55.0391 166.703 54.3293 166.231 53.6595 165.739C52.9797 165.257 52.1799 164.631 51.2602 163.869C50.5204 163.281 49.9406 162.587 49.5207 161.777C49.1008 160.977 48.9409 160.004 49.0309 158.866L55.269 116.759C57.1685 116.306 59.2579 115.814 61.5572 115.313Z" fill="#27AAE1" stroke="white" stroke-miterlimit="10"/>
<path id="Vector_13" d="M130.347 123.381C128.338 123.574 126.248 123.777 124.109 123.979C123.189 127.527 122.239 131.199 121.25 134.998C120.26 138.796 119.31 142.565 118.391 146.296C117.471 150.036 116.601 153.67 115.801 157.218C114.992 160.765 114.282 164.081 113.672 167.157C113.582 167.745 113.372 168.14 113.052 168.323C112.732 168.506 112.272 168.593 111.703 168.574C111.133 168.554 110.473 168.439 109.733 168.227C108.983 168.015 108.154 167.783 107.234 167.533C106.314 167.282 105.484 167.002 104.735 166.713C103.985 166.414 103.365 166.058 102.865 165.633C102.365 165.209 101.995 164.718 101.785 164.149C101.565 163.58 101.545 162.896 101.715 162.096C101.845 160.071 102.105 157.574 102.505 154.625C102.905 151.675 103.365 148.542 103.915 145.254C104.465 141.958 105.064 138.641 105.724 135.277C106.384 131.913 107.034 128.809 107.694 125.936C106.424 126.148 105.194 126.331 104.015 126.476C102.835 126.62 101.845 126.804 101.056 127.016C99.966 127.266 99.0662 127.295 98.3664 127.112C97.6666 126.919 96.8769 126.389 96.0071 125.502C95.0874 124.615 94.2476 123.497 93.4779 122.147C92.7081 120.798 92.0883 119.66 91.6084 118.725C91.0786 117.752 90.9486 117.115 91.2185 116.797C91.4784 116.479 92.0283 116.219 92.858 116.007C95.4373 115.496 98.3664 115.033 101.625 114.609C104.885 114.185 108.214 113.809 111.603 113.471C114.992 113.134 118.321 112.845 121.58 112.613C124.839 112.382 127.758 112.228 130.347 112.141C131.707 112.141 132.676 112.257 133.266 112.488C133.856 112.719 134.376 113.115 134.806 113.664C135.686 114.638 136.405 115.689 136.975 116.826C137.545 117.964 137.985 119.082 138.285 120.181C138.545 121.154 138.555 121.82 138.315 122.176C138.075 122.533 137.275 122.755 135.915 122.841C134.226 123.015 132.356 123.198 130.347 123.381Z" fill="#27AAE1" stroke="white" stroke-miterlimit="10"/>
</g>
<g id="Group_2">
<path id="Vector_14" d="M342.875 158.471C339.616 158.914 336.737 159.454 334.237 160.09C333.358 161.739 332.598 163.262 331.938 164.679C331.278 166.096 330.648 167.475 330.029 168.824C329.679 169.538 329.249 169.962 328.749 170.087C328.249 170.212 327.489 170.106 326.48 169.769C325.91 169.557 325.29 169.316 324.61 169.036C323.93 168.757 323.241 168.458 322.541 168.121C322.011 167.783 321.551 167.494 321.161 167.263C320.771 167.031 320.461 166.742 320.242 166.405C320.022 166.067 319.902 165.633 319.882 165.103C319.862 164.573 319.982 163.869 320.242 162.982C321.291 160.071 322.661 156.649 324.35 152.725C326.03 148.802 327.849 144.744 329.799 140.569C331.748 136.395 333.738 132.26 335.777 128.192C337.816 124.114 339.746 120.499 341.585 117.337C342.245 116.199 343.095 115.264 344.145 114.551C345.194 113.838 346.744 113.558 348.803 113.732C350.603 113.818 352.192 113.953 353.602 114.146C355.001 114.339 356.281 114.561 357.441 114.811C358.6 115.062 359.67 115.341 360.66 115.631C361.639 115.93 362.639 116.199 363.649 116.45C365.008 116.913 365.868 117.53 366.238 118.282C366.608 119.043 366.728 120.036 366.598 121.26C366.338 124.259 366.118 127.7 365.938 131.585C365.768 135.47 365.628 139.519 365.548 143.741C365.458 147.963 365.408 152.195 365.388 156.437C365.368 160.678 365.378 164.612 365.418 168.246C365.418 169.007 365.258 169.528 364.928 169.827C364.599 170.126 363.869 170.27 362.729 170.27C361.589 170.27 360.54 170.241 359.58 170.174C358.62 170.106 357.631 169.914 356.621 169.576C355.571 169.277 354.831 168.901 354.422 168.439C354.002 167.976 353.712 167.157 353.532 165.971C353.362 164.747 353.202 163.407 353.072 161.951C352.942 160.495 352.812 158.905 352.682 157.169C349.413 157.594 346.134 158.027 342.875 158.471ZM346.094 147.539C348.083 147.327 350.093 147.163 352.102 147.028C352.012 143.567 351.952 140.116 351.902 136.675C351.862 133.233 351.882 129.83 351.972 126.447C350.223 129.532 348.323 132.935 346.294 136.675C344.254 140.415 342.215 144.281 340.156 148.291C342.125 148.011 344.105 147.751 346.094 147.539Z" fill="#27AAE1" stroke="white" stroke-miterlimit="10"/>
<path id="Vector_15" d="M392.39 168.093C389.481 168.623 386.712 169.134 384.083 169.645C383.123 169.896 382.313 170.05 381.654 170.088C380.994 170.127 380.424 170.098 379.944 169.992C379.464 169.886 379.054 169.751 378.724 169.577C378.395 169.404 378.075 169.221 377.775 169.009C377.025 168.546 376.355 168.074 375.735 167.582C375.125 167.1 374.316 166.473 373.306 165.712C372.566 165.124 371.996 164.459 371.597 163.716C371.207 162.974 371.097 162.078 371.267 161.027C371.397 159.378 371.617 157.431 371.926 155.166C372.236 152.91 372.606 150.471 373.046 147.849C373.486 145.236 373.966 142.518 374.496 139.713C375.026 136.907 375.585 134.112 376.205 131.326C376.815 128.54 377.445 125.86 378.075 123.286C378.704 120.712 379.334 118.35 379.944 116.191C380.384 114.967 380.944 114.234 381.614 114.003C382.293 113.771 383.313 113.849 384.663 114.225C386.022 114.562 387.482 115.034 389.061 115.651C390.641 116.268 392.02 116.953 393.2 117.705C394.34 118.505 395.05 119.199 395.33 119.796C395.609 120.385 395.559 121.233 395.17 122.332C394.29 124.867 393.41 127.653 392.51 130.69C391.611 133.726 390.711 136.85 389.821 140.06C388.921 143.27 388.072 146.47 387.262 149.652C386.452 152.842 385.692 155.889 384.993 158.8C387.002 158.463 388.891 158.212 390.641 158.038C392.39 157.875 394.3 157.72 396.349 157.595C397.579 157.508 398.509 157.585 399.138 157.817C399.768 158.048 400.348 158.569 400.878 159.369C401.408 160.13 401.828 160.901 402.158 161.682C402.487 162.463 402.737 163.215 402.907 163.928C403.217 164.815 403.287 165.403 403.137 165.702C402.987 166.001 402.228 166.271 400.868 166.522C398.139 167.052 395.3 167.563 392.39 168.093Z" fill="#27AAE1" stroke="white" stroke-miterlimit="10"/>
<path id="Vector_16" d="M424.171 161.731C423.671 164.092 423.171 166.416 422.692 168.7C422.472 169.375 422.172 169.819 421.802 170.031C421.432 170.243 420.742 170.243 419.732 170.031C418.553 169.732 417.503 169.5 416.583 169.337C415.664 169.163 414.784 168.874 413.954 168.45C413.124 167.987 412.554 167.428 412.245 166.772C411.935 166.117 411.825 165.24 411.915 164.141C412.005 163.254 412.125 161.972 412.275 160.275C412.425 158.588 412.614 156.679 412.834 154.549C413.054 152.418 413.304 150.124 413.584 147.675C413.874 145.227 414.174 142.778 414.504 140.33C414.834 137.881 415.194 135.51 415.584 133.206C415.974 130.902 416.393 128.839 416.833 126.998C417.273 125.166 417.753 123.643 418.273 122.438C418.803 121.233 419.343 120.491 419.912 120.192C422.622 119.006 425.461 117.849 428.42 116.712C431.379 115.574 434.288 114.755 437.157 114.273C440.026 113.791 442.736 113.743 445.295 114.147C447.854 114.552 450.104 115.661 452.023 117.473C453.552 119.083 454.942 120.799 456.192 122.631C457.441 124.462 458.411 126.718 459.111 129.379C459.681 132.203 459.461 134.526 458.451 136.348C456.921 139.26 454.392 141.94 450.863 144.388C447.334 146.837 443.126 149.121 438.227 151.223C439.237 152.322 440.336 153.479 441.546 154.703C442.746 155.927 443.985 157.152 445.255 158.376C446.525 159.6 447.784 160.786 449.034 161.923C450.283 163.061 451.453 164.054 452.543 164.902C453.422 165.625 453.812 166.194 453.722 166.608C453.632 167.033 453.263 167.476 452.603 167.939C451.813 168.527 451.143 168.883 450.603 168.98C450.054 169.086 449.384 169.202 448.604 169.327C447.644 169.578 446.575 169.655 445.415 169.549C444.255 169.443 442.906 168.951 441.376 168.064C440.366 167.389 439.207 166.541 437.897 165.529C436.587 164.517 435.228 163.398 433.828 162.174C432.429 160.95 431.029 159.677 429.629 158.347C428.23 157.017 426.96 155.677 425.821 154.327C425.231 156.891 424.681 159.369 424.171 161.731ZM430.839 135.51C430.179 137.958 429.44 140.571 428.61 143.366C431.629 142.393 434.308 141.207 436.657 139.79C438.997 138.373 440.956 136.936 442.536 135.481C444.115 134.025 445.245 132.637 445.955 131.336C446.665 130.034 446.874 129.012 446.614 128.299C446.085 127.113 444.535 126.525 441.956 126.525C440.686 126.525 439.287 126.67 437.757 126.969C436.228 127.268 434.608 127.817 432.899 128.617C432.179 130.767 431.499 133.061 430.839 135.51Z" fill="#27AAE1" stroke="white" stroke-miterlimit="10"/>
<path id="Vector_17" d="M501.558 125.222C499.549 125.415 497.46 125.618 495.32 125.82C494.401 129.368 493.451 133.041 492.461 136.839C491.471 140.637 490.522 144.406 489.602 148.137C488.682 151.877 487.813 155.511 487.013 159.059C486.203 162.606 485.493 165.923 484.883 168.998C484.793 169.586 484.583 169.981 484.264 170.164C483.944 170.347 483.484 170.434 482.914 170.415C482.344 170.396 481.684 170.28 480.945 170.068C480.195 169.856 479.365 169.624 478.445 169.374C477.526 169.123 476.696 168.844 475.946 168.554C475.196 168.255 474.576 167.899 474.077 167.475C473.577 167.05 473.207 166.559 472.997 165.99C472.777 165.421 472.757 164.737 472.927 163.937C473.057 161.912 473.317 159.416 473.717 156.466C474.117 153.516 474.576 150.383 475.126 147.096C475.676 143.799 476.276 140.483 476.936 137.118C477.595 133.754 478.245 130.65 478.905 127.777C477.636 127.989 476.406 128.172 475.226 128.317C474.046 128.462 473.057 128.645 472.267 128.857C471.177 129.107 470.278 129.136 469.578 128.953C468.878 128.76 468.088 128.23 467.219 127.343C466.299 126.456 465.459 125.338 464.689 123.989C463.919 122.639 463.3 121.501 462.82 120.566C462.29 119.593 462.16 118.956 462.43 118.638C462.69 118.32 463.24 118.06 464.069 117.848C466.649 117.337 469.578 116.874 472.837 116.45C476.096 116.026 479.425 115.65 482.814 115.313C486.203 114.975 489.532 114.686 492.791 114.455C496.05 114.223 498.969 114.069 501.558 113.982C502.918 113.982 503.888 114.098 504.478 114.329C505.067 114.561 505.587 114.956 506.017 115.505C506.897 116.479 507.617 117.53 508.187 118.667C508.756 119.805 509.196 120.923 509.496 122.022C509.756 122.996 509.766 123.661 509.526 124.017C509.286 124.374 508.486 124.596 507.127 124.683C505.437 124.856 503.578 125.03 501.558 125.222Z" fill="#27AAE1" stroke="white" stroke-miterlimit="10"/>
</g>
<path id="Vector_18" d="M231 127L233 124L231 127Z" fill="#27AAE1"/>
</svg>
