<svg id="Layer_1" data-name="Layer 1" xmlns="http://www.w3.org/2000/svg" xmlns:xlink="http://www.w3.org/1999/xlink" viewBox="0 0 648.16 436.92"><defs><style>.cls-1{fill:#1e4275;}.cls-17,.cls-2,.cls-22,.cls-23,.cls-26,.cls-27,.cls-30,.cls-35,.cls-38,.cls-42,.cls-9{fill:none;}.cls-3{opacity:0.4;}.cls-4{fill:#d9e6f5;opacity:0.55;}.cls-5{fill:#485ca8;}.cls-6{fill:#26316f;}.cls-7{fill:#1d1e56;}.cls-8{fill:#20a481;}.cls-9{stroke:#485ca8;stroke-width:0.61px;}.cls-17,.cls-22,.cls-23,.cls-26,.cls-27,.cls-30,.cls-38,.cls-42,.cls-9{stroke-linecap:round;}.cls-17,.cls-22,.cls-23,.cls-26,.cls-27,.cls-30,.cls-35,.cls-38,.cls-42,.cls-9{stroke-miterlimit:10;}.cls-10{fill:#4fbea2;}.cls-11{fill:#e5f5fc;}.cls-12{fill:#6987c4;}.cls-13{fill:#7988c3;}.cls-14{fill:#6378b9;}.cls-15{fill:#ffc755;}.cls-16{fill:#fbb654;}.cls-17{stroke:#fffdf8;stroke-width:0.83px;}.cls-18{fill:#e95f5d;}.cls-19{fill:#d24a4a;}.cls-20{fill:#a52f2f;}.cls-21{fill:#4863ad;}.cls-22,.cls-23,.cls-26,.cls-38{stroke:#0e1e43;}.cls-22{stroke-width:2.33px;}.cls-23{stroke-width:2.27px;}.cls-24{fill:#0e1e43;}.cls-25{fill:#88b6e1;}.cls-26{stroke-width:1.8px;}.cls-27{stroke:#e95f5d;stroke-width:4.07px;}.cls-28{fill:#afdfe2;}.cls-29{clip-path:url(#clip-path);}.cls-30,.cls-42{stroke:#afdfe2;}.cls-30,.cls-35{stroke-width:0.55px;}.cls-31{fill:#f5978d;}.cls-32{clip-path:url(#clip-path-2);}.cls-33{fill:#4e7eab;}.cls-34{clip-path:url(#clip-path-3);}.cls-35{stroke:#274e7a;}.cls-36{fill:#00a998;}.cls-37{fill:#ba5a65;}.cls-38{stroke-width:0.82px;}.cls-39{fill:#5ec3ba;}.cls-40{fill:#dc7a79;}.cls-41{clip-path:url(#clip-path-4);}.cls-42{stroke-width:0.56px;}.cls-43{clip-path:url(#clip-path-5);}.cls-44{clip-path:url(#clip-path-6);}</style><clipPath id="clip-path" transform="translate(-358.82 -168)"><path class="cls-1" d="M397.6,567.91c-.25,1.23-1.25,4.13-1,5.53,1.26,1.07,4,1.14,6,.63s3.45.53,6,.68,4.57-.55,5.08-1.59-3.8-2-6.77-2.93a13.42,13.42,0,0,1-5-2.66Z"/></clipPath><clipPath id="clip-path-2" transform="translate(-358.82 -168)"><path class="cls-1" d="M371.25,557.45c-1.21.31-4.26.65-5.41,1.51-.42,1.59.67,4.06,2,5.67s1,3.35,2,5.7,2.46,3.9,3.62,3.91.19-4.3-.26-7.37a13.41,13.41,0,0,1,.25-5.68Z"/></clipPath><clipPath id="clip-path-3" transform="translate(-358.82 -168)"><path class="cls-2" d="M377.33,558.1s16.56-16.81,17.84-18.23,6.48-29.29,6.81-31.39c0,0,5.2-5.28,5.35-9.68l-16.86-8.44c-.72,2.69-1.3,2.79-1.79,9.83-.25,3.59-1,18.38-1.6,35.88a22.23,22.23,0,0,0-4.38,3.5c-2.16,2.1-8.72,15.09-8.72,15.09A5.6,5.6,0,0,0,377.33,558.1Z"/></clipPath><clipPath id="clip-path-4" transform="translate(-358.82 -168)"><path class="cls-1" d="M971.52,571.31c0,1.24.32,4.25-.25,5.54-1.45.76-4.06.26-5.91-.66s-3.43-.22-5.91-.62-4.3-1.5-4.57-2.61,4.1-1.14,7.15-1.39a13.28,13.28,0,0,0,5.42-1.5Z"/></clipPath><clipPath id="clip-path-5" transform="translate(-358.82 -168)"><path class="cls-1" d="M1002.35,563.66c.93.82,3.45,2.51,4.06,3.79-.36,1.59-2.44,3.25-4.34,4s-2.4,2.47-4.31,4.1-3.93,2.29-5,1.77,1.79-3.85,3.58-6.33a13.36,13.36,0,0,0,2.39-5.09Z"/></clipPath><clipPath id="clip-path-6" transform="translate(-358.82 -168)"><path class="cls-2" d="M997.31,563.07s-12.37-20.68-13.43-22.65c-.9-1.66-5.11-27.11-5.44-29.18,0,0-6.26-7.89-6.41-12.23l11.58-3.19c.71,2.66,4.45,2.69,7.3,9.06,2.48,5.54,1.8,17.41.51,32.65a7.69,7.69,0,0,1,3.22,4.18c1.47,4.17,6.66,19.5,6.66,19.5A4.7,4.7,0,0,1,997.31,563.07Z"/></clipPath></defs><g class="cls-3"><path class="cls-4" d="M784,198H563c-6,0-10.89,3.82-10.89,8.53V542.44c0,4.71,4.88,8.53,10.89,8.53H784c6,0,10.89-3.82,10.89-8.53V206.51C794.91,201.8,790,198,784,198Z" transform="translate(-358.82 -168)"/><path class="cls-5" d="M789,168H558c-11.6,0-21,7.37-21,16.45V564.5c0,9.08,9.41,16.45,21,16.45H789c11.6,0,21-7.37,21-16.45v-380C810,175.37,800.59,168,789,168Zm5.92,374.44c0,4.71-4.88,8.53-10.89,8.53H563c-6,0-10.89-3.82-10.89-8.53V206.51c0-4.71,4.88-8.53,10.89-8.53H784c6,0,10.89,3.82,10.89,8.53Z" transform="translate(-358.82 -168)"/><path class="cls-6" d="M558,581H789c11.6,0,21-7.37,21-16.45v-380A14.43,14.43,0,0,0,805.18,174l-16.33,24.9c3.59,1.4,6.06,4.29,6.06,7.64V542.44c0,4.71-4.88,8.53-10.89,8.53H563a13.54,13.54,0,0,1-4.53-.78l-16.4,25A23.69,23.69,0,0,0,558,581Z" transform="translate(-358.82 -168)"/><path class="cls-7" d="M661.28,188.5c-3.89,0-7-2.47-7-5.51s3.14-5.5,7-5.5,7,2.46,7,5.5S665.16,188.5,661.28,188.5Z" transform="translate(-358.82 -168)"/><path class="cls-7" d="M716.26,183h0c0-1.84-1.9-3.33-4.25-3.33H684c-2.35,0-4.26,1.49-4.26,3.33h0c0,1.84,1.91,3.33,4.26,3.33h28C714.36,186.32,716.26,184.83,716.26,183Z" transform="translate(-358.82 -168)"/></g><path class="cls-8" d="M906.57,578.43s-4.46-2-3.8-5.17,4.29-2.81,3.8-5.29-2.87-6.35-.55-9.16,6.16-1.13,6.65-5.49c.38-3.51,2-6,5.16-5.27,2.91.67,5.08,2.93,5.13,8.29.06,5.71,4.08,4.11,4.13,8.31s-3.32,4.24-4.64,7.08c-.62,1.35,1,6.06-3.8,6.7Z" transform="translate(-358.82 -168)"/><path class="cls-9" d="M917.67,551s1.86,16.26-6.3,28.22" transform="translate(-358.82 -168)"/><path class="cls-10" d="M915.49,578.43s-.7-3.88,1.93-5.46,5.32-2.8,5-5.35.43-5.55,4.64-5.6c2.61,0,1.63-2.78,4.28-3.33,1.61-.34,2.67,1.34,2.88,3,.23,1.87-.83,3.72.39,5.25,1.58,2,2.23,5.69-1.18,6.74s-.37,4.27-5,4.75Z" transform="translate(-358.82 -168)"/><path class="cls-9" d="M931.52,561.24c-.18,5.06-4.43,14.15-10.86,18" transform="translate(-358.82 -168)"/><path class="cls-11" d="M196.46,412.06H471.64a0,0,0,0,1,0,0v0a24.87,24.87,0,0,1-24.87,24.87H221.33a24.87,24.87,0,0,1-24.87-24.87v0A0,0,0,0,1,196.46,412.06Z"/><path class="cls-12" d="M1004.9,580.06H360.75c-1.07,0-1.93-.45-1.93-1h0c0-.55.86-1,1.93-1H1004.9c1.06,0,1.92.45,1.92,1h0C1006.82,579.61,1006,580.06,1004.9,580.06Z" transform="translate(-358.82 -168)"/><path class="cls-10" d="M438.89,576.12a31.94,31.94,0,0,0,.51-11.27c-.84-6.17-6.3-15.7-11.54-15.38s-5.49,6.39-2.33,9.32,10.78,9.71,10.64,17.08Z" transform="translate(-358.82 -168)"/><path class="cls-9" d="M427.68,553c3.06,1.92,11.31,9.48,10.05,23" transform="translate(-358.82 -168)"/><path class="cls-8" d="M437.73,576a15.78,15.78,0,0,0-4.28-10.42c-4.43-4.62-11.65-5.51-15.07-3.28-3.15,2.06-2.7,6.79,3.16,7,9,.26,13,1.59,14.63,6.59Z" transform="translate(-358.82 -168)"/><path class="cls-9" d="M420,564.53c4.21-.8,15.08.4,17,11.51" transform="translate(-358.82 -168)"/><polygon class="cls-13" points="87.34 364.62 108.1 364.62 108.1 380.86 92.38 380.86 87.34 364.62"/><rect class="cls-14" x="108.1" y="364.62" width="8.26" height="16.24"/><rect class="cls-15" x="116.36" y="364.62" width="16.63" height="16.24"/><polygon class="cls-16" points="140.48 380.86 133 380.86 133 364.62 143.64 364.62 140.48 380.86"/><path class="cls-17" d="M460.21,505.61v-5.2a5,5,0,0,1,5-5h0a5,5,0,0,1,5,5v5.2" transform="translate(-358.82 -168)"/><polygon class="cls-18" points="112.83 335.11 91.71 335.11 89.23 364.62 110.35 364.62 112.83 335.11"/><polygon class="cls-19" points="116.53 335.11 112.83 335.11 110.35 364.62 113.64 364.62 115.72 364.62 119.01 364.62 116.53 335.11"/><polygon class="cls-20" points="110.35 364.62 114.68 360.74 119.01 364.62 110.35 364.62"/><path class="cls-20" d="M455.22,506a.87.87,0,1,1,1.73,0,.87.87,0,0,1-1.73,0Z" transform="translate(-358.82 -168)"/><path class="cls-20" d="M465.19,506a.87.87,0,1,1,1.73,0,.87.87,0,0,1-1.73,0Z" transform="translate(-358.82 -168)"/><path class="cls-17" d="M456.09,505.61v-5.2a5,5,0,0,1,5-5h0a5,5,0,0,1,5,5v5.2" transform="translate(-358.82 -168)"/><path class="cls-17" d="M484.84,505.61v-5.2a5,5,0,0,1,5-5h0a5,5,0,0,1,5,5v5.2" transform="translate(-358.82 -168)"/><polygon class="cls-13" points="137.46 335.11 116.34 335.11 113.86 364.62 134.98 364.62 137.46 335.11"/><polygon class="cls-14" points="141.16 335.11 137.46 335.11 134.98 364.62 138.27 364.62 140.35 364.62 143.64 364.62 141.16 335.11"/><polygon class="cls-21" points="134.98 364.62 139.31 360.74 143.64 364.62 134.98 364.62"/><path class="cls-21" d="M479.85,506a.87.87,0,1,1,1.73,0,.87.87,0,0,1-1.73,0Z" transform="translate(-358.82 -168)"/><path class="cls-21" d="M489.82,506a.87.87,0,1,1,1.73,0,.87.87,0,0,1-1.73,0Z" transform="translate(-358.82 -168)"/><path class="cls-17" d="M480.72,505.61v-5.2a5,5,0,0,1,5-5h0a5,5,0,0,1,5,5v5.2" transform="translate(-358.82 -168)"/><path class="cls-22" d="M427.88,503h4.73a5.14,5.14,0,0,1,4.89,3.55l13.34,40.68a2.44,2.44,0,0,0,2.31,1.68h44.68a2.46,2.46,0,0,0,2.41-2l5.26-32H440.25" transform="translate(-358.82 -168)"/><path class="cls-23" d="M494.49,548.86H463.16a17.56,17.56,0,0,0-17.56,17.55h46.85" transform="translate(-358.82 -168)"/><path class="cls-24" d="M449.47,572a3.62,3.62,0,1,1,3.62,3.61A3.62,3.62,0,0,1,449.47,572Z" transform="translate(-358.82 -168)"/><path class="cls-25" d="M452.58,567.47a6.54,6.54,0,0,1-1,4.29c-1,1.46,1.33,2.38,3.68,1a9,9,0,0,0,3.58-5.25Z" transform="translate(-358.82 -168)"/><path class="cls-24" d="M452.32,572a.77.77,0,1,1,.77.77A.76.76,0,0,1,452.32,572Z" transform="translate(-358.82 -168)"/><path class="cls-24" d="M474.76,572a3.62,3.62,0,1,1,3.62,3.61A3.62,3.62,0,0,1,474.76,572Z" transform="translate(-358.82 -168)"/><path class="cls-25" d="M477.87,567.47a6.54,6.54,0,0,1-1,4.29c-1,1.46,1.33,2.38,3.68,1a9,9,0,0,0,3.58-5.25Z" transform="translate(-358.82 -168)"/><path class="cls-24" d="M477.61,572a.77.77,0,1,1,.77.77A.76.76,0,0,1,477.61,572Z" transform="translate(-358.82 -168)"/><line class="cls-26" x1="85.15" y1="358.28" x2="144.81" y2="358.28"/><line class="cls-26" x1="88.87" y1="369.64" x2="142.93" y2="369.64"/><line class="cls-27" x1="72.14" y1="334.99" x2="64.75" y2="334.99"/><path class="cls-28" d="M413.69,573.16c.22.42.05,1.27-1.64,2s-4.73.4-5.94.16a7.37,7.37,0,0,0-3.75-.21c-1.79.37-4.73.21-5.62-.54-.31-.36-.1-1.1-.1-1.1Z" transform="translate(-358.82 -168)"/><path class="cls-1" d="M397.6,567.91c-.25,1.23-1.25,4.13-1,5.53,1.26,1.07,4,1.14,6,.63s3.45.53,6,.68,4.57-.55,5.08-1.59-3.8-2-6.77-2.93a13.42,13.42,0,0,1-5-2.66Z" transform="translate(-358.82 -168)"/><g class="cls-29"><path class="cls-30" d="M402.89,570.29a5.61,5.61,0,0,1,1.4-2.22" transform="translate(-358.82 -168)"/><path class="cls-30" d="M405.15,571.18a5.6,5.6,0,0,1,1.4-2.21" transform="translate(-358.82 -168)"/><path class="cls-30" d="M407.41,572.08a5.55,5.55,0,0,1,1.39-2.22" transform="translate(-358.82 -168)"/></g><path class="cls-31" d="M397.6,563v4.91a2.23,2.23,0,0,1,.8.46c.24.28.57,1.21,1,1.23,1.58.06,2.52-2,2.52-2l.59-4.46Z" transform="translate(-358.82 -168)"/><path class="cls-28" d="M373.41,574.24c-.29.38-1.13.59-2.48-.63s-2.4-4.11-2.7-5.3a7.44,7.44,0,0,0-1.41-3.48c-1.11-1.46-2.22-4.18-1.93-5.31.19-.43.95-.56.95-.56Z" transform="translate(-358.82 -168)"/><path class="cls-1" d="M371.25,557.45c-1.21.31-4.26.65-5.41,1.51-.42,1.59.67,4.06,2,5.67s1,3.35,2,5.7,2.46,3.9,3.62,3.91.19-4.3-.26-7.37a13.41,13.41,0,0,1,.25-5.68Z" transform="translate(-358.82 -168)"/><g class="cls-32"><path class="cls-30" d="M371.37,563.26a5.59,5.59,0,0,1,2.6.31" transform="translate(-358.82 -168)"/><path class="cls-30" d="M371.53,565.68a5.59,5.59,0,0,1,2.6.31" transform="translate(-358.82 -168)"/><path class="cls-30" d="M371.69,568.11a5.59,5.59,0,0,1,2.6.31" transform="translate(-358.82 -168)"/></g><path class="cls-31" d="M374,554.66l-2.73,2.79a2.18,2.18,0,0,1-.07.93c-.15.34-.85,1-.7,1.4.63,1.46,2.92,1.41,2.92,1.41l3.93-3.09Z" transform="translate(-358.82 -168)"/><path class="cls-1" d="M407.08,493.05c-5.5,0-9.59.42-9.59.42-1.76.77-4.78,4.76-5.66,7.3s-.53,6.78-.07,9c2.58,12.16,6.9,19.17,7.9,24,.61,2.95-2.31,1.36-2.31,8.84,0,6.69.25,20.94.25,20.94a6.42,6.42,0,0,0,4.78.38s4.13-23.51,4.58-26.2A69,69,0,0,0,408,523.93C408.14,513.32,407.08,493.05,407.08,493.05Z" transform="translate(-358.82 -168)"/><path class="cls-25" d="M377.33,558.1s16.56-16.81,17.84-18.23,6.48-29.29,6.81-31.39c0,0,5.2-5.28,5.35-9.68l-16.86-8.44c-.72,2.69-1.3,2.79-1.79,9.83-.25,3.59-1,18.38-1.6,35.88a22.23,22.23,0,0,0-4.38,3.5c-2.16,2.1-8.72,15.09-8.72,15.09A5.6,5.6,0,0,0,377.33,558.1Z" transform="translate(-358.82 -168)"/><path class="cls-33" d="M388.68,500.19c-.25,3.59-1,18.38-1.6,35.88a22.23,22.23,0,0,0-4.38,3.5c-2.16,2.1-8.72,15.09-8.72,15.09a5.58,5.58,0,0,0,.7,1.39,137,137,0,0,1,7.88-14,17.26,17.26,0,0,1,6.12-5.06c.53-.45.27-2,.45-5.33s2.15-32.5,2.15-32.5l-2.19-3.33C389,496.92,388.81,498.3,388.68,500.19Z" transform="translate(-358.82 -168)"/><path class="cls-33" d="M406.22,502.6a13.72,13.72,0,0,1-8.65,3,18.52,18.52,0,0,1-9.08-2.35l.19-3Z" transform="translate(-358.82 -168)"/><g class="cls-34"><path class="cls-35" d="M402.61,490.25c-2.46,4.65-6.86,7.55-8.05,10.65s-1.49,9-2.49,20.39c-.94,10.86-1.31,14.17-1.45,16.32-1,1.37-4,2.25-7.79,7.49-3.68,5.06-8.45,13.11-8.45,13.11" transform="translate(-358.82 -168)"/><path class="cls-35" d="M399.67,502.62s-.42,7-6.47,6.69" transform="translate(-358.82 -168)"/><path class="cls-35" d="M374.76,552.38c.36,1.87,2.49,3.67,5.15,4.69" transform="translate(-358.82 -168)"/></g><path class="cls-36" d="M406.72,464.69c.36.38.47,1.11-.15,3.36l-7.86-6.61Z" transform="translate(-358.82 -168)"/><path class="cls-37" d="M413.22,452.2c.17.63,1.17,3.42,1.52,4.24s-1.85.4-1.85.4Z" transform="translate(-358.82 -168)"/><polygon class="cls-31" points="41.43 293.44 47.15 298.62 49.2 293.25 43.61 287.33 41.43 293.44"/><path class="cls-37" d="M407.13,463.61s-5.53-4.23-4.69-8.28l5.59,5.92Z" transform="translate(-358.82 -168)"/><path class="cls-31" d="M402.45,455.33a16.18,16.18,0,0,0,.32,1.59c.19.7,4.65,4.15,5.93,4.69s3.12.76,4-3.77.85-8.68-1.55-11.52-7.16-1.81-9.75.53S399.17,455.29,402.45,455.33Z" transform="translate(-358.82 -168)"/><path class="cls-24" d="M402.45,455.33l-.85,2.34s-1-.38-1.78-2.34c-.92-2.14-2.64-5.83-1.86-7.65a4.44,4.44,0,0,1,3.4-2.4c.5-.09.66,0,.88-.4a4.92,4.92,0,0,1,1.9-2.39,5.28,5.28,0,0,1,2.52-.75,14.8,14.8,0,0,1,3.24.39,21.49,21.49,0,0,0,6.65,0,.33.33,0,0,1,.26,0,.34.34,0,0,1,.08.29c-.19,1.88-1.55,2.87-3.22,3.44,0,0,2.61,2.37.37,3s-7.67-1.07-7.67-1.07,2.4,1.78,1.39,2.32-4.39-.75-4.39-.75l-.06,1.86a2.29,2.29,0,0,0-2.31-.13C399.78,452,400.34,455.36,402.45,455.33Z" transform="translate(-358.82 -168)"/><path class="cls-38" d="M403,439.7a5.34,5.34,0,0,0-.23,6.53,4.3,4.3,0,0,1-3-4.18" transform="translate(-358.82 -168)"/><path class="cls-39" d="M405.92,467.51s.81-1.95.46-2.46c-1.17-1.71-5-6.74-5.52-6.26s-2.15,2.65-2.15,2.65Z" transform="translate(-358.82 -168)"/><path class="cls-39" d="M406.57,468.05c.48,2.25.44,6,.75,13.87.2,5.08.71,19.81.71,19.81s-3.89,2.55-10.42,2c-6.24-.5-8.93-3.57-8.93-3.57s.65-20.72,2.7-28.87c3-8.41,7.33-9.88,7.33-9.88Z" transform="translate(-358.82 -168)"/><path class="cls-36" d="M407.68,491.91,394.34,473c.44,3.06,7.1,19.91,7.1,19.91l1.08-.09s1.35,3.1,1.93,4c.38.61,2.36,1.17,3.46,1.51C407.85,496.56,407.77,494.27,407.68,491.91Z" transform="translate(-358.82 -168)"/><path class="cls-36" d="M398.71,461.44l7.21,6.07.65.54a1.58,1.58,0,0,1,.18,1.09Z" transform="translate(-358.82 -168)"/><path class="cls-24" d="M410.75,452.45a.56.56,0,0,0-.6-.53.57.57,0,0,0,.07,1.13A.57.57,0,0,0,410.75,452.45Z" transform="translate(-358.82 -168)"/><path class="cls-24" d="M411.22,451l-2.6.83a1.36,1.36,0,0,1,.95-1.16A1.53,1.53,0,0,1,411.22,451Z" transform="translate(-358.82 -168)"/><path class="cls-37" d="M401.54,451.88a1.37,1.37,0,0,1,1.17.13c.11.09-.08.28-.18.24-.6-.23-1.33-.26-1.62.44,0,0-.05,0,0,0A1,1,0,0,1,401.54,451.88Z" transform="translate(-358.82 -168)"/><path class="cls-37" d="M401.82,451.94c.06,0,.21.13.2.18a.74.74,0,0,0-.33.29,1.1,1.1,0,0,0-.14.67,1.21,1.21,0,0,0,1,1.16s0,0,0,0a1.15,1.15,0,0,1-1.2-.84A1.23,1.23,0,0,1,401.82,451.94Z" transform="translate(-358.82 -168)"/><path class="cls-31" d="M394.09,471.32c-.66-3.67,6.35-6,8.32-1.32s6.82,20.43,6.82,20.43,14.37,9.06,15.8,8.92c1.92-.18,6.74,5.07,6.16,5.9s-3,1.5-4.72,1c-1.43-.41-2.8-3-3.35-3.38-2.78-.93-16.1-5.33-17.87-6.87S394.52,473.72,394.09,471.32Z" transform="translate(-358.82 -168)"/><path class="cls-39" d="M401.9,468.21a49.52,49.52,0,0,1,2.61,7c.81,2.74,4.38,14.2,4.38,14.2a9.32,9.32,0,0,1-5.71,3.19s-2.66-5.43-4.28-8.79-4.33-10-5-12,1.53-5.43,2.86-5.7S401,466.15,401.9,468.21Z" transform="translate(-358.82 -168)"/><path class="cls-40" d="M979.46,472.42c-2.35.55-3.21,1.54-4.85,6s-5.07,14.5-5.54,15c0,0-12.48-1.22-15.6-1.7a31.49,31.49,0,0,0-5.77-.21c-1.27.06-3.51.23-4.43.4-2.45.43-.72,2.34,1.23,3.57,2.58,1.64,6.92.05,10.13.33s14.77,3.75,16.35,3.12,8.25-14.3,8.25-14.3Z" transform="translate(-358.82 -168)"/><path class="cls-40" d="M953.47,491.73c-1.61-.21-1.16-.7-2.33-1.28s-2.1-.48-3-.89-.86.5-.27,1a7.54,7.54,0,0,0,1.16.54c.65.33-1.22.43-1.22.43Z" transform="translate(-358.82 -168)"/><path class="cls-28" d="M954.88,573c-.3.36-.32,1.21,1.16,2.24s4.48,1.4,5.7,1.43a7.17,7.17,0,0,1,3.66.59c1.65.74,4.52,1.2,5.54.67.37-.28.33-1,.33-1Z" transform="translate(-358.82 -168)"/><path class="cls-1" d="M971.52,571.31c0,1.24.32,4.25-.25,5.54-1.45.76-4.06.26-5.91-.66s-3.43-.22-5.91-.62-4.3-1.5-4.57-2.61,4.1-1.14,7.15-1.39a13.28,13.28,0,0,0,5.42-1.5Z" transform="translate(-358.82 -168)"/><g class="cls-41"><path class="cls-42" d="M965.9,572.48a5.56,5.56,0,0,0-.87-2.43" transform="translate(-358.82 -168)"/><path class="cls-42" d="M963.54,572.86a5.48,5.48,0,0,0-.88-2.43" transform="translate(-358.82 -168)"/><path class="cls-42" d="M961.17,573.25a5.48,5.48,0,0,0-.88-2.43" transform="translate(-358.82 -168)"/></g><path class="cls-31" d="M972.39,567l-.87,4.32a2.18,2.18,0,0,0-.88.28c-.29.22-.8,1-1.19,1-1.54-.27-2-2.49-2-2.49l.67-11.52Z" transform="translate(-358.82 -168)"/><path class="cls-28" d="M992.81,577.37c.07.47.71,1,2.46.58s4-2.5,4.78-3.41a7.36,7.36,0,0,1,2.82-2.4c1.64-.77,3.86-2.65,4.11-3.77,0-.47-.57-.92-.57-.92Z" transform="translate(-358.82 -168)"/><path class="cls-1" d="M1002.35,563.66c.93.82,3.45,2.51,4.06,3.79-.36,1.59-2.44,3.25-4.34,4s-2.4,2.47-4.31,4.1-3.93,2.29-5,1.77,1.79-3.85,3.58-6.33a13.36,13.36,0,0,0,2.39-5.09Z" transform="translate(-358.82 -168)"/><g class="cls-43"><path class="cls-42" d="M999.6,568.68a5.55,5.55,0,0,0-2.42-.91" transform="translate(-358.82 -168)"/><path class="cls-42" d="M998.36,570.74a5.53,5.53,0,0,0-2.42-.92" transform="translate(-358.82 -168)"/><path class="cls-42" d="M997.11,572.79a5.53,5.53,0,0,0-2.42-.92" transform="translate(-358.82 -168)"/></g><path class="cls-31" d="M1001.08,560.71l1.27,2.95a2.14,2.14,0,0,0-.35.85c0,.36.27,1.28,0,1.53-1.21,1-3.19-.09-3.19-.09l-2-4.5Z" transform="translate(-358.82 -168)"/><path class="cls-1" d="M972,498.75a38.22,38.22,0,0,0,9.89-4c1.86.35,4.84,5.62,6.25,7.86s-3.56,9.28-3.87,10.7c-2,9.2-3.79,15.66-5.1,19.86-.88,2.84-2.19,6.31-2.32,7.4,1.3,4.06-4.32,26.74-4.32,26.74s-3.11,1-4.92-1.1c0,0,1-24.62,1.11-27.31.27-8.87,1.54-15.33,1.76-19.13C971.4,504,972,498.75,972,498.75Z" transform="translate(-358.82 -168)"/><path class="cls-25" d="M997.31,563.07s-12.37-20.68-13.43-22.65c-.9-1.66-5.11-27.11-5.44-29.18,0,0-6.26-7.89-6.41-12.23l11.58-3.19c.71,2.66,4.45,2.69,7.3,9.06,2.48,5.54,1.8,17.41.51,32.65a7.69,7.69,0,0,1,3.22,4.18c1.47,4.17,6.66,19.5,6.66,19.5A4.7,4.7,0,0,1,997.31,563.07Z" transform="translate(-358.82 -168)"/><path class="cls-33" d="M1001.3,561.21s-5.19-15.33-6.66-19.5a7.69,7.69,0,0,0-3.22-4.18c1.29-15.24,2-27.11-.51-32.65-2.85-6.37-6.59-6.4-7.3-9.06L972,499a14.67,14.67,0,0,0,2.08,5.76c2.07-.22,7.71-1,10.88-2.62,0,0,3,4.11,3.94,11.78a227.78,227.78,0,0,1,.83,23.74c0,1.12,1.42,1.12,3.44,5.06,1.65,3.22,5.6,15.45,7.12,19.44A4.28,4.28,0,0,0,1001.3,561.21Z" transform="translate(-358.82 -168)"/><g class="cls-44"><path class="cls-35" d="M980,498.12c3.57,6.66,6.57,11.16,7.07,21.56s1.29,19.3,1.29,19.3c.23,1.35,2.49,2.12,4.42,6.95,2.12,5.32,7.09,18.22,7.09,18.22" transform="translate(-358.82 -168)"/><path class="cls-35" d="M984.76,507.61c-1.68.75-3.67.51-5.16-2.06a48.28,48.28,0,0,1-3-7.15" transform="translate(-358.82 -168)"/><path class="cls-35" d="M994.74,561.26s5,.43,6.56-3.09" transform="translate(-358.82 -168)"/></g><path class="cls-39" d="M983.64,470.79a2.64,2.64,0,0,0,1.26.44,11.69,11.69,0,0,1,3.83,3.08c1.31,1.8,1.12,5.65-.57,10.52-.84,2.43-4.65,7.34-1.78,13.75,0,0-7.64,4.08-14.61.64-.11-3.51.75-5.59.78-9.48a8.63,8.63,0,0,1-2.06-4.31c-.33-4.74,4.41-6.18,8.1-11.46,1-1.48,1.81-1.4,3.22-2.48A3.31,3.31,0,0,1,983.64,470.79Z" transform="translate(-358.82 -168)"/><path class="cls-36" d="M988.16,484.83a1.27,1.27,0,0,0,.06-.18l-.47-1.86-2.29-5.45-2.33.39a46,46,0,0,0,1,12,36.22,36.22,0,0,0,1.22,4.13C985.31,489.76,987.54,486.62,988.16,484.83Z" transform="translate(-358.82 -168)"/><path class="cls-31" d="M978.58,473.92c0,.7-1.29,2.24-1,3.31s1.9.26,3.1-1,2.56-4,4.19-5a3.23,3.23,0,0,1-.83-.7Z" transform="translate(-358.82 -168)"/><path class="cls-24" d="M981.37,453s-1.44-3-6.2-2.33-5.45,6.17-5.07,8a6.59,6.59,0,0,0,3,4.13Z" transform="translate(-358.82 -168)"/><path class="cls-31" d="M981.11,465.67l2.08,1.85.92,3.11a8,8,0,0,0-1.81,1.63c-.61.92-2,3.14-3.63,3.33a13.53,13.53,0,0,0-.09-3.08c-.25-1.08-1-3.21-1-3.21Z" transform="translate(-358.82 -168)"/><path class="cls-37" d="M981.11,465.67a8.44,8.44,0,0,1,.22,2.16c-.07.88-1,2.26-3,3.75-.33-1-.75-2.28-.75-2.28Z" transform="translate(-358.82 -168)"/><path class="cls-37" d="M972.36,461.75c-.39,1.4-2,3.36-1.64,3.71s1.66.23,1.66.23a2.58,2.58,0,0,0,.66-2.33C972.7,462,972.36,461.75,972.36,461.75Z" transform="translate(-358.82 -168)"/><path class="cls-31" d="M975.85,453c-1.94.18-3.88,2.86-3.84,5.3s.6,3.76.44,5.49A10.79,10.79,0,0,0,973,469c.48,1.2,1.74,1.47,3.41,1.07a12.14,12.14,0,0,0,4.1-2.31c.48-.46.57-2.08.57-2.08a4.8,4.8,0,0,0,3.33-2.43C985.49,461.16,985.3,452.15,975.85,453Z" transform="translate(-358.82 -168)"/><path class="cls-24" d="M981.11,465.67a3.15,3.15,0,0,0,1.9-3.13c-.19-2.38-3.39-2.46-3.26-.37,0,.17-1.25-.45-1.32-.49a17.31,17.31,0,0,1-1.49-1.1,10.71,10.71,0,0,1-2.45-2.83,7.15,7.15,0,0,1-.88-4.93,1.41,1.41,0,0,1,1.17-1.35,5.37,5.37,0,0,1,2.6-.36,6.87,6.87,0,0,1,4,1.88,4.51,4.51,0,0,1,4.17.42c1.79,1.41,3.05,5.06,1.52,8.83a11.71,11.71,0,0,1-3.87,5.28Z" transform="translate(-358.82 -168)"/><path class="cls-24" d="M981.37,453a4.82,4.82,0,0,1,3.5-.42c2.11.47,3.9,3.24,3.94,7.15s-.33,7.49-1.6,8.91a7.94,7.94,0,0,1-6.36,2.67,7.15,7.15,0,0,0,.26-5.63s1.45.91,2.77-.88S981.37,453,981.37,453Z" transform="translate(-358.82 -168)"/><path class="cls-24" d="M974.05,462.36a.55.55,0,0,1,.59-.53.56.56,0,1,1-.07,1.12A.55.55,0,0,1,974.05,462.36Z" transform="translate(-358.82 -168)"/><path class="cls-24" d="M973.58,460.89l2.57.81a1.34,1.34,0,0,0-.94-1.14A1.52,1.52,0,0,0,973.58,460.89Z" transform="translate(-358.82 -168)"/><path class="cls-37" d="M981.69,462a1.31,1.31,0,0,0-1.16.13c-.11.09.08.27.18.23.59-.22,1.31-.25,1.6.44,0,0,0,0,0,0A1,1,0,0,0,981.69,462Z" transform="translate(-358.82 -168)"/><path class="cls-37" d="M981.42,462.09c-.07,0-.22.14-.21.18a1,1,0,0,1,.33.28,1.13,1.13,0,0,1,.14.67,1.21,1.21,0,0,1-.95,1.15s0,0,0,0a1.13,1.13,0,0,0,1.18-.84A1.22,1.22,0,0,0,981.42,462.09Z" transform="translate(-358.82 -168)"/><path class="cls-31" d="M967.71,500.55c.74,0,1.1-.18.73-.49-.68-.55-1.29-.92-1.39-1.57s.67-.25,1.11,0c1.1.55,2.56.84,3.48,1.76,2.65-.69,9.67-3.73,14.59-6.21,0,0-2.72-11.27-3-14.2s.07-5.72,3.23-6.43c1.53-.35,2.5,1.4,3.05,5.05s2.12,16.49,1.93,17.89-1.72,2.45-7.3,4.23c-3.15,1-12.15,3.25-12.15,3.25a9,9,0,0,1-2.29.8" transform="translate(-358.82 -168)"/><path class="cls-17" d="M962.59,510v-5a4.82,4.82,0,0,1,4.81-4.81h0a4.81,4.81,0,0,1,4.81,4.81v5" transform="translate(-358.82 -168)"/><polygon class="cls-18" points="614.81 339.61 594.43 339.61 592.03 368.09 612.42 368.09 614.81 339.61"/><polygon class="cls-19" points="618.39 339.61 614.81 339.61 612.42 368.09 615.59 368.09 617.61 368.09 620.78 368.09 618.39 339.61"/><polygon class="cls-20" points="612.42 368.09 616.6 364.34 620.78 368.09 612.42 368.09"/><path class="cls-20" d="M957.78,510.41a.84.84,0,1,1,1.67,0,.84.84,0,0,1-1.67,0Z" transform="translate(-358.82 -168)"/><path class="cls-20" d="M967.4,510.41a.85.85,0,0,1,.84-.84.84.84,0,0,1,.83.84.83.83,0,0,1-.83.83A.84.84,0,0,1,967.4,510.41Z" transform="translate(-358.82 -168)"/><path class="cls-17" d="M958.62,510v-5a4.81,4.81,0,0,1,4.81-4.81h0a4.82,4.82,0,0,1,4.81,4.81v5" transform="translate(-358.82 -168)"/><path class="cls-31" d="M969.67,504.6a10.44,10.44,0,0,1-4.54,0,6,6,0,0,1-.94-.28c-1.42-.52-3.22-2-2.47-3.7a2,2,0,0,1,.92-1.07,2.41,2.41,0,0,1,1.75.21,11,11,0,0,0,1.77.65c.45.1,1.12.08,1.55.14" transform="translate(-358.82 -168)"/><path class="cls-10" d="M898.06,578.06s4.26-9.21-.79-15.51-10.62-3.83-10.62-3.83-4.68-14.6-16.39-10.25-7.56,15.16-7.56,15.16-3.06-1.08-4.86,1.26a4.25,4.25,0,0,0,0,4.87s-12.43,1-12.43,8.3Z" transform="translate(-358.82 -168)"/></svg>