<svg id="Layer_1" data-name="Layer 1" xmlns="http://www.w3.org/2000/svg" xmlns:xlink="http://www.w3.org/1999/xlink" viewBox="0 0 1366 768"><defs><style>.cls-1{fill:#1e4275;}.cls-10,.cls-18,.cls-2,.cls-23,.cls-24,.cls-27,.cls-28,.cls-31,.cls-36,.cls-39,.cls-43{fill:none;}.cls-3{fill:#fff;}.cls-4{opacity:0.4;}.cls-5{fill:#d9e6f5;opacity:0.55;}.cls-6{fill:#485ca8;}.cls-7{fill:#26316f;}.cls-8{fill:#1d1e56;}.cls-9{fill:#20a481;}.cls-10{stroke:#485ca8;stroke-width:0.61px;}.cls-10,.cls-18,.cls-23,.cls-24,.cls-27,.cls-28,.cls-31,.cls-39,.cls-43{stroke-linecap:round;}.cls-10,.cls-18,.cls-23,.cls-24,.cls-27,.cls-28,.cls-31,.cls-36,.cls-39,.cls-43{stroke-miterlimit:10;}.cls-11{fill:#4fbea2;}.cls-12{fill:#e5f5fc;}.cls-13{fill:#6987c4;}.cls-14{fill:#7988c3;}.cls-15{fill:#6378b9;}.cls-16{fill:#ffc755;}.cls-17{fill:#fbb654;}.cls-18{stroke:#fffdf8;stroke-width:0.83px;}.cls-19{fill:#e95f5d;}.cls-20{fill:#d24a4a;}.cls-21{fill:#a52f2f;}.cls-22{fill:#4863ad;}.cls-23,.cls-24,.cls-27,.cls-39{stroke:#0e1e43;}.cls-23{stroke-width:2.33px;}.cls-24{stroke-width:2.27px;}.cls-25{fill:#0e1e43;}.cls-26{fill:#88b6e1;}.cls-27{stroke-width:1.8px;}.cls-28{stroke:#e95f5d;stroke-width:4.07px;}.cls-29{fill:#afdfe2;}.cls-30{clip-path:url(#clip-path);}.cls-31,.cls-43{stroke:#afdfe2;}.cls-31,.cls-36{stroke-width:0.55px;}.cls-32{fill:#f5978d;}.cls-33{clip-path:url(#clip-path-2);}.cls-34{fill:#4e7eab;}.cls-35{clip-path:url(#clip-path-3);}.cls-36{stroke:#274e7a;}.cls-37{fill:#00a998;}.cls-38{fill:#ba5a65;}.cls-39{stroke-width:0.82px;}.cls-40{fill:#5ec3ba;}.cls-41{fill:#dc7a79;}.cls-42{clip-path:url(#clip-path-4);}.cls-43{stroke-width:0.56px;}.cls-44{clip-path:url(#clip-path-5);}.cls-45{clip-path:url(#clip-path-6);}</style><clipPath id="clip-path"><path class="cls-1" d="M151,675.56c-.45,1.67-2.29,5.61-1.76,7.53,2.31,1.45,7.26,1.55,11,.85s6.32.72,11,.92,8.37-.74,9.3-2.16-7-2.75-12.39-4a28,28,0,0,1-9.23-3.61Z"/></clipPath><clipPath id="clip-path-2"><path class="cls-1" d="M102.77,661.33c-2.23.42-7.81.88-9.91,2-.78,2.17,1.22,5.53,3.65,7.72s1.84,4.55,3.59,7.76,4.49,5.3,6.62,5.31c2.32,0,.36-5.84-.46-10a13.87,13.87,0,0,1,.44-7.74Z"/></clipPath><clipPath id="clip-path-3"><path class="cls-2" d="M113.9,662.21s30.34-22.88,32.69-24.8,11.87-39.86,12.49-42.71c0,0,9.52-7.2,9.8-13.17L138,570c-1.31,3.66-2.38,3.79-3.28,13.37-.45,4.89-1.9,25-2.93,48.83a41.93,41.93,0,0,0-8,4.76c-4,2.86-16,20.53-16,20.53A8.91,8.91,0,0,0,113.9,662.21Z"/></clipPath><clipPath id="clip-path-4"><path class="cls-1" d="M1212,685.19c0,1.68.6,5.77-.46,7.54-2.64,1-7.44.35-10.82-.91s-6.29-.3-10.84-.84-7.86-2-8.35-3.55,7.49-1.55,13.09-1.89a30.71,30.71,0,0,0,9.93-2Z"/></clipPath><clipPath id="clip-path-5"><path class="cls-1" d="M1268.52,674.77c1.7,1.12,6.31,3.42,7.43,5.16-.66,2.16-4.47,4.43-8,5.52s-4.4,3.36-7.9,5.58-7.2,3.11-9.07,2.41c-2-.77,3.28-5.25,6.57-8.63,3.67-3.78,4.36-6.92,4.36-6.92Z"/></clipPath><clipPath id="clip-path-6"><path class="cls-2" d="M1259.29,674s-22.67-28.14-24.62-30.82c-1.64-2.26-9.36-36.9-10-39.71,0,0-11.46-10.73-11.74-16.64l21.21-4.34c1.3,3.62,8.16,3.66,13.38,12.32,4.54,7.54,3.3,23.7.94,44.43a12.08,12.08,0,0,1,5.89,5.69c2.7,5.68,12.2,26.53,12.2,26.53S1264.26,674.08,1259.29,674Z"/></clipPath></defs><rect class="cls-3" width="1366" height="768"/><g class="cls-4"><path class="cls-5" d="M846.55,166.33H519.37c-8.9,0-16.12,5.26-16.12,11.75V641.21c0,6.5,7.22,11.76,16.12,11.76H846.55c8.9,0,16.12-5.26,16.12-11.76V178.08C862.67,171.59,855.45,166.33,846.55,166.33Z"/><path class="cls-6" d="M853.9,125H512c-17.17,0-31.09,10.15-31.09,22.68V671.62c0,12.52,13.92,22.68,31.09,22.68H853.9c17.18,0,31.1-10.16,31.1-22.68V147.68C885,135.15,871.08,125,853.9,125Zm8.77,516.21c0,6.5-7.22,11.76-16.12,11.76H519.37c-8.9,0-16.12-5.26-16.12-11.76V178.08c0-6.49,7.22-11.75,16.12-11.75H846.55c8.9,0,16.12,5.26,16.12,11.75Z"/><path class="cls-7" d="M512,694.3H853.9c17.18,0,31.1-10.16,31.1-22.68V147.68c0-5.49-2.68-10.52-7.13-14.45L853.7,167.56c5.31,1.93,9,5.91,9,10.52V641.21c0,6.5-7.22,11.76-16.12,11.76H519.37a21,21,0,0,1-6.71-1.08L488.4,686.35C494.1,691.21,502.56,694.3,512,694.3Z"/><path class="cls-8" d="M664.86,153.26c-5.74,0-10.4-3.4-10.4-7.59s4.66-7.59,10.4-7.59,10.41,3.39,10.41,7.59S670.61,153.26,664.86,153.26Z"/><path class="cls-8" d="M746.26,145.67h0c0-2.54-2.82-4.6-6.3-4.6h-41.4c-3.48,0-6.31,2.06-6.31,4.6h0c0,2.53,2.83,4.59,6.31,4.59H740C743.44,150.26,746.26,148.2,746.26,145.67Z"/></g><path class="cls-9" d="M1126.57,689s-8.18-2.76-7-7,7.85-3.82,7-7.2-5.27-8.63-1-12.46,11.3-1.53,12.18-7.46c.72-4.79,3.69-8.17,9.46-7.18,5.33.92,9.31,4,9.41,11.28.11,7.77,7.47,5.59,7.56,11.32s-6.09,5.76-8.5,9.63c-1.14,1.82,1.83,8.24-7,9.11Z"/><path class="cls-10" d="M1146.9,651.69s3.4,22.12-11.55,38.4"/><path class="cls-11" d="M1142.91,689s-1.29-5.28,3.53-7.43,9.75-3.82,9.22-7.28.78-7.55,8.51-7.62c4.77,0,3-3.79,7.83-4.53a4.69,4.69,0,0,1,5.28,4.08c.43,2.55-1.53,5.07.71,7.15,2.9,2.7,4.08,7.73-2.15,9.16s-.68,5.82-9.18,6.47Z"/><path class="cls-10" d="M1172.29,665.61c-.35,6.89-8.12,19.26-19.92,24.48"/><path class="cls-12" d="M423.19,692.09H927.37a0,0,0,0,1,0,0v9a24.87,24.87,0,0,1-24.87,24.87H448.06a24.87,24.87,0,0,1-24.87-24.87v-9a0,0,0,0,1,0,0Z"/><path class="cls-13" d="M1263.75,692.09H83.53c-2,0-3.53-.61-3.53-1.36h0c0-.75,1.58-1.35,3.53-1.35H1263.75c2,0,3.52.6,3.52,1.35h0C1267.27,691.48,1265.7,692.09,1263.75,692.09Z"/><path class="cls-11" d="M226.69,686.73a32.46,32.46,0,0,0,.94-15.33c-1.54-8.39-11.54-21.37-21.14-20.93s-10.06,8.7-4.27,12.68,19.74,13.21,19.49,23.24Z"/><path class="cls-10" d="M206.17,655.25c5.59,2.61,20.72,12.89,18.4,31.33"/><path class="cls-9" d="M224.57,686.58c0-.49.12-8-7.84-14.17s-21.34-7.5-27.6-4.47c-5.77,2.8-5,9.25,5.78,9.48,16.46.36,23.79,2.17,26.8,9Z"/><path class="cls-10" d="M192.16,671c7.72-1.09,27.63.55,31.24,15.67"/><polygon class="cls-14" points="240.02 627.54 278.06 627.54 278.06 649.63 249.25 649.63 240.02 627.54"/><rect class="cls-15" x="278.07" y="627.54" width="15.13" height="22.1"/><rect class="cls-16" x="293.2" y="627.54" width="30.48" height="22.1"/><polygon class="cls-17" points="337.38 649.63 323.68 649.63 323.68 627.54 343.18 627.54 337.38 649.63"/><path class="cls-18" d="M265.76,590.79v-7.08c0-3.74,4.09-6.78,9.13-6.78h0c5.05,0,9.14,3,9.14,6.78v7.08"/><polygon class="cls-19" points="286.73 587.38 248.03 587.38 243.48 627.54 282.18 627.54 286.73 587.38"/><polygon class="cls-20" points="293.51 587.38 286.73 587.38 282.18 627.54 288.21 627.54 292.03 627.54 298.06 627.54 293.51 587.38"/><polygon class="cls-21" points="282.18 627.54 290.12 622.26 298.06 627.54 282.18 627.54"/><path class="cls-21" d="M256.63,591.33c0-.65.71-1.18,1.58-1.18s1.59.53,1.59,1.18-.71,1.18-1.59,1.18S256.63,592,256.63,591.33Z"/><path class="cls-21" d="M274.89,591.33c0-.65.71-1.18,1.59-1.18s1.59.53,1.59,1.18-.72,1.18-1.59,1.18S274.89,592,274.89,591.33Z"/><path class="cls-18" d="M258.21,590.79v-7.08c0-3.74,4.09-6.78,9.13-6.78h0c5.05,0,9.14,3,9.14,6.78v7.08"/><path class="cls-18" d="M310.88,590.79v-7.08c0-3.74,4.09-6.78,9.14-6.78h0c5,0,9.13,3,9.13,6.78v7.08"/><polygon class="cls-14" points="331.85 587.38 293.15 587.38 288.61 627.54 327.31 627.54 331.85 587.38"/><polygon class="cls-15" points="338.64 587.38 331.85 587.38 327.31 627.54 333.33 627.54 337.16 627.54 343.18 627.54 338.64 587.38"/><polygon class="cls-22" points="327.31 627.54 335.25 622.26 343.18 627.54 327.31 627.54"/><path class="cls-22" d="M301.75,591.33c0-.65.71-1.18,1.59-1.18s1.58.53,1.58,1.18-.71,1.18-1.58,1.18S301.75,592,301.75,591.33Z"/><path class="cls-22" d="M320,591.33c0-.65.71-1.18,1.59-1.18s1.58.53,1.58,1.18-.71,1.18-1.58,1.18S320,592,320,591.33Z"/><path class="cls-18" d="M303.34,590.79v-7.08c0-3.74,4.08-6.78,9.13-6.78h0c5,0,9.14,3,9.14,6.78v7.08"/><path class="cls-23" d="M206.52,587.23h8.68c4.08,0,7.69,1.94,9,4.82l24.43,55.35a4.53,4.53,0,0,0,4.24,2.29h81.86c2.19,0,4.05-1.18,4.41-2.78l9.65-43.46H229.19"/><path class="cls-24" d="M328.57,649.63H271.16c-17.76,0-32.17,10.7-32.17,23.89h85.85"/><path class="cls-25" d="M246.09,681.05c0-2.71,3-4.92,6.62-4.92s6.63,2.21,6.63,4.92-3,4.93-6.63,4.93S246.09,683.77,246.09,681.05Z"/><path class="cls-26" d="M251.78,675a7.19,7.19,0,0,1-1.9,5.83c-1.87,2,2.43,3.23,6.74,1.3a12.46,12.46,0,0,0,6.57-7.13Z"/><path class="cls-25" d="M251.31,681.05c0-.57.63-1,1.4-1s1.41.47,1.41,1-.63,1.05-1.41,1.05S251.31,681.63,251.31,681.05Z"/><path class="cls-25" d="M292.42,681.05c0-2.71,3-4.92,6.63-4.92s6.62,2.21,6.62,4.92-3,4.93-6.62,4.93S292.42,683.77,292.42,681.05Z"/><path class="cls-26" d="M298.11,675a7.12,7.12,0,0,1-1.9,5.83c-1.86,2,2.43,3.23,6.75,1.3a12.42,12.42,0,0,0,6.56-7.13Z"/><path class="cls-25" d="M297.64,681.05c0-.57.63-1,1.41-1s1.4.47,1.4,1-.62,1.05-1.4,1.05S297.64,681.63,297.64,681.05Z"/><line class="cls-27" x1="236.01" y1="618.91" x2="345.31" y2="618.91"/><line class="cls-27" x1="242.84" y1="634.37" x2="341.88" y2="634.37"/><line class="cls-28" x1="212.17" y1="587.23" x2="198.63" y2="587.23"/><path class="cls-29" d="M180.52,682.7c.41.57.1,1.73-3,2.68s-8.68.55-10.9.23a17.68,17.68,0,0,0-6.86-.3c-3.29.51-8.67.29-10.3-.73-.57-.49-.19-1.49-.19-1.49Z"/><path class="cls-1" d="M151,675.56c-.45,1.67-2.29,5.61-1.76,7.53,2.31,1.45,7.26,1.55,11,.85s6.32.72,11,.92,8.37-.74,9.3-2.16-7-2.75-12.39-4a28,28,0,0,1-9.23-3.61Z"/><g class="cls-30"><path class="cls-31" d="M160.75,678.79a7.63,7.63,0,0,1,2.55-3"/><path class="cls-31" d="M164.88,680a7.62,7.62,0,0,1,2.56-3"/><path class="cls-31" d="M169,681.23a7.56,7.56,0,0,1,2.55-3"/></g><path class="cls-32" d="M151,668.87v6.69a4.49,4.49,0,0,1,1.48.63c.44.38,1,1.64,1.76,1.66,2.91.09,4.62-2.75,4.62-2.75L160,669Z"/><path class="cls-29" d="M106.72,684.17c-.52.52-2.06.81-4.55-.86s-4.38-5.58-4.94-7.21-.55-2.74-2.59-4.73-4.06-5.69-3.52-7.23c.35-.59,1.74-.76,1.74-.76Z"/><path class="cls-1" d="M102.77,661.33c-2.23.42-7.81.88-9.91,2-.78,2.17,1.22,5.53,3.65,7.72s1.84,4.55,3.59,7.76,4.49,5.3,6.62,5.31c2.32,0,.36-5.84-.46-10a13.87,13.87,0,0,1,.44-7.74Z"/><g class="cls-33"><path class="cls-31" d="M103,669.23s3.23-.24,4.76.42"/><path class="cls-31" d="M103.29,672.53s3.23-.24,4.76.42"/><path class="cls-31" d="M103.58,675.83s3.24-.25,4.76.42"/></g><path class="cls-32" d="M107.76,657.53l-5,3.8a2.24,2.24,0,0,1-.14,1.27c-.27.45-1.55,1.39-1.26,1.89,1.13,2,5.33,1.92,5.33,1.92l7.2-4.2Z"/><path class="cls-1" d="M168.42,573.7c-10.08,0-17.57.57-17.57.57-3.23,1-8.76,6.48-10.38,9.94s-1,9.22-.12,12.19C145.08,613,153,622.48,154.82,629c1.12,4-4.23,1.85-4.23,12,0,9.1.45,28.5.45,28.5a15.48,15.48,0,0,0,8.77.52s7.56-32,8.38-35.66c1.35-5.93,1.81-8.42,2-18.7C170.37,601.27,168.42,573.7,168.42,573.7Z"/><path class="cls-26" d="M113.9,662.21s30.34-22.88,32.69-24.8,11.87-39.86,12.49-42.71c0,0,9.52-7.2,9.8-13.17L138,570c-1.31,3.66-2.38,3.79-3.28,13.37-.45,4.89-1.9,25-2.93,48.83a41.93,41.93,0,0,0-8,4.76c-4,2.86-16,20.53-16,20.53A8.91,8.91,0,0,0,113.9,662.21Z"/><path class="cls-34" d="M134.7,583.41c-.45,4.89-1.9,25-2.93,48.83a41.93,41.93,0,0,0-8,4.76c-4,2.86-16,20.53-16,20.53a7.19,7.19,0,0,0,1.3,1.89c2.91-4.46,10.7-15.22,14.42-19,4.72-4.83,10.25-6.28,11.22-6.88s.5-2.66.82-7.25S139.47,582,139.47,582l-4-4.53C135.2,579,134.94,580.85,134.7,583.41Z"/><path class="cls-34" d="M166.85,586.69s-6,4.06-15.85,4.06a42.72,42.72,0,0,1-16.64-3.21l.34-4.13Z"/><g class="cls-35"><path class="cls-36" d="M160.23,569.88c-4.51,6.34-12.58,10.28-14.76,14.51s-2.73,12.18-4.55,27.73c-1.73,14.78-2.4,19.28-2.65,22.21-1.92,1.87-7.32,3.06-14.29,10.19-6.74,6.89-15.48,17.84-15.48,17.84"/><path class="cls-36" d="M154.83,586.72s-.76,9.59-11.85,9.1"/><path class="cls-36" d="M109.21,654.43c.65,2.54,4.56,5,9.42,6.38"/></g><path class="cls-37" d="M167.76,535.1c.65.52.87,1.52-.29,4.58l-14.38-9Z"/><path class="cls-38" d="M179.67,518.11c.3.86,2.14,4.65,2.77,5.77s-3.37.55-3.37.55Z"/><polygon class="cls-32" points="155.91 530.69 166.39 537.74 170.15 530.42 159.91 522.38 155.91 530.69"/><path class="cls-38" d="M168.5,533.64s-10.13-5.76-8.59-11.26l10.24,8Z"/><path class="cls-32" d="M159.94,522.37a16.09,16.09,0,0,0,.58,2.17c.35,1,8.51,5.65,10.86,6.37s5.72,1,7.35-5.12,1.55-11.81-2.84-15.67-13.12-2.47-17.86.71S153.92,522.32,159.94,522.37Z"/><path class="cls-25" d="M159.94,522.37l-1.56,3.19s-1.74-.53-3.27-3.18c-1.68-2.91-4.83-7.94-3.4-10.42,1.09-1.87,3.64-2.9,6.24-3.26.9-.12,1.2,0,1.59-.54A7.51,7.51,0,0,1,163,504.9a12.27,12.27,0,0,1,4.62-1,35.73,35.73,0,0,1,5.93.54,53.43,53.43,0,0,0,12.19.05.78.78,0,0,1,.48,0,.35.35,0,0,1,.13.39c-.34,2.56-2.82,3.9-5.89,4.69,0,0,4.78,3.22.68,4.05s-14-1.46-14-1.46,4.39,2.43,2.54,3.16-8-1-8-1l-.1,2.54s-2.37-1.12-4.23-.17C155,517.82,156.07,522.41,159.94,522.37Z"/><path class="cls-39" d="M161,501.11s-5,4.33-.43,8.89c0,0-5.74-1.35-5.43-5.69"/><path class="cls-40" d="M166.3,538.94s1.48-2.64.83-3.35c-2.14-2.32-9.14-9.16-10.12-8.5s-3.92,3.6-3.92,3.6Z"/><path class="cls-40" d="M167.47,539.68c.9,3.07.82,8.13,1.39,18.87.36,6.91,1.29,27,1.29,27S163,589,151.07,588.27c-11.43-.68-16.37-4.86-16.37-4.86s1.2-28.19,5-39.29c5.55-11.44,13.44-13.43,13.44-13.43Z"/><path class="cls-37" d="M169.52,572.14,145.07,546.4c.81,4.17,13,27.09,13,27.09l2-.12a63.35,63.35,0,0,0,3.52,5.47c.71.83,4.33,1.59,6.35,2C169.82,578.47,169.68,575.35,169.52,572.14Z"/><path class="cls-37" d="M153.09,530.69l13.21,8.25,1.17.74a1.63,1.63,0,0,1,.33,1.48Z"/><path class="cls-25" d="M175.14,518.46a1,1,0,0,0-1.09-.73c-.58,0-1,.39-1,.81a1,1,0,0,0,1.09.73C174.74,519.25,175.17,518.88,175.14,518.46Z"/><path class="cls-25" d="M176,516.43l-4.75,1.12s.1-1.21,1.74-1.58A3.45,3.45,0,0,1,176,516.43Z"/><path class="cls-38" d="M158.26,517.68a3.25,3.25,0,0,1,2.16.18c.2.12-.15.37-.34.32-1.1-.3-2.43-.35-3,.6,0,.05-.08,0-.07,0A1.53,1.53,0,0,1,158.26,517.68Z"/><path class="cls-38" d="M158.77,517.76c.12,0,.4.18.37.24a1.6,1.6,0,0,0-.59.39,1.14,1.14,0,0,0-.26.92c.08.81.7,1.39,1.76,1.58,0,0,0,0,0,.05a2.18,2.18,0,0,1-2.19-1.16A1.48,1.48,0,0,1,158.77,517.76Z"/><path class="cls-32" d="M144.61,544.13c-1.19-5,11.65-8.16,15.24-1.79s12.5,27.8,12.5,27.8,26.33,12.32,29,12.14c3.52-.25,12.34,6.89,11.28,8s-5.51,2-8.66,1.37c-2.6-.55-5.11-4-6.12-4.59-5.09-1.27-29.5-7.26-32.74-9.35S145.4,547.39,144.61,544.13Z"/><path class="cls-40" d="M158.92,539.9a57.46,57.46,0,0,1,4.78,9.45c1.48,3.74,8,19.33,8,19.33A18.75,18.75,0,0,1,161.27,573s-4.87-7.39-7.84-12-7.94-13.64-9.2-16.33,2.8-7.39,5.24-7.77S157.24,537.1,158.92,539.9Z"/><path class="cls-41" d="M1226.58,550.63c-4.31.74-5.9,2.09-8.9,8.13s-9.28,19.73-10.14,20.45c0,0-22.86-1.65-28.59-2.31a79.46,79.46,0,0,0-10.56-.28c-2.33.08-6.44.32-8.12.54-4.5.59-1.32,3.18,2.24,4.86,4.74,2.22,12.69.07,18.56.45s27.07,5.09,30,4.25,15.11-19.46,15.11-19.46Z"/><path class="cls-41" d="M1179,576.9c-3-.28-2.12-.95-4.27-1.74s-3.83-.65-5.47-1.21-1.58.68-.49,1.35a16,16,0,0,0,2.11.73c1.2.45-2.24.59-2.24.59Z"/><path class="cls-29" d="M1181.55,687.43c-.56.49-.59,1.65,2.11,3.06s8.22,1.89,10.45,1.93,3.67-.21,6.7.8,8.28,1.65,10.15.91c.68-.37.6-1.4.6-1.4Z"/><path class="cls-1" d="M1212,685.19c0,1.68.6,5.77-.46,7.54-2.64,1-7.44.35-10.82-.91s-6.29-.3-10.84-.84-7.86-2-8.35-3.55,7.49-1.55,13.09-1.89a30.71,30.71,0,0,0,9.93-2Z"/><g class="cls-42"><path class="cls-43" d="M1201.73,686.78s-.4-2.37-1.6-3.31"/><path class="cls-43" d="M1197.4,687.3s-.41-2.37-1.61-3.31"/><path class="cls-43" d="M1193.06,687.83s-.41-2.37-1.61-3.31"/></g><path class="cls-32" d="M1213.61,679.3l-1.59,5.89a5,5,0,0,0-1.61.38c-.53.29-1.46,1.42-2.17,1.32-2.83-.37-3.67-3.39-3.67-3.39l1.22-15.67Z"/><path class="cls-29" d="M1251,693.44c.14.63,1.31,1.4,4.51.79s7.27-3.41,8.76-4.65,2.17-2.21,5.17-3.26,7.06-3.61,7.53-5.14c0-.63-1-1.25-1-1.25Z"/><path class="cls-1" d="M1268.52,674.77c1.7,1.12,6.31,3.42,7.43,5.16-.66,2.16-4.47,4.43-8,5.52s-4.4,3.36-7.9,5.58-7.2,3.11-9.07,2.41c-2-.77,3.28-5.25,6.57-8.63,3.67-3.78,4.36-6.92,4.36-6.92Z"/><g class="cls-44"><path class="cls-43" d="M1263.48,681.61a12.31,12.31,0,0,0-4.44-1.24"/><path class="cls-43" d="M1261.19,684.4a12.24,12.24,0,0,0-4.43-1.24"/><path class="cls-43" d="M1258.91,687.19a12.24,12.24,0,0,0-4.43-1.24"/></g><path class="cls-32" d="M1266.18,670.76l2.34,4a2.74,2.74,0,0,0-.65,1.16c0,.49.5,1.74-.06,2.09-2.21,1.35-5.85-.13-5.85-.13l-3.72-6.12Z"/><path class="cls-1" d="M1212.89,586.45A84.59,84.59,0,0,0,1231,581c3.41.48,8.87,7.64,11.47,10.7s-6.54,12.62-7.11,14.55a265.36,265.36,0,0,1-9.33,27c-1.62,3.87-4,8.6-4.27,10.08,2.4,5.52-7.89,36.38-7.89,36.38s-5.71,1.32-9-1.5c0,0,1.89-33.5,2-37.16.5-12.06,2.82-20.86,3.23-26C1211.81,593.64,1212.89,586.45,1212.89,586.45Z"/><path class="cls-26" d="M1259.29,674s-22.67-28.14-24.62-30.82c-1.64-2.26-9.36-36.9-10-39.71,0,0-11.46-10.73-11.74-16.64l21.21-4.34c1.3,3.62,8.16,3.66,13.38,12.32,4.54,7.54,3.3,23.7.94,44.43a12.08,12.08,0,0,1,5.89,5.69c2.7,5.68,12.2,26.53,12.2,26.53S1264.26,674.08,1259.29,674Z"/><path class="cls-34" d="M1266.58,671.44s-9.5-20.85-12.2-26.53a12.08,12.08,0,0,0-5.89-5.69c2.36-20.73,3.6-36.89-.94-44.43-5.22-8.66-12.08-8.7-13.38-12.32L1213,586.81c.1,2.21,1.77,5.09,3.82,7.84,3.79-.31,14.11-1.31,19.93-3.57,0,0,5.59,5.6,7.21,16s1.72,28.63,1.52,32.3c-.08,1.52,2.61,1.53,6.31,6.88,3,4.38,10.26,21,13,26.45A6.76,6.76,0,0,0,1266.58,671.44Z"/><g class="cls-45"><path class="cls-36" d="M1227.62,585.59c6.54,9.06,12,15.19,13,29.34s2.36,26.27,2.36,26.27c.43,1.83,4.56,2.88,8.1,9.45,3.89,7.24,13,24.8,13,24.8"/><path class="cls-36" d="M1236.29,598.51a8.1,8.1,0,0,1-9.45-2.8,56.14,56.14,0,0,1-5.45-9.73"/><path class="cls-36" d="M1254.57,671.51s9.18.58,12-4.2"/></g><path class="cls-40" d="M1234.24,548.4a5.8,5.8,0,0,0,2.29.61c1.72.59,6,2.81,7,4.19,2.39,2.45,2,7.69-1,14.31-1.54,3.31-8.53,10-3.28,18.71,0,0-14,5.56-26.76.88-.21-4.79,1.38-7.62,1.42-12.9-1.8-1.46-3.6-4.14-3.76-5.87-.61-6.45,8.08-8.42,14.85-15.6,1.88-2,3.31-1.9,5.88-3.37A7.56,7.56,0,0,1,1234.24,548.4Z"/><path class="cls-37" d="M1242.52,567.51c0-.08.07-.16.11-.23l-.88-2.54-4.18-7.42-4.27.53a47.28,47.28,0,0,0,1.79,16.32,42.57,42.57,0,0,0,2.23,5.61C1237.3,574.22,1241.38,570,1242.52,567.51Z"/><path class="cls-32" d="M1225,552.66c.07,1-2.36,3.06-1.76,4.52s3.47.35,5.67-1.3,4.69-5.46,7.67-6.87a6.08,6.08,0,0,1-1.51-1Z"/><path class="cls-25" d="M1230.07,524.19s-2.64-4.13-11.36-3.18-10,8.41-9.29,10.92c1,3.79,5.52,5.63,5.52,5.63Z"/><path class="cls-32" d="M1229.6,541.44l3.81,2.52,1.68,4.23a14.53,14.53,0,0,0-3.31,2.22c-1.13,1.26-3.64,4.27-6.66,4.53a13.8,13.8,0,0,0-.15-4.19c-.46-1.46-1.84-4.37-1.84-4.37Z"/><path class="cls-38" d="M1229.6,541.44a8.92,8.92,0,0,1,.4,2.94c-.14,1.2-1.75,3.07-5.5,5.11-.6-1.41-1.37-3.11-1.37-3.11Z"/><path class="cls-38" d="M1213.57,536.11c-.71,1.9-3.65,4.57-3,5s3,.3,3,.3,1.84-1.31,1.22-3.16S1213.57,536.11,1213.57,536.11Z"/><path class="cls-32" d="M1220,524.21c-3.55.25-7.1,3.89-7,7.21s1.1,5.13.81,7.47a11.16,11.16,0,0,0,1.06,7.07c.89,1.63,3.18,2,6.24,1.45a25.18,25.18,0,0,0,7.52-3.13c.88-.63,1-2.84,1-2.84s4.18-.46,6.1-3.3S1237.27,523,1220,524.21Z"/><path class="cls-25" d="M1229.6,541.44s3.81-1.11,3.48-4.26-6.22-3.35-6-.5c0,.23-2.29-.61-2.41-.66a29.79,29.79,0,0,1-2.73-1.5,16.49,16.49,0,0,1-4.49-3.86,7.65,7.65,0,0,1-1.62-6.7c.33-1.19.68-1.44,2.15-1.84a13.11,13.11,0,0,1,4.76-.49,14.32,14.32,0,0,1,7.31,2.56s4.38-1.35,7.65.57a8.81,8.81,0,0,1,2.77,12,17.9,17.9,0,0,1-7.08,7.18Z"/><path class="cls-25" d="M1230.07,524.19a11.56,11.56,0,0,1,6.41-.58c3.87.64,7.15,4.42,7.23,9.73s-.61,10.21-2.94,12.13a17.2,17.2,0,0,1-11.66,3.64s2.76-4,.49-7.67a4.57,4.57,0,0,0,5.06-1.19C1237.08,537.82,1230.07,524.19,1230.07,524.19Z"/><path class="cls-25" d="M1216.65,536.94c0-.42.52-.74,1.09-.72s1,.38,1,.8a.94.94,0,0,1-1.08.72C1217.05,537.72,1216.62,537.36,1216.65,536.94Z"/><path class="cls-25" d="M1215.81,534.94l4.69,1.11a1.94,1.94,0,0,0-1.72-1.56A3.38,3.38,0,0,0,1215.81,534.94Z"/><path class="cls-38" d="M1230.66,536.5a3.16,3.16,0,0,0-2.13.18c-.2.12.14.36.34.31,1.08-.3,2.4-.34,2.93.6,0,0,.08,0,.07,0A1.54,1.54,0,0,0,1230.66,536.5Z"/><path class="cls-38" d="M1230.16,536.58c-.12,0-.4.18-.37.24a1.53,1.53,0,0,1,.59.38,1.15,1.15,0,0,1,.25.91,1.84,1.84,0,0,1-1.74,1.56s-.05,0,0,.05a2.14,2.14,0,0,0,2.16-1.14A1.46,1.46,0,0,0,1230.16,536.58Z"/><path class="cls-32" d="M1205,588.9c1.36-.06,2-.25,1.33-.67-1.23-.74-2.35-1.24-2.53-2.13-.22-1.08,1.22-.34,2-.05,2,.75,4.7,1.16,6.38,2.41,4.86-.94,17.72-5.09,26.73-8.45,0,0-5-15.34-5.55-19.33s.14-7.78,5.92-8.75c2.81-.47,4.58,1.91,5.59,6.88s3.88,22.43,3.53,24.34-3.14,3.33-13.37,5.76c-5.77,1.37-22.26,4.42-22.26,4.42a21.12,21.12,0,0,1-4.19,1.09"/><path class="cls-18" d="M1195.67,601.8V595c0-3.61,3.94-6.54,8.81-6.54h0c4.87,0,8.82,2.93,8.82,6.54v6.84"/><polygon class="cls-19" points="1215.9 598.5 1178.55 598.5 1174.17 637.26 1211.52 637.26 1215.9 598.5"/><polygon class="cls-20" points="1222.45 598.5 1215.9 598.5 1211.52 637.26 1217.33 637.26 1221.02 637.26 1226.84 637.26 1222.45 598.5"/><polygon class="cls-21" points="1211.52 637.26 1219.17 632.16 1226.84 637.26 1211.52 637.26"/><path class="cls-21" d="M1186.85,602.32c0-.63.69-1.14,1.53-1.14s1.53.51,1.53,1.14-.68,1.13-1.53,1.13S1186.85,602.94,1186.85,602.32Z"/><path class="cls-21" d="M1204.48,602.32c0-.63.69-1.14,1.53-1.14s1.53.51,1.53,1.14-.68,1.13-1.53,1.13S1204.48,602.94,1204.48,602.32Z"/><path class="cls-18" d="M1188.38,601.8V595c0-3.61,3.95-6.54,8.82-6.54h0c4.86,0,8.81,2.93,8.81,6.54v6.84"/><path class="cls-32" d="M1208.64,594.42a26,26,0,0,1-8.33,0c-.58-.1-1.16-.22-1.72-.37-2.6-.72-5.89-2.71-4.52-5a3.09,3.09,0,0,1,1.68-1.46,5.73,5.73,0,0,1,3.21.28,26.64,26.64,0,0,0,3.24.88c.84.13,2,.11,2.84.19"/><path class="cls-11" d="M1101.54,694s7.8-12.53-1.44-21.11a20.57,20.57,0,0,0-19.47-5.21s-8.58-19.87-30-13.94-13.86,20.62-13.86,20.62-5.61-1.47-8.91,1.72,0,6.61,0,6.61-22.77,1.3-22.77,11.31Z"/></svg>