<?xml version="1.0" encoding="utf-8"?>
<!-- Generator: Adobe Illustrator 25.2.1, SVG Export Plug-In . SVG Version: 6.00 Build 0)  -->
<svg version="1.1" id="Layer_1" xmlns="http://www.w3.org/2000/svg" xmlns:xlink="http://www.w3.org/1999/xlink" x="0px" y="0px"
	 viewBox="0 0 1366 768" style="enable-background:new 0 0 1366 768;" xml:space="preserve">
<style type="text/css">
	.st0{fill:#FFFFFF;}
	.st1{opacity:0.4;}
	.st2{opacity:0.55;fill:#D9E6F5;}
	.st3{fill:#485CA8;}
	.st4{fill:#26316F;}
	.st5{fill:#1D1E56;}
	.st6{fill:#20A481;}
	.st7{fill:none;stroke:#485CA8;stroke-width:0.6144;stroke-linecap:round;stroke-miterlimit:10;}
	.st8{fill:#4FBEA2;}
	.st9{fill:#E5F5FC;}
	.st10{fill:#6987C4;}
	.st11{fill:#7988C3;}
	.st12{fill:#6378B9;}
	.st13{fill:#FFC755;}
	.st14{fill:#FBB654;}
	.st15{fill:none;stroke:#FFFDF8;stroke-width:0.8302;stroke-linecap:round;stroke-miterlimit:10;}
	.st16{fill:#E95F5D;}
	.st17{fill:#D24A4A;}
	.st18{fill:#A52F2F;}
	.st19{fill:#4863AD;}
	.st20{fill:none;stroke:#0E1E43;stroke-width:2.3268;stroke-linecap:round;stroke-miterlimit:10;}
	.st21{fill:none;stroke:#0E1E43;stroke-width:2.2737;stroke-linecap:round;stroke-miterlimit:10;}
	.st22{fill:#0E1E43;}
	.st23{fill:#88B6E1;}
	.st24{fill:none;stroke:#0E1E43;stroke-width:1.7978;stroke-linecap:round;stroke-miterlimit:10;}
	.st25{fill:none;stroke:#E95F5D;stroke-width:4.0719;stroke-linecap:round;stroke-miterlimit:10;}
	.st26{fill:#AFDFE2;}
	.st27{clip-path:url(#SVGID_2_);fill:none;stroke:#AFDFE2;stroke-width:0.5486;stroke-linecap:round;stroke-miterlimit:10;}
	.st28{fill:#F5978D;}
	.st29{clip-path:url(#SVGID_4_);fill:none;stroke:#AFDFE2;stroke-width:0.5486;stroke-linecap:round;stroke-miterlimit:10;}
	.st30{fill:#1E4275;}
	.st31{fill:#4E7EAB;}
	.st32{clip-path:url(#SVGID_6_);}
	.st33{fill:none;stroke:#274E7A;stroke-width:0.5486;stroke-miterlimit:10;}
	.st34{fill:#00A998;}
	.st35{fill:#BA5A65;}
	.st36{fill:none;stroke:#0E1E43;stroke-width:0.8229;stroke-linecap:round;stroke-miterlimit:10;}
	.st37{fill:#5EC3BA;}
	.st38{fill:#DC7A79;}
	.st39{clip-path:url(#SVGID_8_);fill:none;stroke:#AFDFE2;stroke-width:0.5613;stroke-linecap:round;stroke-miterlimit:10;}
	.st40{clip-path:url(#SVGID_10_);fill:none;stroke:#AFDFE2;stroke-width:0.5613;stroke-linecap:round;stroke-miterlimit:10;}
	.st41{clip-path:url(#SVGID_12_);}
</style>
<rect class="st0" width="1366" height="768"/>
<g id="XMLID_606_" class="st1">
	<g id="XMLID_611_">
		<path id="XMLID_616_" class="st2" d="M840.55,141.29H513.37c-8.9,0-16.12,5.51-16.12,12.31v485.1c0,6.8,7.22,12.31,16.12,12.31
			h327.18c8.9,0,16.12-5.51,16.12-12.31V153.6C856.67,146.8,849.45,141.29,840.55,141.29z"/>
		<path id="XMLID_613_" class="st3" d="M847.9,98H506.01c-17.18,0-31.1,10.64-31.1,23.76v548.79c0,13.12,13.92,23.76,31.1,23.76
			H847.9c17.18,0,31.1-10.64,31.1-23.76V121.76C879,108.64,865.08,98,847.9,98z M856.67,638.7c0,6.8-7.22,12.31-16.12,12.31H513.37
			c-8.9,0-16.12-5.51-16.12-12.31V153.6c0-6.8,7.22-12.31,16.12-12.31h327.18c8.9,0,16.12,5.51,16.12,12.31V638.7z"/>
		<path id="XMLID_612_" class="st4" d="M506.01,694.3H847.9c17.18,0,31.1-10.64,31.1-23.76V121.76c0-5.75-2.68-11.02-7.13-15.13
			l-24.17,35.96c5.31,2.01,8.97,6.18,8.97,11.02v485.1c0,6.8-7.22,12.31-16.12,12.31H513.37c-2.4,0-4.66-0.41-6.71-1.13
			l-24.26,36.09C488.1,691.06,496.56,694.3,506.01,694.3z"/>
	</g>
	<path id="XMLID_609_" class="st5" d="M658.86,127.6c-5.75,0-10.41-3.56-10.41-7.95c0-4.39,4.66-7.95,10.41-7.95
		c5.75,0,10.41,3.56,10.41,7.95C669.27,124.04,664.61,127.6,658.86,127.6z"/>
	<path id="XMLID_607_" class="st5" d="M740.26,119.65L740.26,119.65c0-2.66-2.82-4.82-6.3-4.82h-41.4c-3.48,0-6.3,2.16-6.3,4.82l0,0
		c0,2.66,2.82,4.81,6.3,4.81h41.4C737.44,124.46,740.26,122.31,740.26,119.65z"/>
</g>
<g>
	<g id="XMLID_472_">
		<path id="XMLID_474_" class="st6" d="M1126.57,689c0,0-8.17-2.76-6.96-7.04c1.21-4.28,7.86-3.83,6.96-7.2
			c-0.9-3.38-5.26-8.63-1.02-12.46c4.24-3.83,11.3-1.53,12.18-7.47c0.71-4.78,3.69-8.17,9.45-7.18c5.34,0.92,9.31,3.99,9.41,11.28
			c0.11,7.77,7.48,5.59,7.57,11.31c0.09,5.76-6.09,5.76-8.51,9.63c-1.14,1.83,1.83,8.25-6.96,9.11H1126.57z"/>
		<path id="XMLID_473_" class="st7" d="M1146.9,651.69c0,0,3.41,22.13-11.54,38.4"/>
	</g>
	<g id="XMLID_469_">
		<path id="XMLID_471_" class="st8" d="M1142.91,689c0,0-1.29-5.28,3.54-7.43c4.82-2.15,9.75-3.82,9.21-7.28
			c-0.54-3.46,0.78-7.55,8.51-7.62c4.78-0.05,2.98-3.79,7.84-4.53c2.95-0.45,4.9,1.83,5.27,4.08c0.43,2.56-1.52,5.07,0.72,7.15
			c2.9,2.7,4.08,7.73-2.16,9.16c-6.24,1.43-0.68,5.82-9.17,6.47H1142.91z"/>
		<path id="XMLID_470_" class="st7" d="M1172.29,665.61c-0.34,6.89-8.12,19.25-19.92,24.47"/>
	</g>
</g>
<path id="XMLID_467_" class="st9" d="M902.51,725.92H448.06c-13.73,0-24.87-11.13-24.87-24.87v-8.97h504.18v8.97
	C927.37,714.79,916.24,725.92,902.51,725.92z"/>
<path id="XMLID_465_" class="st10" d="M1263.75,692.09H83.53c-1.95,0-3.53-0.61-3.53-1.36l0,0c0-0.75,1.58-1.36,3.53-1.36h1180.22
	c1.95,0,3.53,0.61,3.53,1.36l0,0C1267.27,691.48,1265.7,692.09,1263.75,692.09z"/>
<g>
	<g id="XMLID_625_">
		<path id="XMLID_627_" class="st8" d="M226.69,686.73c0,0,2.48-6.94,0.94-15.33c-1.54-8.39-11.54-21.37-21.14-20.93
			c-9.6,0.44-10.06,8.7-4.27,12.68c5.79,3.98,19.74,13.21,19.49,23.23L226.69,686.73z"/>
		<path id="XMLID_626_" class="st7" d="M206.17,655.25c5.6,2.61,20.72,12.89,18.41,31.34"/>
	</g>
	<g id="XMLID_622_">
		<path id="XMLID_624_" class="st6" d="M224.57,686.58c-0.03-0.49,0.11-8.01-7.84-14.18c-8.11-6.28-21.34-7.5-27.6-4.46
			c-5.77,2.8-4.96,9.24,5.78,9.48c16.47,0.36,23.79,2.17,26.81,8.97L224.57,686.58z"/>
		<path id="XMLID_623_" class="st7" d="M192.16,670.96c7.72-1.1,27.63,0.54,31.24,15.66"/>
	</g>
	<g id="XMLID_459_">
		<polygon id="XMLID_464_" class="st11" points="240.02,627.54 278.07,627.54 278.07,649.63 249.25,649.63 		"/>
		<rect id="XMLID_463_" x="278.07" y="627.54" class="st12" width="15.13" height="22.1"/>
		<rect id="XMLID_461_" x="293.2" y="627.54" class="st13" width="30.48" height="22.1"/>
		<polygon id="XMLID_460_" class="st14" points="337.38,649.63 323.67,649.63 323.67,627.54 343.18,627.54 		"/>
	</g>
	<g>
		<g id="XMLID_451_">
			<path id="XMLID_458_" class="st15" d="M265.76,590.79v-7.08c0-3.75,4.09-6.78,9.14-6.78l0,0c5.04,0,9.13,3.04,9.13,6.78v7.08"/>
			<polygon id="XMLID_457_" class="st16" points="286.73,587.38 248.03,587.38 243.48,627.54 282.18,627.54 			"/>
			<polygon id="XMLID_456_" class="st17" points="293.51,587.38 286.73,587.38 282.18,627.54 288.21,627.54 292.03,627.54 
				298.06,627.54 			"/>
			<polygon id="XMLID_455_" class="st18" points="282.18,627.54 290.12,622.26 298.06,627.54 			"/>
			<path id="XMLID_454_" class="st18" d="M256.63,591.33c0-0.65,0.71-1.18,1.59-1.18c0.88,0,1.59,0.53,1.59,1.18
				c0,0.65-0.71,1.18-1.59,1.18C257.34,592.51,256.63,591.98,256.63,591.33z"/>
			<path id="XMLID_453_" class="st18" d="M274.89,591.33c0-0.65,0.71-1.18,1.59-1.18c0.87,0,1.59,0.53,1.59,1.18
				c0,0.65-0.71,1.18-1.59,1.18C275.6,592.51,274.89,591.98,274.89,591.33z"/>
			<path id="XMLID_452_" class="st15" d="M258.21,590.79v-7.08c0-3.75,4.09-6.78,9.13-6.78l0,0c5.05,0,9.14,3.04,9.14,6.78v7.08"/>
		</g>
		<g id="XMLID_443_">
			<path id="XMLID_450_" class="st15" d="M310.88,590.79v-7.08c0-3.75,4.09-6.78,9.14-6.78l0,0c5.04,0,9.13,3.04,9.13,6.78v7.08"/>
			<polygon id="XMLID_449_" class="st11" points="331.85,587.38 293.15,587.38 288.61,627.54 327.31,627.54 			"/>
			<polygon id="XMLID_448_" class="st12" points="338.64,587.38 331.85,587.38 327.31,627.54 333.33,627.54 337.16,627.54 
				343.18,627.54 			"/>
			<polygon id="XMLID_447_" class="st19" points="327.31,627.54 335.25,622.26 343.18,627.54 			"/>
			<path id="XMLID_446_" class="st19" d="M301.75,591.33c0-0.65,0.71-1.18,1.59-1.18c0.88,0,1.59,0.53,1.59,1.18
				c0,0.65-0.71,1.18-1.59,1.18C302.46,592.51,301.75,591.98,301.75,591.33z"/>
			<path id="XMLID_445_" class="st19" d="M320.02,591.33c0-0.65,0.71-1.18,1.59-1.18c0.87,0,1.59,0.53,1.59,1.18
				c0,0.65-0.71,1.18-1.59,1.18C320.73,592.51,320.02,591.98,320.02,591.33z"/>
			<path id="XMLID_444_" class="st15" d="M303.34,590.79v-7.08c0-3.75,4.09-6.78,9.13-6.78l0,0c5.05,0,9.14,3.04,9.14,6.78v7.08"/>
		</g>
		<g id="XMLID_426_">
			<path id="XMLID_442_" class="st20" d="M206.52,587.23h8.67c4.08,0,7.69,1.95,8.96,4.82l24.43,55.35c0.6,1.36,2.31,2.28,4.25,2.28
				h81.86c2.19,0,4.05-1.18,4.41-2.78l9.65-43.46H229.19"/>
			<path id="XMLID_441_" class="st21" d="M328.57,649.63h-57.41c-17.76,0-32.17,10.7-32.17,23.89l0,0h85.85"/>
			<g id="XMLID_437_">
				<path id="XMLID_440_" class="st22" d="M246.09,681.05c0-2.72,2.97-4.92,6.63-4.92c3.66,0,6.63,2.2,6.63,4.92
					c0,2.72-2.97,4.92-6.63,4.92C249.05,685.98,246.09,683.77,246.09,681.05z"/>
				<path id="XMLID_439_" class="st23" d="M251.78,674.97c0.11,1.79-0.03,3.86-1.9,5.84c-1.87,1.98,2.43,3.23,6.74,1.3
					c5.13-2.3,6.56-7.13,6.56-7.13H251.78z"/>
				<path id="XMLID_438_" class="st22" d="M251.31,681.05c0-0.58,0.63-1.04,1.41-1.04c0.78,0,1.41,0.47,1.41,1.04
					c0,0.58-0.63,1.04-1.41,1.04C251.94,682.1,251.31,681.63,251.31,681.05z"/>
			</g>
			<g id="XMLID_432_">
				<path id="XMLID_436_" class="st22" d="M292.42,681.05c0-2.72,2.97-4.92,6.63-4.92c3.66,0,6.63,2.2,6.63,4.92
					c0,2.72-2.97,4.92-6.63,4.92C295.39,685.98,292.42,683.77,292.42,681.05z"/>
				<path id="XMLID_435_" class="st23" d="M298.11,674.97c0.11,1.79-0.03,3.86-1.9,5.84c-1.87,1.98,2.43,3.23,6.74,1.3
					c5.13-2.3,6.56-7.13,6.56-7.13H298.11z"/>
				<path id="XMLID_434_" class="st22" d="M297.64,681.05c0-0.58,0.63-1.04,1.41-1.04c0.78,0,1.41,0.47,1.41,1.04
					c0,0.58-0.63,1.04-1.41,1.04C298.27,682.1,297.64,681.63,297.64,681.05z"/>
			</g>
			<line id="XMLID_431_" class="st24" x1="236.01" y1="618.91" x2="345.31" y2="618.91"/>
			<line id="XMLID_430_" class="st24" x1="242.84" y1="634.37" x2="341.88" y2="634.37"/>
			<line id="XMLID_427_" class="st25" x1="212.17" y1="587.23" x2="198.63" y2="587.23"/>
		</g>
		<g id="XMLID_349_">
			<g id="XMLID_353_">
				<g id="XMLID_381_">
					<g id="XMLID_409_">
						<path id="XMLID_422_" class="st26" d="M180.52,682.7c0.41,0.57,0.1,1.73-2.99,2.68c-3.09,0.95-8.68,0.55-10.9,0.23
							c-2.22-0.32-3.57-0.8-6.86-0.29c-3.29,0.51-8.67,0.29-10.31-0.74c-0.57-0.49-0.18-1.49-0.18-1.49L180.52,682.7z"/>
						<g id="XMLID_412_">
							<defs>
								<path id="SVGID_1_" d="M151.04,675.56c-0.45,1.67-2.29,5.62-1.76,7.53c2.31,1.45,7.26,1.55,10.96,0.86
									c3.71-0.69,6.32,0.72,10.97,0.92c4.57,0.2,8.37-0.74,9.31-2.16c1.02-1.55-6.96-2.75-12.4-3.99
									c-6.08-1.39-9.22-3.61-9.22-3.61L151.04,675.56z"/>
							</defs>
							<use xlink:href="#SVGID_1_"  style="overflow:visible;fill:#1E4275;"/>
							<clipPath id="SVGID_2_">
								<use xlink:href="#SVGID_1_"  style="overflow:visible;"/>
							</clipPath>
							<path id="XMLID_420_" class="st27" d="M160.75,678.79c0,0,1.09-2.28,2.55-3.01"/>
							<path id="XMLID_418_" class="st27" d="M164.88,680.01c0,0,1.09-2.28,2.56-3.02"/>
							<path id="XMLID_416_" class="st27" d="M169.02,681.23c0,0,1.09-2.28,2.56-3.02"/>
						</g>
						<path id="XMLID_410_" class="st28" d="M151.04,668.87v6.68c0,0,1.04,0.26,1.48,0.64c0.43,0.38,1.03,1.64,1.76,1.66
							c2.91,0.09,4.62-2.76,4.62-2.76l1.09-6.07L151.04,668.87z"/>
					</g>
					<g id="XMLID_395_">
						<path id="XMLID_407_" class="st26" d="M106.72,684.17c-0.52,0.52-2.06,0.81-4.55-0.86c-2.49-1.66-4.39-5.59-4.95-7.22
							c-0.56-1.63-0.55-2.74-2.58-4.73c-2.03-1.99-4.07-5.7-3.52-7.23c0.35-0.59,1.73-0.76,1.73-0.76L106.72,684.17z"/>
						<g id="XMLID_398_">
							<defs>
								<path id="SVGID_3_" d="M102.77,661.33c-2.23,0.42-7.82,0.87-9.92,2.05c-0.78,2.17,1.22,5.53,3.66,7.72
									c2.43,2.19,1.83,4.55,3.58,7.75c1.72,3.15,4.49,5.3,6.62,5.32c2.32,0.02,0.36-5.85-0.46-10.03
									c-0.92-4.67,0.44-7.74,0.44-7.74L102.77,661.33z"/>
							</defs>
							<use xlink:href="#SVGID_3_"  style="overflow:visible;fill:#1E4275;"/>
							<clipPath id="SVGID_4_">
								<use xlink:href="#SVGID_3_"  style="overflow:visible;"/>
							</clipPath>
							<path id="XMLID_405_" class="st29" d="M103,669.23c0,0,3.24-0.24,4.76,0.42"/>
							<path id="XMLID_403_" class="st29" d="M103.29,672.53c0,0,3.24-0.24,4.76,0.42"/>
							<path id="XMLID_401_" class="st29" d="M103.58,675.83c0,0,3.24-0.24,4.76,0.42"/>
						</g>
						<path id="XMLID_396_" class="st28" d="M107.76,657.53l-4.99,3.81c0,0,0.13,0.81-0.14,1.26c-0.28,0.45-1.55,1.39-1.27,1.89
							c1.14,1.99,5.33,1.92,5.33,1.92l7.2-4.2L107.76,657.53z"/>
					</g>
					<path id="XMLID_393_" class="st30" d="M168.42,573.7c-10.07,0-17.57,0.56-17.57,0.56c-3.22,1.05-8.75,6.49-10.38,9.94
						c-1.63,3.46-0.97,9.22-0.12,12.19c4.73,16.55,12.63,26.08,14.47,32.64c1.12,4.01-4.23,1.86-4.23,12.03
						c0,9.1,0.45,28.5,0.45,28.5s3.77,1.63,8.76,0.51c0,0,7.56-31.99,8.39-35.66c1.34-5.94,1.81-8.43,1.96-18.7
						C170.37,601.27,168.42,573.7,168.42,573.7z"/>
					<path id="XMLID_391_" class="st23" d="M113.9,662.21c0,0,30.34-22.88,32.69-24.81c2.35-1.93,11.87-39.86,12.49-42.71
						c0,0,9.52-7.2,9.8-13.17l-30.9-11.49c-1.31,3.67-2.39,3.8-3.28,13.38c-0.45,4.88-1.9,25.01-2.93,48.82c0,0-3.19,1.27-8.03,4.76
						c-3.95,2.86-15.98,20.53-15.98,20.53S109.21,661.06,113.9,662.21z"/>
					<path id="XMLID_390_" class="st31" d="M134.7,583.41c-0.45,4.88-1.9,25.01-2.93,48.82c0,0-3.19,1.27-8.03,4.76
						c-3.95,2.86-15.98,20.53-15.98,20.53s0.36,0.87,1.29,1.89c2.91-4.46,10.7-15.22,14.43-19.03c4.72-4.83,10.25-6.28,11.22-6.89
						c0.97-0.6,0.49-2.66,0.82-7.25c0.33-4.59,3.94-44.22,3.94-44.22l-4.01-4.53C135.2,578.96,134.94,580.85,134.7,583.41z"/>
					<path id="XMLID_389_" class="st31" d="M166.85,586.69c0,0-6.05,4.05-15.85,4.05c-9.79,0-16.64-3.2-16.64-3.2l0.34-4.13
						L166.85,586.69z"/>
					<g id="XMLID_382_">
						<defs>
							<path id="SVGID_5_" d="M113.9,662.21c0,0,30.34-22.88,32.69-24.81c2.35-1.93,11.87-39.86,12.49-42.71c0,0,9.52-7.2,9.8-13.17
								l-30.9-11.49c-1.31,3.67-2.39,3.8-3.28,13.38c-0.45,4.88-1.9,25.01-2.93,48.82c0,0-3.19,1.27-8.03,4.76
								c-3.95,2.86-15.98,20.53-15.98,20.53S109.21,661.06,113.9,662.21z"/>
						</defs>
						<clipPath id="SVGID_6_">
							<use xlink:href="#SVGID_5_"  style="overflow:visible;"/>
						</clipPath>
						<g id="XMLID_385_" class="st32">
							<path id="XMLID_388_" class="st33" d="M160.23,569.88c-4.51,6.34-12.58,10.28-14.76,14.5c-2.19,4.22-2.73,12.18-4.55,27.73
								c-1.73,14.78-2.4,19.28-2.65,22.21c-1.92,1.87-7.32,3.06-14.29,10.18c-6.74,6.9-15.48,17.85-15.48,17.85"/>
							<path id="XMLID_387_" class="st33" d="M154.83,586.72c0,0-0.76,9.58-11.85,9.1"/>
							<path id="XMLID_386_" class="st33" d="M109.21,654.43c0.66,2.54,4.56,4.99,9.42,6.38"/>
						</g>
					</g>
				</g>
				<path id="XMLID_380_" class="st34" d="M167.76,535.1c0.65,0.52,0.86,1.52-0.29,4.57l-14.39-8.99L167.76,535.1z"/>
				<g id="XMLID_366_">
					<path id="XMLID_378_" class="st35" d="M179.67,518.11c0.3,0.86,2.13,4.65,2.77,5.77c0.64,1.12-3.38,0.55-3.38,0.55
						L179.67,518.11z"/>
					<g id="XMLID_373_">
						<polygon id="XMLID_376_" class="st28" points="155.91,530.69 166.39,537.74 170.15,530.42 159.91,522.38 						"/>
						<path id="XMLID_374_" class="st35" d="M168.5,533.64c0,0-10.13-5.76-8.59-11.26l10.24,8.05L168.5,533.64z"/>
					</g>
					<path id="XMLID_371_" class="st28" d="M159.94,522.37c0,0,0.22,1.22,0.57,2.17c0.35,0.95,8.52,5.65,10.87,6.37
						c2.35,0.73,5.72,1.03,7.35-5.13c1.64-6.16,1.55-11.81-2.84-15.67c-4.39-3.86-13.12-2.47-17.86,0.71
						C153.28,514.01,153.92,522.32,159.94,522.37z"/>
					<path id="XMLID_369_" class="st22" d="M159.94,522.37l-1.56,3.18c0,0-1.74-0.52-3.27-3.18c-1.67-2.91-4.83-7.94-3.4-10.41
						c1.08-1.87,3.64-2.9,6.23-3.26c0.9-0.12,1.21,0.03,1.6-0.55c0.9-1.34,1.66-2.46,3.49-3.25c1.57-0.68,2.83-0.93,4.62-1.02
						c1.92-0.1,4.04,0.3,5.93,0.53c4.03,0.49,8.16,0.51,12.19,0.05c0.16-0.02,0.35-0.03,0.48,0.04c0.15,0.09,0.15,0.25,0.13,0.39
						c-0.34,2.56-2.82,3.9-5.89,4.69c0,0,4.77,3.22,0.68,4.05c-4.1,0.83-14.05-1.46-14.05-1.46s4.39,2.42,2.54,3.15
						c-1.86,0.73-8.05-1.02-8.05-1.02l-0.1,2.54c0,0-2.37-1.13-4.24-0.18C155.04,517.82,156.07,522.41,159.94,522.37z"/>
					<path id="XMLID_367_" class="st36" d="M160.98,501.11c0,0-4.98,4.33-0.43,8.89c0,0-5.75-1.35-5.43-5.69"/>
				</g>
				<path id="XMLID_365_" class="st37" d="M166.3,538.94c0,0,1.48-2.65,0.83-3.35c-2.14-2.32-9.15-9.16-10.12-8.51
					c-0.97,0.66-3.93,3.6-3.93,3.6L166.3,538.94z"/>
				<path id="XMLID_364_" class="st37" d="M167.47,539.68c0.9,3.07,0.82,8.13,1.38,18.88c0.36,6.91,1.3,26.96,1.3,26.96
					s-7.12,3.47-19.09,2.76c-11.43-0.68-16.36-4.85-16.36-4.85s1.19-28.19,4.95-39.29c5.55-11.44,13.43-13.43,13.43-13.43
					L167.47,539.68z"/>
				<path id="XMLID_363_" class="st34" d="M169.52,572.14l-24.46-25.75c0.81,4.17,13.03,27.09,13.03,27.09l1.98-0.12
					c0,0,2.46,4.23,3.52,5.47c0.7,0.82,4.33,1.59,6.34,2.05C169.82,578.47,169.68,575.35,169.52,572.14z"/>
				<path id="XMLID_362_" class="st34" d="M153.09,530.69l13.21,8.25l1.17,0.73c0.38,0.55,0.47,1.05,0.33,1.49L153.09,530.69z"/>
				<g id="XMLID_354_">
					<g id="XMLID_359_">
						<path id="XMLID_361_" class="st22" d="M175.14,518.46c-0.03-0.43-0.52-0.75-1.1-0.73c-0.57,0.02-1.01,0.39-0.98,0.81
							c0.03,0.43,0.52,0.75,1.1,0.73C174.74,519.25,175.17,518.88,175.14,518.46z"/>
						<path id="XMLID_360_" class="st22" d="M176,516.43l-4.75,1.12c0,0,0.1-1.21,1.74-1.58C174.98,515.52,176,516.43,176,516.43z"
							/>
					</g>
					<path id="XMLID_357_" class="st35" d="M158.26,517.68c0.64-0.17,1.61-0.15,2.16,0.18c0.2,0.12-0.14,0.37-0.34,0.32
						c-1.09-0.3-2.43-0.34-2.97,0.61c-0.03,0.05-0.08,0-0.07-0.04C157.18,518.22,157.57,517.87,158.26,517.68z"/>
					<path id="XMLID_355_" class="st35" d="M158.77,517.76c0.12-0.04,0.4,0.18,0.37,0.24c-0.18,0.06-0.46,0.21-0.6,0.39
						c-0.23,0.3-0.3,0.57-0.26,0.92c0.09,0.81,0.7,1.39,1.77,1.57c0.02,0,0.05,0.04,0.02,0.05c-0.93,0.17-1.98-0.54-2.19-1.15
						C157.65,519.1,157.71,518.13,158.77,517.76z"/>
				</g>
			</g>
			<path id="XMLID_351_" class="st28" d="M144.61,544.13c-1.2-5,11.64-8.16,15.24-1.79c3.53,6.26,12.49,27.79,12.49,27.79
				s26.33,12.33,28.96,12.14c3.52-0.25,12.35,6.9,11.28,8.02c-1.03,1.09-5.5,2.04-8.65,1.37c-2.6-0.55-5.12-4.02-6.13-4.59
				c-5.09-1.27-29.5-7.26-32.74-9.35C161.83,575.64,145.4,547.39,144.61,544.13z"/>
			<path id="XMLID_350_" class="st37" d="M158.92,539.9c0.88,1.46,2.85,4.56,4.78,9.45c1.48,3.74,8.03,19.33,8.03,19.33
				s-4.28,3.93-10.47,4.33c0,0-4.86-7.39-7.83-11.96c-2.97-4.57-7.95-13.64-9.2-16.34c-1.26-2.7,2.8-7.39,5.24-7.76
				C151.91,536.58,157.24,537.1,158.92,539.9z"/>
		</g>
	</g>
</g>
<g>
	<g id="XMLID_618_">
		<path id="XMLID_620_" class="st38" d="M1226.58,550.63c-4.31,0.74-5.9,2.09-8.9,8.12c-3,6.03-9.28,19.73-10.14,20.45
			c0,0-22.86-1.65-28.59-2.31c-2.96-0.34-6.94-0.41-10.57-0.28c-2.33,0.08-6.44,0.31-8.12,0.53c-4.5,0.59-1.32,3.19,2.24,4.86
			c4.73,2.23,12.69,0.07,18.56,0.45c5.87,0.37,27.07,5.1,29.97,4.25c2.9-0.85,15.11-19.46,15.11-19.46L1226.58,550.63z"/>
		<path id="XMLID_619_" class="st38" d="M1178.95,576.9c-2.96-0.28-2.12-0.96-4.27-1.74c-2.15-0.79-3.84-0.65-5.48-1.21
			c-1.71-0.58-1.57,0.68-0.49,1.35c0.48,0.3,1.63,0.54,2.11,0.73c1.2,0.46-2.24,0.59-2.24,0.59L1178.95,576.9z"/>
	</g>
	<g id="XMLID_267_">
		<g id="XMLID_335_">
			<path id="XMLID_347_" class="st26" d="M1181.55,687.43c-0.56,0.49-0.59,1.65,2.12,3.06c2.71,1.41,8.21,1.9,10.44,1.94
				c2.23,0.04,3.67-0.21,6.7,0.8c3.02,1.01,8.28,1.64,10.15,0.91c0.68-0.38,0.6-1.41,0.6-1.41L1181.55,687.43z"/>
			<g id="XMLID_338_">
				<defs>
					<path id="SVGID_7_" d="M1212.02,685.19c-0.04,1.69,0.6,5.78-0.45,7.54c-2.64,1.04-7.44,0.35-10.82-0.9
						c-3.38-1.25-6.3-0.3-10.84-0.84c-4.46-0.53-7.86-2.04-8.36-3.55c-0.54-1.65,7.5-1.55,13.09-1.89c6.26-0.38,9.93-2.03,9.93-2.03
						L1212.02,685.19z"/>
				</defs>
				<use xlink:href="#SVGID_7_"  style="overflow:visible;fill:#1E4275;"/>
				<clipPath id="SVGID_8_">
					<use xlink:href="#SVGID_7_"  style="overflow:visible;"/>
				</clipPath>
				<path id="XMLID_345_" class="st39" d="M1201.73,686.78c0,0-0.4-2.37-1.6-3.31"/>
				<path id="XMLID_343_" class="st39" d="M1197.4,687.3c0,0-0.4-2.37-1.6-3.31"/>
				<path id="XMLID_341_" class="st39" d="M1193.06,687.83c0,0-0.4-2.37-1.6-3.31"/>
			</g>
			<path id="XMLID_336_" class="st28" d="M1213.61,679.3l-1.6,5.88c0,0-1.08,0.08-1.61,0.38c-0.53,0.3-1.46,1.42-2.17,1.33
				c-2.83-0.37-3.67-3.39-3.67-3.39l1.23-15.68L1213.61,679.3z"/>
		</g>
		<g id="XMLID_321_">
			<path id="XMLID_333_" class="st26" d="M1251.03,693.44c0.14,0.63,1.31,1.4,4.51,0.79c3.2-0.61,7.28-3.41,8.77-4.64
				c1.49-1.24,2.17-2.21,5.17-3.26c3-1.05,7.06-3.61,7.53-5.14c0.06-0.63-1.05-1.26-1.05-1.26L1251.03,693.44z"/>
			<g id="XMLID_324_">
				<defs>
					<path id="SVGID_9_" d="M1268.52,674.77c1.7,1.12,6.31,3.41,7.43,5.15c-0.66,2.16-4.47,4.43-7.95,5.52
						c-3.48,1.09-4.4,3.36-7.9,5.58c-3.44,2.18-7.19,3.12-9.06,2.41c-2.04-0.77,3.28-5.24,6.57-8.62c3.68-3.78,4.37-6.93,4.37-6.93
						L1268.52,674.77z"/>
				</defs>
				<use xlink:href="#SVGID_9_"  style="overflow:visible;fill:#1E4275;"/>
				<clipPath id="SVGID_10_">
					<use xlink:href="#SVGID_9_"  style="overflow:visible;"/>
				</clipPath>
				<path id="XMLID_331_" class="st40" d="M1263.48,681.61c0,0-2.69-1.31-4.43-1.24"/>
				<path id="XMLID_329_" class="st40" d="M1261.19,684.4c0,0-2.69-1.31-4.43-1.24"/>
				<path id="XMLID_327_" class="st40" d="M1258.91,687.19c0,0-2.69-1.31-4.43-1.24"/>
			</g>
			<path id="XMLID_322_" class="st28" d="M1266.18,670.76l2.34,4.02c0,0-0.61,0.66-0.65,1.15c-0.04,0.49,0.5,1.75-0.06,2.09
				c-2.22,1.35-5.85-0.13-5.85-0.13l-3.73-6.11L1266.18,670.76z"/>
		</g>
		<path id="XMLID_319_" class="st30" d="M1212.89,586.45c9.69-1.66,18.11-5.45,18.11-5.45c3.41,0.48,8.87,7.64,11.46,10.7
			c2.6,3.06-6.54,12.62-7.11,14.56c-3.69,12.51-6.94,21.31-9.33,27.02c-1.62,3.86-4.02,8.59-4.27,10.08
			c2.4,5.52-7.9,36.38-7.9,36.38s-5.71,1.32-9.03-1.5c0,0,1.89-33.49,2.05-37.16c0.5-12.06,2.81-20.86,3.22-26.02
			C1211.81,593.64,1212.89,586.45,1212.89,586.45z"/>
		<path id="XMLID_317_" class="st23" d="M1259.29,673.98c0,0-22.67-28.14-24.62-30.82c-1.64-2.26-9.36-36.9-9.97-39.71
			c0,0-11.46-10.73-11.74-16.64l21.21-4.35c1.3,3.62,8.16,3.67,13.38,12.33c4.54,7.54,3.3,23.69,0.94,44.42c0,0,3.91,1.54,5.89,5.69
			c2.7,5.68,12.2,26.53,12.2,26.53S1264.26,674.08,1259.29,673.98z"/>
		<path id="XMLID_315_" class="st31" d="M1266.58,671.44c0,0-9.5-20.85-12.2-26.53c-1.97-4.16-5.89-5.69-5.89-5.69
			c2.35-20.73,3.6-36.88-0.94-44.42c-5.22-8.66-12.08-8.71-13.38-12.33l-21.21,4.35c0.11,2.21,1.77,5.09,3.82,7.83
			c3.79-0.3,14.12-1.31,19.93-3.57c0,0,5.59,5.6,7.21,16.03c1.62,10.43,1.72,28.63,1.53,32.3c-0.08,1.52,2.61,1.53,6.31,6.88
			c3.03,4.38,10.26,21.03,13.05,26.45C1266,672.1,1266.58,671.44,1266.58,671.44z"/>
		<g id="XMLID_308_">
			<defs>
				<path id="SVGID_11_" d="M1259.29,673.98c0,0-22.67-28.14-24.62-30.82c-1.64-2.26-9.36-36.9-9.97-39.71
					c0,0-11.46-10.73-11.74-16.64l21.21-4.35c1.3,3.62,8.16,3.67,13.38,12.33c4.54,7.54,3.3,23.69,0.94,44.42
					c0,0,3.91,1.54,5.89,5.69c2.7,5.68,12.2,26.53,12.2,26.53S1264.26,674.08,1259.29,673.98z"/>
			</defs>
			<clipPath id="SVGID_12_">
				<use xlink:href="#SVGID_11_"  style="overflow:visible;"/>
			</clipPath>
			<g id="XMLID_311_" class="st41">
				<path id="XMLID_314_" class="st33" d="M1227.62,585.59c6.54,9.06,12.04,15.19,12.95,29.34c0.92,14.15,2.36,26.27,2.36,26.27
					c0.43,1.84,4.56,2.88,8.1,9.46c3.89,7.24,12.98,24.79,12.98,24.79"/>
				<path id="XMLID_313_" class="st33" d="M1236.29,598.51c-3.07,1.03-6.73,0.69-9.45-2.8c-2.72-3.49-5.45-9.73-5.45-9.73"/>
				<path id="XMLID_312_" class="st33" d="M1254.57,671.51c0,0,9.18,0.58,12.01-4.21"/>
			</g>
		</g>
		<path id="XMLID_307_" class="st37" d="M1234.24,548.4c0,0,1.17,0.61,2.29,0.61c1.72,0.59,6.03,2.81,7.03,4.18
			c2.4,2.46,2.05,7.7-1.04,14.32c-1.54,3.31-8.54,9.99-3.28,18.71c0,0-13.99,5.56-26.77,0.87c-0.2-4.78,1.38-7.61,1.43-12.9
			c-1.81-1.46-3.6-4.13-3.76-5.87c-0.6-6.45,8.08-8.42,14.85-15.6c1.89-2,3.32-1.91,5.89-3.37
			C1232.56,548.4,1234.24,548.4,1234.24,548.4z"/>
		<path id="XMLID_306_" class="st34" d="M1242.52,567.51c0.04-0.08,0.07-0.16,0.11-0.24l-0.87-2.54l-4.19-7.42l-4.27,0.53
			c-0.46,4.07,0.19,11.15,1.79,16.32c0.61,1.98,1.44,3.94,2.23,5.61C1237.3,574.22,1241.38,569.95,1242.52,567.51z"/>
		<path id="XMLID_304_" class="st28" d="M1224.95,552.66c0.06,0.95-2.36,3.06-1.77,4.51c0.6,1.45,3.48,0.35,5.67-1.3
			c2.19-1.65,4.69-5.45,7.68-6.86c0,0-1.24-0.58-1.51-0.96L1224.95,552.66z"/>
		<g id="XMLID_280_">
			<path id="XMLID_303_" class="st22" d="M1230.07,524.19c0,0-2.64-4.13-11.37-3.18c-8.73,0.95-9.98,8.41-9.29,10.91
				c1.05,3.8,5.52,5.63,5.52,5.63L1230.07,524.19z"/>
			<path id="XMLID_301_" class="st28" d="M1229.6,541.44l3.81,2.52l1.68,4.23c0,0-2.39,1.19-3.31,2.22
				c-1.12,1.26-3.63,4.27-6.66,4.53c0,0,0.3-2.72-0.15-4.19c-0.46-1.47-1.84-4.37-1.84-4.37L1229.6,541.44z"/>
			<path id="XMLID_299_" class="st35" d="M1229.6,541.44c0,0,0.54,1.73,0.4,2.94c-0.14,1.2-1.75,3.08-5.5,5.11
				c-0.6-1.41-1.37-3.11-1.37-3.11L1229.6,541.44z"/>
			<path id="XMLID_296_" class="st35" d="M1213.57,536.11c-0.71,1.9-3.65,4.57-3.01,5.05c0.53,0.39,3.03,0.31,3.03,0.31
				s1.84-1.32,1.22-3.16C1214.19,536.45,1213.57,536.11,1213.57,536.11z"/>
			<path id="XMLID_294_" class="st28" d="M1219.95,524.21c-3.55,0.24-7.1,3.89-7.03,7.21c0.07,3.32,1.1,5.13,0.82,7.47
				c-0.29,2.35-0.27,4.6,1.06,7.06c0.88,1.64,3.18,2,6.24,1.46c2.8-0.5,6.63-2.51,7.51-3.14c0.88-0.63,1.05-2.83,1.05-2.83
				s4.18-0.46,6.1-3.3C1237.62,535.3,1237.27,523.04,1219.95,524.21z"/>
			<path id="XMLID_290_" class="st22" d="M1229.6,541.44c0,0,3.82-1.11,3.48-4.26c-0.35-3.23-6.21-3.35-5.98-0.5
				c0.02,0.24-2.29-0.6-2.41-0.66c-0.95-0.46-1.87-0.95-2.74-1.49c-1.77-1.09-3.34-2.38-4.49-3.86c-1.54-2-2.26-4.42-1.62-6.7
				c0.34-1.19,0.69-1.44,2.15-1.85c1.52-0.42,3.14-0.63,4.76-0.49c4.68,0.42,7.31,2.56,7.31,2.56s4.38-1.35,7.65,0.57
				c3.27,1.92,5.58,6.88,2.77,12.02c-2.81,5.13-7.08,7.18-7.08,7.18L1229.6,541.44z"/>
			<path id="XMLID_289_" class="st22" d="M1230.07,524.19c0,0,2.55-1.22,6.41-0.58c3.87,0.64,7.14,4.42,7.23,9.73
				c0.09,5.31-0.61,10.2-2.94,12.13c-2.33,1.92-6.8,4.02-11.66,3.64c0,0,2.76-4.02,0.49-7.67c0,0,2.65,1.24,5.06-1.19
				C1237.08,537.82,1230.07,524.19,1230.07,524.19z"/>
			<g id="XMLID_281_">
				<g id="XMLID_286_">
					<path id="XMLID_288_" class="st22" d="M1216.65,536.94c0.03-0.42,0.52-0.74,1.08-0.72c0.57,0.02,1,0.38,0.97,0.81
						c-0.03,0.42-0.52,0.74-1.08,0.72C1217.05,537.72,1216.62,537.36,1216.65,536.94z"/>
					<path id="XMLID_287_" class="st22" d="M1215.81,534.94l4.69,1.11c0,0-0.1-1.19-1.72-1.56
						C1216.81,534.04,1215.81,534.94,1215.81,534.94z"/>
				</g>
				<path id="XMLID_284_" class="st35" d="M1230.66,536.5c-0.64-0.17-1.59-0.15-2.13,0.18c-0.2,0.12,0.14,0.36,0.33,0.31
					c1.08-0.3,2.4-0.34,2.93,0.6c0.03,0.05,0.08,0,0.07-0.04C1231.73,537.04,1231.34,536.69,1230.66,536.5z"/>
				<path id="XMLID_282_" class="st35" d="M1230.16,536.58c-0.12-0.04-0.39,0.18-0.37,0.24c0.18,0.06,0.46,0.21,0.59,0.38
					c0.23,0.3,0.29,0.56,0.26,0.91c-0.09,0.8-0.69,1.37-1.74,1.56c-0.02,0-0.05,0.04-0.02,0.05c0.91,0.17,1.95-0.53,2.16-1.14
					C1231.27,537.9,1231.2,536.95,1230.16,536.58z"/>
			</g>
		</g>
		<path id="XMLID_278_" class="st28" d="M1205.04,588.9c1.36-0.06,2.02-0.25,1.33-0.67c-1.23-0.75-2.35-1.24-2.54-2.13
			c-0.22-1.08,1.22-0.35,2.02-0.05c2.02,0.75,4.7,1.15,6.38,2.4c4.86-0.94,17.72-5.08,26.73-8.45c0,0-4.99-15.33-5.55-19.32
			c-0.54-3.85,0.14-7.78,5.92-8.76c2.8-0.47,4.58,1.91,5.59,6.88c1.01,4.97,3.88,22.43,3.54,24.34c-0.35,1.91-3.15,3.33-13.38,5.76
			c-5.77,1.37-22.26,4.42-22.26,4.42s-1.6,0.67-4.19,1.09"/>
		<g id="XMLID_270_">
			<path id="XMLID_277_" class="st15" d="M1195.67,601.8v-6.83c0-3.62,3.95-6.55,8.81-6.55l0,0c4.87,0,8.82,2.93,8.82,6.55v6.83"/>
			<polygon id="XMLID_276_" class="st16" points="1215.9,598.5 1178.55,598.5 1174.17,637.26 1211.51,637.26 			"/>
			<polygon id="XMLID_275_" class="st17" points="1222.45,598.5 1215.9,598.5 1211.51,637.26 1217.33,637.26 1221.02,637.26 
				1226.84,637.26 			"/>
			<polygon id="XMLID_274_" class="st18" points="1211.51,637.26 1219.17,632.16 1226.84,637.26 			"/>
			<path id="XMLID_273_" class="st18" d="M1186.85,602.32c0-0.63,0.68-1.14,1.53-1.14c0.84,0,1.53,0.51,1.53,1.14
				c0,0.63-0.68,1.14-1.53,1.14C1187.54,603.45,1186.85,602.94,1186.85,602.32z"/>
			<path id="XMLID_272_" class="st18" d="M1204.48,602.32c0-0.63,0.68-1.14,1.53-1.14c0.85,0,1.53,0.51,1.53,1.14
				c0,0.63-0.68,1.14-1.53,1.14C1205.17,603.45,1204.48,602.94,1204.48,602.32z"/>
			<path id="XMLID_271_" class="st15" d="M1188.38,601.8v-6.83c0-3.62,3.95-6.55,8.81-6.55l0,0c4.87,0,8.81,2.93,8.81,6.55v6.83"/>
		</g>
		<path id="XMLID_268_" class="st28" d="M1208.64,594.42c-2.19,0.36-5.09,0.54-8.33-0.01c-0.58-0.1-1.16-0.22-1.72-0.38
			c-2.59-0.71-5.89-2.7-4.51-5.03c0.35-0.6,0.87-1.2,1.68-1.46c1.02-0.32,2.18-0.02,3.21,0.28c1.09,0.32,2.1,0.69,3.24,0.88
			c0.84,0.14,2.05,0.12,2.84,0.19"/>
	</g>
</g>
<path id="XMLID_617_" class="st8" d="M1101.54,694c0,0,7.8-12.53-1.44-21.11c-9.24-8.58-19.47-5.22-19.47-5.22
	s-8.58-19.86-30.03-13.94c-21.45,5.92-13.86,20.63-13.86,20.63s-5.61-1.47-8.91,1.72c-3.3,3.18,0,6.62,0,6.62
	s-22.77,1.29-22.77,11.31H1101.54z"/>
</svg>
