<?xml version="1.0" standalone="no"?>
<!DOCTYPE svg PUBLIC "-//W3C//DTD SVG 20010904//EN"
 "http://www.w3.org/TR/2001/REC-SVG-20010904/DTD/svg10.dtd">
<svg version="1.0" xmlns="http://www.w3.org/2000/svg"
 width="512.000000pt" height="512.000000pt" viewBox="0 0 512.000000 512.000000"
 preserveAspectRatio="xMidYMid meet">
<metadata>
Created by potrace 1.16, written by Peter Selinger 2001-2019
</metadata>
<g transform="translate(0.000000,512.000000) scale(0.100000,-0.100000)"
fill="#000000" stroke="none">
<path d="M0 2560 l0 -2560 2560 0 2560 0 0 2560 0 2560 -2560 0 -2560 0 0
-2560z m1710 1529 c0 -12 -22 -45 -49 -75 -27 -29 -58 -73 -69 -96 -12 -24
-91 -324 -176 -668 -93 -374 -168 -653 -186 -694 l-29 -69 72 7 c275 26 517
103 749 237 69 40 98 48 98 27 -1 -38 -81 -322 -99 -351 -12 -19 -38 -43 -59
-53 -35 -18 -74 -19 -702 -19 l-665 0 -3 23 c-3 17 11 38 47 77 28 30 60 75
72 101 11 26 99 362 195 747 96 384 181 711 188 726 19 36 54 67 96 85 28 12
84 15 278 16 240 0 242 0 242 -21z m2010 -3 c224 -53 343 -173 357 -360 10
-135 -36 -236 -161 -353 -114 -107 -309 -199 -489 -233 l-67 -12 44 -28 c83
-53 147 -152 226 -350 120 -302 261 -502 406 -575 85 -43 200 -47 339 -10 55
15 109 29 121 32 16 4 24 -2 33 -26 7 -16 10 -35 6 -41 -13 -21 -168 -91 -258
-116 -133 -37 -344 -44 -477 -16 -127 27 -197 54 -284 113 -91 61 -181 156
-258 273 -80 121 -109 181 -218 446 -97 238 -113 270 -133 270 -8 0 -40 -108
-91 -312 -43 -172 -86 -329 -97 -350 -11 -22 -36 -47 -62 -63 -44 -25 -44 -25
-290 -25 l-247 0 0 23 c0 13 13 33 34 49 62 50 83 102 166 421 151 581 239
933 250 999 12 77 1 144 -30 189 -11 15 -20 39 -20 54 l0 26 563 -4 c490 -3
572 -6 637 -21z m-2650 -2193 c39 -27 49 -45 50 -90 0 -33 -6 -50 -29 -75 -25
-28 -36 -33 -76 -33 -42 0 -51 4 -76 35 -42 50 -40 101 5 146 39 39 85 45 126
17z m3837 -15 c13 -12 23 -33 23 -48 0 -15 -29 -149 -65 -298 -36 -150 -65
-284 -65 -297 0 -23 4 -25 41 -25 33 0 40 -3 37 -17 -5 -25 -102 -62 -161 -63
-57 0 -97 31 -97 77 l-1 28 -27 -31 c-91 -105 -239 -98 -299 15 -64 122 17
332 157 404 46 24 64 28 114 24 52 -3 63 -8 88 -36 16 -18 31 -31 32 -29 2 1
16 54 31 116 26 106 27 124 10 180 -7 22 -6 22 76 22 71 0 86 -3 106 -22z
m-4287 -35 c0 -4 -12 -24 -27 -46 -20 -29 -41 -99 -88 -295 -34 -141 -65 -266
-69 -278 -6 -20 -5 -21 51 -12 74 11 143 33 215 69 32 16 62 29 67 29 15 0
-27 -143 -46 -157 -26 -20 -533 -19 -533 1 0 7 6 19 13 25 25 20 46 85 113
360 45 186 73 280 85 292 16 16 35 19 119 19 55 0 100 -3 100 -7z m2471 -19
c119 -55 129 -189 22 -283 -44 -39 -134 -81 -173 -81 -26 0 -25 -2 9 -39 16
-17 45 -70 66 -118 42 -101 81 -166 125 -208 28 -27 38 -30 93 -30 34 0 77 4
95 8 53 14 40 -16 -20 -44 -45 -21 -66 -24 -162 -24 -95 0 -117 3 -151 22 -85
45 -148 137 -224 331 -18 45 -36 82 -40 82 -4 0 -20 -57 -36 -127 -39 -170
-42 -173 -175 -173 -55 0 -100 4 -100 8 0 5 9 17 20 27 24 21 40 76 110 360
49 200 53 235 35 293 l-8 24 234 -4 c213 -3 238 -5 280 -24z m928 -175 c17 -6
42 -27 55 -46 l24 -34 6 25 c12 48 43 66 113 66 50 0 63 -3 63 -15 0 -9 -21
-104 -47 -212 -43 -181 -45 -197 -30 -208 9 -7 29 -10 43 -7 45 8 25 -29 -31
-57 -103 -52 -208 -27 -208 48 l0 31 -33 -39 c-70 -81 -172 -91 -243 -23 -60
57 -75 132 -45 233 51 173 205 282 333 238z m-2410 -15 c13 -9 31 -34 41 -56
l18 -40 21 30 c24 35 112 82 151 82 46 0 90 -21 105 -51 22 -41 19 -92 -15
-234 -17 -71 -29 -134 -26 -142 3 -7 20 -13 41 -13 51 0 44 -22 -17 -51 -66
-31 -156 -33 -187 -5 -34 31 -35 71 -1 210 31 128 34 166 14 173 -17 6 -63
-36 -84 -77 -17 -33 -70 -217 -70 -244 0 -4 16 -6 35 -4 50 6 43 -20 -15 -51
-31 -18 -61 -25 -98 -26 -47 0 -57 4 -78 28 -32 37 -31 70 7 222 33 130 33
155 0 155 -48 0 -91 -90 -135 -282 l-28 -118 -94 0 c-86 0 -95 2 -90 18 15 48
96 396 96 412 0 10 -7 25 -15 34 -30 30 -17 36 74 36 97 0 115 -8 127 -56 l7
-25 31 30 c63 60 137 78 185 45z m820 -17 c49 -33 68 -81 51 -132 -21 -64
-103 -106 -232 -120 -67 -7 -68 -8 -62 -34 26 -111 101 -145 189 -85 27 18 41
22 48 15 17 -17 -21 -59 -82 -94 -112 -63 -247 -44 -311 45 -95 131 -1 354
178 420 69 26 170 19 221 -15z m1102 5 c109 -57 143 -171 86 -295 -67 -146
-226 -225 -370 -183 -31 9 -72 30 -91 47 -124 108 -61 340 116 428 51 26 73
31 133 31 60 0 82 -5 126 -28z m-2479 1 c29 -34 27 -54 -13 -220 -22 -92 -37
-173 -35 -180 3 -7 21 -13 41 -13 52 0 44 -23 -17 -51 -68 -30 -156 -33 -186
-5 -36 31 -35 65 2 225 37 155 44 215 26 226 -5 3 -10 13 -10 21 0 23 172 20
192 -3z"/>
<path d="M3065 3979 c16 -50 4 -123 -69 -417 -42 -166 -76 -307 -76 -313 0 -8
36 -10 133 -7 110 4 143 9 200 31 199 77 307 234 307 447 0 94 -21 141 -84
197 -68 60 -117 74 -280 80 l-138 6 7 -24z"/>
<path d="M4585 1581 c-70 -29 -132 -204 -111 -315 13 -66 79 -57 125 17 26 43
66 215 57 250 -6 26 -31 58 -44 56 -4 0 -16 -4 -27 -8z"/>
<path d="M2800 1763 c0 -21 -13 -89 -29 -150 l-29 -113 48 0 c60 0 97 13 133
48 38 36 49 58 58 112 14 88 -36 140 -135 140 l-46 0 0 -37z"/>
<path d="M3957 1561 c-50 -44 -79 -120 -85 -217 -7 -126 26 -158 93 -91 57 57
103 251 73 307 -19 35 -41 36 -81 1z"/>
<path d="M2257 1583 c-20 -23 -53 -97 -62 -142 -7 -33 -7 -34 21 -27 69 17
108 65 108 135 1 42 -1 46 -25 49 -15 2 -32 -5 -42 -15z"/>
<path d="M3366 1563 c-34 -51 -54 -111 -72 -216 -16 -92 -13 -137 11 -157 51
-42 125 104 150 298 14 107 -39 151 -89 75z"/>
</g>
</svg>
