<svg width="512" height="512" viewBox="0 0 512 512" fill="none" xmlns="http://www.w3.org/2000/svg">
<path d="M393.8 136.887C395.8 132.642 396.8 130.52 397.8 128.398C411.7 97.0943 429.5 100.543 441.4 137.683C442.6 141.397 443.2 141.662 444.4 138.479C445.2 136.091 446.1 134.234 446.9 131.847C456.2 107.706 468.5 100.543 480 114.073C492.1 128.398 498.6 153.6 498.7 188.883C498.9 265.02 498.8 340.891 498.8 417.028C498.8 444.087 492.5 461.065 482.4 461.065C478.4 461.065 474.4 460.269 470.4 461.331C466.3 462.392 465.1 458.943 465.1 447.536C465.3 373.256 465.2 298.976 465.2 224.696C465.2 221.513 465.2 218.595 465.2 215.411C465.1 198.168 462.5 191.005 456.3 190.209C450.7 189.413 446.8 198.433 446.2 213.554C446.1 217.003 446.2 220.717 446.2 224.166C446.2 288.365 446.2 352.298 446.2 416.497C446.2 444.618 440.1 461.065 429.5 460.8C424.1 460.535 416.8 467.167 413.7 457.882C411 449.923 412.8 431.088 412.8 417.028C412.8 351.237 412.8 285.181 412.8 219.391C412.8 196.046 407.1 184.108 399.7 192.066C395.1 197.107 393.6 206.922 393.6 219.656C393.7 281.202 393.6 342.483 393.6 404.029C393.6 408.804 393.6 413.845 393.6 418.62C393.3 444.352 387.1 460.535 377.5 460.8C373.5 461.065 369.5 460.004 365.5 461.065C361.2 462.126 359.9 458.943 360 446.74C360.2 342.483 360.1 238.226 360.1 133.704C360.1 129.194 360.2 124.949 360.1 120.439C359.9 114.603 360.8 112.746 363 112.746C372.2 113.011 381.3 113.011 390.5 112.746C392.8 112.746 393.9 114.338 393.7 120.97C393.5 125.745 393.7 129.99 393.8 136.887Z" fill="#02B9EF"/>
<path d="M181.8 280.671C181.8 317.016 181.8 353.094 181.8 389.438C181.7 436.659 172.4 461.065 154.6 461.331C146.8 461.331 138.9 461.596 131.1 461.331C115.3 460.8 103.7 432.945 102.9 391.03C102.3 361.053 102.2 330.81 102.8 300.833C103.6 257.857 116 227.615 132.4 227.084C136.7 226.819 141.1 227.084 145.4 227.084C149.6 226.819 151.2 220.452 151.1 209.84C151.1 199.229 149.3 194.454 145.3 194.984C140.8 195.25 136.3 195.25 131.8 194.984C120.8 194.454 114.7 178.537 114.8 149.886C114.8 138.213 112.8 122.562 115.7 115.664C118.2 109.828 123.9 113.542 128.2 113.542C139.4 113.277 150.5 113.542 161.7 113.542C173.6 113.542 181.7 135.03 181.8 166.864C181.9 204.535 181.8 242.736 181.8 280.671ZM151.2 340.891C151.2 336.381 151.2 332.137 151.2 327.627C151.2 300.568 151.2 300.568 141 301.629C135.9 302.16 133.1 309.057 133 323.117C132.9 334.259 132.9 345.136 133 356.278C133.1 375.378 136.3 380.419 146.7 381.214C154.4 381.745 150.5 367.42 151.2 359.461C151.6 353.625 151.1 346.993 151.2 340.891ZM270.8 251.755C270.8 292.344 271 333.198 270.7 373.787C270.5 405.09 267.7 433.476 256.3 450.189C251.7 456.821 246.7 460.535 241.5 460.8C230 461.331 218.5 460.8 207 461.331C204.2 461.331 203.6 458.678 203.7 452.046C203.9 440.904 203.6 430.027 203.8 418.885C204 397.662 210.1 381.48 218.1 380.684C223.3 380.153 228.4 380.419 233.6 380.684C237.8 380.684 240.1 376.174 240.1 364.236C240.1 352.033 237.9 347.789 233.7 347.523C226.7 346.993 219.7 349.646 212.8 344.34C200.9 335.055 192.2 308.792 191.9 276.162C191.3 224.431 191.7 172.701 191.6 120.97C191.6 115.134 192.3 113.277 194.5 113.542C202.7 113.807 210.8 114.073 219 113.542C222.6 113.277 222.1 118.582 222.1 124.419C222.1 163.416 222.1 202.147 222.1 241.144C222.1 258.122 225.1 267.142 230.7 267.673C237.3 268.203 240.2 261.04 240.2 243.266C240.2 204.004 240.3 164.477 240.1 125.215C240.1 115.93 241 113.277 244.5 113.542C251.8 114.338 259.2 114.603 266.5 113.542C270.5 113.011 271.1 116.991 271 126.276C270.7 167.925 270.8 209.84 270.8 251.755ZM16 311.975C16 268.734 16 225.227 16 181.986C16 139.54 25.8 113.011 41.9 113.542C52.4 113.807 62.9 110.359 73.3 115.664C86.6 122.562 95 149.886 95.1 186.23C95.2 224.696 95.1 263.163 95.1 301.629C95.1 349.911 84.4 379.358 66.2 380.684C60.7 381.215 55.2 380.949 49.7 380.684C47.2 380.419 46.1 382.541 46.2 389.704C46.4 400.315 46.3 410.926 46.2 421.538C46 444.352 39.9 460.8 31.4 461.065C26.4 461.331 20.1 466.636 16.9 458.943C13.9 451.78 16.1 434.802 16 422.068C15.9 385.459 16 348.585 16 311.975ZM46.2 246.98C46.2 255.469 46.2 263.693 46.2 272.182C46.2 302.16 46.2 302.16 57.5 299.507C62.4 298.446 64.7 292.079 64.8 279.08C64.9 264.224 64.6 249.103 64.9 234.247C65.5 191.27 62.5 195.515 49.3 195.25C46.9 195.25 46.1 197.107 46.1 203.474C46.3 217.799 46.2 232.39 46.2 246.98Z" fill="#06306F"/>
<path d="M299.1 312.506C299.1 277.223 299 241.675 299.2 206.392C299.2 198.168 298.5 194.719 295.1 194.984C290.6 195.515 284.6 198.964 282.1 193.127C279 185.434 281.4 168.987 281 156.253C281 155.457 281 154.396 281 153.6C281 141.132 279.5 126.541 281.5 117.256C283.5 107.971 289.6 113.807 293.9 110.889C302.4 105.053 308.8 92.0539 314 74.0145C317.6 61.8114 322.1 53.057 327.9 50.1389C331 48.5472 332.9 49.6083 332.7 60.2197C332.4 75.0757 332.7 90.1969 332.6 105.318C332.5 111.685 333.4 113.807 335.8 113.542C339.8 113.277 343.8 113.807 347.8 113.277C350.2 113.011 351 115.399 350.9 121.766C350.8 143.519 350.8 165.007 350.9 186.761C350.9 192.862 350.3 196.046 347.8 195.25C347.3 194.984 346.8 195.25 346.3 195.25C341.9 196.311 335.8 189.944 333.5 197.903C331.3 205.331 332.7 220.717 332.7 232.655C332.7 304.812 332.6 376.705 332.8 448.862C332.8 458.943 331.8 462.126 328 461.331C324.4 460.535 320.7 461.331 317 461.065C306.2 460.004 299.1 440.638 299.1 411.988C299.1 378.827 299.1 345.666 299.1 312.506Z" fill="#02B9EF"/>
</svg>
