<svg width="200" height="100" viewBox="0 0 200 100" fill="none" xmlns="http://www.w3.org/2000/svg">
<path d="M153.828 26.7358C154.609 25.9067 155 25.4922 155.391 25.0777C160.82 18.9637 167.773 19.6373 172.422 26.8912C172.891 27.6166 173.125 27.6684 173.594 27.0466C173.906 26.5803 174.258 26.2176 174.57 25.7513C178.203 21.0363 183.008 19.6373 187.5 22.2798C192.227 25.0777 194.766 30 194.805 36.8912C194.883 51.7616 194.844 66.5803 194.844 81.4508C194.844 86.7357 192.383 90.0518 188.437 90.0518C186.875 90.0518 185.312 89.8964 183.75 90.1036C182.148 90.3109 181.68 89.6373 181.68 87.4093C181.758 72.9015 181.719 58.3938 181.719 43.886C181.719 43.2642 181.719 42.6943 181.719 42.0725C181.68 38.7047 180.664 37.3057 178.242 37.1503C176.055 36.9948 174.531 38.7565 174.297 41.7098C174.258 42.3834 174.297 43.1088 174.297 43.7824C174.297 56.3212 174.297 68.8083 174.297 81.3471C174.297 86.8394 171.914 90.0518 167.773 90C165.664 89.9482 162.813 91.2435 161.602 89.4301C160.547 87.8756 161.25 84.1969 161.25 81.4508C161.25 68.601 161.25 55.6995 161.25 42.8497C161.25 38.2901 159.023 35.9585 156.133 37.513C154.336 38.4974 153.75 40.4145 153.75 42.9016C153.789 54.9223 153.75 66.8912 153.75 78.9119C153.75 79.8446 153.75 80.829 153.75 81.7617C153.633 86.7876 151.211 89.9482 147.461 90C145.898 90.0518 144.336 89.8446 142.773 90.0518C141.094 90.2591 140.586 89.6373 140.625 87.2539C140.703 66.8912 140.664 46.5285 140.664 26.114C140.664 25.2332 140.703 24.4041 140.664 23.5233C140.586 22.3834 140.938 22.0207 141.797 22.0207C145.391 22.0725 148.945 22.0725 152.539 22.0207C153.438 22.0207 153.867 22.3316 153.789 23.6269C153.711 24.5596 153.789 25.3886 153.828 26.7358Z" fill="#02B9EF"/>
<path d="M71.0156 54.8187C71.0156 61.9171 71.0156 68.9637 71.0156 76.0622C70.9766 85.285 67.3438 90.0518 60.3906 90.1036C57.3438 90.1036 54.2578 90.1555 51.2109 90.1036C45.0391 90 40.5078 84.5596 40.1953 76.3731C39.9609 70.5182 39.9219 64.6114 40.1563 58.7565C40.4688 50.3627 45.3125 44.456 51.7188 44.3523C53.3984 44.3005 55.1172 44.3523 56.7969 44.3523C58.4375 44.3005 59.0625 43.057 59.0234 40.9845C59.0234 38.9119 58.3203 37.9793 56.7578 38.0829C55 38.1347 53.2422 38.1347 51.4844 38.0829C47.1875 37.9793 44.8047 34.8705 44.8438 29.2746C44.8438 26.9948 44.0625 23.9378 45.1953 22.5907C46.1719 21.4508 48.3984 22.1762 50.0781 22.1762C54.4531 22.1244 58.7891 22.1762 63.1641 22.1762C67.8125 22.1762 70.9766 26.3731 71.0156 32.5907C71.0547 39.9482 71.0156 47.4093 71.0156 54.8187ZM59.0625 66.5803C59.0625 65.6995 59.0625 64.8705 59.0625 63.9897C59.0625 58.7047 59.0625 58.7047 55.0781 58.9119C53.0859 59.0156 51.9922 60.3627 51.9531 63.1088C51.9141 65.285 51.9141 67.4093 51.9531 69.5855C51.9922 73.3161 53.2422 74.3005 57.3047 74.456C60.3125 74.5596 58.7891 71.7617 59.0625 70.2073C59.2188 69.0674 59.0234 67.772 59.0625 66.5803ZM105.781 49.171C105.781 57.0985 105.859 65.0777 105.742 73.0052C105.664 79.1192 104.57 84.6632 100.117 87.9275C98.3203 89.2228 96.3672 89.9482 94.3359 90C89.8438 90.1036 85.3516 90 80.8594 90.1036C79.7656 90.1036 79.5313 89.5855 79.5703 88.2902C79.6484 86.114 79.5313 83.9897 79.6094 81.8135C79.6875 77.6684 82.0703 74.5078 85.1953 74.3524C87.2266 74.2487 89.2188 74.3005 91.25 74.3524C92.8906 74.3524 93.7891 73.4715 93.7891 71.1399C93.7891 68.7565 92.9297 67.9275 91.2891 67.8757C88.5547 67.772 85.8203 68.2902 83.125 67.2539C78.4766 65.4404 75.0781 60.3109 74.9609 53.9378C74.7266 43.8342 74.8828 33.7306 74.8438 23.6269C74.8438 22.487 75.1172 22.1244 75.9766 22.1762C79.1797 22.228 82.3438 22.2798 85.5469 22.1762C86.9531 22.1244 86.7578 23.1606 86.7578 24.3005C86.7578 31.9171 86.7578 39.4819 86.7578 47.0985C86.7578 50.4145 87.9297 52.1762 90.1172 52.2798C92.6953 52.3834 93.8281 50.9845 93.8281 47.513C93.8281 39.8446 93.8672 32.1244 93.7891 24.456C93.7891 22.6425 94.1406 22.1244 95.5078 22.1762C98.3594 22.3316 101.25 22.3834 104.102 22.1762C105.664 22.0725 105.898 22.8497 105.859 24.6632C105.742 32.7979 105.781 40.9845 105.781 49.171ZM6.25001 60.9327C6.25001 52.4871 6.25001 43.9897 6.25001 35.5441C6.25001 27.2539 10.0781 22.0725 16.3672 22.1762C20.4688 22.228 24.5703 21.5544 28.6328 22.5907C33.8281 23.9378 37.1094 29.2746 37.1484 36.3731C37.1875 43.886 37.1484 51.399 37.1484 58.9119C37.1484 68.342 32.9688 74.0933 25.8594 74.3524C23.7109 74.456 21.5625 74.4042 19.4141 74.3524C18.4375 74.3005 18.0078 74.715 18.0469 76.114C18.125 78.1865 18.0859 80.2591 18.0469 82.3316C17.9688 86.7876 15.5859 90 12.2656 90.0518C10.3125 90.1036 7.85157 91.1399 6.60157 89.6373C5.42969 88.2384 6.28907 84.9223 6.25001 82.4353C6.21095 75.285 6.25001 68.0829 6.25001 60.9327ZM18.0469 48.2384C18.0469 49.8964 18.0469 51.5026 18.0469 53.1606C18.0469 59.0156 18.0469 59.0156 22.4609 58.4974C24.375 58.2902 25.2734 57.0466 25.3125 54.5078C25.3516 51.6062 25.2344 48.6529 25.3516 45.7513C25.5859 37.3575 24.4141 38.1865 19.2578 38.1347C18.3203 38.1347 18.0078 38.4974 18.0078 39.7409C18.0859 42.5389 18.0469 45.3886 18.0469 48.2384Z" fill="#06306F"/>
<path d="M116.836 61.0363C116.836 54.1451 116.797 47.2021 116.875 40.3109C116.875 38.7047 116.602 38.0311 115.273 38.0829C113.516 38.1865 111.172 38.8601 110.195 37.7202C108.984 36.2176 109.922 33.0052 109.766 30.5181C109.766 30.3627 109.766 30.1555 109.766 30C109.766 27.5648 109.18 24.715 109.961 22.9016C110.742 21.0881 113.125 22.228 114.805 21.658C118.125 20.5181 120.625 17.9793 122.656 14.456C124.062 12.0725 125.82 10.3627 128.086 9.79275C129.297 9.48187 130.039 9.68913 129.961 11.7617C129.844 14.6632 129.961 17.6166 129.922 20.57C129.883 21.8135 130.234 22.228 131.172 22.1762C132.734 22.1244 134.297 22.228 135.859 22.1244C136.797 22.0726 137.109 22.5389 137.07 23.7824C137.031 28.0311 137.031 32.228 137.07 36.4767C137.07 37.6684 136.836 38.2902 135.859 38.1347C135.664 38.0829 135.469 38.1347 135.273 38.1347C133.555 38.342 131.172 37.0985 130.273 38.6529C129.414 40.1036 129.961 43.1088 129.961 45.4404C129.961 59.5337 129.922 73.5751 130 87.6684C130 89.6373 129.609 90.2591 128.125 90.1036C126.719 89.9482 125.273 90.1036 123.828 90.0518C119.609 89.8446 116.836 86.0622 116.836 80.4663C116.836 73.9896 116.836 67.513 116.836 61.0363Z" fill="#02B9EF"/>
</svg>
